<?xml version="1.0" encoding="utf-8"?>
<svg xmlns="http://www.w3.org/2000/svg" xmlns:xlink="http://www.w3.org/1999/xlink" width="600" height="400" viewBox="0 0 2400 1600">
<defs>
  <clipPath id="clip560">
    <rect x="0" y="0" width="2400" height="1600"/>
  </clipPath>
</defs>
<path clip-path="url(#clip560)" d="
M0 1600 L2400 1600 L2400 0 L0 0  Z
  " fill="#ffffff" fill-rule="evenodd" fill-opacity="1"/>
<defs>
  <clipPath id="clip561">
    <rect x="480" y="0" width="1681" height="1600"/>
  </clipPath>
</defs>
<path clip-path="url(#clip560)" d="
M193.936 1486.45 L2352.76 1486.45 L2352.76 47.2441 L193.936 47.2441  Z
  " fill="#ffffff" fill-rule="evenodd" fill-opacity="1"/>
<defs>
  <clipPath id="clip562">
    <rect x="193" y="47" width="2160" height="1440"/>
  </clipPath>
</defs>
<polyline clip-path="url(#clip562)" style="stroke:#222255; stroke-width:2; stroke-opacity:0.1; fill:none" points="
  300.93,1486.45 300.93,47.2441 
  "/>
<polyline clip-path="url(#clip562)" style="stroke:#222255; stroke-width:2; stroke-opacity:0.1; fill:none" points="
  625.069,1486.45 625.069,47.2441 
  "/>
<polyline clip-path="url(#clip562)" style="stroke:#222255; stroke-width:2; stroke-opacity:0.1; fill:none" points="
  949.207,1486.45 949.207,47.2441 
  "/>
<polyline clip-path="url(#clip562)" style="stroke:#222255; stroke-width:2; stroke-opacity:0.1; fill:none" points="
  1273.35,1486.45 1273.35,47.2441 
  "/>
<polyline clip-path="url(#clip562)" style="stroke:#222255; stroke-width:2; stroke-opacity:0.1; fill:none" points="
  1597.48,1486.45 1597.48,47.2441 
  "/>
<polyline clip-path="url(#clip562)" style="stroke:#222255; stroke-width:2; stroke-opacity:0.1; fill:none" points="
  1921.62,1486.45 1921.62,47.2441 
  "/>
<polyline clip-path="url(#clip562)" style="stroke:#222255; stroke-width:2; stroke-opacity:0.1; fill:none" points="
  2245.76,1486.45 2245.76,47.2441 
  "/>
<polyline clip-path="url(#clip562)" style="stroke:#222255; stroke-width:2; stroke-opacity:0.05; fill:none" points="
  236.103,1486.45 236.103,47.2441 
  "/>
<polyline clip-path="url(#clip562)" style="stroke:#222255; stroke-width:2; stroke-opacity:0.05; fill:none" points="
  365.758,1486.45 365.758,47.2441 
  "/>
<polyline clip-path="url(#clip562)" style="stroke:#222255; stroke-width:2; stroke-opacity:0.05; fill:none" points="
  430.586,1486.45 430.586,47.2441 
  "/>
<polyline clip-path="url(#clip562)" style="stroke:#222255; stroke-width:2; stroke-opacity:0.05; fill:none" points="
  495.413,1486.45 495.413,47.2441 
  "/>
<polyline clip-path="url(#clip562)" style="stroke:#222255; stroke-width:2; stroke-opacity:0.05; fill:none" points="
  560.241,1486.45 560.241,47.2441 
  "/>
<polyline clip-path="url(#clip562)" style="stroke:#222255; stroke-width:2; stroke-opacity:0.05; fill:none" points="
  689.897,1486.45 689.897,47.2441 
  "/>
<polyline clip-path="url(#clip562)" style="stroke:#222255; stroke-width:2; stroke-opacity:0.05; fill:none" points="
  754.724,1486.45 754.724,47.2441 
  "/>
<polyline clip-path="url(#clip562)" style="stroke:#222255; stroke-width:2; stroke-opacity:0.05; fill:none" points="
  819.552,1486.45 819.552,47.2441 
  "/>
<polyline clip-path="url(#clip562)" style="stroke:#222255; stroke-width:2; stroke-opacity:0.05; fill:none" points="
  884.38,1486.45 884.38,47.2441 
  "/>
<polyline clip-path="url(#clip562)" style="stroke:#222255; stroke-width:2; stroke-opacity:0.05; fill:none" points="
  1014.04,1486.45 1014.04,47.2441 
  "/>
<polyline clip-path="url(#clip562)" style="stroke:#222255; stroke-width:2; stroke-opacity:0.05; fill:none" points="
  1078.86,1486.45 1078.86,47.2441 
  "/>
<polyline clip-path="url(#clip562)" style="stroke:#222255; stroke-width:2; stroke-opacity:0.05; fill:none" points="
  1143.69,1486.45 1143.69,47.2441 
  "/>
<polyline clip-path="url(#clip562)" style="stroke:#222255; stroke-width:2; stroke-opacity:0.05; fill:none" points="
  1208.52,1486.45 1208.52,47.2441 
  "/>
<polyline clip-path="url(#clip562)" style="stroke:#222255; stroke-width:2; stroke-opacity:0.05; fill:none" points="
  1338.17,1486.45 1338.17,47.2441 
  "/>
<polyline clip-path="url(#clip562)" style="stroke:#222255; stroke-width:2; stroke-opacity:0.05; fill:none" points="
  1403,1486.45 1403,47.2441 
  "/>
<polyline clip-path="url(#clip562)" style="stroke:#222255; stroke-width:2; stroke-opacity:0.05; fill:none" points="
  1467.83,1486.45 1467.83,47.2441 
  "/>
<polyline clip-path="url(#clip562)" style="stroke:#222255; stroke-width:2; stroke-opacity:0.05; fill:none" points="
  1532.66,1486.45 1532.66,47.2441 
  "/>
<polyline clip-path="url(#clip562)" style="stroke:#222255; stroke-width:2; stroke-opacity:0.05; fill:none" points="
  1662.31,1486.45 1662.31,47.2441 
  "/>
<polyline clip-path="url(#clip562)" style="stroke:#222255; stroke-width:2; stroke-opacity:0.05; fill:none" points="
  1727.14,1486.45 1727.14,47.2441 
  "/>
<polyline clip-path="url(#clip562)" style="stroke:#222255; stroke-width:2; stroke-opacity:0.05; fill:none" points="
  1791.97,1486.45 1791.97,47.2441 
  "/>
<polyline clip-path="url(#clip562)" style="stroke:#222255; stroke-width:2; stroke-opacity:0.05; fill:none" points="
  1856.8,1486.45 1856.8,47.2441 
  "/>
<polyline clip-path="url(#clip562)" style="stroke:#222255; stroke-width:2; stroke-opacity:0.05; fill:none" points="
  1986.45,1486.45 1986.45,47.2441 
  "/>
<polyline clip-path="url(#clip562)" style="stroke:#222255; stroke-width:2; stroke-opacity:0.05; fill:none" points="
  2051.28,1486.45 2051.28,47.2441 
  "/>
<polyline clip-path="url(#clip562)" style="stroke:#222255; stroke-width:2; stroke-opacity:0.05; fill:none" points="
  2116.11,1486.45 2116.11,47.2441 
  "/>
<polyline clip-path="url(#clip562)" style="stroke:#222255; stroke-width:2; stroke-opacity:0.05; fill:none" points="
  2180.93,1486.45 2180.93,47.2441 
  "/>
<polyline clip-path="url(#clip562)" style="stroke:#222255; stroke-width:2; stroke-opacity:0.05; fill:none" points="
  2310.59,1486.45 2310.59,47.2441 
  "/>
<polyline clip-path="url(#clip560)" style="stroke:#222255; stroke-width:4; stroke-opacity:0; fill:none" points="
  300.93,1486.45 300.93,1469.18 
  "/>
<polyline clip-path="url(#clip560)" style="stroke:#222255; stroke-width:4; stroke-opacity:0; fill:none" points="
  625.069,1486.45 625.069,1469.18 
  "/>
<polyline clip-path="url(#clip560)" style="stroke:#222255; stroke-width:4; stroke-opacity:0; fill:none" points="
  949.207,1486.45 949.207,1469.18 
  "/>
<polyline clip-path="url(#clip560)" style="stroke:#222255; stroke-width:4; stroke-opacity:0; fill:none" points="
  1273.35,1486.45 1273.35,1469.18 
  "/>
<polyline clip-path="url(#clip560)" style="stroke:#222255; stroke-width:4; stroke-opacity:0; fill:none" points="
  1597.48,1486.45 1597.48,1469.18 
  "/>
<polyline clip-path="url(#clip560)" style="stroke:#222255; stroke-width:4; stroke-opacity:0; fill:none" points="
  1921.62,1486.45 1921.62,1469.18 
  "/>
<polyline clip-path="url(#clip560)" style="stroke:#222255; stroke-width:4; stroke-opacity:0; fill:none" points="
  2245.76,1486.45 2245.76,1469.18 
  "/>
<polyline clip-path="url(#clip560)" style="stroke:#222255; stroke-width:4; stroke-opacity:0; fill:none" points="
  236.103,1486.45 236.103,1477.81 
  "/>
<polyline clip-path="url(#clip560)" style="stroke:#222255; stroke-width:4; stroke-opacity:0; fill:none" points="
  365.758,1486.45 365.758,1477.81 
  "/>
<polyline clip-path="url(#clip560)" style="stroke:#222255; stroke-width:4; stroke-opacity:0; fill:none" points="
  430.586,1486.45 430.586,1477.81 
  "/>
<polyline clip-path="url(#clip560)" style="stroke:#222255; stroke-width:4; stroke-opacity:0; fill:none" points="
  495.413,1486.45 495.413,1477.81 
  "/>
<polyline clip-path="url(#clip560)" style="stroke:#222255; stroke-width:4; stroke-opacity:0; fill:none" points="
  560.241,1486.45 560.241,1477.81 
  "/>
<polyline clip-path="url(#clip560)" style="stroke:#222255; stroke-width:4; stroke-opacity:0; fill:none" points="
  689.897,1486.45 689.897,1477.81 
  "/>
<polyline clip-path="url(#clip560)" style="stroke:#222255; stroke-width:4; stroke-opacity:0; fill:none" points="
  754.724,1486.45 754.724,1477.81 
  "/>
<polyline clip-path="url(#clip560)" style="stroke:#222255; stroke-width:4; stroke-opacity:0; fill:none" points="
  819.552,1486.45 819.552,1477.81 
  "/>
<polyline clip-path="url(#clip560)" style="stroke:#222255; stroke-width:4; stroke-opacity:0; fill:none" points="
  884.38,1486.45 884.38,1477.81 
  "/>
<polyline clip-path="url(#clip560)" style="stroke:#222255; stroke-width:4; stroke-opacity:0; fill:none" points="
  1014.04,1486.45 1014.04,1477.81 
  "/>
<polyline clip-path="url(#clip560)" style="stroke:#222255; stroke-width:4; stroke-opacity:0; fill:none" points="
  1078.86,1486.45 1078.86,1477.81 
  "/>
<polyline clip-path="url(#clip560)" style="stroke:#222255; stroke-width:4; stroke-opacity:0; fill:none" points="
  1143.69,1486.45 1143.69,1477.81 
  "/>
<polyline clip-path="url(#clip560)" style="stroke:#222255; stroke-width:4; stroke-opacity:0; fill:none" points="
  1208.52,1486.45 1208.52,1477.81 
  "/>
<polyline clip-path="url(#clip560)" style="stroke:#222255; stroke-width:4; stroke-opacity:0; fill:none" points="
  1338.17,1486.45 1338.17,1477.81 
  "/>
<polyline clip-path="url(#clip560)" style="stroke:#222255; stroke-width:4; stroke-opacity:0; fill:none" points="
  1403,1486.45 1403,1477.81 
  "/>
<polyline clip-path="url(#clip560)" style="stroke:#222255; stroke-width:4; stroke-opacity:0; fill:none" points="
  1467.83,1486.45 1467.83,1477.81 
  "/>
<polyline clip-path="url(#clip560)" style="stroke:#222255; stroke-width:4; stroke-opacity:0; fill:none" points="
  1532.66,1486.45 1532.66,1477.81 
  "/>
<polyline clip-path="url(#clip560)" style="stroke:#222255; stroke-width:4; stroke-opacity:0; fill:none" points="
  1662.31,1486.45 1662.31,1477.81 
  "/>
<polyline clip-path="url(#clip560)" style="stroke:#222255; stroke-width:4; stroke-opacity:0; fill:none" points="
  1727.14,1486.45 1727.14,1477.81 
  "/>
<polyline clip-path="url(#clip560)" style="stroke:#222255; stroke-width:4; stroke-opacity:0; fill:none" points="
  1791.97,1486.45 1791.97,1477.81 
  "/>
<polyline clip-path="url(#clip560)" style="stroke:#222255; stroke-width:4; stroke-opacity:0; fill:none" points="
  1856.8,1486.45 1856.8,1477.81 
  "/>
<polyline clip-path="url(#clip560)" style="stroke:#222255; stroke-width:4; stroke-opacity:0; fill:none" points="
  1986.45,1486.45 1986.45,1477.81 
  "/>
<polyline clip-path="url(#clip560)" style="stroke:#222255; stroke-width:4; stroke-opacity:0; fill:none" points="
  2051.28,1486.45 2051.28,1477.81 
  "/>
<polyline clip-path="url(#clip560)" style="stroke:#222255; stroke-width:4; stroke-opacity:0; fill:none" points="
  2116.11,1486.45 2116.11,1477.81 
  "/>
<polyline clip-path="url(#clip560)" style="stroke:#222255; stroke-width:4; stroke-opacity:0; fill:none" points="
  2180.93,1486.45 2180.93,1477.81 
  "/>
<polyline clip-path="url(#clip560)" style="stroke:#222255; stroke-width:4; stroke-opacity:0; fill:none" points="
  2310.59,1486.45 2310.59,1477.81 
  "/>
<path clip-path="url(#clip560)" d="M 0 0 M270.398 1530.29 L300.074 1530.29 L300.074 1534.23 L270.398 1534.23 L270.398 1530.29 Z" fill="#000000" fill-rule="evenodd" fill-opacity="1" /><path clip-path="url(#clip560)" d="M 0 0 M324.333 1528.49 Q327.689 1529.2 329.564 1531.47 Q331.463 1533.74 331.463 1537.07 Q331.463 1542.19 327.944 1544.99 Q324.426 1547.79 317.944 1547.79 Q315.768 1547.79 313.453 1547.35 Q311.162 1546.93 308.708 1546.08 L308.708 1541.56 Q310.652 1542.7 312.967 1543.28 Q315.282 1543.86 317.805 1543.86 Q322.203 1543.86 324.495 1542.12 Q326.81 1540.38 326.81 1537.07 Q326.81 1534.02 324.657 1532.31 Q322.527 1530.57 318.708 1530.57 L314.68 1530.57 L314.68 1526.73 L318.893 1526.73 Q322.342 1526.73 324.171 1525.36 Q326 1523.97 326 1521.38 Q326 1518.72 324.101 1517.31 Q322.226 1515.87 318.708 1515.87 Q316.787 1515.87 314.588 1516.29 Q312.389 1516.7 309.75 1517.58 L309.75 1513.42 Q312.412 1512.68 314.727 1512.31 Q317.064 1511.93 319.125 1511.93 Q324.449 1511.93 327.551 1514.37 Q330.652 1516.77 330.652 1520.89 Q330.652 1523.76 329.009 1525.75 Q327.365 1527.72 324.333 1528.49 Z" fill="#000000" fill-rule="evenodd" fill-opacity="1" /><path clip-path="url(#clip560)" d="M 0 0 M595.011 1530.29 L624.687 1530.29 L624.687 1534.23 L595.011 1534.23 L595.011 1530.29 Z" fill="#000000" fill-rule="evenodd" fill-opacity="1" /><path clip-path="url(#clip560)" d="M 0 0 M638.807 1543.18 L655.127 1543.18 L655.127 1547.12 L633.182 1547.12 L633.182 1543.18 Q635.844 1540.43 640.428 1535.8 Q645.034 1531.15 646.215 1529.81 Q648.46 1527.28 649.34 1525.55 Q650.242 1523.79 650.242 1522.1 Q650.242 1519.34 648.298 1517.61 Q646.377 1515.87 643.275 1515.87 Q641.076 1515.87 638.622 1516.63 Q636.191 1517.4 633.414 1518.95 L633.414 1514.23 Q636.238 1513.09 638.691 1512.51 Q641.145 1511.93 643.182 1511.93 Q648.553 1511.93 651.747 1514.62 Q654.941 1517.31 654.941 1521.8 Q654.941 1523.93 654.131 1525.85 Q653.344 1527.74 651.238 1530.34 Q650.659 1531.01 647.557 1534.23 Q644.455 1537.42 638.807 1543.18 Z" fill="#000000" fill-rule="evenodd" fill-opacity="1" /><path clip-path="url(#clip560)" d="M 0 0 M918.965 1530.29 L948.64 1530.29 L948.64 1534.23 L918.965 1534.23 L918.965 1530.29 Z" fill="#000000" fill-rule="evenodd" fill-opacity="1" /><path clip-path="url(#clip560)" d="M 0 0 M959.543 1543.18 L967.182 1543.18 L967.182 1516.82 L958.872 1518.49 L958.872 1514.23 L967.136 1512.56 L971.811 1512.56 L971.811 1543.18 L979.45 1543.18 L979.45 1547.12 L959.543 1547.12 L959.543 1543.18 Z" fill="#000000" fill-rule="evenodd" fill-opacity="1" /><path clip-path="url(#clip560)" d="M 0 0 M1273.35 1515.64 Q1269.73 1515.64 1267.91 1519.2 Q1266.1 1522.75 1266.1 1529.87 Q1266.1 1536.98 1267.91 1540.55 Q1269.73 1544.09 1273.35 1544.09 Q1276.98 1544.09 1278.79 1540.55 Q1280.61 1536.98 1280.61 1529.87 Q1280.61 1522.75 1278.79 1519.2 Q1276.98 1515.64 1273.35 1515.64 M1273.35 1511.93 Q1279.16 1511.93 1282.21 1516.54 Q1285.29 1521.12 1285.29 1529.87 Q1285.29 1538.6 1282.21 1543.21 Q1279.16 1547.79 1273.35 1547.79 Q1267.54 1547.79 1264.46 1543.21 Q1261.4 1538.6 1261.4 1529.87 Q1261.4 1521.12 1264.46 1516.54 Q1267.54 1511.93 1273.35 1511.93 Z" fill="#000000" fill-rule="evenodd" fill-opacity="1" /><path clip-path="url(#clip560)" d="M 0 0 M1587.87 1543.18 L1595.51 1543.18 L1595.51 1516.82 L1587.2 1518.49 L1587.2 1514.23 L1595.46 1512.56 L1600.13 1512.56 L1600.13 1543.18 L1607.77 1543.18 L1607.77 1547.12 L1587.87 1547.12 L1587.87 1543.18 Z" fill="#000000" fill-rule="evenodd" fill-opacity="1" /><path clip-path="url(#clip560)" d="M 0 0 M1916.28 1543.18 L1932.6 1543.18 L1932.6 1547.12 L1910.65 1547.12 L1910.65 1543.18 Q1913.31 1540.43 1917.9 1535.8 Q1922.5 1531.15 1923.68 1529.81 Q1925.93 1527.28 1926.81 1525.55 Q1927.71 1523.79 1927.71 1522.1 Q1927.71 1519.34 1925.77 1517.61 Q1923.85 1515.87 1920.74 1515.87 Q1918.54 1515.87 1916.09 1516.63 Q1913.66 1517.4 1910.88 1518.95 L1910.88 1514.23 Q1913.71 1513.09 1916.16 1512.51 Q1918.61 1511.93 1920.65 1511.93 Q1926.02 1511.93 1929.22 1514.62 Q1932.41 1517.31 1932.41 1521.8 Q1932.41 1523.93 1931.6 1525.85 Q1930.81 1527.74 1928.71 1530.34 Q1928.13 1531.01 1925.03 1534.23 Q1921.92 1537.42 1916.28 1543.18 Z" fill="#000000" fill-rule="evenodd" fill-opacity="1" /><path clip-path="url(#clip560)" d="M 0 0 M2250.01 1528.49 Q2253.37 1529.2 2255.24 1531.47 Q2257.14 1533.74 2257.14 1537.07 Q2257.14 1542.19 2253.62 1544.99 Q2250.1 1547.79 2243.62 1547.79 Q2241.44 1547.79 2239.13 1547.35 Q2236.84 1546.93 2234.38 1546.08 L2234.38 1541.56 Q2236.33 1542.7 2238.64 1543.28 Q2240.96 1543.86 2243.48 1543.86 Q2247.88 1543.86 2250.17 1542.12 Q2252.49 1540.38 2252.49 1537.07 Q2252.49 1534.02 2250.33 1532.31 Q2248.2 1530.57 2244.38 1530.57 L2240.36 1530.57 L2240.36 1526.73 L2244.57 1526.73 Q2248.02 1526.73 2249.85 1525.36 Q2251.68 1523.97 2251.68 1521.38 Q2251.68 1518.72 2249.78 1517.31 Q2247.9 1515.87 2244.38 1515.87 Q2242.46 1515.87 2240.26 1516.29 Q2238.06 1516.7 2235.43 1517.58 L2235.43 1513.42 Q2238.09 1512.68 2240.4 1512.31 Q2242.74 1511.93 2244.8 1511.93 Q2250.12 1511.93 2253.23 1514.37 Q2256.33 1516.77 2256.33 1520.89 Q2256.33 1523.76 2254.69 1525.75 Q2253.04 1527.72 2250.01 1528.49 Z" fill="#000000" fill-rule="evenodd" fill-opacity="1" /><polyline clip-path="url(#clip562)" style="stroke:#222255; stroke-width:2; stroke-opacity:0.1; fill:none" points="
  193.936,1339.17 2352.76,1339.17 
  "/>
<polyline clip-path="url(#clip562)" style="stroke:#222255; stroke-width:2; stroke-opacity:0.1; fill:none" points="
  193.936,1060.85 2352.76,1060.85 
  "/>
<polyline clip-path="url(#clip562)" style="stroke:#222255; stroke-width:2; stroke-opacity:0.1; fill:none" points="
  193.936,782.527 2352.76,782.527 
  "/>
<polyline clip-path="url(#clip562)" style="stroke:#222255; stroke-width:2; stroke-opacity:0.1; fill:none" points="
  193.936,504.203 2352.76,504.203 
  "/>
<polyline clip-path="url(#clip562)" style="stroke:#222255; stroke-width:2; stroke-opacity:0.1; fill:none" points="
  193.936,225.88 2352.76,225.88 
  "/>
<polyline clip-path="url(#clip562)" style="stroke:#222255; stroke-width:2; stroke-opacity:0.05; fill:none" points="
  193.936,1450.5 2352.76,1450.5 
  "/>
<polyline clip-path="url(#clip562)" style="stroke:#222255; stroke-width:2; stroke-opacity:0.05; fill:none" points="
  193.936,1394.84 2352.76,1394.84 
  "/>
<polyline clip-path="url(#clip562)" style="stroke:#222255; stroke-width:2; stroke-opacity:0.05; fill:none" points="
  193.936,1283.51 2352.76,1283.51 
  "/>
<polyline clip-path="url(#clip562)" style="stroke:#222255; stroke-width:2; stroke-opacity:0.05; fill:none" points="
  193.936,1227.84 2352.76,1227.84 
  "/>
<polyline clip-path="url(#clip562)" style="stroke:#222255; stroke-width:2; stroke-opacity:0.05; fill:none" points="
  193.936,1172.18 2352.76,1172.18 
  "/>
<polyline clip-path="url(#clip562)" style="stroke:#222255; stroke-width:2; stroke-opacity:0.05; fill:none" points="
  193.936,1116.51 2352.76,1116.51 
  "/>
<polyline clip-path="url(#clip562)" style="stroke:#222255; stroke-width:2; stroke-opacity:0.05; fill:none" points="
  193.936,1005.19 2352.76,1005.19 
  "/>
<polyline clip-path="url(#clip562)" style="stroke:#222255; stroke-width:2; stroke-opacity:0.05; fill:none" points="
  193.936,949.52 2352.76,949.52 
  "/>
<polyline clip-path="url(#clip562)" style="stroke:#222255; stroke-width:2; stroke-opacity:0.05; fill:none" points="
  193.936,893.856 2352.76,893.856 
  "/>
<polyline clip-path="url(#clip562)" style="stroke:#222255; stroke-width:2; stroke-opacity:0.05; fill:none" points="
  193.936,838.191 2352.76,838.191 
  "/>
<polyline clip-path="url(#clip562)" style="stroke:#222255; stroke-width:2; stroke-opacity:0.05; fill:none" points="
  193.936,726.862 2352.76,726.862 
  "/>
<polyline clip-path="url(#clip562)" style="stroke:#222255; stroke-width:2; stroke-opacity:0.05; fill:none" points="
  193.936,671.197 2352.76,671.197 
  "/>
<polyline clip-path="url(#clip562)" style="stroke:#222255; stroke-width:2; stroke-opacity:0.05; fill:none" points="
  193.936,615.533 2352.76,615.533 
  "/>
<polyline clip-path="url(#clip562)" style="stroke:#222255; stroke-width:2; stroke-opacity:0.05; fill:none" points="
  193.936,559.868 2352.76,559.868 
  "/>
<polyline clip-path="url(#clip562)" style="stroke:#222255; stroke-width:2; stroke-opacity:0.05; fill:none" points="
  193.936,448.539 2352.76,448.539 
  "/>
<polyline clip-path="url(#clip562)" style="stroke:#222255; stroke-width:2; stroke-opacity:0.05; fill:none" points="
  193.936,392.874 2352.76,392.874 
  "/>
<polyline clip-path="url(#clip562)" style="stroke:#222255; stroke-width:2; stroke-opacity:0.05; fill:none" points="
  193.936,337.21 2352.76,337.21 
  "/>
<polyline clip-path="url(#clip562)" style="stroke:#222255; stroke-width:2; stroke-opacity:0.05; fill:none" points="
  193.936,281.545 2352.76,281.545 
  "/>
<polyline clip-path="url(#clip562)" style="stroke:#222255; stroke-width:2; stroke-opacity:0.05; fill:none" points="
  193.936,170.216 2352.76,170.216 
  "/>
<polyline clip-path="url(#clip562)" style="stroke:#222255; stroke-width:2; stroke-opacity:0.05; fill:none" points="
  193.936,114.551 2352.76,114.551 
  "/>
<polyline clip-path="url(#clip562)" style="stroke:#222255; stroke-width:2; stroke-opacity:0.05; fill:none" points="
  193.936,58.8864 2352.76,58.8864 
  "/>
<polyline clip-path="url(#clip560)" style="stroke:#222255; stroke-width:4; stroke-opacity:0; fill:none" points="
  193.936,1339.17 219.842,1339.17 
  "/>
<polyline clip-path="url(#clip560)" style="stroke:#222255; stroke-width:4; stroke-opacity:0; fill:none" points="
  193.936,1060.85 219.842,1060.85 
  "/>
<polyline clip-path="url(#clip560)" style="stroke:#222255; stroke-width:4; stroke-opacity:0; fill:none" points="
  193.936,782.527 219.842,782.527 
  "/>
<polyline clip-path="url(#clip560)" style="stroke:#222255; stroke-width:4; stroke-opacity:0; fill:none" points="
  193.936,504.203 219.842,504.203 
  "/>
<polyline clip-path="url(#clip560)" style="stroke:#222255; stroke-width:4; stroke-opacity:0; fill:none" points="
  193.936,225.88 219.842,225.88 
  "/>
<polyline clip-path="url(#clip560)" style="stroke:#222255; stroke-width:4; stroke-opacity:0; fill:none" points="
  193.936,1450.5 206.889,1450.5 
  "/>
<polyline clip-path="url(#clip560)" style="stroke:#222255; stroke-width:4; stroke-opacity:0; fill:none" points="
  193.936,1394.84 206.889,1394.84 
  "/>
<polyline clip-path="url(#clip560)" style="stroke:#222255; stroke-width:4; stroke-opacity:0; fill:none" points="
  193.936,1283.51 206.889,1283.51 
  "/>
<polyline clip-path="url(#clip560)" style="stroke:#222255; stroke-width:4; stroke-opacity:0; fill:none" points="
  193.936,1227.84 206.889,1227.84 
  "/>
<polyline clip-path="url(#clip560)" style="stroke:#222255; stroke-width:4; stroke-opacity:0; fill:none" points="
  193.936,1172.18 206.889,1172.18 
  "/>
<polyline clip-path="url(#clip560)" style="stroke:#222255; stroke-width:4; stroke-opacity:0; fill:none" points="
  193.936,1116.51 206.889,1116.51 
  "/>
<polyline clip-path="url(#clip560)" style="stroke:#222255; stroke-width:4; stroke-opacity:0; fill:none" points="
  193.936,1005.19 206.889,1005.19 
  "/>
<polyline clip-path="url(#clip560)" style="stroke:#222255; stroke-width:4; stroke-opacity:0; fill:none" points="
  193.936,949.52 206.889,949.52 
  "/>
<polyline clip-path="url(#clip560)" style="stroke:#222255; stroke-width:4; stroke-opacity:0; fill:none" points="
  193.936,893.856 206.889,893.856 
  "/>
<polyline clip-path="url(#clip560)" style="stroke:#222255; stroke-width:4; stroke-opacity:0; fill:none" points="
  193.936,838.191 206.889,838.191 
  "/>
<polyline clip-path="url(#clip560)" style="stroke:#222255; stroke-width:4; stroke-opacity:0; fill:none" points="
  193.936,726.862 206.889,726.862 
  "/>
<polyline clip-path="url(#clip560)" style="stroke:#222255; stroke-width:4; stroke-opacity:0; fill:none" points="
  193.936,671.197 206.889,671.197 
  "/>
<polyline clip-path="url(#clip560)" style="stroke:#222255; stroke-width:4; stroke-opacity:0; fill:none" points="
  193.936,615.533 206.889,615.533 
  "/>
<polyline clip-path="url(#clip560)" style="stroke:#222255; stroke-width:4; stroke-opacity:0; fill:none" points="
  193.936,559.868 206.889,559.868 
  "/>
<polyline clip-path="url(#clip560)" style="stroke:#222255; stroke-width:4; stroke-opacity:0; fill:none" points="
  193.936,448.539 206.889,448.539 
  "/>
<polyline clip-path="url(#clip560)" style="stroke:#222255; stroke-width:4; stroke-opacity:0; fill:none" points="
  193.936,392.874 206.889,392.874 
  "/>
<polyline clip-path="url(#clip560)" style="stroke:#222255; stroke-width:4; stroke-opacity:0; fill:none" points="
  193.936,337.21 206.889,337.21 
  "/>
<polyline clip-path="url(#clip560)" style="stroke:#222255; stroke-width:4; stroke-opacity:0; fill:none" points="
  193.936,281.545 206.889,281.545 
  "/>
<polyline clip-path="url(#clip560)" style="stroke:#222255; stroke-width:4; stroke-opacity:0; fill:none" points="
  193.936,170.216 206.889,170.216 
  "/>
<polyline clip-path="url(#clip560)" style="stroke:#222255; stroke-width:4; stroke-opacity:0; fill:none" points="
  193.936,114.551 206.889,114.551 
  "/>
<polyline clip-path="url(#clip560)" style="stroke:#222255; stroke-width:4; stroke-opacity:0; fill:none" points="
  193.936,58.8864 206.889,58.8864 
  "/>
<path clip-path="url(#clip560)" d="M 0 0 M50.9921 1339.62 L80.6679 1339.62 L80.6679 1343.56 L50.9921 1343.56 L50.9921 1339.62 Z" fill="#000000" fill-rule="evenodd" fill-opacity="1" /><path clip-path="url(#clip560)" d="M 0 0 M91.5706 1352.52 L99.2095 1352.52 L99.2095 1326.15 L90.8993 1327.82 L90.8993 1323.56 L99.1632 1321.89 L103.839 1321.89 L103.839 1352.52 L111.478 1352.52 L111.478 1356.45 L91.5706 1356.45 L91.5706 1352.52 Z" fill="#000000" fill-rule="evenodd" fill-opacity="1" /><path clip-path="url(#clip560)" d="M 0 0 M120.922 1350.57 L125.807 1350.57 L125.807 1356.45 L120.922 1356.45 L120.922 1350.57 Z" fill="#000000" fill-rule="evenodd" fill-opacity="1" /><path clip-path="url(#clip560)" d="M 0 0 M145.992 1324.97 Q142.381 1324.97 140.552 1328.54 Q138.746 1332.08 138.746 1339.21 Q138.746 1346.31 140.552 1349.88 Q142.381 1353.42 145.992 1353.42 Q149.626 1353.42 151.431 1349.88 Q153.26 1346.31 153.26 1339.21 Q153.26 1332.08 151.431 1328.54 Q149.626 1324.97 145.992 1324.97 M145.992 1321.27 Q151.802 1321.27 154.857 1325.87 Q157.936 1330.46 157.936 1339.21 Q157.936 1347.93 154.857 1352.54 Q151.802 1357.12 145.992 1357.12 Q140.181 1357.12 137.103 1352.54 Q134.047 1347.93 134.047 1339.21 Q134.047 1330.46 137.103 1325.87 Q140.181 1321.27 145.992 1321.27 Z" fill="#000000" fill-rule="evenodd" fill-opacity="1" /><path clip-path="url(#clip560)" d="M 0 0 M51.9875 1061.3 L81.6633 1061.3 L81.6633 1065.24 L51.9875 1065.24 L51.9875 1061.3 Z" fill="#000000" fill-rule="evenodd" fill-opacity="1" /><path clip-path="url(#clip560)" d="M 0 0 M101.756 1046.65 Q98.1447 1046.65 96.316 1050.21 Q94.5104 1053.75 94.5104 1060.88 Q94.5104 1067.99 96.316 1071.56 Q98.1447 1075.1 101.756 1075.1 Q105.39 1075.1 107.196 1071.56 Q109.024 1067.99 109.024 1060.88 Q109.024 1053.75 107.196 1050.21 Q105.39 1046.65 101.756 1046.65 M101.756 1042.94 Q107.566 1042.94 110.621 1047.55 Q113.7 1052.13 113.7 1060.88 Q113.7 1069.61 110.621 1074.22 Q107.566 1078.8 101.756 1078.8 Q95.9456 1078.8 92.8669 1074.22 Q89.8114 1069.61 89.8114 1060.88 Q89.8114 1052.13 92.8669 1047.55 Q95.9456 1042.94 101.756 1042.94 Z" fill="#000000" fill-rule="evenodd" fill-opacity="1" /><path clip-path="url(#clip560)" d="M 0 0 M121.918 1072.25 L126.802 1072.25 L126.802 1078.13 L121.918 1078.13 L121.918 1072.25 Z" fill="#000000" fill-rule="evenodd" fill-opacity="1" /><path clip-path="url(#clip560)" d="M 0 0 M137.033 1043.57 L155.39 1043.57 L155.39 1047.5 L141.316 1047.5 L141.316 1055.98 Q142.334 1055.63 143.353 1055.47 Q144.371 1055.28 145.39 1055.28 Q151.177 1055.28 154.556 1058.45 Q157.936 1061.63 157.936 1067.04 Q157.936 1072.62 154.464 1075.72 Q150.992 1078.8 144.672 1078.8 Q142.496 1078.8 140.228 1078.43 Q137.982 1078.06 135.575 1077.32 L135.575 1072.62 Q137.658 1073.75 139.881 1074.31 Q142.103 1074.87 144.58 1074.87 Q148.584 1074.87 150.922 1072.76 Q153.26 1070.65 153.26 1067.04 Q153.26 1063.43 150.922 1061.32 Q148.584 1059.22 144.58 1059.22 Q142.705 1059.22 140.83 1059.63 Q138.978 1060.05 137.033 1060.93 L137.033 1043.57 Z" fill="#000000" fill-rule="evenodd" fill-opacity="1" /><path clip-path="url(#clip560)" d="M 0 0 M100.76 768.325 Q97.1493 768.325 95.3206 771.89 Q93.515 775.432 93.515 782.561 Q93.515 789.668 95.3206 793.233 Q97.1493 796.774 100.76 796.774 Q104.395 796.774 106.2 793.233 Q108.029 789.668 108.029 782.561 Q108.029 775.432 106.2 771.89 Q104.395 768.325 100.76 768.325 M100.76 764.622 Q106.571 764.622 109.626 769.228 Q112.705 773.811 112.705 782.561 Q112.705 791.288 109.626 795.895 Q106.571 800.478 100.76 800.478 Q94.9502 800.478 91.8715 795.895 Q88.816 791.288 88.816 782.561 Q88.816 773.811 91.8715 769.228 Q94.9502 764.622 100.76 764.622 Z" fill="#000000" fill-rule="evenodd" fill-opacity="1" /><path clip-path="url(#clip560)" d="M 0 0 M120.922 793.927 L125.807 793.927 L125.807 799.807 L120.922 799.807 L120.922 793.927 Z" fill="#000000" fill-rule="evenodd" fill-opacity="1" /><path clip-path="url(#clip560)" d="M 0 0 M145.992 768.325 Q142.381 768.325 140.552 771.89 Q138.746 775.432 138.746 782.561 Q138.746 789.668 140.552 793.233 Q142.381 796.774 145.992 796.774 Q149.626 796.774 151.431 793.233 Q153.26 789.668 153.26 782.561 Q153.26 775.432 151.431 771.89 Q149.626 768.325 145.992 768.325 M145.992 764.622 Q151.802 764.622 154.857 769.228 Q157.936 773.811 157.936 782.561 Q157.936 791.288 154.857 795.895 Q151.802 800.478 145.992 800.478 Q140.181 800.478 137.103 795.895 Q134.047 791.288 134.047 782.561 Q134.047 773.811 137.103 769.228 Q140.181 764.622 145.992 764.622 Z" fill="#000000" fill-rule="evenodd" fill-opacity="1" /><path clip-path="url(#clip560)" d="M 0 0 M101.756 490.002 Q98.1447 490.002 96.316 493.567 Q94.5104 497.109 94.5104 504.238 Q94.5104 511.345 96.316 514.909 Q98.1447 518.451 101.756 518.451 Q105.39 518.451 107.196 514.909 Q109.024 511.345 109.024 504.238 Q109.024 497.109 107.196 493.567 Q105.39 490.002 101.756 490.002 M101.756 486.298 Q107.566 486.298 110.621 490.905 Q113.7 495.488 113.7 504.238 Q113.7 512.965 110.621 517.571 Q107.566 522.155 101.756 522.155 Q95.9456 522.155 92.8669 517.571 Q89.8114 512.965 89.8114 504.238 Q89.8114 495.488 92.8669 490.905 Q95.9456 486.298 101.756 486.298 Z" fill="#000000" fill-rule="evenodd" fill-opacity="1" /><path clip-path="url(#clip560)" d="M 0 0 M121.918 515.604 L126.802 515.604 L126.802 521.483 L121.918 521.483 L121.918 515.604 Z" fill="#000000" fill-rule="evenodd" fill-opacity="1" /><path clip-path="url(#clip560)" d="M 0 0 M137.033 486.923 L155.39 486.923 L155.39 490.859 L141.316 490.859 L141.316 499.331 Q142.334 498.984 143.353 498.821 Q144.371 498.636 145.39 498.636 Q151.177 498.636 154.556 501.808 Q157.936 504.979 157.936 510.396 Q157.936 515.974 154.464 519.076 Q150.992 522.155 144.672 522.155 Q142.496 522.155 140.228 521.784 Q137.982 521.414 135.575 520.673 L135.575 515.974 Q137.658 517.108 139.881 517.664 Q142.103 518.22 144.58 518.22 Q148.584 518.22 150.922 516.113 Q153.26 514.007 153.26 510.396 Q153.26 506.784 150.922 504.678 Q148.584 502.571 144.58 502.571 Q142.705 502.571 140.83 502.988 Q138.978 503.405 137.033 504.284 L137.033 486.923 Z" fill="#000000" fill-rule="evenodd" fill-opacity="1" /><path clip-path="url(#clip560)" d="M 0 0 M91.5706 239.225 L99.2095 239.225 L99.2095 212.86 L90.8993 214.526 L90.8993 210.267 L99.1632 208.6 L103.839 208.6 L103.839 239.225 L111.478 239.225 L111.478 243.16 L91.5706 243.16 L91.5706 239.225 Z" fill="#000000" fill-rule="evenodd" fill-opacity="1" /><path clip-path="url(#clip560)" d="M 0 0 M120.922 237.281 L125.807 237.281 L125.807 243.16 L120.922 243.16 L120.922 237.281 Z" fill="#000000" fill-rule="evenodd" fill-opacity="1" /><path clip-path="url(#clip560)" d="M 0 0 M145.992 211.679 Q142.381 211.679 140.552 215.244 Q138.746 218.785 138.746 225.915 Q138.746 233.021 140.552 236.586 Q142.381 240.128 145.992 240.128 Q149.626 240.128 151.431 236.586 Q153.26 233.021 153.26 225.915 Q153.26 218.785 151.431 215.244 Q149.626 211.679 145.992 211.679 M145.992 207.975 Q151.802 207.975 154.857 212.582 Q157.936 217.165 157.936 225.915 Q157.936 234.642 154.857 239.248 Q151.802 243.832 145.992 243.832 Q140.181 243.832 137.103 239.248 Q134.047 234.642 134.047 225.915 Q134.047 217.165 137.103 212.582 Q140.181 207.975 145.992 207.975 Z" fill="#000000" fill-rule="evenodd" fill-opacity="1" /><polyline clip-path="url(#clip562)" style="stroke:#ee7733; stroke-width:4.8; stroke-opacity:1; fill:none" points="
  255.035,832.563 259.116,898.595 263.197,734.454 267.279,829.423 271.36,838.646 275.442,798.014 279.523,768.52 283.605,902.291 287.686,804.394 291.767,886.761 
  295.849,817.275 299.93,873.1 304.012,845.766 308.093,836.324 312.174,869.346 316.256,866.258 320.337,763.291 324.419,946.5 328.5,838.021 332.581,892.624 
  336.663,866.588 340.744,959.954 344.826,894.527 348.907,928.513 352.988,904.168 357.07,887.313 361.151,1006.67 365.233,994.928 369.314,1017.7 373.396,1040.94 
  377.477,1052.63 381.558,1056.88 385.64,963.413 389.721,1011.78 393.803,937.488 397.884,1030.97 401.965,1016.81 406.047,1012.38 410.128,1030.19 414.21,938.928 
  418.291,1088.84 422.372,1071.1 426.454,978.804 430.535,1090.46 434.617,1044.88 438.698,1075.53 442.779,1067.62 446.861,1076.45 450.942,1104.78 455.024,1218.31 
  459.105,1084.94 463.186,1026.02 467.268,1066.34 471.349,1139.37 475.431,1184.56 479.512,1203.22 483.594,1043.48 487.675,1156.61 491.756,1194.62 495.838,1177.48 
  499.919,1203.35 504.001,1097.47 508.082,1209.17 512.163,1217.23 516.245,1248.06 520.326,1123 524.408,1262.71 528.489,1166.54 532.57,1223.14 536.652,1150.29 
  540.733,1243.82 544.815,1236.61 548.896,1205.7 552.977,1186.45 557.059,1252.22 561.14,1252.81 565.222,1267.21 569.303,1253.16 573.384,1444.17 577.466,1333.46 
  581.547,1228.9 585.629,1154.22 589.71,1395.04 593.792,1315.08 597.873,1211.94 601.954,1295.24 606.036,1222 610.117,1211.91 614.199,1251.01 618.28,1302.75 
  622.361,1398.24 626.443,1333.37 630.524,1259.91 634.606,1292.58 638.687,1420.9 642.768,1367.29 646.85,1335.03 650.931,1316.36 655.013,1311.96 659.094,1231.84 
  663.175,1167.57 667.257,1323.55 671.338,1296.06 675.42,1253.69 679.501,1310.2 683.583,1347.38 687.664,1331.61 691.745,1323.64 695.827,1265.16 699.908,1270.12 
  703.99,1392.09 708.071,1293.81 712.152,1228.02 716.234,1373.31 720.315,1325.96 724.397,1297.01 728.478,1322.17 732.559,1385.25 736.641,1367 740.722,1329.16 
  744.804,1301.07 748.885,1300.18 752.966,1318.82 757.048,1445.72 761.129,1404.81 765.211,1298.98 769.292,1340.27 773.373,1300.95 777.455,1327.83 781.536,1232.77 
  785.618,1316.5 789.699,1384.42 793.781,1413.01 797.862,1375.87 801.943,1358.18 806.025,1319.74 810.106,1342.05 814.188,1354.06 818.269,1311.92 822.35,1235.79 
  826.432,1337.45 830.513,1322.79 834.595,1422.55 838.676,1332.29 842.757,1307.72 846.839,1387.08 850.92,1298.76 855.002,1278.73 859.083,1360.54 863.164,1400.73 
  867.246,1299.13 871.327,1326.59 875.409,1322.47 879.49,1329.1 883.571,1293.02 887.653,1310.78 891.734,1319.58 895.816,1242.33 899.897,1301.34 903.979,1383.7 
  908.06,1315.98 912.141,1323.61 916.223,1252.27 920.304,1305.84 924.386,1124.55 928.467,1289.81 932.548,1273.74 936.63,1284.55 940.711,1343.41 944.793,1253.95 
  948.874,1363.37 952.955,1222.09 957.037,1319.74 961.118,1292.74 965.2,1231.45 969.281,1243.67 973.362,1281.19 977.444,1204.7 981.525,1176.21 985.607,1230.15 
  989.688,1217.85 993.77,1251.71 997.851,1142.3 1001.93,1272.87 1006.01,1126.45 1010.1,1231.78 1014.18,1109.38 1018.26,1208.15 1022.34,1123.2 1026.42,1097.22 
  1030.5,1204.33 1034.58,1205.41 1038.66,1189.13 1042.75,1158.7 1046.83,1089.57 1050.91,1040.46 1054.99,1024.74 1059.07,1023.74 1063.15,1117.82 1067.23,1241.48 
  1071.32,1230.18 1075.4,1124.61 1079.48,1146.96 1083.56,1013.91 1087.64,1037.84 1091.72,1130.6 1095.8,1075.8 1099.89,1020.36 1103.97,1073.98 1108.05,1095.76 
  1112.13,1057.85 1116.21,1021.73 1120.29,968.126 1124.37,1067.05 1128.46,1063.6 1132.54,1085.44 1136.62,981.921 1140.7,1024.18 1144.78,1064.79 1148.86,1029.7 
  1152.94,955.621 1157.03,947.971 1161.11,977.73 1165.19,1000.24 1169.27,977.476 1173.35,949.46 1177.43,948.186 1181.51,928.177 1185.6,950.161 1189.68,964.159 
  1193.76,804.546 1197.84,933.374 1201.92,878.158 1206,1002.16 1210.08,897.625 1214.17,856.182 1218.25,878.711 1222.33,918.558 1226.41,809.154 1230.49,902.832 
  1234.57,906.479 1238.65,911.86 1242.74,750.772 1246.82,801.721 1250.9,847.569 1254.98,690.153 1259.06,796.155 1263.14,853.216 1267.22,792.146 1271.31,816.561 
  1275.39,685.648 1279.47,763.076 1283.55,684.372 1287.63,791.157 1291.71,798.819 1295.79,724.43 1299.88,752.801 1303.96,771.464 1308.04,776.621 1312.12,734.758 
  1316.2,718.498 1320.28,587.098 1324.36,747.684 1328.44,668.842 1332.53,649.58 1336.61,677.08 1340.69,588.845 1344.77,668.651 1348.85,751.017 1352.93,618.806 
  1357.01,604.872 1361.1,572.26 1365.18,651.821 1369.26,788.625 1373.34,662.566 1377.42,670.743 1381.5,489.401 1385.58,560.393 1389.67,580.379 1393.75,613.776 
  1397.83,504.83 1401.91,520.125 1405.99,414.895 1410.07,590.673 1414.15,563.053 1418.24,520.081 1422.32,547.712 1426.4,548.095 1430.48,521.031 1434.56,527.402 
  1438.64,427.029 1442.72,543.695 1446.81,508.868 1450.89,391.448 1454.97,495.442 1459.05,440.738 1463.13,457.107 1467.21,482.604 1471.29,498.33 1475.38,485.595 
  1479.46,459.068 1483.54,462.414 1487.62,492.888 1491.7,427.794 1495.78,453.281 1499.86,386.821 1503.95,346.762 1508.03,496.676 1512.11,375.786 1516.19,353.103 
  1520.27,395.705 1524.35,398.926 1528.43,339.285 1532.52,373.776 1536.6,439.023 1540.68,361.673 1544.76,366.776 1548.84,387.104 1552.92,344.546 1557,361.462 
  1561.09,366.856 1565.17,319.738 1569.25,319.438 1573.33,412.021 1577.41,254.533 1581.49,363.451 1585.57,340.162 1589.66,332.223 1593.74,337.795 1597.82,425.017 
  1601.9,279.041 1605.98,310.008 1610.06,313.925 1614.14,207.115 1618.22,210.081 1622.31,261.685 1626.39,411.315 1630.47,239.085 1634.55,287.948 1638.63,245.759 
  1642.71,163.928 1646.79,179.315 1650.88,233.187 1654.96,282.014 1659.04,186.287 1663.12,233.498 1667.2,239.289 1671.28,313.094 1675.36,234.949 1679.45,190.895 
  1683.53,218.044 1687.61,215.668 1691.69,215.557 1695.77,319.603 1699.85,225.808 1703.93,96.9598 1708.02,238.717 1712.1,228.003 1716.18,234.35 1720.26,227.265 
  1724.34,176.583 1728.42,244.488 1732.5,278.274 1736.59,213.222 1740.67,286.308 1744.75,145.561 1748.83,294.839 1752.91,234.882 1756.99,249.621 1761.07,245.534 
  1765.16,220.548 1769.24,263.318 1773.32,301.825 1777.4,143.191 1781.48,251.352 1785.56,234.831 1789.64,185.635 1793.73,156.118 1797.81,226.852 1801.89,87.9763 
  1805.97,151.456 1810.05,160.267 1814.13,193.916 1818.21,261.021 1822.3,292.373 1826.38,202.151 1830.46,253.484 1834.54,274.412 1838.62,198.486 1842.7,222.305 
  1846.78,214.758 1850.87,278.182 1854.95,185.101 1859.03,341.725 1863.11,185.85 1867.19,358.796 1871.27,346.924 1875.35,318.691 1879.44,276.066 1883.52,246.572 
  1887.6,192.821 1891.68,209.79 1895.76,254.885 1899.84,174.551 1903.92,338.653 1908,237.146 1912.09,210.355 1916.17,276.633 1920.25,265.857 1924.33,221.88 
  1928.41,276.389 1932.49,334.382 1936.57,364.095 1940.66,252.568 1944.74,320.157 1948.82,420.882 1952.9,239.982 1956.98,224.651 1961.06,329.243 1965.14,346.298 
  1969.23,343.215 1973.31,311.758 1977.39,384.183 1981.47,270.984 1985.55,316.54 1989.63,308.035 1993.71,287.717 1997.8,282.92 2001.88,333.116 2005.96,362.158 
  2010.04,340.086 2014.12,344.054 2018.2,419.346 2022.28,373.656 2026.37,506.389 2030.45,419.892 2034.53,412.309 2038.61,440.902 2042.69,417.24 2046.77,413.795 
  2050.85,343.951 2054.94,382.264 2059.02,406.297 2063.1,363.302 2067.18,411.106 2071.26,375.313 2075.34,444.771 2079.42,367.177 2083.51,505.126 2087.59,513.4 
  2091.67,516.729 2095.75,364.288 2099.83,449.354 2103.91,528.297 2107.99,552.543 2112.08,510.452 2116.16,504.846 2120.24,420.401 2124.32,445.713 2128.4,565.337 
  2132.48,562.89 2136.56,602.28 2140.65,561.926 2144.73,535.407 2148.81,413.296 2152.89,512.484 2156.97,582.857 2161.05,547.585 2165.13,521.53 2169.21,591.362 
  2173.3,587.253 2177.38,669.934 2181.46,592.212 2185.54,668.567 2189.62,592.617 2193.7,620.768 2197.78,666.586 2201.87,583.786 2205.95,547.448 2210.03,547.609 
  2214.11,593.7 2218.19,755.838 2222.27,588.951 2226.35,569.531 2230.44,695.934 2234.52,671.314 2238.6,799.008 2242.68,676.134 2246.76,657.194 2250.84,633.612 
  2254.92,766.97 2259.01,752.986 2263.09,702.425 2267.17,718.384 2271.25,724.983 2275.33,736.169 2279.41,766.995 2283.49,830.462 2287.58,705.738 2291.66,686.718 
  
  "/>
<path clip-path="url(#clip560)" d="
M1988.5 216.178 L2280.8 216.178 L2280.8 95.2176 L1988.5 95.2176  Z
  " fill="#ffffff" fill-rule="evenodd" fill-opacity="0.9"/>
<polyline clip-path="url(#clip560)" style="stroke:#222255; stroke-width:4; stroke-opacity:0.1; fill:none" points="
  1988.5,216.178 2280.8,216.178 2280.8,95.2176 1988.5,95.2176 1988.5,216.178 
  "/>
<polyline clip-path="url(#clip560)" style="stroke:#ee7733; stroke-width:4; stroke-opacity:1; fill:none" points="
  2012.48,155.698 2156.4,155.698 
  "/>
<path clip-path="url(#clip560)" d="M 0 0 M2194.23 175.385 Q2192.43 180.015 2190.72 181.427 Q2189 182.839 2186.13 182.839 L2182.73 182.839 L2182.73 179.274 L2185.23 179.274 Q2186.99 179.274 2187.96 178.44 Q2188.93 177.607 2190.11 174.505 L2190.88 172.561 L2180.39 147.052 L2184.91 147.052 L2193.01 167.329 L2201.11 147.052 L2205.62 147.052 L2194.23 175.385 Z" fill="#000000" fill-rule="evenodd" fill-opacity="1" /><path clip-path="url(#clip560)" d="M 0 0 M2212.91 169.042 L2220.55 169.042 L2220.55 142.677 L2212.24 144.343 L2212.24 140.084 L2220.51 138.418 L2225.18 138.418 L2225.18 169.042 L2232.82 169.042 L2232.82 172.978 L2212.91 172.978 L2212.91 169.042 Z" fill="#000000" fill-rule="evenodd" fill-opacity="1" /></svg>
