<?xml version="1.0" encoding="utf-8"?>
<svg xmlns="http://www.w3.org/2000/svg" xmlns:xlink="http://www.w3.org/1999/xlink" width="600" height="400" viewBox="0 0 2400 1600">
<defs>
  <clipPath id="clip640">
    <rect x="0" y="0" width="2400" height="1600"/>
  </clipPath>
</defs>
<path clip-path="url(#clip640)" d="
M0 1600 L2400 1600 L2400 0 L0 0  Z
  " fill="#ffffff" fill-rule="evenodd" fill-opacity="1"/>
<defs>
  <clipPath id="clip641">
    <rect x="480" y="0" width="1681" height="1600"/>
  </clipPath>
</defs>
<path clip-path="url(#clip640)" d="
M186.274 1486.45 L2352.76 1486.45 L2352.76 47.2441 L186.274 47.2441  Z
  " fill="#ffffff" fill-rule="evenodd" fill-opacity="1"/>
<defs>
  <clipPath id="clip642">
    <rect x="186" y="47" width="2167" height="1440"/>
  </clipPath>
</defs>
<polyline clip-path="url(#clip642)" style="stroke:#222255; stroke-width:2; stroke-opacity:0.1; fill:none" points="
  451.975,1486.45 451.975,47.2441 
  "/>
<polyline clip-path="url(#clip642)" style="stroke:#222255; stroke-width:2; stroke-opacity:0.1; fill:none" points="
  860.745,1486.45 860.745,47.2441 
  "/>
<polyline clip-path="url(#clip642)" style="stroke:#222255; stroke-width:2; stroke-opacity:0.1; fill:none" points="
  1269.51,1486.45 1269.51,47.2441 
  "/>
<polyline clip-path="url(#clip642)" style="stroke:#222255; stroke-width:2; stroke-opacity:0.1; fill:none" points="
  1678.29,1486.45 1678.29,47.2441 
  "/>
<polyline clip-path="url(#clip642)" style="stroke:#222255; stroke-width:2; stroke-opacity:0.1; fill:none" points="
  2087.06,1486.45 2087.06,47.2441 
  "/>
<polyline clip-path="url(#clip642)" style="stroke:#222255; stroke-width:2; stroke-opacity:0.05; fill:none" points="
  206.713,1486.45 206.713,47.2441 
  "/>
<polyline clip-path="url(#clip642)" style="stroke:#222255; stroke-width:2; stroke-opacity:0.05; fill:none" points="
  288.467,1486.45 288.467,47.2441 
  "/>
<polyline clip-path="url(#clip642)" style="stroke:#222255; stroke-width:2; stroke-opacity:0.05; fill:none" points="
  370.221,1486.45 370.221,47.2441 
  "/>
<polyline clip-path="url(#clip642)" style="stroke:#222255; stroke-width:2; stroke-opacity:0.05; fill:none" points="
  533.729,1486.45 533.729,47.2441 
  "/>
<polyline clip-path="url(#clip642)" style="stroke:#222255; stroke-width:2; stroke-opacity:0.05; fill:none" points="
  615.483,1486.45 615.483,47.2441 
  "/>
<polyline clip-path="url(#clip642)" style="stroke:#222255; stroke-width:2; stroke-opacity:0.05; fill:none" points="
  697.237,1486.45 697.237,47.2441 
  "/>
<polyline clip-path="url(#clip642)" style="stroke:#222255; stroke-width:2; stroke-opacity:0.05; fill:none" points="
  778.991,1486.45 778.991,47.2441 
  "/>
<polyline clip-path="url(#clip642)" style="stroke:#222255; stroke-width:2; stroke-opacity:0.05; fill:none" points="
  942.499,1486.45 942.499,47.2441 
  "/>
<polyline clip-path="url(#clip642)" style="stroke:#222255; stroke-width:2; stroke-opacity:0.05; fill:none" points="
  1024.25,1486.45 1024.25,47.2441 
  "/>
<polyline clip-path="url(#clip642)" style="stroke:#222255; stroke-width:2; stroke-opacity:0.05; fill:none" points="
  1106.01,1486.45 1106.01,47.2441 
  "/>
<polyline clip-path="url(#clip642)" style="stroke:#222255; stroke-width:2; stroke-opacity:0.05; fill:none" points="
  1187.76,1486.45 1187.76,47.2441 
  "/>
<polyline clip-path="url(#clip642)" style="stroke:#222255; stroke-width:2; stroke-opacity:0.05; fill:none" points="
  1351.27,1486.45 1351.27,47.2441 
  "/>
<polyline clip-path="url(#clip642)" style="stroke:#222255; stroke-width:2; stroke-opacity:0.05; fill:none" points="
  1433.02,1486.45 1433.02,47.2441 
  "/>
<polyline clip-path="url(#clip642)" style="stroke:#222255; stroke-width:2; stroke-opacity:0.05; fill:none" points="
  1514.78,1486.45 1514.78,47.2441 
  "/>
<polyline clip-path="url(#clip642)" style="stroke:#222255; stroke-width:2; stroke-opacity:0.05; fill:none" points="
  1596.53,1486.45 1596.53,47.2441 
  "/>
<polyline clip-path="url(#clip642)" style="stroke:#222255; stroke-width:2; stroke-opacity:0.05; fill:none" points="
  1760.04,1486.45 1760.04,47.2441 
  "/>
<polyline clip-path="url(#clip642)" style="stroke:#222255; stroke-width:2; stroke-opacity:0.05; fill:none" points="
  1841.79,1486.45 1841.79,47.2441 
  "/>
<polyline clip-path="url(#clip642)" style="stroke:#222255; stroke-width:2; stroke-opacity:0.05; fill:none" points="
  1923.55,1486.45 1923.55,47.2441 
  "/>
<polyline clip-path="url(#clip642)" style="stroke:#222255; stroke-width:2; stroke-opacity:0.05; fill:none" points="
  2005.3,1486.45 2005.3,47.2441 
  "/>
<polyline clip-path="url(#clip642)" style="stroke:#222255; stroke-width:2; stroke-opacity:0.05; fill:none" points="
  2168.81,1486.45 2168.81,47.2441 
  "/>
<polyline clip-path="url(#clip642)" style="stroke:#222255; stroke-width:2; stroke-opacity:0.05; fill:none" points="
  2250.56,1486.45 2250.56,47.2441 
  "/>
<polyline clip-path="url(#clip642)" style="stroke:#222255; stroke-width:2; stroke-opacity:0.05; fill:none" points="
  2332.32,1486.45 2332.32,47.2441 
  "/>
<polyline clip-path="url(#clip640)" style="stroke:#222255; stroke-width:4; stroke-opacity:0; fill:none" points="
  451.975,1486.45 451.975,1469.18 
  "/>
<polyline clip-path="url(#clip640)" style="stroke:#222255; stroke-width:4; stroke-opacity:0; fill:none" points="
  860.745,1486.45 860.745,1469.18 
  "/>
<polyline clip-path="url(#clip640)" style="stroke:#222255; stroke-width:4; stroke-opacity:0; fill:none" points="
  1269.51,1486.45 1269.51,1469.18 
  "/>
<polyline clip-path="url(#clip640)" style="stroke:#222255; stroke-width:4; stroke-opacity:0; fill:none" points="
  1678.29,1486.45 1678.29,1469.18 
  "/>
<polyline clip-path="url(#clip640)" style="stroke:#222255; stroke-width:4; stroke-opacity:0; fill:none" points="
  2087.06,1486.45 2087.06,1469.18 
  "/>
<polyline clip-path="url(#clip640)" style="stroke:#222255; stroke-width:4; stroke-opacity:0; fill:none" points="
  206.713,1486.45 206.713,1477.81 
  "/>
<polyline clip-path="url(#clip640)" style="stroke:#222255; stroke-width:4; stroke-opacity:0; fill:none" points="
  288.467,1486.45 288.467,1477.81 
  "/>
<polyline clip-path="url(#clip640)" style="stroke:#222255; stroke-width:4; stroke-opacity:0; fill:none" points="
  370.221,1486.45 370.221,1477.81 
  "/>
<polyline clip-path="url(#clip640)" style="stroke:#222255; stroke-width:4; stroke-opacity:0; fill:none" points="
  533.729,1486.45 533.729,1477.81 
  "/>
<polyline clip-path="url(#clip640)" style="stroke:#222255; stroke-width:4; stroke-opacity:0; fill:none" points="
  615.483,1486.45 615.483,1477.81 
  "/>
<polyline clip-path="url(#clip640)" style="stroke:#222255; stroke-width:4; stroke-opacity:0; fill:none" points="
  697.237,1486.45 697.237,1477.81 
  "/>
<polyline clip-path="url(#clip640)" style="stroke:#222255; stroke-width:4; stroke-opacity:0; fill:none" points="
  778.991,1486.45 778.991,1477.81 
  "/>
<polyline clip-path="url(#clip640)" style="stroke:#222255; stroke-width:4; stroke-opacity:0; fill:none" points="
  942.499,1486.45 942.499,1477.81 
  "/>
<polyline clip-path="url(#clip640)" style="stroke:#222255; stroke-width:4; stroke-opacity:0; fill:none" points="
  1024.25,1486.45 1024.25,1477.81 
  "/>
<polyline clip-path="url(#clip640)" style="stroke:#222255; stroke-width:4; stroke-opacity:0; fill:none" points="
  1106.01,1486.45 1106.01,1477.81 
  "/>
<polyline clip-path="url(#clip640)" style="stroke:#222255; stroke-width:4; stroke-opacity:0; fill:none" points="
  1187.76,1486.45 1187.76,1477.81 
  "/>
<polyline clip-path="url(#clip640)" style="stroke:#222255; stroke-width:4; stroke-opacity:0; fill:none" points="
  1351.27,1486.45 1351.27,1477.81 
  "/>
<polyline clip-path="url(#clip640)" style="stroke:#222255; stroke-width:4; stroke-opacity:0; fill:none" points="
  1433.02,1486.45 1433.02,1477.81 
  "/>
<polyline clip-path="url(#clip640)" style="stroke:#222255; stroke-width:4; stroke-opacity:0; fill:none" points="
  1514.78,1486.45 1514.78,1477.81 
  "/>
<polyline clip-path="url(#clip640)" style="stroke:#222255; stroke-width:4; stroke-opacity:0; fill:none" points="
  1596.53,1486.45 1596.53,1477.81 
  "/>
<polyline clip-path="url(#clip640)" style="stroke:#222255; stroke-width:4; stroke-opacity:0; fill:none" points="
  1760.04,1486.45 1760.04,1477.81 
  "/>
<polyline clip-path="url(#clip640)" style="stroke:#222255; stroke-width:4; stroke-opacity:0; fill:none" points="
  1841.79,1486.45 1841.79,1477.81 
  "/>
<polyline clip-path="url(#clip640)" style="stroke:#222255; stroke-width:4; stroke-opacity:0; fill:none" points="
  1923.55,1486.45 1923.55,1477.81 
  "/>
<polyline clip-path="url(#clip640)" style="stroke:#222255; stroke-width:4; stroke-opacity:0; fill:none" points="
  2005.3,1486.45 2005.3,1477.81 
  "/>
<polyline clip-path="url(#clip640)" style="stroke:#222255; stroke-width:4; stroke-opacity:0; fill:none" points="
  2168.81,1486.45 2168.81,1477.81 
  "/>
<polyline clip-path="url(#clip640)" style="stroke:#222255; stroke-width:4; stroke-opacity:0; fill:none" points="
  2250.56,1486.45 2250.56,1477.81 
  "/>
<polyline clip-path="url(#clip640)" style="stroke:#222255; stroke-width:4; stroke-opacity:0; fill:none" points="
  2332.32,1486.45 2332.32,1477.81 
  "/>
<path clip-path="url(#clip640)" d="M 0 0 M420.875 1530.29 L450.551 1530.29 L450.551 1534.23 L420.875 1534.23 L420.875 1530.29 Z" fill="#000000" fill-rule="evenodd" fill-opacity="1" /><path clip-path="url(#clip640)" d="M 0 0 M473.491 1516.63 L461.685 1535.08 L473.491 1535.08 L473.491 1516.63 M472.264 1512.56 L478.143 1512.56 L478.143 1535.08 L483.074 1535.08 L483.074 1538.97 L478.143 1538.97 L478.143 1547.12 L473.491 1547.12 L473.491 1538.97 L457.889 1538.97 L457.889 1534.46 L472.264 1512.56 Z" fill="#000000" fill-rule="evenodd" fill-opacity="1" /><path clip-path="url(#clip640)" d="M 0 0 M830.687 1530.29 L860.363 1530.29 L860.363 1534.23 L830.687 1534.23 L830.687 1530.29 Z" fill="#000000" fill-rule="evenodd" fill-opacity="1" /><path clip-path="url(#clip640)" d="M 0 0 M874.483 1543.18 L890.802 1543.18 L890.802 1547.12 L868.858 1547.12 L868.858 1543.18 Q871.52 1540.43 876.103 1535.8 Q880.71 1531.15 881.891 1529.81 Q884.136 1527.28 885.015 1525.55 Q885.918 1523.79 885.918 1522.1 Q885.918 1519.34 883.974 1517.61 Q882.053 1515.87 878.951 1515.87 Q876.752 1515.87 874.298 1516.63 Q871.867 1517.4 869.09 1518.95 L869.09 1514.23 Q871.914 1513.09 874.367 1512.51 Q876.821 1511.93 878.858 1511.93 Q884.228 1511.93 887.423 1514.62 Q890.617 1517.31 890.617 1521.8 Q890.617 1523.93 889.807 1525.85 Q889.02 1527.74 886.914 1530.34 Q886.335 1531.01 883.233 1534.23 Q880.131 1537.42 874.483 1543.18 Z" fill="#000000" fill-rule="evenodd" fill-opacity="1" /><path clip-path="url(#clip640)" d="M 0 0 M1269.51 1515.64 Q1265.9 1515.64 1264.08 1519.2 Q1262.27 1522.75 1262.27 1529.87 Q1262.27 1536.98 1264.08 1540.55 Q1265.9 1544.09 1269.51 1544.09 Q1273.15 1544.09 1274.95 1540.55 Q1276.78 1536.98 1276.78 1529.87 Q1276.78 1522.75 1274.95 1519.2 Q1273.15 1515.64 1269.51 1515.64 M1269.51 1511.93 Q1275.33 1511.93 1278.38 1516.54 Q1281.46 1521.12 1281.46 1529.87 Q1281.46 1538.6 1278.38 1543.21 Q1275.33 1547.79 1269.51 1547.79 Q1263.7 1547.79 1260.63 1543.21 Q1257.57 1538.6 1257.57 1529.87 Q1257.57 1521.12 1260.63 1516.54 Q1263.7 1511.93 1269.51 1511.93 Z" fill="#000000" fill-rule="evenodd" fill-opacity="1" /><path clip-path="url(#clip640)" d="M 0 0 M1672.94 1543.18 L1689.26 1543.18 L1689.26 1547.12 L1667.31 1547.12 L1667.31 1543.18 Q1669.97 1540.43 1674.56 1535.8 Q1679.16 1531.15 1680.35 1529.81 Q1682.59 1527.28 1683.47 1525.55 Q1684.37 1523.79 1684.37 1522.1 Q1684.37 1519.34 1682.43 1517.61 Q1680.51 1515.87 1677.41 1515.87 Q1675.21 1515.87 1672.75 1516.63 Q1670.32 1517.4 1667.54 1518.95 L1667.54 1514.23 Q1670.37 1513.09 1672.82 1512.51 Q1675.28 1511.93 1677.31 1511.93 Q1682.68 1511.93 1685.88 1514.62 Q1689.07 1517.31 1689.07 1521.8 Q1689.07 1523.93 1688.26 1525.85 Q1687.47 1527.74 1685.37 1530.34 Q1684.79 1531.01 1681.69 1534.23 Q1678.59 1537.42 1672.94 1543.18 Z" fill="#000000" fill-rule="evenodd" fill-opacity="1" /><path clip-path="url(#clip640)" d="M 0 0 M2090.06 1516.63 L2078.26 1535.08 L2090.06 1535.08 L2090.06 1516.63 M2088.84 1512.56 L2094.72 1512.56 L2094.72 1535.08 L2099.65 1535.08 L2099.65 1538.97 L2094.72 1538.97 L2094.72 1547.12 L2090.06 1547.12 L2090.06 1538.97 L2074.46 1538.97 L2074.46 1534.46 L2088.84 1512.56 Z" fill="#000000" fill-rule="evenodd" fill-opacity="1" /><polyline clip-path="url(#clip642)" style="stroke:#222255; stroke-width:2; stroke-opacity:0.1; fill:none" points="
  186.274,1361.4 2352.76,1361.4 
  "/>
<polyline clip-path="url(#clip642)" style="stroke:#222255; stroke-width:2; stroke-opacity:0.1; fill:none" points="
  186.274,1059.98 2352.76,1059.98 
  "/>
<polyline clip-path="url(#clip642)" style="stroke:#222255; stroke-width:2; stroke-opacity:0.1; fill:none" points="
  186.274,758.562 2352.76,758.562 
  "/>
<polyline clip-path="url(#clip642)" style="stroke:#222255; stroke-width:2; stroke-opacity:0.1; fill:none" points="
  186.274,457.143 2352.76,457.143 
  "/>
<polyline clip-path="url(#clip642)" style="stroke:#222255; stroke-width:2; stroke-opacity:0.1; fill:none" points="
  186.274,155.724 2352.76,155.724 
  "/>
<polyline clip-path="url(#clip642)" style="stroke:#222255; stroke-width:2; stroke-opacity:0.05; fill:none" points="
  186.274,1481.97 2352.76,1481.97 
  "/>
<polyline clip-path="url(#clip642)" style="stroke:#222255; stroke-width:2; stroke-opacity:0.05; fill:none" points="
  186.274,1421.68 2352.76,1421.68 
  "/>
<polyline clip-path="url(#clip642)" style="stroke:#222255; stroke-width:2; stroke-opacity:0.05; fill:none" points="
  186.274,1301.12 2352.76,1301.12 
  "/>
<polyline clip-path="url(#clip642)" style="stroke:#222255; stroke-width:2; stroke-opacity:0.05; fill:none" points="
  186.274,1240.83 2352.76,1240.83 
  "/>
<polyline clip-path="url(#clip642)" style="stroke:#222255; stroke-width:2; stroke-opacity:0.05; fill:none" points="
  186.274,1180.55 2352.76,1180.55 
  "/>
<polyline clip-path="url(#clip642)" style="stroke:#222255; stroke-width:2; stroke-opacity:0.05; fill:none" points="
  186.274,1120.27 2352.76,1120.27 
  "/>
<polyline clip-path="url(#clip642)" style="stroke:#222255; stroke-width:2; stroke-opacity:0.05; fill:none" points="
  186.274,999.698 2352.76,999.698 
  "/>
<polyline clip-path="url(#clip642)" style="stroke:#222255; stroke-width:2; stroke-opacity:0.05; fill:none" points="
  186.274,939.414 2352.76,939.414 
  "/>
<polyline clip-path="url(#clip642)" style="stroke:#222255; stroke-width:2; stroke-opacity:0.05; fill:none" points="
  186.274,879.13 2352.76,879.13 
  "/>
<polyline clip-path="url(#clip642)" style="stroke:#222255; stroke-width:2; stroke-opacity:0.05; fill:none" points="
  186.274,818.846 2352.76,818.846 
  "/>
<polyline clip-path="url(#clip642)" style="stroke:#222255; stroke-width:2; stroke-opacity:0.05; fill:none" points="
  186.274,698.278 2352.76,698.278 
  "/>
<polyline clip-path="url(#clip642)" style="stroke:#222255; stroke-width:2; stroke-opacity:0.05; fill:none" points="
  186.274,637.995 2352.76,637.995 
  "/>
<polyline clip-path="url(#clip642)" style="stroke:#222255; stroke-width:2; stroke-opacity:0.05; fill:none" points="
  186.274,577.711 2352.76,577.711 
  "/>
<polyline clip-path="url(#clip642)" style="stroke:#222255; stroke-width:2; stroke-opacity:0.05; fill:none" points="
  186.274,517.427 2352.76,517.427 
  "/>
<polyline clip-path="url(#clip642)" style="stroke:#222255; stroke-width:2; stroke-opacity:0.05; fill:none" points="
  186.274,396.859 2352.76,396.859 
  "/>
<polyline clip-path="url(#clip642)" style="stroke:#222255; stroke-width:2; stroke-opacity:0.05; fill:none" points="
  186.274,336.575 2352.76,336.575 
  "/>
<polyline clip-path="url(#clip642)" style="stroke:#222255; stroke-width:2; stroke-opacity:0.05; fill:none" points="
  186.274,276.292 2352.76,276.292 
  "/>
<polyline clip-path="url(#clip642)" style="stroke:#222255; stroke-width:2; stroke-opacity:0.05; fill:none" points="
  186.274,216.008 2352.76,216.008 
  "/>
<polyline clip-path="url(#clip642)" style="stroke:#222255; stroke-width:2; stroke-opacity:0.05; fill:none" points="
  186.274,95.44 2352.76,95.44 
  "/>
<polyline clip-path="url(#clip640)" style="stroke:#222255; stroke-width:4; stroke-opacity:0; fill:none" points="
  186.274,1361.4 212.272,1361.4 
  "/>
<polyline clip-path="url(#clip640)" style="stroke:#222255; stroke-width:4; stroke-opacity:0; fill:none" points="
  186.274,1059.98 212.272,1059.98 
  "/>
<polyline clip-path="url(#clip640)" style="stroke:#222255; stroke-width:4; stroke-opacity:0; fill:none" points="
  186.274,758.562 212.272,758.562 
  "/>
<polyline clip-path="url(#clip640)" style="stroke:#222255; stroke-width:4; stroke-opacity:0; fill:none" points="
  186.274,457.143 212.272,457.143 
  "/>
<polyline clip-path="url(#clip640)" style="stroke:#222255; stroke-width:4; stroke-opacity:0; fill:none" points="
  186.274,155.724 212.272,155.724 
  "/>
<polyline clip-path="url(#clip640)" style="stroke:#222255; stroke-width:4; stroke-opacity:0; fill:none" points="
  186.274,1481.97 199.273,1481.97 
  "/>
<polyline clip-path="url(#clip640)" style="stroke:#222255; stroke-width:4; stroke-opacity:0; fill:none" points="
  186.274,1421.68 199.273,1421.68 
  "/>
<polyline clip-path="url(#clip640)" style="stroke:#222255; stroke-width:4; stroke-opacity:0; fill:none" points="
  186.274,1301.12 199.273,1301.12 
  "/>
<polyline clip-path="url(#clip640)" style="stroke:#222255; stroke-width:4; stroke-opacity:0; fill:none" points="
  186.274,1240.83 199.273,1240.83 
  "/>
<polyline clip-path="url(#clip640)" style="stroke:#222255; stroke-width:4; stroke-opacity:0; fill:none" points="
  186.274,1180.55 199.273,1180.55 
  "/>
<polyline clip-path="url(#clip640)" style="stroke:#222255; stroke-width:4; stroke-opacity:0; fill:none" points="
  186.274,1120.27 199.273,1120.27 
  "/>
<polyline clip-path="url(#clip640)" style="stroke:#222255; stroke-width:4; stroke-opacity:0; fill:none" points="
  186.274,999.698 199.273,999.698 
  "/>
<polyline clip-path="url(#clip640)" style="stroke:#222255; stroke-width:4; stroke-opacity:0; fill:none" points="
  186.274,939.414 199.273,939.414 
  "/>
<polyline clip-path="url(#clip640)" style="stroke:#222255; stroke-width:4; stroke-opacity:0; fill:none" points="
  186.274,879.13 199.273,879.13 
  "/>
<polyline clip-path="url(#clip640)" style="stroke:#222255; stroke-width:4; stroke-opacity:0; fill:none" points="
  186.274,818.846 199.273,818.846 
  "/>
<polyline clip-path="url(#clip640)" style="stroke:#222255; stroke-width:4; stroke-opacity:0; fill:none" points="
  186.274,698.278 199.273,698.278 
  "/>
<polyline clip-path="url(#clip640)" style="stroke:#222255; stroke-width:4; stroke-opacity:0; fill:none" points="
  186.274,637.995 199.273,637.995 
  "/>
<polyline clip-path="url(#clip640)" style="stroke:#222255; stroke-width:4; stroke-opacity:0; fill:none" points="
  186.274,577.711 199.273,577.711 
  "/>
<polyline clip-path="url(#clip640)" style="stroke:#222255; stroke-width:4; stroke-opacity:0; fill:none" points="
  186.274,517.427 199.273,517.427 
  "/>
<polyline clip-path="url(#clip640)" style="stroke:#222255; stroke-width:4; stroke-opacity:0; fill:none" points="
  186.274,396.859 199.273,396.859 
  "/>
<polyline clip-path="url(#clip640)" style="stroke:#222255; stroke-width:4; stroke-opacity:0; fill:none" points="
  186.274,336.575 199.273,336.575 
  "/>
<polyline clip-path="url(#clip640)" style="stroke:#222255; stroke-width:4; stroke-opacity:0; fill:none" points="
  186.274,276.292 199.273,276.292 
  "/>
<polyline clip-path="url(#clip640)" style="stroke:#222255; stroke-width:4; stroke-opacity:0; fill:none" points="
  186.274,216.008 199.273,216.008 
  "/>
<polyline clip-path="url(#clip640)" style="stroke:#222255; stroke-width:4; stroke-opacity:0; fill:none" points="
  186.274,95.44 199.273,95.44 
  "/>
<path clip-path="url(#clip640)" d="M 0 0 M63.9319 1347.2 Q60.3208 1347.2 58.4921 1350.76 Q56.6865 1354.31 56.6865 1361.44 Q56.6865 1368.54 58.4921 1372.11 Q60.3208 1375.65 63.9319 1375.65 Q67.5661 1375.65 69.3717 1372.11 Q71.2004 1368.54 71.2004 1361.44 Q71.2004 1354.31 69.3717 1350.76 Q67.5661 1347.2 63.9319 1347.2 M63.9319 1343.5 Q69.742 1343.5 72.7976 1348.1 Q75.8763 1352.69 75.8763 1361.44 Q75.8763 1370.16 72.7976 1374.77 Q69.742 1379.35 63.9319 1379.35 Q58.1217 1379.35 55.043 1374.77 Q51.9875 1370.16 51.9875 1361.44 Q51.9875 1352.69 55.043 1348.1 Q58.1217 1343.5 63.9319 1343.5 Z" fill="#000000" fill-rule="evenodd" fill-opacity="1" /><path clip-path="url(#clip640)" d="M 0 0 M84.0938 1372.8 L88.978 1372.8 L88.978 1378.68 L84.0938 1378.68 L84.0938 1372.8 Z" fill="#000000" fill-rule="evenodd" fill-opacity="1" /><path clip-path="url(#clip640)" d="M 0 0 M103.191 1374.75 L119.51 1374.75 L119.51 1378.68 L97.566 1378.68 L97.566 1374.75 Q100.228 1371.99 104.811 1367.36 Q109.418 1362.71 110.598 1361.37 Q112.844 1358.84 113.723 1357.11 Q114.626 1355.35 114.626 1353.66 Q114.626 1350.9 112.682 1349.17 Q110.76 1347.43 107.658 1347.43 Q105.459 1347.43 103.006 1348.19 Q100.575 1348.96 97.7974 1350.51 L97.7974 1345.79 Q100.621 1344.65 103.075 1344.07 Q105.529 1343.5 107.566 1343.5 Q112.936 1343.5 116.131 1346.18 Q119.325 1348.87 119.325 1353.36 Q119.325 1355.49 118.515 1357.41 Q117.728 1359.31 115.621 1361.9 Q115.043 1362.57 111.941 1365.79 Q108.839 1368.98 103.191 1374.75 Z" fill="#000000" fill-rule="evenodd" fill-opacity="1" /><path clip-path="url(#clip640)" d="M 0 0 M129.371 1344.12 L147.728 1344.12 L147.728 1348.06 L133.654 1348.06 L133.654 1356.53 Q134.672 1356.18 135.691 1356.02 Q136.709 1355.83 137.728 1355.83 Q143.515 1355.83 146.894 1359 Q150.274 1362.18 150.274 1367.59 Q150.274 1373.17 146.802 1376.27 Q143.33 1379.35 137.01 1379.35 Q134.834 1379.35 132.566 1378.98 Q130.32 1378.61 127.913 1377.87 L127.913 1373.17 Q129.996 1374.31 132.219 1374.86 Q134.441 1375.42 136.918 1375.42 Q140.922 1375.42 143.26 1373.31 Q145.598 1371.2 145.598 1367.59 Q145.598 1363.98 143.26 1361.88 Q140.922 1359.77 136.918 1359.77 Q135.043 1359.77 133.168 1360.19 Q131.316 1360.6 129.371 1361.48 L129.371 1344.12 Z" fill="#000000" fill-rule="evenodd" fill-opacity="1" /><path clip-path="url(#clip640)" d="M 0 0 M62.9365 1045.78 Q59.3254 1045.78 57.4967 1049.34 Q55.6912 1052.89 55.6912 1060.02 Q55.6912 1067.12 57.4967 1070.69 Q59.3254 1074.23 62.9365 1074.23 Q66.5707 1074.23 68.3763 1070.69 Q70.205 1067.12 70.205 1060.02 Q70.205 1052.89 68.3763 1049.34 Q66.5707 1045.78 62.9365 1045.78 M62.9365 1042.08 Q68.7467 1042.08 71.8022 1046.68 Q74.8809 1051.27 74.8809 1060.02 Q74.8809 1068.74 71.8022 1073.35 Q68.7467 1077.93 62.9365 1077.93 Q57.1264 1077.93 54.0477 1073.35 Q50.9921 1068.74 50.9921 1060.02 Q50.9921 1051.27 54.0477 1046.68 Q57.1264 1042.08 62.9365 1042.08 Z" fill="#000000" fill-rule="evenodd" fill-opacity="1" /><path clip-path="url(#clip640)" d="M 0 0 M83.0984 1071.38 L87.9827 1071.38 L87.9827 1077.26 L83.0984 1077.26 L83.0984 1071.38 Z" fill="#000000" fill-rule="evenodd" fill-opacity="1" /><path clip-path="url(#clip640)" d="M 0 0 M98.2141 1042.7 L116.57 1042.7 L116.57 1046.64 L102.496 1046.64 L102.496 1055.11 Q103.515 1054.76 104.534 1054.6 Q105.552 1054.41 106.571 1054.41 Q112.358 1054.41 115.737 1057.59 Q119.117 1060.76 119.117 1066.17 Q119.117 1071.75 115.645 1074.85 Q112.172 1077.93 105.853 1077.93 Q103.677 1077.93 101.409 1077.56 Q99.1632 1077.19 96.7558 1076.45 L96.7558 1071.75 Q98.8391 1072.89 101.061 1073.44 Q103.284 1074 105.76 1074 Q109.765 1074 112.103 1071.89 Q114.441 1069.78 114.441 1066.17 Q114.441 1062.56 112.103 1060.46 Q109.765 1058.35 105.76 1058.35 Q103.885 1058.35 102.01 1058.77 Q100.159 1059.18 98.2141 1060.06 L98.2141 1042.7 Z" fill="#000000" fill-rule="evenodd" fill-opacity="1" /><path clip-path="url(#clip640)" d="M 0 0 M138.33 1045.78 Q134.719 1045.78 132.89 1049.34 Q131.084 1052.89 131.084 1060.02 Q131.084 1067.12 132.89 1070.69 Q134.719 1074.23 138.33 1074.23 Q141.964 1074.23 143.769 1070.69 Q145.598 1067.12 145.598 1060.02 Q145.598 1052.89 143.769 1049.34 Q141.964 1045.78 138.33 1045.78 M138.33 1042.08 Q144.14 1042.08 147.195 1046.68 Q150.274 1051.27 150.274 1060.02 Q150.274 1068.74 147.195 1073.35 Q144.14 1077.93 138.33 1077.93 Q132.519 1077.93 129.441 1073.35 Q126.385 1068.74 126.385 1060.02 Q126.385 1051.27 129.441 1046.68 Q132.519 1042.08 138.33 1042.08 Z" fill="#000000" fill-rule="evenodd" fill-opacity="1" /><path clip-path="url(#clip640)" d="M 0 0 M63.9319 744.361 Q60.3208 744.361 58.4921 747.926 Q56.6865 751.467 56.6865 758.597 Q56.6865 765.703 58.4921 769.268 Q60.3208 772.81 63.9319 772.81 Q67.5661 772.81 69.3717 769.268 Q71.2004 765.703 71.2004 758.597 Q71.2004 751.467 69.3717 747.926 Q67.5661 744.361 63.9319 744.361 M63.9319 740.657 Q69.742 740.657 72.7976 745.264 Q75.8763 749.847 75.8763 758.597 Q75.8763 767.324 72.7976 771.93 Q69.742 776.514 63.9319 776.514 Q58.1217 776.514 55.043 771.93 Q51.9875 767.324 51.9875 758.597 Q51.9875 749.847 55.043 745.264 Q58.1217 740.657 63.9319 740.657 Z" fill="#000000" fill-rule="evenodd" fill-opacity="1" /><path clip-path="url(#clip640)" d="M 0 0 M84.0938 769.963 L88.978 769.963 L88.978 775.842 L84.0938 775.842 L84.0938 769.963 Z" fill="#000000" fill-rule="evenodd" fill-opacity="1" /><path clip-path="url(#clip640)" d="M 0 0 M97.9826 741.282 L120.205 741.282 L120.205 743.273 L107.658 775.842 L102.774 775.842 L114.58 745.217 L97.9826 745.217 L97.9826 741.282 Z" fill="#000000" fill-rule="evenodd" fill-opacity="1" /><path clip-path="url(#clip640)" d="M 0 0 M129.371 741.282 L147.728 741.282 L147.728 745.217 L133.654 745.217 L133.654 753.69 Q134.672 753.342 135.691 753.18 Q136.709 752.995 137.728 752.995 Q143.515 752.995 146.894 756.166 Q150.274 759.338 150.274 764.754 Q150.274 770.333 146.802 773.435 Q143.33 776.514 137.01 776.514 Q134.834 776.514 132.566 776.143 Q130.32 775.773 127.913 775.032 L127.913 770.333 Q129.996 771.467 132.219 772.023 Q134.441 772.578 136.918 772.578 Q140.922 772.578 143.26 770.472 Q145.598 768.365 145.598 764.754 Q145.598 761.143 143.26 759.037 Q140.922 756.93 136.918 756.93 Q135.043 756.93 133.168 757.347 Q131.316 757.764 129.371 758.643 L129.371 741.282 Z" fill="#000000" fill-rule="evenodd" fill-opacity="1" /><path clip-path="url(#clip640)" d="M 0 0 M53.7467 470.488 L61.3856 470.488 L61.3856 444.122 L53.0754 445.789 L53.0754 441.53 L61.3393 439.863 L66.0152 439.863 L66.0152 470.488 L73.654 470.488 L73.654 474.423 L53.7467 474.423 L53.7467 470.488 Z" fill="#000000" fill-rule="evenodd" fill-opacity="1" /><path clip-path="url(#clip640)" d="M 0 0 M83.0984 468.543 L87.9827 468.543 L87.9827 474.423 L83.0984 474.423 L83.0984 468.543 Z" fill="#000000" fill-rule="evenodd" fill-opacity="1" /><path clip-path="url(#clip640)" d="M 0 0 M108.168 442.942 Q104.557 442.942 102.728 446.507 Q100.922 450.048 100.922 457.178 Q100.922 464.284 102.728 467.849 Q104.557 471.391 108.168 471.391 Q111.802 471.391 113.608 467.849 Q115.436 464.284 115.436 457.178 Q115.436 450.048 113.608 446.507 Q111.802 442.942 108.168 442.942 M108.168 439.238 Q113.978 439.238 117.033 443.845 Q120.112 448.428 120.112 457.178 Q120.112 465.905 117.033 470.511 Q113.978 475.094 108.168 475.094 Q102.358 475.094 99.2789 470.511 Q96.2234 465.905 96.2234 457.178 Q96.2234 448.428 99.2789 443.845 Q102.358 439.238 108.168 439.238 Z" fill="#000000" fill-rule="evenodd" fill-opacity="1" /><path clip-path="url(#clip640)" d="M 0 0 M138.33 442.942 Q134.719 442.942 132.89 446.507 Q131.084 450.048 131.084 457.178 Q131.084 464.284 132.89 467.849 Q134.719 471.391 138.33 471.391 Q141.964 471.391 143.769 467.849 Q145.598 464.284 145.598 457.178 Q145.598 450.048 143.769 446.507 Q141.964 442.942 138.33 442.942 M138.33 439.238 Q144.14 439.238 147.195 443.845 Q150.274 448.428 150.274 457.178 Q150.274 465.905 147.195 470.511 Q144.14 475.094 138.33 475.094 Q132.519 475.094 129.441 470.511 Q126.385 465.905 126.385 457.178 Q126.385 448.428 129.441 443.845 Q132.519 439.238 138.33 439.238 Z" fill="#000000" fill-rule="evenodd" fill-opacity="1" /><path clip-path="url(#clip640)" d="M 0 0 M54.7421 169.069 L62.381 169.069 L62.381 142.703 L54.0708 144.37 L54.0708 140.111 L62.3347 138.444 L67.0106 138.444 L67.0106 169.069 L74.6494 169.069 L74.6494 173.004 L54.7421 173.004 L54.7421 169.069 Z" fill="#000000" fill-rule="evenodd" fill-opacity="1" /><path clip-path="url(#clip640)" d="M 0 0 M84.0938 167.124 L88.978 167.124 L88.978 173.004 L84.0938 173.004 L84.0938 167.124 Z" fill="#000000" fill-rule="evenodd" fill-opacity="1" /><path clip-path="url(#clip640)" d="M 0 0 M103.191 169.069 L119.51 169.069 L119.51 173.004 L97.566 173.004 L97.566 169.069 Q100.228 166.314 104.811 161.684 Q109.418 157.032 110.598 155.689 Q112.844 153.166 113.723 151.43 Q114.626 149.671 114.626 147.981 Q114.626 145.226 112.682 143.49 Q110.76 141.754 107.658 141.754 Q105.459 141.754 103.006 142.518 Q100.575 143.282 97.7974 144.833 L97.7974 140.111 Q100.621 138.976 103.075 138.398 Q105.529 137.819 107.566 137.819 Q112.936 137.819 116.131 140.504 Q119.325 143.189 119.325 147.68 Q119.325 149.81 118.515 151.731 Q117.728 153.629 115.621 156.222 Q115.043 156.893 111.941 160.11 Q108.839 163.305 103.191 169.069 Z" fill="#000000" fill-rule="evenodd" fill-opacity="1" /><path clip-path="url(#clip640)" d="M 0 0 M129.371 138.444 L147.728 138.444 L147.728 142.379 L133.654 142.379 L133.654 150.851 Q134.672 150.504 135.691 150.342 Q136.709 150.157 137.728 150.157 Q143.515 150.157 146.894 153.328 Q150.274 156.499 150.274 161.916 Q150.274 167.495 146.802 170.596 Q143.33 173.675 137.01 173.675 Q134.834 173.675 132.566 173.305 Q130.32 172.934 127.913 172.194 L127.913 167.495 Q129.996 168.629 132.219 169.184 Q134.441 169.74 136.918 169.74 Q140.922 169.74 143.26 167.634 Q145.598 165.527 145.598 161.916 Q145.598 158.305 143.26 156.198 Q140.922 154.092 136.918 154.092 Q135.043 154.092 133.168 154.509 Q131.316 154.925 129.371 155.805 L129.371 138.444 Z" fill="#000000" fill-rule="evenodd" fill-opacity="1" /><polyline clip-path="url(#clip642)" style="stroke:#ee7733; stroke-width:4.8; stroke-opacity:1; fill:none" points="
  247.59,878.445 268.234,890.819 288.879,903.191 309.524,915.561 330.169,927.93 350.814,940.298 371.459,952.664 392.104,965.028 412.749,977.39 433.394,989.75 
  454.039,1002.11 474.684,1014.46 495.329,1026.82 515.974,1039.16 536.619,1051.51 557.264,1063.85 577.909,1076.19 598.554,1088.53 619.199,1100.86 639.844,1113.19 
  660.489,1125.51 681.134,1137.82 701.779,1150.13 722.424,1162.43 743.069,1174.73 763.713,1187.01 784.358,1199.29 805.003,1211.55 825.648,1223.8 846.293,1236.03 
  866.938,1248.25 887.583,1260.45 908.228,1272.62 928.873,1284.77 949.518,1296.89 970.163,1308.96 990.808,1320.99 1011.45,1332.96 1032.1,1344.86 1052.74,1356.67 
  1073.39,1368.35 1094.03,1379.88 1114.68,1391.2 1135.32,1402.22 1155.97,1412.82 1176.61,1422.76 1197.26,1431.71 1217.9,1439.05 1238.55,1443.92 1259.19,1445.72 
  1279.84,1445.72 1300.48,1443.92 1321.13,1439.05 1341.77,1431.71 1362.42,1422.76 1383.06,1412.82 1403.71,1402.22 1424.35,1391.2 1445,1379.88 1465.64,1368.35 
  1486.29,1356.67 1506.93,1344.86 1527.58,1332.96 1548.22,1320.99 1568.87,1308.96 1589.51,1296.89 1610.16,1284.77 1630.8,1272.62 1651.45,1260.45 1672.09,1248.25 
  1692.74,1236.03 1713.38,1223.8 1734.03,1211.55 1754.67,1199.29 1775.32,1187.01 1795.96,1174.73 1816.61,1162.43 1837.25,1150.13 1857.9,1137.82 1878.54,1125.51 
  1899.19,1113.19 1919.83,1100.86 1940.48,1088.53 1961.12,1076.19 1981.77,1063.85 2002.41,1051.51 2023.06,1039.16 2043.7,1026.82 2064.35,1014.46 2084.99,1002.11 
  2105.64,989.75 2126.28,977.39 2146.93,965.028 2167.57,952.664 2188.22,940.298 2208.86,927.93 2229.51,915.561 2250.15,903.191 2270.8,890.819 2291.44,878.445 
  
  "/>
<polyline clip-path="url(#clip642)" style="stroke:#0077bb; stroke-width:4.8; stroke-opacity:1; fill:none" points="
  247.59,462.413 268.234,482.516 288.879,502.614 309.524,522.709 330.169,542.8 350.814,562.887 371.459,582.97 392.104,603.047 412.749,623.12 433.394,643.187 
  454.039,663.248 474.684,683.303 495.329,703.351 515.974,723.392 536.619,743.424 557.264,763.448 577.909,783.462 598.554,803.466 619.199,823.459 639.844,843.439 
  660.489,863.405 681.134,883.357 701.779,903.291 722.424,923.208 743.069,943.103 763.713,962.975 784.358,982.821 805.003,1002.64 825.648,1022.42 846.293,1042.17 
  866.938,1061.87 887.583,1081.52 908.228,1101.11 928.873,1120.63 949.518,1140.07 970.163,1159.42 990.808,1178.64 1011.45,1197.73 1032.1,1216.63 1052.74,1235.31 
  1073.39,1253.71 1094.03,1271.74 1114.68,1289.28 1135.32,1306.17 1155.97,1322.14 1176.61,1336.81 1197.26,1349.63 1217.9,1359.75 1238.55,1366.2 1259.19,1368.53 
  1279.84,1368.53 1300.48,1366.2 1321.13,1359.75 1341.77,1349.63 1362.42,1336.81 1383.06,1322.14 1403.71,1306.17 1424.35,1289.28 1445,1271.74 1465.64,1253.71 
  1486.29,1235.31 1506.93,1216.63 1527.58,1197.73 1548.22,1178.64 1568.87,1159.42 1589.51,1140.07 1610.16,1120.63 1630.8,1101.11 1651.45,1081.52 1672.09,1061.87 
  1692.74,1042.17 1713.38,1022.42 1734.03,1002.64 1754.67,982.821 1775.32,962.975 1795.96,943.103 1816.61,923.208 1837.25,903.291 1857.9,883.357 1878.54,863.405 
  1899.19,843.439 1919.83,823.459 1940.48,803.466 1961.12,783.462 1981.77,763.448 2002.41,743.424 2023.06,723.392 2043.7,703.351 2064.35,683.303 2084.99,663.248 
  2105.64,643.187 2126.28,623.12 2146.93,603.047 2167.57,582.97 2188.22,562.887 2208.86,542.8 2229.51,522.709 2250.15,502.614 2270.8,482.516 2291.44,462.413 
  
  "/>
<polyline clip-path="url(#clip642)" style="stroke:#33bbee; stroke-width:4.8; stroke-opacity:1; fill:none" points="
  247.59,229.672 268.234,253.962 288.879,278.245 309.524,302.522 330.169,326.792 350.814,351.055 371.459,375.31 392.104,399.556 412.749,423.794 433.394,448.021 
  454.039,472.239 474.684,496.445 495.329,520.639 515.974,544.82 536.619,568.986 557.264,593.138 577.909,617.272 598.554,641.389 619.199,665.485 639.844,689.56 
  660.489,713.611 681.134,737.635 701.779,761.63 722.424,785.593 743.069,809.52 763.713,833.406 784.358,857.247 805.003,881.037 825.648,904.769 846.293,928.435 
  866.938,952.026 887.583,975.53 908.228,998.934 928.873,1022.22 949.518,1045.37 970.163,1068.35 990.808,1091.14 1011.45,1113.69 1032.1,1135.95 1052.74,1157.84 
  1073.39,1179.29 1094.03,1200.16 1114.68,1220.29 1135.32,1239.45 1155.97,1257.32 1176.61,1273.44 1197.26,1287.21 1217.9,1297.82 1238.55,1304.43 1259.19,1306.79 
  1279.84,1306.79 1300.48,1304.43 1321.13,1297.82 1341.77,1287.21 1362.42,1273.44 1383.06,1257.32 1403.71,1239.45 1424.35,1220.29 1445,1200.16 1465.64,1179.29 
  1486.29,1157.84 1506.93,1135.95 1527.58,1113.69 1548.22,1091.14 1568.87,1068.35 1589.51,1045.37 1610.16,1022.22 1630.8,998.934 1651.45,975.53 1672.09,952.026 
  1692.74,928.435 1713.38,904.769 1734.03,881.037 1754.67,857.247 1775.32,833.406 1795.96,809.52 1816.61,785.593 1837.25,761.63 1857.9,737.635 1878.54,713.611 
  1899.19,689.56 1919.83,665.485 1940.48,641.389 1961.12,617.272 1981.77,593.138 2002.41,568.986 2023.06,544.82 2043.7,520.639 2064.35,496.445 2084.99,472.239 
  2105.64,448.021 2126.28,423.794 2146.93,399.556 2167.57,375.31 2188.22,351.055 2208.86,326.792 2229.51,302.522 2250.15,278.245 2270.8,253.962 2291.44,229.672 
  
  "/>
<polyline clip-path="url(#clip642)" style="stroke:#ee3377; stroke-width:4.8; stroke-opacity:1; fill:none" points="
  247.59,119.267 268.234,145.36 288.879,171.445 309.524,197.519 330.169,223.583 350.814,249.636 371.459,275.677 392.104,301.706 412.749,327.721 433.394,353.722 
  454.039,379.707 474.684,405.676 495.329,431.626 515.974,457.557 536.619,483.467 557.264,509.354 577.909,535.217 598.554,561.052 619.199,586.858 639.844,612.632 
  660.489,638.37 681.134,664.069 701.779,689.725 722.424,715.333 743.069,740.889 763.713,766.385 784.358,791.815 805.003,817.17 825.648,842.442 846.293,867.618 
  866.938,892.685 887.583,917.626 908.228,942.424 928.873,967.054 949.518,991.489 970.163,1015.69 990.808,1039.62 1011.45,1063.22 1032.1,1086.43 1052.74,1109.15 
  1073.39,1131.27 1094.03,1152.65 1114.68,1173.09 1135.32,1192.34 1155.97,1210.07 1176.61,1225.82 1197.26,1239.04 1217.9,1249.06 1238.55,1255.22 1259.19,1257.42 
  1279.84,1257.42 1300.48,1255.22 1321.13,1249.06 1341.77,1239.04 1362.42,1225.82 1383.06,1210.07 1403.71,1192.34 1424.35,1173.09 1445,1152.65 1465.64,1131.27 
  1486.29,1109.15 1506.93,1086.43 1527.58,1063.22 1548.22,1039.62 1568.87,1015.69 1589.51,991.489 1610.16,967.054 1630.8,942.424 1651.45,917.626 1672.09,892.685 
  1692.74,867.618 1713.38,842.442 1734.03,817.17 1754.67,791.815 1775.32,766.385 1795.96,740.889 1816.61,715.333 1837.25,689.725 1857.9,664.069 1878.54,638.37 
  1899.19,612.632 1919.83,586.858 1940.48,561.052 1961.12,535.217 1981.77,509.354 2002.41,483.467 2023.06,457.557 2043.7,431.626 2064.35,405.676 2084.99,379.707 
  2105.64,353.722 2126.28,327.721 2146.93,301.706 2167.57,275.677 2188.22,249.636 2208.86,223.583 2229.51,197.519 2250.15,171.445 2270.8,145.36 2291.44,119.267 
  
  "/>
<polyline clip-path="url(#clip642)" style="stroke:#cc3311; stroke-width:4.8; stroke-opacity:1; fill:none" points="
  247.59,87.9763 268.234,114.328 288.879,140.667 309.524,166.993 330.169,193.305 350.814,219.602 371.459,245.883 392.104,272.147 412.749,298.393 433.394,324.618 
  454.039,350.823 474.684,377.006 495.329,403.163 515.974,429.295 536.619,455.398 557.264,481.47 577.909,507.509 598.554,533.511 619.199,559.474 639.844,585.394 
  660.489,611.265 681.134,637.085 701.779,662.847 722.424,688.545 743.069,714.173 763.713,739.722 784.358,765.183 805.003,790.546 825.648,815.798 846.293,840.925 
  866.938,865.91 887.583,890.732 908.228,915.368 928.873,939.788 949.518,963.958 970.163,987.837 990.808,1011.37 1011.45,1034.5 1032.1,1057.14 1052.74,1079.2 
  1073.39,1100.55 1094.03,1121.04 1114.68,1140.46 1135.32,1158.58 1155.97,1175.07 1176.61,1189.54 1197.26,1201.53 1217.9,1210.5 1238.55,1215.97 1259.19,1217.92 
  1279.84,1217.92 1300.48,1215.97 1321.13,1210.5 1341.77,1201.53 1362.42,1189.54 1383.06,1175.07 1403.71,1158.58 1424.35,1140.46 1445,1121.04 1465.64,1100.55 
  1486.29,1079.2 1506.93,1057.14 1527.58,1034.5 1548.22,1011.37 1568.87,987.837 1589.51,963.958 1610.16,939.788 1630.8,915.368 1651.45,890.732 1672.09,865.91 
  1692.74,840.925 1713.38,815.798 1734.03,790.546 1754.67,765.183 1775.32,739.722 1795.96,714.173 1816.61,688.545 1837.25,662.847 1857.9,637.085 1878.54,611.265 
  1899.19,585.394 1919.83,559.474 1940.48,533.511 1961.12,507.509 1981.77,481.47 2002.41,455.398 2023.06,429.295 2043.7,403.163 2064.35,377.006 2084.99,350.823 
  2105.64,324.618 2126.28,298.393 2146.93,272.147 2167.57,245.883 2188.22,219.602 2208.86,193.305 2229.51,166.993 2250.15,140.667 2270.8,114.328 2291.44,87.9763 
  
  "/>
<polyline clip-path="url(#clip642)" style="stroke:#009988; stroke-width:4.8; stroke-opacity:1; fill:none" points="
  247.59,106.501 268.234,132.139 288.879,157.761 309.524,183.366 330.169,208.953 350.814,234.52 371.459,260.067 392.104,285.593 412.749,311.095 433.394,336.571 
  454.039,362.021 474.684,387.442 495.329,412.832 515.974,438.189 536.619,463.509 557.264,488.791 577.909,514.03 598.554,539.222 619.199,564.365 639.844,589.453 
  660.489,614.481 681.134,639.443 701.779,664.333 722.424,689.143 743.069,713.865 763.713,738.49 784.358,763.005 805.003,787.399 825.648,811.656 846.293,835.76 
  866.938,859.69 887.583,883.422 908.228,906.93 928.873,930.18 949.518,953.132 970.163,975.741 990.808,997.948 1011.45,1019.69 1032.1,1040.87 1052.74,1061.41 
  1073.39,1081.16 1094.03,1099.99 1114.68,1117.7 1135.32,1134.07 1155.97,1148.82 1176.61,1161.63 1197.26,1172.14 1217.9,1179.92 1238.55,1184.64 1259.19,1186.32 
  1279.84,1186.32 1300.48,1184.64 1321.13,1179.92 1341.77,1172.14 1362.42,1161.63 1383.06,1148.82 1403.71,1134.07 1424.35,1117.7 1445,1099.99 1465.64,1081.16 
  1486.29,1061.41 1506.93,1040.87 1527.58,1019.69 1548.22,997.948 1568.87,975.741 1589.51,953.132 1610.16,930.18 1630.8,906.93 1651.45,883.422 1672.09,859.69 
  1692.74,835.76 1713.38,811.656 1734.03,787.399 1754.67,763.005 1775.32,738.49 1795.96,713.865 1816.61,689.143 1837.25,664.333 1857.9,639.443 1878.54,614.481 
  1899.19,589.453 1919.83,564.365 1940.48,539.222 1961.12,514.03 1981.77,488.791 2002.41,463.509 2023.06,438.189 2043.7,412.832 2064.35,387.442 2084.99,362.021 
  2105.64,336.571 2126.28,311.095 2146.93,285.593 2167.57,260.067 2188.22,234.52 2208.86,208.953 2229.51,183.366 2250.15,157.761 2270.8,132.139 2291.44,106.501 
  
  "/>
<polyline clip-path="url(#clip642)" style="stroke:#bbbbbb; stroke-width:4.8; stroke-opacity:1; fill:none" points="
  247.59,155.197 268.234,179.534 288.879,203.851 309.524,228.147 330.169,252.421 350.814,276.671 371.459,300.896 392.104,325.094 412.749,349.264 433.394,373.403 
  454.039,397.509 474.684,421.58 495.329,445.613 515.974,469.605 536.619,493.553 557.264,517.454 577.909,541.303 598.554,565.097 619.199,588.829 639.844,612.496 
  660.489,636.09 681.134,659.606 701.779,683.035 722.424,706.369 743.069,729.597 763.713,752.71 784.358,775.694 805.003,798.534 825.648,821.214 846.293,843.715 
  866.938,866.014 887.583,888.085 908.228,909.899 928.873,931.419 949.518,952.604 970.163,973.406 990.808,993.764 1011.45,1013.61 1032.1,1032.87 1052.74,1051.43 
  1073.39,1069.18 1094.03,1085.99 1114.68,1101.68 1135.32,1116.07 1155.97,1128.93 1176.61,1140 1197.26,1149 1217.9,1155.62 1238.55,1159.62 1259.19,1161.05 
  1279.84,1161.05 1300.48,1159.62 1321.13,1155.62 1341.77,1149 1362.42,1140 1383.06,1128.93 1403.71,1116.07 1424.35,1101.68 1445,1085.99 1465.64,1069.18 
  1486.29,1051.43 1506.93,1032.87 1527.58,1013.61 1548.22,993.764 1568.87,973.406 1589.51,952.604 1610.16,931.419 1630.8,909.899 1651.45,888.085 1672.09,866.014 
  1692.74,843.715 1713.38,821.214 1734.03,798.534 1754.67,775.694 1775.32,752.71 1795.96,729.597 1816.61,706.369 1837.25,683.035 1857.9,659.606 1878.54,636.09 
  1899.19,612.496 1919.83,588.829 1940.48,565.097 1961.12,541.303 1981.77,517.454 2002.41,493.553 2023.06,469.605 2043.7,445.613 2064.35,421.58 2084.99,397.509 
  2105.64,373.403 2126.28,349.264 2146.93,325.094 2167.57,300.896 2188.22,276.671 2208.86,252.421 2229.51,228.147 2250.15,203.851 2270.8,179.534 2291.44,155.197 
  
  "/>
<polyline clip-path="url(#clip642)" style="stroke:#ee7733; stroke-width:4.8; stroke-opacity:1; fill:none" points="
  247.59,220.956 268.234,243.661 288.879,266.342 309.524,288.998 330.169,311.628 350.814,334.229 371.459,356.801 392.104,379.341 412.749,401.847 433.394,424.316 
  454.039,446.747 474.684,469.136 495.329,491.48 515.974,513.776 536.619,536.02 557.264,558.209 577.909,580.337 598.554,602.399 619.199,624.391 639.844,646.306 
  660.489,668.137 681.134,689.876 701.779,711.515 722.424,733.045 743.069,754.454 763.713,775.729 784.358,796.858 805.003,817.825 825.648,838.61 846.293,859.195 
  866.938,879.554 887.583,899.661 908.228,919.485 928.873,938.989 949.518,958.131 970.163,976.862 990.808,995.126 1011.45,1012.86 1032.1,1029.98 1052.74,1046.39 
  1073.39,1062.01 1094.03,1076.7 1114.68,1090.32 1135.32,1102.73 1155.97,1113.73 1176.61,1123.14 1197.26,1130.73 1217.9,1136.29 1238.55,1139.63 1259.19,1140.83 
  1279.84,1140.83 1300.48,1139.63 1321.13,1136.29 1341.77,1130.73 1362.42,1123.14 1383.06,1113.73 1403.71,1102.73 1424.35,1090.32 1445,1076.7 1465.64,1062.01 
  1486.29,1046.39 1506.93,1029.98 1527.58,1012.86 1548.22,995.126 1568.87,976.862 1589.51,958.131 1610.16,938.989 1630.8,919.485 1651.45,899.661 1672.09,879.554 
  1692.74,859.195 1713.38,838.61 1734.03,817.825 1754.67,796.858 1775.32,775.729 1795.96,754.454 1816.61,733.045 1837.25,711.515 1857.9,689.876 1878.54,668.137 
  1899.19,646.306 1919.83,624.391 1940.48,602.399 1961.12,580.337 1981.77,558.209 2002.41,536.02 2023.06,513.776 2043.7,491.48 2064.35,469.136 2084.99,446.747 
  2105.64,424.316 2126.28,401.847 2146.93,379.341 2167.57,356.801 2188.22,334.229 2208.86,311.628 2229.51,288.998 2250.15,266.342 2270.8,243.661 2291.44,220.956 
  
  "/>
<polyline clip-path="url(#clip642)" style="stroke:#0077bb; stroke-width:4.8; stroke-opacity:1; fill:none" points="
  247.59,295.081 268.234,315.993 288.879,336.877 309.524,357.732 330.169,378.556 350.814,399.348 371.459,420.105 392.104,440.825 412.749,461.505 433.394,482.144 
  454.039,502.738 474.684,523.284 495.329,543.778 515.974,564.217 536.619,584.596 557.264,604.912 577.909,625.159 598.554,645.331 619.199,665.423 639.844,685.427 
  660.489,705.337 681.134,725.144 701.779,744.838 722.424,764.409 743.069,783.847 763.713,803.136 784.358,822.264 805.003,841.213 825.648,859.964 846.293,878.497 
  866.938,896.787 887.583,914.808 908.228,932.528 928.873,949.911 949.518,966.917 970.163,983.5 990.808,999.606 1011.45,1015.18 1032.1,1030.14 1052.74,1044.42 
  1073.39,1057.93 1094.03,1070.56 1114.68,1082.21 1135.32,1092.75 1155.97,1102.04 1176.61,1109.93 1197.26,1116.27 1217.9,1120.89 1238.55,1123.66 1259.19,1124.66 
  1279.84,1124.66 1300.48,1123.66 1321.13,1120.89 1341.77,1116.27 1362.42,1109.93 1383.06,1102.04 1403.71,1092.75 1424.35,1082.21 1445,1070.56 1465.64,1057.93 
  1486.29,1044.42 1506.93,1030.14 1527.58,1015.18 1548.22,999.606 1568.87,983.5 1589.51,966.917 1610.16,949.911 1630.8,932.528 1651.45,914.808 1672.09,896.787 
  1692.74,878.497 1713.38,859.964 1734.03,841.213 1754.67,822.264 1775.32,803.136 1795.96,783.847 1816.61,764.409 1837.25,744.838 1857.9,725.144 1878.54,705.337 
  1899.19,685.427 1919.83,665.423 1940.48,645.331 1961.12,625.159 1981.77,604.912 2002.41,584.596 2023.06,564.217 2043.7,543.778 2064.35,523.284 2084.99,502.738 
  2105.64,482.144 2126.28,461.505 2146.93,440.825 2167.57,420.105 2188.22,399.348 2208.86,378.556 2229.51,357.732 2250.15,336.877 2270.8,315.993 2291.44,295.081 
  
  "/>
<polyline clip-path="url(#clip642)" style="stroke:#33bbee; stroke-width:4.8; stroke-opacity:1; fill:none" points="
  247.59,371.861 268.234,390.929 288.879,409.966 309.524,428.969 330.169,447.938 350.814,466.869 371.459,485.761 392.104,504.611 412.749,523.417 433.394,542.175 
  454.039,560.882 474.684,579.535 495.329,598.13 515.974,616.664 536.619,635.13 557.264,653.525 577.909,671.844 598.554,690.079 619.199,708.225 639.844,726.275 
  660.489,744.22 681.134,762.052 701.779,779.762 722.424,797.337 743.069,814.767 763.713,832.037 784.358,849.134 805.003,866.04 825.648,882.736 846.293,899.203 
  866.938,915.415 887.583,931.347 908.228,946.97 928.873,962.25 949.518,977.149 970.163,991.625 990.808,1005.63 1011.45,1019.12 1032.1,1032.02 1052.74,1044.27 
  1073.39,1055.8 1094.03,1066.53 1114.68,1076.38 1135.32,1085.23 1155.97,1092.99 1176.61,1099.56 1197.26,1104.8 1217.9,1108.61 1238.55,1110.9 1259.19,1111.72 
  1279.84,1111.72 1300.48,1110.9 1321.13,1108.61 1341.77,1104.8 1362.42,1099.56 1383.06,1092.99 1403.71,1085.23 1424.35,1076.38 1445,1066.53 1465.64,1055.8 
  1486.29,1044.27 1506.93,1032.02 1527.58,1019.12 1548.22,1005.63 1568.87,991.625 1589.51,977.149 1610.16,962.25 1630.8,946.97 1651.45,931.347 1672.09,915.415 
  1692.74,899.203 1713.38,882.736 1734.03,866.04 1754.67,849.134 1775.32,832.037 1795.96,814.767 1816.61,797.337 1837.25,779.762 1857.9,762.052 1878.54,744.22 
  1899.19,726.275 1919.83,708.225 1940.48,690.079 1961.12,671.844 1981.77,653.525 2002.41,635.13 2023.06,616.664 2043.7,598.13 2064.35,579.535 2084.99,560.882 
  2105.64,542.175 2126.28,523.417 2146.93,504.611 2167.57,485.761 2188.22,466.869 2208.86,447.938 2229.51,428.969 2250.15,409.966 2270.8,390.929 2291.44,371.861 
  
  "/>
<polyline clip-path="url(#clip642)" style="stroke:#ee3377; stroke-width:4.8; stroke-opacity:1; fill:none" points="
  247.59,447.609 268.234,464.854 288.879,482.064 309.524,499.237 330.169,516.371 350.814,533.463 371.459,550.512 392.104,567.513 412.749,584.465 433.394,601.365 
  454.039,618.208 474.684,634.991 495.329,651.711 515.974,668.362 536.619,684.94 557.264,701.44 577.909,717.856 598.554,734.182 619.199,750.411 639.844,766.536 
  660.489,782.549 681.134,798.44 701.779,814.199 722.424,829.817 743.069,845.28 763.713,860.576 784.358,875.69 805.003,890.606 825.648,905.306 846.293,919.769 
  866.938,933.974 887.583,947.896 908.228,961.509 928.873,974.781 949.518,987.68 970.163,1000.17 990.808,1012.21 1011.45,1023.75 1032.1,1034.75 1052.74,1045.15 
  1073.39,1054.89 1094.03,1063.91 1114.68,1072.15 1135.32,1079.52 1155.97,1085.96 1176.61,1091.38 1197.26,1095.7 1217.9,1098.82 1238.55,1100.7 1259.19,1101.37 
  1279.84,1101.37 1300.48,1100.7 1321.13,1098.82 1341.77,1095.7 1362.42,1091.38 1383.06,1085.96 1403.71,1079.52 1424.35,1072.15 1445,1063.91 1465.64,1054.89 
  1486.29,1045.15 1506.93,1034.75 1527.58,1023.75 1548.22,1012.21 1568.87,1000.17 1589.51,987.68 1610.16,974.781 1630.8,961.509 1651.45,947.896 1672.09,933.974 
  1692.74,919.769 1713.38,905.306 1734.03,890.606 1754.67,875.69 1775.32,860.576 1795.96,845.28 1816.61,829.817 1837.25,814.199 1857.9,798.44 1878.54,782.549 
  1899.19,766.536 1919.83,750.411 1940.48,734.182 1961.12,717.856 1981.77,701.44 2002.41,684.94 2023.06,668.362 2043.7,651.711 2064.35,634.991 2084.99,618.208 
  2105.64,601.365 2126.28,584.465 2146.93,567.513 2167.57,550.512 2188.22,533.463 2208.86,516.371 2229.51,499.237 2250.15,482.064 2270.8,464.854 2291.44,447.609 
  
  "/>
<polyline clip-path="url(#clip642)" style="stroke:#cc3311; stroke-width:4.8; stroke-opacity:1; fill:none" points="
  247.59,520.012 268.234,535.499 288.879,550.948 309.524,566.356 330.169,581.721 350.814,597.04 371.459,612.311 392.104,627.531 412.749,642.697 433.394,657.805 
  454.039,672.852 474.684,687.835 495.329,702.748 515.974,717.587 536.619,732.348 557.264,747.024 577.909,761.612 598.554,776.103 619.199,790.491 639.844,804.769 
  660.489,818.928 681.134,832.96 701.779,846.855 722.424,860.603 743.069,874.191 763.713,887.607 784.358,900.838 805.003,913.867 825.648,926.678 846.293,939.253 
  866.938,951.573 887.583,963.613 908.228,975.352 928.873,986.762 949.518,997.816 970.163,1008.48 990.808,1018.72 1011.45,1028.51 1032.1,1037.79 1052.74,1046.54 
  1073.39,1054.7 1094.03,1062.22 1114.68,1069.06 1135.32,1075.17 1155.97,1080.47 1176.61,1084.92 1197.26,1088.46 1217.9,1091.01 1238.55,1092.54 1259.19,1093.09 
  1279.84,1093.09 1300.48,1092.54 1321.13,1091.01 1341.77,1088.46 1362.42,1084.92 1383.06,1080.47 1403.71,1075.17 1424.35,1069.06 1445,1062.22 1465.64,1054.7 
  1486.29,1046.54 1506.93,1037.79 1527.58,1028.51 1548.22,1018.72 1568.87,1008.48 1589.51,997.816 1610.16,986.762 1630.8,975.352 1651.45,963.613 1672.09,951.573 
  1692.74,939.253 1713.38,926.678 1734.03,913.867 1754.67,900.838 1775.32,887.607 1795.96,874.191 1816.61,860.603 1837.25,846.855 1857.9,832.96 1878.54,818.928 
  1899.19,804.769 1919.83,790.491 1940.48,776.103 1961.12,761.612 1981.77,747.024 2002.41,732.348 2023.06,717.587 2043.7,702.748 2064.35,687.835 2084.99,672.852 
  2105.64,657.805 2126.28,642.697 2146.93,627.531 2167.57,612.311 2188.22,597.04 2208.86,581.721 2229.51,566.356 2250.15,550.948 2270.8,535.499 2291.44,520.012 
  
  "/>
<polyline clip-path="url(#clip642)" style="stroke:#009988; stroke-width:4.8; stroke-opacity:1; fill:none" points="
  247.59,587.692 268.234,601.514 288.879,615.293 309.524,629.028 330.169,642.717 350.814,656.356 371.459,669.943 392.104,683.475 412.749,696.949 433.394,710.361 
  454.039,723.708 474.684,736.985 495.329,750.19 515.974,763.316 536.619,776.359 557.264,789.314 577.909,802.174 598.554,814.935 619.199,827.588 639.844,840.127 
  660.489,852.544 681.134,864.83 701.779,876.977 722.424,888.973 743.069,900.808 763.713,912.471 784.358,923.949 805.003,935.227 825.648,946.291 846.293,957.124 
  866.938,967.709 887.583,978.027 908.228,988.057 928.873,997.778 949.518,1007.16 970.163,1016.19 990.808,1024.83 1011.45,1033.06 1032.1,1040.84 1052.74,1048.13 
  1073.39,1054.92 1094.03,1061.15 1114.68,1066.8 1135.32,1071.82 1155.97,1076.17 1176.61,1079.81 1197.26,1082.69 1217.9,1084.77 1238.55,1086.02 1259.19,1086.47 
  1279.84,1086.47 1300.48,1086.02 1321.13,1084.77 1341.77,1082.69 1362.42,1079.81 1383.06,1076.17 1403.71,1071.82 1424.35,1066.8 1445,1061.15 1465.64,1054.92 
  1486.29,1048.13 1506.93,1040.84 1527.58,1033.06 1548.22,1024.83 1568.87,1016.19 1589.51,1007.16 1610.16,997.778 1630.8,988.057 1651.45,978.027 1672.09,967.709 
  1692.74,957.124 1713.38,946.291 1734.03,935.227 1754.67,923.949 1775.32,912.471 1795.96,900.808 1816.61,888.973 1837.25,876.977 1857.9,864.83 1878.54,852.544 
  1899.19,840.127 1919.83,827.588 1940.48,814.935 1961.12,802.174 1981.77,789.314 2002.41,776.359 2023.06,763.316 2043.7,750.19 2064.35,736.985 2084.99,723.708 
  2105.64,710.361 2126.28,696.949 2146.93,683.475 2167.57,669.943 2188.22,656.356 2208.86,642.717 2229.51,629.028 2250.15,615.293 2270.8,601.514 2291.44,587.692 
  
  "/>
<polyline clip-path="url(#clip642)" style="stroke:#bbbbbb; stroke-width:4.8; stroke-opacity:1; fill:none" points="
  247.59,649.902 268.234,662.164 288.879,674.381 309.524,686.55 330.169,698.67 350.814,710.737 371.459,722.749 392.104,734.703 412.749,746.595 433.394,758.422 
  454.039,770.181 474.684,781.867 495.329,793.477 515.974,805.005 536.619,816.447 557.264,827.799 577.909,839.053 598.554,850.205 619.199,861.248 639.844,872.174 
  660.489,882.978 681.134,893.65 701.779,904.182 722.424,914.565 743.069,924.789 763.713,934.844 784.358,944.717 805.003,954.398 825.648,963.873 846.293,973.127 
  866.938,982.147 887.583,990.915 908.228,999.415 928.873,1007.63 949.518,1015.54 970.163,1023.12 990.808,1030.35 1011.45,1037.22 1032.1,1043.69 1052.74,1049.74 
  1073.39,1055.35 1094.03,1060.49 1114.68,1065.13 1135.32,1069.24 1155.97,1072.8 1176.61,1075.76 1197.26,1078.1 1217.9,1079.79 1238.55,1080.81 1259.19,1081.17 
  1279.84,1081.17 1300.48,1080.81 1321.13,1079.79 1341.77,1078.1 1362.42,1075.76 1383.06,1072.8 1403.71,1069.24 1424.35,1065.13 1445,1060.49 1465.64,1055.35 
  1486.29,1049.74 1506.93,1043.69 1527.58,1037.22 1548.22,1030.35 1568.87,1023.12 1589.51,1015.54 1610.16,1007.63 1630.8,999.415 1651.45,990.915 1672.09,982.147 
  1692.74,973.127 1713.38,963.873 1734.03,954.398 1754.67,944.717 1775.32,934.844 1795.96,924.789 1816.61,914.565 1837.25,904.182 1857.9,893.65 1878.54,882.978 
  1899.19,872.174 1919.83,861.248 1940.48,850.205 1961.12,839.053 1981.77,827.799 2002.41,816.447 2023.06,805.005 2043.7,793.477 2064.35,781.867 2084.99,770.181 
  2105.64,758.422 2126.28,746.595 2146.93,734.703 2167.57,722.749 2188.22,710.737 2208.86,698.67 2229.51,686.55 2250.15,674.381 2270.8,662.164 2291.44,649.902 
  
  "/>
<polyline clip-path="url(#clip642)" style="stroke:#ee7733; stroke-width:4.8; stroke-opacity:1; fill:none" points="
  247.59,706.322 268.234,717.137 288.879,727.905 309.524,738.624 330.169,749.29 350.814,759.901 371.459,770.455 392.104,780.947 412.749,791.376 433.394,801.738 
  454.039,812.029 474.684,822.246 495.329,832.384 515.974,842.44 536.619,852.408 557.264,862.283 577.909,872.061 598.554,881.736 619.199,891.302 639.844,900.753 
  660.489,910.081 681.134,919.281 701.779,928.343 722.424,937.261 743.069,946.025 763.713,954.626 784.358,963.054 805.003,971.299 825.648,979.35 846.293,987.195 
  866.938,994.822 887.583,1002.22 908.228,1009.37 928.873,1016.26 949.518,1022.88 970.163,1029.2 990.808,1035.22 1011.45,1040.92 1032.1,1046.27 1052.74,1051.26 
  1073.39,1055.88 1094.03,1060.09 1114.68,1063.89 1135.32,1067.24 1155.97,1070.14 1176.61,1072.55 1197.26,1074.45 1217.9,1075.82 1238.55,1076.64 1259.19,1076.93 
  1279.84,1076.93 1300.48,1076.64 1321.13,1075.82 1341.77,1074.45 1362.42,1072.55 1383.06,1070.14 1403.71,1067.24 1424.35,1063.89 1445,1060.09 1465.64,1055.88 
  1486.29,1051.26 1506.93,1046.27 1527.58,1040.92 1548.22,1035.22 1568.87,1029.2 1589.51,1022.88 1610.16,1016.26 1630.8,1009.37 1651.45,1002.22 1672.09,994.822 
  1692.74,987.195 1713.38,979.35 1734.03,971.299 1754.67,963.054 1775.32,954.626 1795.96,946.025 1816.61,937.261 1837.25,928.343 1857.9,919.281 1878.54,910.081 
  1899.19,900.753 1919.83,891.302 1940.48,881.736 1961.12,872.061 1981.77,862.283 2002.41,852.408 2023.06,842.44 2043.7,832.384 2064.35,822.246 2084.99,812.029 
  2105.64,801.738 2126.28,791.376 2146.93,780.947 2167.57,770.455 2188.22,759.901 2208.86,749.29 2229.51,738.624 2250.15,727.905 2270.8,717.137 2291.44,706.322 
  
  "/>
<polyline clip-path="url(#clip642)" style="stroke:#0077bb; stroke-width:4.8; stroke-opacity:1; fill:none" points="
  247.59,756.915 268.234,766.4 288.879,775.836 309.524,785.221 330.169,794.551 350.814,803.825 371.459,813.04 392.104,822.193 412.749,831.28 433.394,840.3 
  454.039,849.248 474.684,858.121 495.329,866.914 515.974,875.625 536.619,884.249 557.264,892.781 577.909,901.217 598.554,909.551 619.199,917.779 639.844,925.894 
  660.489,933.891 681.134,941.763 701.779,949.504 722.424,957.107 743.069,964.564 763.713,971.868 784.358,979.011 805.003,985.983 825.648,992.775 846.293,999.379 
  866.938,1005.78 887.583,1011.98 908.228,1017.96 928.873,1023.7 949.518,1029.21 970.163,1034.45 990.808,1039.43 1011.45,1044.13 1032.1,1048.54 1052.74,1052.64 
  1073.39,1056.42 1094.03,1059.86 1114.68,1062.96 1135.32,1065.69 1155.97,1068.04 1176.61,1069.99 1197.26,1071.53 1217.9,1072.64 1238.55,1073.3 1259.19,1073.54 
  1279.84,1073.54 1300.48,1073.3 1321.13,1072.64 1341.77,1071.53 1362.42,1069.99 1383.06,1068.04 1403.71,1065.69 1424.35,1062.96 1445,1059.86 1465.64,1056.42 
  1486.29,1052.64 1506.93,1048.54 1527.58,1044.13 1548.22,1039.43 1568.87,1034.45 1589.51,1029.21 1610.16,1023.7 1630.8,1017.96 1651.45,1011.98 1672.09,1005.78 
  1692.74,999.379 1713.38,992.775 1734.03,985.983 1754.67,979.011 1775.32,971.868 1795.96,964.564 1816.61,957.107 1837.25,949.504 1857.9,941.763 1878.54,933.891 
  1899.19,925.894 1919.83,917.779 1940.48,909.551 1961.12,901.217 1981.77,892.781 2002.41,884.249 2023.06,875.625 2043.7,866.914 2064.35,858.121 2084.99,849.248 
  2105.64,840.3 2126.28,831.28 2146.93,822.193 2167.57,813.04 2188.22,803.825 2208.86,794.551 2229.51,785.221 2250.15,775.836 2270.8,766.4 2291.44,756.915 
  
  "/>
<polyline clip-path="url(#clip642)" style="stroke:#33bbee; stroke-width:4.8; stroke-opacity:1; fill:none" points="
  247.59,801.837 268.234,810.107 288.879,818.327 309.524,826.494 330.169,834.606 350.814,842.662 371.459,850.658 392.104,858.591 412.749,866.46 433.394,874.26 
  454.039,881.989 474.684,889.644 495.329,897.221 515.974,904.717 536.619,912.127 557.264,919.448 577.909,926.676 598.554,933.806 619.199,940.833 639.844,947.753 
  660.489,954.561 681.134,961.251 701.779,967.817 722.424,974.255 743.069,980.557 763.713,986.717 784.358,992.73 805.003,998.586 825.648,1004.28 846.293,1009.8 
  866.938,1015.15 887.583,1020.31 908.228,1025.28 928.873,1030.04 949.518,1034.59 970.163,1038.92 990.808,1043.02 1011.45,1046.89 1032.1,1050.5 1052.74,1053.85 
  1073.39,1056.94 1094.03,1059.75 1114.68,1062.26 1135.32,1064.48 1155.97,1066.38 1176.61,1067.96 1197.26,1069.21 1217.9,1070.1 1238.55,1070.64 1259.19,1070.83 
  1279.84,1070.83 1300.48,1070.64 1321.13,1070.1 1341.77,1069.21 1362.42,1067.96 1383.06,1066.38 1403.71,1064.48 1424.35,1062.26 1445,1059.75 1465.64,1056.94 
  1486.29,1053.85 1506.93,1050.5 1527.58,1046.89 1548.22,1043.02 1568.87,1038.92 1589.51,1034.59 1610.16,1030.04 1630.8,1025.28 1651.45,1020.31 1672.09,1015.15 
  1692.74,1009.8 1713.38,1004.28 1734.03,998.586 1754.67,992.73 1775.32,986.717 1795.96,980.557 1816.61,974.255 1837.25,967.817 1857.9,961.251 1878.54,954.561 
  1899.19,947.753 1919.83,940.833 1940.48,933.806 1961.12,926.676 1981.77,919.448 2002.41,912.127 2023.06,904.717 2043.7,897.221 2064.35,889.644 2084.99,881.989 
  2105.64,874.26 2126.28,866.46 2146.93,858.591 2167.57,850.658 2188.22,842.662 2208.86,834.606 2229.51,826.494 2250.15,818.327 2270.8,810.107 2291.44,801.837 
  
  "/>
<polyline clip-path="url(#clip642)" style="stroke:#ee3377; stroke-width:4.8; stroke-opacity:1; fill:none" points="
  247.59,841.365 268.234,848.532 288.879,855.649 309.524,862.714 330.169,869.724 350.814,876.678 371.459,883.572 392.104,890.405 412.749,897.175 433.394,903.877 
  454.039,910.51 474.684,917.071 495.329,923.557 515.974,929.964 536.619,936.289 557.264,942.53 577.909,948.681 598.554,954.74 619.199,960.702 639.844,966.564 
  660.489,972.321 681.134,977.969 701.779,983.504 722.424,988.919 743.069,994.211 763.713,999.375 784.358,1004.4 805.003,1009.29 825.648,1014.04 846.293,1018.63 
  866.938,1023.07 887.583,1027.35 908.228,1031.45 928.873,1035.38 949.518,1039.13 970.163,1042.69 990.808,1046.05 1011.45,1049.21 1032.1,1052.17 1052.74,1054.9 
  1073.39,1057.41 1094.03,1059.69 1114.68,1061.73 1135.32,1063.53 1155.97,1065.07 1176.61,1066.35 1197.26,1067.35 1217.9,1068.07 1238.55,1068.5 1259.19,1068.66 
  1279.84,1068.66 1300.48,1068.5 1321.13,1068.07 1341.77,1067.35 1362.42,1066.35 1383.06,1065.07 1403.71,1063.53 1424.35,1061.73 1445,1059.69 1465.64,1057.41 
  1486.29,1054.9 1506.93,1052.17 1527.58,1049.21 1548.22,1046.05 1568.87,1042.69 1589.51,1039.13 1610.16,1035.38 1630.8,1031.45 1651.45,1027.35 1672.09,1023.07 
  1692.74,1018.63 1713.38,1014.04 1734.03,1009.29 1754.67,1004.4 1775.32,999.375 1795.96,994.211 1816.61,988.919 1837.25,983.504 1857.9,977.969 1878.54,972.321 
  1899.19,966.564 1919.83,960.702 1940.48,954.74 1961.12,948.681 1981.77,942.53 2002.41,936.289 2023.06,929.964 2043.7,923.557 2064.35,917.071 2084.99,910.51 
  2105.64,903.877 2126.28,897.175 2146.93,890.405 2167.57,883.572 2188.22,876.678 2208.86,869.724 2229.51,862.714 2250.15,855.649 2270.8,848.532 2291.44,841.365 
  
  "/>
<polyline clip-path="url(#clip642)" style="stroke:#cc3311; stroke-width:4.8; stroke-opacity:1; fill:none" points="
  247.59,875.855 268.234,882.029 288.879,888.154 309.524,894.227 330.169,900.247 350.814,906.212 371.459,912.12 392.104,917.968 412.749,923.754 433.394,929.476 
  454.039,935.132 474.684,940.72 495.329,946.235 515.974,951.677 536.619,957.041 557.264,962.326 577.909,967.528 598.554,972.644 619.199,977.671 639.844,982.605 
  660.489,987.444 681.134,992.183 701.779,996.819 722.424,1001.35 743.069,1005.77 763.713,1010.07 784.358,1014.25 805.003,1018.31 825.648,1022.25 846.293,1026.05 
  866.938,1029.72 887.583,1033.24 908.228,1036.62 928.873,1039.85 949.518,1042.92 970.163,1045.84 990.808,1048.59 1011.45,1051.17 1032.1,1053.57 1052.74,1055.79 
  1073.39,1057.83 1094.03,1059.68 1114.68,1061.33 1135.32,1062.79 1155.97,1064.03 1176.61,1065.06 1197.26,1065.87 1217.9,1066.45 1238.55,1066.8 1259.19,1066.93 
  1279.84,1066.93 1300.48,1066.8 1321.13,1066.45 1341.77,1065.87 1362.42,1065.06 1383.06,1064.03 1403.71,1062.79 1424.35,1061.33 1445,1059.68 1465.64,1057.83 
  1486.29,1055.79 1506.93,1053.57 1527.58,1051.17 1548.22,1048.59 1568.87,1045.84 1589.51,1042.92 1610.16,1039.85 1630.8,1036.62 1651.45,1033.24 1672.09,1029.72 
  1692.74,1026.05 1713.38,1022.25 1734.03,1018.31 1754.67,1014.25 1775.32,1010.07 1795.96,1005.77 1816.61,1001.35 1837.25,996.819 1857.9,992.183 1878.54,987.444 
  1899.19,982.605 1919.83,977.671 1940.48,972.644 1961.12,967.528 1981.77,962.326 2002.41,957.041 2023.06,951.677 2043.7,946.235 2064.35,940.72 2084.99,935.132 
  2105.64,929.476 2126.28,923.754 2146.93,917.968 2167.57,912.12 2188.22,906.212 2208.86,900.247 2229.51,894.227 2250.15,888.154 2270.8,882.029 2291.44,875.855 
  
  "/>
<polyline clip-path="url(#clip642)" style="stroke:#009988; stroke-width:4.8; stroke-opacity:1; fill:none" points="
  247.59,905.711 268.234,910.997 288.879,916.235 309.524,921.424 330.169,926.562 350.814,931.646 371.459,936.676 392.104,941.65 412.749,946.565 433.394,951.42 
  454.039,956.213 474.684,960.941 495.329,965.602 515.974,970.195 536.619,974.717 557.264,979.165 577.909,983.538 598.554,987.831 619.199,992.044 639.844,996.174 
  660.489,1000.22 681.134,1004.17 701.779,1008.03 722.424,1011.8 743.069,1015.47 763.713,1019.04 784.358,1022.5 805.003,1025.86 825.648,1029.1 846.293,1032.23 
  866.938,1035.25 887.583,1038.14 908.228,1040.91 928.873,1043.56 949.518,1046.07 970.163,1048.45 990.808,1050.69 1011.45,1052.79 1032.1,1054.74 1052.74,1056.54 
  1073.39,1058.2 1094.03,1059.69 1114.68,1061.03 1135.32,1062.2 1155.97,1063.2 1176.61,1064.03 1197.26,1064.69 1217.9,1065.15 1238.55,1065.43 1259.19,1065.54 
  1279.84,1065.54 1300.48,1065.43 1321.13,1065.15 1341.77,1064.69 1362.42,1064.03 1383.06,1063.2 1403.71,1062.2 1424.35,1061.03 1445,1059.69 1465.64,1058.2 
  1486.29,1056.54 1506.93,1054.74 1527.58,1052.79 1548.22,1050.69 1568.87,1048.45 1589.51,1046.07 1610.16,1043.56 1630.8,1040.91 1651.45,1038.14 1672.09,1035.25 
  1692.74,1032.23 1713.38,1029.1 1734.03,1025.86 1754.67,1022.5 1775.32,1019.04 1795.96,1015.47 1816.61,1011.8 1837.25,1008.03 1857.9,1004.17 1878.54,1000.22 
  1899.19,996.174 1919.83,992.044 1940.48,987.831 1961.12,983.538 1981.77,979.165 2002.41,974.717 2023.06,970.195 2043.7,965.602 2064.35,960.941 2084.99,956.213 
  2105.64,951.42 2126.28,946.565 2146.93,941.65 2167.57,936.676 2188.22,931.646 2208.86,926.562 2229.51,921.424 2250.15,916.235 2270.8,910.997 2291.44,905.711 
  
  "/>
<path clip-path="url(#clip640)" d="
M1955.51 1365.3 L2280.54 1365.3 L2280.54 95.2176 L1955.51 95.2176  Z
  " fill="#ffffff" fill-rule="evenodd" fill-opacity="0.9"/>
<polyline clip-path="url(#clip640)" style="stroke:#222255; stroke-width:4; stroke-opacity:0.1; fill:none" points="
  1955.51,1365.3 2280.54,1365.3 2280.54,95.2176 1955.51,95.2176 1955.51,1365.3 
  "/>
<polyline clip-path="url(#clip640)" style="stroke:#ee7733; stroke-width:4; stroke-opacity:1; fill:none" points="
  1979.59,155.698 2124.02,155.698 
  "/>
<path clip-path="url(#clip640)" d="M 0 0 M2161.93 175.385 Q2160.13 180.015 2158.41 181.427 Q2156.7 182.839 2153.83 182.839 L2150.43 182.839 L2150.43 179.274 L2152.93 179.274 Q2154.69 179.274 2155.66 178.44 Q2156.63 177.607 2157.81 174.505 L2158.58 172.561 L2148.09 147.052 L2152.6 147.052 L2160.71 167.329 L2168.81 147.052 L2173.32 147.052 L2161.93 175.385 Z" fill="#000000" fill-rule="evenodd" fill-opacity="1" /><path clip-path="url(#clip640)" d="M 0 0 M2180.61 169.042 L2188.25 169.042 L2188.25 142.677 L2179.94 144.343 L2179.94 140.084 L2188.21 138.418 L2192.88 138.418 L2192.88 169.042 L2200.52 169.042 L2200.52 172.978 L2180.61 172.978 L2180.61 169.042 Z" fill="#000000" fill-rule="evenodd" fill-opacity="1" /><polyline clip-path="url(#clip640)" style="stroke:#0077bb; stroke-width:4; stroke-opacity:1; fill:none" points="
  1979.59,216.178 2124.02,216.178 
  "/>
<path clip-path="url(#clip640)" d="M 0 0 M2161.93 235.865 Q2160.13 240.495 2158.41 241.907 Q2156.7 243.319 2153.83 243.319 L2150.43 243.319 L2150.43 239.754 L2152.93 239.754 Q2154.69 239.754 2155.66 238.92 Q2156.63 238.087 2157.81 234.985 L2158.58 233.041 L2148.09 207.532 L2152.6 207.532 L2160.71 227.809 L2168.81 207.532 L2173.32 207.532 L2161.93 235.865 Z" fill="#000000" fill-rule="evenodd" fill-opacity="1" /><path clip-path="url(#clip640)" d="M 0 0 M2183.83 229.522 L2200.15 229.522 L2200.15 233.458 L2178.21 233.458 L2178.21 229.522 Q2180.87 226.768 2185.45 222.138 Q2190.06 217.485 2191.24 216.143 Q2193.48 213.62 2194.36 211.884 Q2195.27 210.124 2195.27 208.435 Q2195.27 205.68 2193.32 203.944 Q2191.4 202.208 2188.3 202.208 Q2186.1 202.208 2183.65 202.972 Q2181.22 203.735 2178.44 205.286 L2178.44 200.564 Q2181.26 199.43 2183.72 198.851 Q2186.17 198.273 2188.21 198.273 Q2193.58 198.273 2196.77 200.958 Q2199.97 203.643 2199.97 208.134 Q2199.97 210.263 2199.16 212.185 Q2198.37 214.083 2196.26 216.675 Q2195.68 217.347 2192.58 220.564 Q2189.48 223.759 2183.83 229.522 Z" fill="#000000" fill-rule="evenodd" fill-opacity="1" /><polyline clip-path="url(#clip640)" style="stroke:#33bbee; stroke-width:4; stroke-opacity:1; fill:none" points="
  1979.59,276.658 2124.02,276.658 
  "/>
<path clip-path="url(#clip640)" d="M 0 0 M2161.93 296.345 Q2160.13 300.975 2158.41 302.387 Q2156.7 303.799 2153.83 303.799 L2150.43 303.799 L2150.43 300.234 L2152.93 300.234 Q2154.69 300.234 2155.66 299.4 Q2156.63 298.567 2157.81 295.465 L2158.58 293.521 L2148.09 268.012 L2152.6 268.012 L2160.71 288.289 L2168.81 268.012 L2173.32 268.012 L2161.93 296.345 Z" fill="#000000" fill-rule="evenodd" fill-opacity="1" /><path clip-path="url(#clip640)" d="M 0 0 M2193.97 275.303 Q2197.33 276.021 2199.2 278.289 Q2201.1 280.558 2201.1 283.891 Q2201.1 289.007 2197.58 291.808 Q2194.06 294.609 2187.58 294.609 Q2185.41 294.609 2183.09 294.169 Q2180.8 293.752 2178.35 292.896 L2178.35 288.382 Q2180.29 289.516 2182.6 290.095 Q2184.92 290.674 2187.44 290.674 Q2191.84 290.674 2194.13 288.938 Q2196.45 287.201 2196.45 283.891 Q2196.45 280.836 2194.29 279.123 Q2192.16 277.387 2188.35 277.387 L2184.32 277.387 L2184.32 273.544 L2188.53 273.544 Q2191.98 273.544 2193.81 272.178 Q2195.64 270.79 2195.64 268.197 Q2195.64 265.535 2193.74 264.123 Q2191.86 262.688 2188.35 262.688 Q2186.42 262.688 2184.22 263.104 Q2182.03 263.521 2179.39 264.401 L2179.39 260.234 Q2182.05 259.493 2184.36 259.123 Q2186.7 258.753 2188.76 258.753 Q2194.09 258.753 2197.19 261.183 Q2200.29 263.59 2200.29 267.711 Q2200.29 270.581 2198.65 272.572 Q2197 274.54 2193.97 275.303 Z" fill="#000000" fill-rule="evenodd" fill-opacity="1" /><polyline clip-path="url(#clip640)" style="stroke:#ee3377; stroke-width:4; stroke-opacity:1; fill:none" points="
  1979.59,337.138 2124.02,337.138 
  "/>
<path clip-path="url(#clip640)" d="M 0 0 M2161.93 356.825 Q2160.13 361.455 2158.41 362.867 Q2156.7 364.279 2153.83 364.279 L2150.43 364.279 L2150.43 360.714 L2152.93 360.714 Q2154.69 360.714 2155.66 359.88 Q2156.63 359.047 2157.81 355.945 L2158.58 354.001 L2148.09 328.492 L2152.6 328.492 L2160.71 348.769 L2168.81 328.492 L2173.32 328.492 L2161.93 356.825 Z" fill="#000000" fill-rule="evenodd" fill-opacity="1" /><path clip-path="url(#clip640)" d="M 0 0 M2192.65 323.932 L2180.85 342.381 L2192.65 342.381 L2192.65 323.932 M2191.42 319.858 L2197.3 319.858 L2197.3 342.381 L2202.23 342.381 L2202.23 346.269 L2197.3 346.269 L2197.3 354.418 L2192.65 354.418 L2192.65 346.269 L2177.05 346.269 L2177.05 341.756 L2191.42 319.858 Z" fill="#000000" fill-rule="evenodd" fill-opacity="1" /><polyline clip-path="url(#clip640)" style="stroke:#cc3311; stroke-width:4; stroke-opacity:1; fill:none" points="
  1979.59,397.618 2124.02,397.618 
  "/>
<path clip-path="url(#clip640)" d="M 0 0 M2161.93 417.305 Q2160.13 421.935 2158.41 423.347 Q2156.7 424.759 2153.83 424.759 L2150.43 424.759 L2150.43 421.194 L2152.93 421.194 Q2154.69 421.194 2155.66 420.36 Q2156.63 419.527 2157.81 416.425 L2158.58 414.481 L2148.09 388.972 L2152.6 388.972 L2160.71 409.249 L2168.81 388.972 L2173.32 388.972 L2161.93 417.305 Z" fill="#000000" fill-rule="evenodd" fill-opacity="1" /><path clip-path="url(#clip640)" d="M 0 0 M2179.85 380.338 L2198.21 380.338 L2198.21 384.273 L2184.13 384.273 L2184.13 392.745 Q2185.15 392.398 2186.17 392.236 Q2187.19 392.05 2188.21 392.05 Q2193.99 392.05 2197.37 395.222 Q2200.75 398.393 2200.75 403.81 Q2200.75 409.388 2197.28 412.49 Q2193.81 415.569 2187.49 415.569 Q2185.31 415.569 2183.04 415.198 Q2180.8 414.828 2178.39 414.087 L2178.39 409.388 Q2180.47 410.523 2182.7 411.078 Q2184.92 411.634 2187.4 411.634 Q2191.4 411.634 2193.74 409.527 Q2196.08 407.421 2196.08 403.81 Q2196.08 400.199 2193.74 398.092 Q2191.4 395.986 2187.4 395.986 Q2185.52 395.986 2183.65 396.402 Q2181.79 396.819 2179.85 397.699 L2179.85 380.338 Z" fill="#000000" fill-rule="evenodd" fill-opacity="1" /><polyline clip-path="url(#clip640)" style="stroke:#009988; stroke-width:4; stroke-opacity:1; fill:none" points="
  1979.59,458.098 2124.02,458.098 
  "/>
<path clip-path="url(#clip640)" d="M 0 0 M2161.93 477.785 Q2160.13 482.415 2158.41 483.827 Q2156.7 485.239 2153.83 485.239 L2150.43 485.239 L2150.43 481.674 L2152.93 481.674 Q2154.69 481.674 2155.66 480.84 Q2156.63 480.007 2157.81 476.905 L2158.58 474.961 L2148.09 449.452 L2152.6 449.452 L2160.71 469.729 L2168.81 449.452 L2173.32 449.452 L2161.93 477.785 Z" fill="#000000" fill-rule="evenodd" fill-opacity="1" /><path clip-path="url(#clip640)" d="M 0 0 M2190.38 456.234 Q2187.23 456.234 2185.38 458.387 Q2183.55 460.54 2183.55 464.29 Q2183.55 468.016 2185.38 470.192 Q2187.23 472.345 2190.38 472.345 Q2193.53 472.345 2195.36 470.192 Q2197.21 468.016 2197.21 464.29 Q2197.21 460.54 2195.36 458.387 Q2193.53 456.234 2190.38 456.234 M2199.66 441.581 L2199.66 445.841 Q2197.91 445.007 2196.1 444.568 Q2194.32 444.128 2192.56 444.128 Q2187.93 444.128 2185.47 447.253 Q2183.04 450.378 2182.7 456.697 Q2184.06 454.683 2186.12 453.618 Q2188.18 452.53 2190.66 452.53 Q2195.87 452.53 2198.88 455.702 Q2201.91 458.85 2201.91 464.29 Q2201.91 469.614 2198.76 472.831 Q2195.61 476.049 2190.38 476.049 Q2184.39 476.049 2181.22 471.466 Q2178.04 466.859 2178.04 458.132 Q2178.04 449.938 2181.93 445.077 Q2185.82 440.193 2192.37 440.193 Q2194.13 440.193 2195.91 440.54 Q2197.72 440.887 2199.66 441.581 Z" fill="#000000" fill-rule="evenodd" fill-opacity="1" /><polyline clip-path="url(#clip640)" style="stroke:#bbbbbb; stroke-width:4; stroke-opacity:1; fill:none" points="
  1979.59,518.578 2124.02,518.578 
  "/>
<path clip-path="url(#clip640)" d="M 0 0 M2161.93 538.265 Q2160.13 542.895 2158.41 544.307 Q2156.7 545.719 2153.83 545.719 L2150.43 545.719 L2150.43 542.154 L2152.93 542.154 Q2154.69 542.154 2155.66 541.32 Q2156.63 540.487 2157.81 537.385 L2158.58 535.441 L2148.09 509.932 L2152.6 509.932 L2160.71 530.209 L2168.81 509.932 L2173.32 509.932 L2161.93 538.265 Z" fill="#000000" fill-rule="evenodd" fill-opacity="1" /><path clip-path="url(#clip640)" d="M 0 0 M2178.62 501.298 L2200.85 501.298 L2200.85 503.288 L2188.3 535.858 L2183.41 535.858 L2195.22 505.233 L2178.62 505.233 L2178.62 501.298 Z" fill="#000000" fill-rule="evenodd" fill-opacity="1" /><polyline clip-path="url(#clip640)" style="stroke:#ee7733; stroke-width:4; stroke-opacity:1; fill:none" points="
  1979.59,579.058 2124.02,579.058 
  "/>
<path clip-path="url(#clip640)" d="M 0 0 M2161.93 598.745 Q2160.13 603.375 2158.41 604.787 Q2156.7 606.199 2153.83 606.199 L2150.43 606.199 L2150.43 602.634 L2152.93 602.634 Q2154.69 602.634 2155.66 601.8 Q2156.63 600.967 2157.81 597.865 L2158.58 595.921 L2148.09 570.412 L2152.6 570.412 L2160.71 590.689 L2168.81 570.412 L2173.32 570.412 L2161.93 598.745 Z" fill="#000000" fill-rule="evenodd" fill-opacity="1" /><path clip-path="url(#clip640)" d="M 0 0 M2189.8 579.926 Q2186.47 579.926 2184.55 581.708 Q2182.65 583.49 2182.65 586.615 Q2182.65 589.74 2184.55 591.523 Q2186.47 593.305 2189.8 593.305 Q2193.14 593.305 2195.06 591.523 Q2196.98 589.717 2196.98 586.615 Q2196.98 583.49 2195.06 581.708 Q2193.16 579.926 2189.8 579.926 M2185.13 577.935 Q2182.12 577.194 2180.43 575.134 Q2178.76 573.074 2178.76 570.111 Q2178.76 565.967 2181.7 563.56 Q2184.66 561.153 2189.8 561.153 Q2194.97 561.153 2197.91 563.56 Q2200.85 565.967 2200.85 570.111 Q2200.85 573.074 2199.16 575.134 Q2197.49 577.194 2194.5 577.935 Q2197.88 578.722 2199.76 581.014 Q2201.66 583.305 2201.66 586.615 Q2201.66 591.639 2198.58 594.324 Q2195.52 597.009 2189.8 597.009 Q2184.09 597.009 2181.01 594.324 Q2177.95 591.639 2177.95 586.615 Q2177.95 583.305 2179.85 581.014 Q2181.75 578.722 2185.13 577.935 M2183.41 570.551 Q2183.41 573.236 2185.08 574.74 Q2186.77 576.245 2189.8 576.245 Q2192.81 576.245 2194.5 574.74 Q2196.22 573.236 2196.22 570.551 Q2196.22 567.865 2194.5 566.361 Q2192.81 564.856 2189.8 564.856 Q2186.77 564.856 2185.08 566.361 Q2183.41 567.865 2183.41 570.551 Z" fill="#000000" fill-rule="evenodd" fill-opacity="1" /><polyline clip-path="url(#clip640)" style="stroke:#0077bb; stroke-width:4; stroke-opacity:1; fill:none" points="
  1979.59,639.538 2124.02,639.538 
  "/>
<path clip-path="url(#clip640)" d="M 0 0 M2161.93 659.225 Q2160.13 663.855 2158.41 665.267 Q2156.7 666.679 2153.83 666.679 L2150.43 666.679 L2150.43 663.114 L2152.93 663.114 Q2154.69 663.114 2155.66 662.28 Q2156.63 661.447 2157.81 658.345 L2158.58 656.401 L2148.09 630.892 L2152.6 630.892 L2160.71 651.169 L2168.81 630.892 L2173.32 630.892 L2161.93 659.225 Z" fill="#000000" fill-rule="evenodd" fill-opacity="1" /><path clip-path="url(#clip640)" d="M 0 0 M2179.94 656.1 L2179.94 651.841 Q2181.7 652.674 2183.51 653.114 Q2185.31 653.554 2187.05 653.554 Q2191.68 653.554 2194.11 650.452 Q2196.56 647.327 2196.91 640.984 Q2195.57 642.975 2193.51 644.04 Q2191.45 645.105 2188.95 645.105 Q2183.76 645.105 2180.73 641.98 Q2177.72 638.832 2177.72 633.392 Q2177.72 628.068 2180.87 624.85 Q2184.02 621.633 2189.25 621.633 Q2195.24 621.633 2198.39 626.239 Q2201.56 630.822 2201.56 639.572 Q2201.56 647.744 2197.67 652.628 Q2193.81 657.489 2187.26 657.489 Q2185.5 657.489 2183.69 657.142 Q2181.89 656.794 2179.94 656.1 M2189.25 641.447 Q2192.4 641.447 2194.22 639.294 Q2196.08 637.142 2196.08 633.392 Q2196.08 629.665 2194.22 627.512 Q2192.4 625.336 2189.25 625.336 Q2186.1 625.336 2184.25 627.512 Q2182.42 629.665 2182.42 633.392 Q2182.42 637.142 2184.25 639.294 Q2186.1 641.447 2189.25 641.447 Z" fill="#000000" fill-rule="evenodd" fill-opacity="1" /><polyline clip-path="url(#clip640)" style="stroke:#33bbee; stroke-width:4; stroke-opacity:1; fill:none" points="
  1979.59,700.018 2124.02,700.018 
  "/>
<path clip-path="url(#clip640)" d="M 0 0 M2161.93 719.705 Q2160.13 724.335 2158.41 725.747 Q2156.7 727.159 2153.83 727.159 L2150.43 727.159 L2150.43 723.594 L2152.93 723.594 Q2154.69 723.594 2155.66 722.76 Q2156.63 721.927 2157.81 718.825 L2158.58 716.881 L2148.09 691.372 L2152.6 691.372 L2160.71 711.649 L2168.81 691.372 L2173.32 691.372 L2161.93 719.705 Z" fill="#000000" fill-rule="evenodd" fill-opacity="1" /><path clip-path="url(#clip640)" d="M 0 0 M2180.61 713.362 L2188.25 713.362 L2188.25 686.997 L2179.94 688.663 L2179.94 684.404 L2188.21 682.738 L2192.88 682.738 L2192.88 713.362 L2200.52 713.362 L2200.52 717.298 L2180.61 717.298 L2180.61 713.362 Z" fill="#000000" fill-rule="evenodd" fill-opacity="1" /><path clip-path="url(#clip640)" d="M 0 0 M2219.97 685.816 Q2216.35 685.816 2214.53 689.381 Q2212.72 692.923 2212.72 700.052 Q2212.72 707.159 2214.53 710.724 Q2216.35 714.265 2219.97 714.265 Q2223.6 714.265 2225.41 710.724 Q2227.23 707.159 2227.23 700.052 Q2227.23 692.923 2225.41 689.381 Q2223.6 685.816 2219.97 685.816 M2219.97 682.113 Q2225.78 682.113 2228.83 686.719 Q2231.91 691.302 2231.91 700.052 Q2231.91 708.779 2228.83 713.386 Q2225.78 717.969 2219.97 717.969 Q2214.16 717.969 2211.08 713.386 Q2208.02 708.779 2208.02 700.052 Q2208.02 691.302 2211.08 686.719 Q2214.16 682.113 2219.97 682.113 Z" fill="#000000" fill-rule="evenodd" fill-opacity="1" /><polyline clip-path="url(#clip640)" style="stroke:#ee3377; stroke-width:4; stroke-opacity:1; fill:none" points="
  1979.59,760.498 2124.02,760.498 
  "/>
<path clip-path="url(#clip640)" d="M 0 0 M2161.93 780.185 Q2160.13 784.815 2158.41 786.227 Q2156.7 787.639 2153.83 787.639 L2150.43 787.639 L2150.43 784.074 L2152.93 784.074 Q2154.69 784.074 2155.66 783.24 Q2156.63 782.407 2157.81 779.305 L2158.58 777.361 L2148.09 751.852 L2152.6 751.852 L2160.71 772.129 L2168.81 751.852 L2173.32 751.852 L2161.93 780.185 Z" fill="#000000" fill-rule="evenodd" fill-opacity="1" /><path clip-path="url(#clip640)" d="M 0 0 M2180.61 773.842 L2188.25 773.842 L2188.25 747.477 L2179.94 749.143 L2179.94 744.884 L2188.21 743.218 L2192.88 743.218 L2192.88 773.842 L2200.52 773.842 L2200.52 777.778 L2180.61 777.778 L2180.61 773.842 Z" fill="#000000" fill-rule="evenodd" fill-opacity="1" /><path clip-path="url(#clip640)" d="M 0 0 M2210.78 773.842 L2218.41 773.842 L2218.41 747.477 L2210.1 749.143 L2210.1 744.884 L2218.37 743.218 L2223.04 743.218 L2223.04 773.842 L2230.68 773.842 L2230.68 777.778 L2210.78 777.778 L2210.78 773.842 Z" fill="#000000" fill-rule="evenodd" fill-opacity="1" /><polyline clip-path="url(#clip640)" style="stroke:#cc3311; stroke-width:4; stroke-opacity:1; fill:none" points="
  1979.59,820.978 2124.02,820.978 
  "/>
<path clip-path="url(#clip640)" d="M 0 0 M2161.93 840.665 Q2160.13 845.295 2158.41 846.707 Q2156.7 848.119 2153.83 848.119 L2150.43 848.119 L2150.43 844.554 L2152.93 844.554 Q2154.69 844.554 2155.66 843.72 Q2156.63 842.887 2157.81 839.785 L2158.58 837.841 L2148.09 812.332 L2152.6 812.332 L2160.71 832.609 L2168.81 812.332 L2173.32 812.332 L2161.93 840.665 Z" fill="#000000" fill-rule="evenodd" fill-opacity="1" /><path clip-path="url(#clip640)" d="M 0 0 M2180.61 834.322 L2188.25 834.322 L2188.25 807.957 L2179.94 809.623 L2179.94 805.364 L2188.21 803.698 L2192.88 803.698 L2192.88 834.322 L2200.52 834.322 L2200.52 838.258 L2180.61 838.258 L2180.61 834.322 Z" fill="#000000" fill-rule="evenodd" fill-opacity="1" /><path clip-path="url(#clip640)" d="M 0 0 M2213.99 834.322 L2230.31 834.322 L2230.31 838.258 L2208.37 838.258 L2208.37 834.322 Q2211.03 831.568 2215.61 826.938 Q2220.22 822.285 2221.4 820.943 Q2223.65 818.42 2224.53 816.684 Q2225.43 814.924 2225.43 813.235 Q2225.43 810.48 2223.48 808.744 Q2221.56 807.008 2218.46 807.008 Q2216.26 807.008 2213.81 807.772 Q2211.38 808.535 2208.6 810.086 L2208.6 805.364 Q2211.42 804.23 2213.88 803.651 Q2216.33 803.073 2218.37 803.073 Q2223.74 803.073 2226.93 805.758 Q2230.13 808.443 2230.13 812.934 Q2230.13 815.063 2229.32 816.985 Q2228.53 818.883 2226.42 821.475 Q2225.84 822.147 2222.74 825.364 Q2219.64 828.559 2213.99 834.322 Z" fill="#000000" fill-rule="evenodd" fill-opacity="1" /><polyline clip-path="url(#clip640)" style="stroke:#009988; stroke-width:4; stroke-opacity:1; fill:none" points="
  1979.59,881.458 2124.02,881.458 
  "/>
<path clip-path="url(#clip640)" d="M 0 0 M2161.93 901.145 Q2160.13 905.775 2158.41 907.187 Q2156.7 908.599 2153.83 908.599 L2150.43 908.599 L2150.43 905.034 L2152.93 905.034 Q2154.69 905.034 2155.66 904.2 Q2156.63 903.367 2157.81 900.265 L2158.58 898.321 L2148.09 872.812 L2152.6 872.812 L2160.71 893.089 L2168.81 872.812 L2173.32 872.812 L2161.93 901.145 Z" fill="#000000" fill-rule="evenodd" fill-opacity="1" /><path clip-path="url(#clip640)" d="M 0 0 M2180.61 894.802 L2188.25 894.802 L2188.25 868.437 L2179.94 870.103 L2179.94 865.844 L2188.21 864.178 L2192.88 864.178 L2192.88 894.802 L2200.52 894.802 L2200.52 898.738 L2180.61 898.738 L2180.61 894.802 Z" fill="#000000" fill-rule="evenodd" fill-opacity="1" /><path clip-path="url(#clip640)" d="M 0 0 M2224.13 880.103 Q2227.49 880.821 2229.36 883.089 Q2231.26 885.358 2231.26 888.691 Q2231.26 893.807 2227.74 896.608 Q2224.22 899.409 2217.74 899.409 Q2215.57 899.409 2213.25 898.969 Q2210.96 898.552 2208.51 897.696 L2208.51 893.182 Q2210.45 894.316 2212.77 894.895 Q2215.08 895.474 2217.6 895.474 Q2222 895.474 2224.29 893.738 Q2226.61 892.001 2226.61 888.691 Q2226.61 885.636 2224.46 883.923 Q2222.33 882.187 2218.51 882.187 L2214.48 882.187 L2214.48 878.344 L2218.69 878.344 Q2222.14 878.344 2223.97 876.978 Q2225.8 875.59 2225.8 872.997 Q2225.8 870.335 2223.9 868.923 Q2222.03 867.488 2218.51 867.488 Q2216.59 867.488 2214.39 867.904 Q2212.19 868.321 2209.55 869.201 L2209.55 865.034 Q2212.21 864.293 2214.53 863.923 Q2216.86 863.553 2218.92 863.553 Q2224.25 863.553 2227.35 865.983 Q2230.45 868.39 2230.45 872.511 Q2230.45 875.381 2228.81 877.372 Q2227.16 879.34 2224.13 880.103 Z" fill="#000000" fill-rule="evenodd" fill-opacity="1" /><polyline clip-path="url(#clip640)" style="stroke:#bbbbbb; stroke-width:4; stroke-opacity:1; fill:none" points="
  1979.59,941.938 2124.02,941.938 
  "/>
<path clip-path="url(#clip640)" d="M 0 0 M2161.93 961.625 Q2160.13 966.255 2158.41 967.667 Q2156.7 969.079 2153.83 969.079 L2150.43 969.079 L2150.43 965.514 L2152.93 965.514 Q2154.69 965.514 2155.66 964.68 Q2156.63 963.847 2157.81 960.745 L2158.58 958.801 L2148.09 933.292 L2152.6 933.292 L2160.71 953.569 L2168.81 933.292 L2173.32 933.292 L2161.93 961.625 Z" fill="#000000" fill-rule="evenodd" fill-opacity="1" /><path clip-path="url(#clip640)" d="M 0 0 M2180.61 955.282 L2188.25 955.282 L2188.25 928.917 L2179.94 930.583 L2179.94 926.324 L2188.21 924.658 L2192.88 924.658 L2192.88 955.282 L2200.52 955.282 L2200.52 959.218 L2180.61 959.218 L2180.61 955.282 Z" fill="#000000" fill-rule="evenodd" fill-opacity="1" /><path clip-path="url(#clip640)" d="M 0 0 M2222.81 928.732 L2211.01 947.181 L2222.81 947.181 L2222.81 928.732 M2221.59 924.658 L2227.47 924.658 L2227.47 947.181 L2232.4 947.181 L2232.4 951.069 L2227.47 951.069 L2227.47 959.218 L2222.81 959.218 L2222.81 951.069 L2207.21 951.069 L2207.21 946.556 L2221.59 924.658 Z" fill="#000000" fill-rule="evenodd" fill-opacity="1" /><polyline clip-path="url(#clip640)" style="stroke:#ee7733; stroke-width:4; stroke-opacity:1; fill:none" points="
  1979.59,1002.42 2124.02,1002.42 
  "/>
<path clip-path="url(#clip640)" d="M 0 0 M2161.93 1022.1 Q2160.13 1026.73 2158.41 1028.15 Q2156.7 1029.56 2153.83 1029.56 L2150.43 1029.56 L2150.43 1025.99 L2152.93 1025.99 Q2154.69 1025.99 2155.66 1025.16 Q2156.63 1024.33 2157.81 1021.23 L2158.58 1019.28 L2148.09 993.772 L2152.6 993.772 L2160.71 1014.05 L2168.81 993.772 L2173.32 993.772 L2161.93 1022.1 Z" fill="#000000" fill-rule="evenodd" fill-opacity="1" /><path clip-path="url(#clip640)" d="M 0 0 M2180.61 1015.76 L2188.25 1015.76 L2188.25 989.397 L2179.94 991.063 L2179.94 986.804 L2188.21 985.138 L2192.88 985.138 L2192.88 1015.76 L2200.52 1015.76 L2200.52 1019.7 L2180.61 1019.7 L2180.61 1015.76 Z" fill="#000000" fill-rule="evenodd" fill-opacity="1" /><path clip-path="url(#clip640)" d="M 0 0 M2210.01 985.138 L2228.37 985.138 L2228.37 989.073 L2214.29 989.073 L2214.29 997.545 Q2215.31 997.198 2216.33 997.036 Q2217.35 996.85 2218.37 996.85 Q2224.16 996.85 2227.53 1000.02 Q2230.91 1003.19 2230.91 1008.61 Q2230.91 1014.19 2227.44 1017.29 Q2223.97 1020.37 2217.65 1020.37 Q2215.47 1020.37 2213.21 1020 Q2210.96 1019.63 2208.55 1018.89 L2208.55 1014.19 Q2210.64 1015.32 2212.86 1015.88 Q2215.08 1016.43 2217.56 1016.43 Q2221.56 1016.43 2223.9 1014.33 Q2226.24 1012.22 2226.24 1008.61 Q2226.24 1005 2223.9 1002.89 Q2221.56 1000.79 2217.56 1000.79 Q2215.68 1000.79 2213.81 1001.2 Q2211.96 1001.62 2210.01 1002.5 L2210.01 985.138 Z" fill="#000000" fill-rule="evenodd" fill-opacity="1" /><polyline clip-path="url(#clip640)" style="stroke:#0077bb; stroke-width:4; stroke-opacity:1; fill:none" points="
  1979.59,1062.9 2124.02,1062.9 
  "/>
<path clip-path="url(#clip640)" d="M 0 0 M2161.93 1082.58 Q2160.13 1087.21 2158.41 1088.63 Q2156.7 1090.04 2153.83 1090.04 L2150.43 1090.04 L2150.43 1086.47 L2152.93 1086.47 Q2154.69 1086.47 2155.66 1085.64 Q2156.63 1084.81 2157.81 1081.71 L2158.58 1079.76 L2148.09 1054.25 L2152.6 1054.25 L2160.71 1074.53 L2168.81 1054.25 L2173.32 1054.25 L2161.93 1082.58 Z" fill="#000000" fill-rule="evenodd" fill-opacity="1" /><path clip-path="url(#clip640)" d="M 0 0 M2180.61 1076.24 L2188.25 1076.24 L2188.25 1049.88 L2179.94 1051.54 L2179.94 1047.28 L2188.21 1045.62 L2192.88 1045.62 L2192.88 1076.24 L2200.52 1076.24 L2200.52 1080.18 L2180.61 1080.18 L2180.61 1076.24 Z" fill="#000000" fill-rule="evenodd" fill-opacity="1" /><path clip-path="url(#clip640)" d="M 0 0 M2220.54 1061.03 Q2217.4 1061.03 2215.54 1063.19 Q2213.72 1065.34 2213.72 1069.09 Q2213.72 1072.82 2215.54 1074.99 Q2217.4 1077.15 2220.54 1077.15 Q2223.69 1077.15 2225.52 1074.99 Q2227.37 1072.82 2227.37 1069.09 Q2227.37 1065.34 2225.52 1063.19 Q2223.69 1061.03 2220.54 1061.03 M2229.83 1046.38 L2229.83 1050.64 Q2228.07 1049.81 2226.26 1049.37 Q2224.48 1048.93 2222.72 1048.93 Q2218.09 1048.93 2215.64 1052.05 Q2213.21 1055.18 2212.86 1061.5 Q2214.22 1059.48 2216.28 1058.42 Q2218.34 1057.33 2220.82 1057.33 Q2226.03 1057.33 2229.04 1060.5 Q2232.07 1063.65 2232.07 1069.09 Q2232.07 1074.41 2228.92 1077.63 Q2225.78 1080.85 2220.54 1080.85 Q2214.55 1080.85 2211.38 1076.27 Q2208.21 1071.66 2208.21 1062.93 Q2208.21 1054.74 2212.09 1049.88 Q2215.98 1044.99 2222.53 1044.99 Q2224.29 1044.99 2226.08 1045.34 Q2227.88 1045.69 2229.83 1046.38 Z" fill="#000000" fill-rule="evenodd" fill-opacity="1" /><polyline clip-path="url(#clip640)" style="stroke:#33bbee; stroke-width:4; stroke-opacity:1; fill:none" points="
  1979.59,1123.38 2124.02,1123.38 
  "/>
<path clip-path="url(#clip640)" d="M 0 0 M2161.93 1143.06 Q2160.13 1147.69 2158.41 1149.11 Q2156.7 1150.52 2153.83 1150.52 L2150.43 1150.52 L2150.43 1146.95 L2152.93 1146.95 Q2154.69 1146.95 2155.66 1146.12 Q2156.63 1145.29 2157.81 1142.19 L2158.58 1140.24 L2148.09 1114.73 L2152.6 1114.73 L2160.71 1135.01 L2168.81 1114.73 L2173.32 1114.73 L2161.93 1143.06 Z" fill="#000000" fill-rule="evenodd" fill-opacity="1" /><path clip-path="url(#clip640)" d="M 0 0 M2180.61 1136.72 L2188.25 1136.72 L2188.25 1110.36 L2179.94 1112.02 L2179.94 1107.76 L2188.21 1106.1 L2192.88 1106.1 L2192.88 1136.72 L2200.52 1136.72 L2200.52 1140.66 L2180.61 1140.66 L2180.61 1136.72 Z" fill="#000000" fill-rule="evenodd" fill-opacity="1" /><path clip-path="url(#clip640)" d="M 0 0 M2208.78 1106.1 L2231.01 1106.1 L2231.01 1108.09 L2218.46 1140.66 L2213.58 1140.66 L2225.38 1110.03 L2208.78 1110.03 L2208.78 1106.1 Z" fill="#000000" fill-rule="evenodd" fill-opacity="1" /><polyline clip-path="url(#clip640)" style="stroke:#ee3377; stroke-width:4; stroke-opacity:1; fill:none" points="
  1979.59,1183.86 2124.02,1183.86 
  "/>
<path clip-path="url(#clip640)" d="M 0 0 M2161.93 1203.54 Q2160.13 1208.17 2158.41 1209.59 Q2156.7 1211 2153.83 1211 L2150.43 1211 L2150.43 1207.43 L2152.93 1207.43 Q2154.69 1207.43 2155.66 1206.6 Q2156.63 1205.77 2157.81 1202.67 L2158.58 1200.72 L2148.09 1175.21 L2152.6 1175.21 L2160.71 1195.49 L2168.81 1175.21 L2173.32 1175.21 L2161.93 1203.54 Z" fill="#000000" fill-rule="evenodd" fill-opacity="1" /><path clip-path="url(#clip640)" d="M 0 0 M2180.61 1197.2 L2188.25 1197.2 L2188.25 1170.84 L2179.94 1172.5 L2179.94 1168.24 L2188.21 1166.58 L2192.88 1166.58 L2192.88 1197.2 L2200.52 1197.2 L2200.52 1201.14 L2180.61 1201.14 L2180.61 1197.2 Z" fill="#000000" fill-rule="evenodd" fill-opacity="1" /><path clip-path="url(#clip640)" d="M 0 0 M2219.97 1184.73 Q2216.63 1184.73 2214.71 1186.51 Q2212.81 1188.29 2212.81 1191.42 Q2212.81 1194.54 2214.71 1196.32 Q2216.63 1198.11 2219.97 1198.11 Q2223.3 1198.11 2225.22 1196.32 Q2227.14 1194.52 2227.14 1191.42 Q2227.14 1188.29 2225.22 1186.51 Q2223.32 1184.73 2219.97 1184.73 M2215.29 1182.73 Q2212.28 1181.99 2210.59 1179.93 Q2208.92 1177.87 2208.92 1174.91 Q2208.92 1170.77 2211.86 1168.36 Q2214.83 1165.95 2219.97 1165.95 Q2225.13 1165.95 2228.07 1168.36 Q2231.01 1170.77 2231.01 1174.91 Q2231.01 1177.87 2229.32 1179.93 Q2227.65 1181.99 2224.66 1182.73 Q2228.04 1183.52 2229.92 1185.81 Q2231.82 1188.11 2231.82 1191.42 Q2231.82 1196.44 2228.74 1199.12 Q2225.68 1201.81 2219.97 1201.81 Q2214.25 1201.81 2211.17 1199.12 Q2208.11 1196.44 2208.11 1191.42 Q2208.11 1188.11 2210.01 1185.81 Q2211.91 1183.52 2215.29 1182.73 M2213.58 1175.35 Q2213.58 1178.04 2215.24 1179.54 Q2216.93 1181.05 2219.97 1181.05 Q2222.97 1181.05 2224.66 1179.54 Q2226.38 1178.04 2226.38 1175.35 Q2226.38 1172.67 2224.66 1171.16 Q2222.97 1169.66 2219.97 1169.66 Q2216.93 1169.66 2215.24 1171.16 Q2213.58 1172.67 2213.58 1175.35 Z" fill="#000000" fill-rule="evenodd" fill-opacity="1" /><polyline clip-path="url(#clip640)" style="stroke:#cc3311; stroke-width:4; stroke-opacity:1; fill:none" points="
  1979.59,1244.34 2124.02,1244.34 
  "/>
<path clip-path="url(#clip640)" d="M 0 0 M2161.93 1264.02 Q2160.13 1268.65 2158.41 1270.07 Q2156.7 1271.48 2153.83 1271.48 L2150.43 1271.48 L2150.43 1267.91 L2152.93 1267.91 Q2154.69 1267.91 2155.66 1267.08 Q2156.63 1266.25 2157.81 1263.15 L2158.58 1261.2 L2148.09 1235.69 L2152.6 1235.69 L2160.71 1255.97 L2168.81 1235.69 L2173.32 1235.69 L2161.93 1264.02 Z" fill="#000000" fill-rule="evenodd" fill-opacity="1" /><path clip-path="url(#clip640)" d="M 0 0 M2180.61 1257.68 L2188.25 1257.68 L2188.25 1231.32 L2179.94 1232.98 L2179.94 1228.72 L2188.21 1227.06 L2192.88 1227.06 L2192.88 1257.68 L2200.52 1257.68 L2200.52 1261.62 L2180.61 1261.62 L2180.61 1257.68 Z" fill="#000000" fill-rule="evenodd" fill-opacity="1" /><path clip-path="url(#clip640)" d="M 0 0 M2210.1 1260.9 L2210.1 1256.64 Q2211.86 1257.47 2213.67 1257.91 Q2215.47 1258.35 2217.21 1258.35 Q2221.84 1258.35 2224.27 1255.25 Q2226.72 1252.13 2227.07 1245.78 Q2225.73 1247.78 2223.67 1248.84 Q2221.61 1249.9 2219.11 1249.9 Q2213.92 1249.9 2210.89 1246.78 Q2207.88 1243.63 2207.88 1238.19 Q2207.88 1232.87 2211.03 1229.65 Q2214.18 1226.43 2219.41 1226.43 Q2225.41 1226.43 2228.55 1231.04 Q2231.72 1235.62 2231.72 1244.37 Q2231.72 1252.54 2227.84 1257.43 Q2223.97 1262.29 2217.42 1262.29 Q2215.66 1262.29 2213.85 1261.94 Q2212.05 1261.59 2210.1 1260.9 M2219.41 1246.25 Q2222.56 1246.25 2224.39 1244.09 Q2226.24 1241.94 2226.24 1238.19 Q2226.24 1234.46 2224.39 1232.31 Q2222.56 1230.14 2219.41 1230.14 Q2216.26 1230.14 2214.41 1232.31 Q2212.58 1234.46 2212.58 1238.19 Q2212.58 1241.94 2214.41 1244.09 Q2216.26 1246.25 2219.41 1246.25 Z" fill="#000000" fill-rule="evenodd" fill-opacity="1" /><polyline clip-path="url(#clip640)" style="stroke:#009988; stroke-width:4; stroke-opacity:1; fill:none" points="
  1979.59,1304.82 2124.02,1304.82 
  "/>
<path clip-path="url(#clip640)" d="M 0 0 M2161.93 1324.5 Q2160.13 1329.13 2158.41 1330.55 Q2156.7 1331.96 2153.83 1331.96 L2150.43 1331.96 L2150.43 1328.39 L2152.93 1328.39 Q2154.69 1328.39 2155.66 1327.56 Q2156.63 1326.73 2157.81 1323.63 L2158.58 1321.68 L2148.09 1296.17 L2152.6 1296.17 L2160.71 1316.45 L2168.81 1296.17 L2173.32 1296.17 L2161.93 1324.5 Z" fill="#000000" fill-rule="evenodd" fill-opacity="1" /><path clip-path="url(#clip640)" d="M 0 0 M2183.83 1318.16 L2200.15 1318.16 L2200.15 1322.1 L2178.21 1322.1 L2178.21 1318.16 Q2180.87 1315.41 2185.45 1310.78 Q2190.06 1306.13 2191.24 1304.78 Q2193.48 1302.26 2194.36 1300.52 Q2195.27 1298.76 2195.27 1297.07 Q2195.27 1294.32 2193.32 1292.58 Q2191.4 1290.85 2188.3 1290.85 Q2186.1 1290.85 2183.65 1291.61 Q2181.22 1292.38 2178.44 1293.93 L2178.44 1289.2 Q2181.26 1288.07 2183.72 1287.49 Q2186.17 1286.91 2188.21 1286.91 Q2193.58 1286.91 2196.77 1289.6 Q2199.97 1292.28 2199.97 1296.77 Q2199.97 1298.9 2199.16 1300.82 Q2198.37 1302.72 2196.26 1305.32 Q2195.68 1305.99 2192.58 1309.2 Q2189.48 1312.4 2183.83 1318.16 Z" fill="#000000" fill-rule="evenodd" fill-opacity="1" /><path clip-path="url(#clip640)" d="M 0 0 M2219.97 1290.62 Q2216.35 1290.62 2214.53 1294.18 Q2212.72 1297.72 2212.72 1304.85 Q2212.72 1311.96 2214.53 1315.52 Q2216.35 1319.07 2219.97 1319.07 Q2223.6 1319.07 2225.41 1315.52 Q2227.23 1311.96 2227.23 1304.85 Q2227.23 1297.72 2225.41 1294.18 Q2223.6 1290.62 2219.97 1290.62 M2219.97 1286.91 Q2225.78 1286.91 2228.83 1291.52 Q2231.91 1296.1 2231.91 1304.85 Q2231.91 1313.58 2228.83 1318.19 Q2225.78 1322.77 2219.97 1322.77 Q2214.16 1322.77 2211.08 1318.19 Q2208.02 1313.58 2208.02 1304.85 Q2208.02 1296.1 2211.08 1291.52 Q2214.16 1286.91 2219.97 1286.91 Z" fill="#000000" fill-rule="evenodd" fill-opacity="1" /></svg>
