<?xml version="1.0" encoding="utf-8"?>
<svg xmlns="http://www.w3.org/2000/svg" xmlns:xlink="http://www.w3.org/1999/xlink" width="770" height="300" viewBox="0 0 3080 1200">
<defs>
  <clipPath id="clip190">
    <rect x="0" y="0" width="3080" height="1200"/>
  </clipPath>
</defs>
<path clip-path="url(#clip190)" d="
M0 1200 L3080 1200 L3080 0 L0 0  Z
  " fill="#ffffff" fill-rule="evenodd" fill-opacity="1"/>
<defs>
  <clipPath id="clip191">
    <rect x="616" y="0" width="2157" height="1200"/>
  </clipPath>
</defs>
<path clip-path="url(#clip190)" d="
M200.736 1104.81 L3032.76 1104.81 L3032.76 47.2441 L200.736 47.2441  Z
  " fill="#ffffff" fill-rule="evenodd" fill-opacity="1"/>
<defs>
  <clipPath id="clip192">
    <rect x="200" y="47" width="2833" height="1059"/>
  </clipPath>
</defs>
<polyline clip-path="url(#clip192)" style="stroke:#222255; stroke-width:2; stroke-opacity:0.1; fill:none" points="
  553.704,1104.81 553.704,47.2441 
  "/>
<polyline clip-path="url(#clip192)" style="stroke:#222255; stroke-width:2; stroke-opacity:0.1; fill:none" points="
  1085.22,1104.81 1085.22,47.2441 
  "/>
<polyline clip-path="url(#clip192)" style="stroke:#222255; stroke-width:2; stroke-opacity:0.1; fill:none" points="
  1616.75,1104.81 1616.75,47.2441 
  "/>
<polyline clip-path="url(#clip192)" style="stroke:#222255; stroke-width:2; stroke-opacity:0.1; fill:none" points="
  2148.27,1104.81 2148.27,47.2441 
  "/>
<polyline clip-path="url(#clip192)" style="stroke:#222255; stroke-width:2; stroke-opacity:0.1; fill:none" points="
  2679.79,1104.81 2679.79,47.2441 
  "/>
<polyline clip-path="url(#clip192)" style="stroke:#222255; stroke-width:2; stroke-opacity:0.05; fill:none" points="
  234.791,1104.81 234.791,47.2441 
  "/>
<polyline clip-path="url(#clip192)" style="stroke:#222255; stroke-width:2; stroke-opacity:0.05; fill:none" points="
  341.095,1104.81 341.095,47.2441 
  "/>
<polyline clip-path="url(#clip192)" style="stroke:#222255; stroke-width:2; stroke-opacity:0.05; fill:none" points="
  447.399,1104.81 447.399,47.2441 
  "/>
<polyline clip-path="url(#clip192)" style="stroke:#222255; stroke-width:2; stroke-opacity:0.05; fill:none" points="
  660.008,1104.81 660.008,47.2441 
  "/>
<polyline clip-path="url(#clip192)" style="stroke:#222255; stroke-width:2; stroke-opacity:0.05; fill:none" points="
  766.312,1104.81 766.312,47.2441 
  "/>
<polyline clip-path="url(#clip192)" style="stroke:#222255; stroke-width:2; stroke-opacity:0.05; fill:none" points="
  872.616,1104.81 872.616,47.2441 
  "/>
<polyline clip-path="url(#clip192)" style="stroke:#222255; stroke-width:2; stroke-opacity:0.05; fill:none" points="
  978.921,1104.81 978.921,47.2441 
  "/>
<polyline clip-path="url(#clip192)" style="stroke:#222255; stroke-width:2; stroke-opacity:0.05; fill:none" points="
  1191.53,1104.81 1191.53,47.2441 
  "/>
<polyline clip-path="url(#clip192)" style="stroke:#222255; stroke-width:2; stroke-opacity:0.05; fill:none" points="
  1297.83,1104.81 1297.83,47.2441 
  "/>
<polyline clip-path="url(#clip192)" style="stroke:#222255; stroke-width:2; stroke-opacity:0.05; fill:none" points="
  1404.14,1104.81 1404.14,47.2441 
  "/>
<polyline clip-path="url(#clip192)" style="stroke:#222255; stroke-width:2; stroke-opacity:0.05; fill:none" points="
  1510.44,1104.81 1510.44,47.2441 
  "/>
<polyline clip-path="url(#clip192)" style="stroke:#222255; stroke-width:2; stroke-opacity:0.05; fill:none" points="
  1723.05,1104.81 1723.05,47.2441 
  "/>
<polyline clip-path="url(#clip192)" style="stroke:#222255; stroke-width:2; stroke-opacity:0.05; fill:none" points="
  1829.35,1104.81 1829.35,47.2441 
  "/>
<polyline clip-path="url(#clip192)" style="stroke:#222255; stroke-width:2; stroke-opacity:0.05; fill:none" points="
  1935.66,1104.81 1935.66,47.2441 
  "/>
<polyline clip-path="url(#clip192)" style="stroke:#222255; stroke-width:2; stroke-opacity:0.05; fill:none" points="
  2041.96,1104.81 2041.96,47.2441 
  "/>
<polyline clip-path="url(#clip192)" style="stroke:#222255; stroke-width:2; stroke-opacity:0.05; fill:none" points="
  2254.57,1104.81 2254.57,47.2441 
  "/>
<polyline clip-path="url(#clip192)" style="stroke:#222255; stroke-width:2; stroke-opacity:0.05; fill:none" points="
  2360.88,1104.81 2360.88,47.2441 
  "/>
<polyline clip-path="url(#clip192)" style="stroke:#222255; stroke-width:2; stroke-opacity:0.05; fill:none" points="
  2467.18,1104.81 2467.18,47.2441 
  "/>
<polyline clip-path="url(#clip192)" style="stroke:#222255; stroke-width:2; stroke-opacity:0.05; fill:none" points="
  2573.48,1104.81 2573.48,47.2441 
  "/>
<polyline clip-path="url(#clip192)" style="stroke:#222255; stroke-width:2; stroke-opacity:0.05; fill:none" points="
  2786.09,1104.81 2786.09,47.2441 
  "/>
<polyline clip-path="url(#clip192)" style="stroke:#222255; stroke-width:2; stroke-opacity:0.05; fill:none" points="
  2892.4,1104.81 2892.4,47.2441 
  "/>
<polyline clip-path="url(#clip192)" style="stroke:#222255; stroke-width:2; stroke-opacity:0.05; fill:none" points="
  2998.7,1104.81 2998.7,47.2441 
  "/>
<polyline clip-path="url(#clip190)" style="stroke:#222255; stroke-width:4; stroke-opacity:0; fill:none" points="
  553.704,1104.81 553.704,1092.12 
  "/>
<polyline clip-path="url(#clip190)" style="stroke:#222255; stroke-width:4; stroke-opacity:0; fill:none" points="
  1085.22,1104.81 1085.22,1092.12 
  "/>
<polyline clip-path="url(#clip190)" style="stroke:#222255; stroke-width:4; stroke-opacity:0; fill:none" points="
  1616.75,1104.81 1616.75,1092.12 
  "/>
<polyline clip-path="url(#clip190)" style="stroke:#222255; stroke-width:4; stroke-opacity:0; fill:none" points="
  2148.27,1104.81 2148.27,1092.12 
  "/>
<polyline clip-path="url(#clip190)" style="stroke:#222255; stroke-width:4; stroke-opacity:0; fill:none" points="
  2679.79,1104.81 2679.79,1092.12 
  "/>
<polyline clip-path="url(#clip190)" style="stroke:#222255; stroke-width:4; stroke-opacity:0; fill:none" points="
  234.791,1104.81 234.791,1098.47 
  "/>
<polyline clip-path="url(#clip190)" style="stroke:#222255; stroke-width:4; stroke-opacity:0; fill:none" points="
  341.095,1104.81 341.095,1098.47 
  "/>
<polyline clip-path="url(#clip190)" style="stroke:#222255; stroke-width:4; stroke-opacity:0; fill:none" points="
  447.399,1104.81 447.399,1098.47 
  "/>
<polyline clip-path="url(#clip190)" style="stroke:#222255; stroke-width:4; stroke-opacity:0; fill:none" points="
  660.008,1104.81 660.008,1098.47 
  "/>
<polyline clip-path="url(#clip190)" style="stroke:#222255; stroke-width:4; stroke-opacity:0; fill:none" points="
  766.312,1104.81 766.312,1098.47 
  "/>
<polyline clip-path="url(#clip190)" style="stroke:#222255; stroke-width:4; stroke-opacity:0; fill:none" points="
  872.616,1104.81 872.616,1098.47 
  "/>
<polyline clip-path="url(#clip190)" style="stroke:#222255; stroke-width:4; stroke-opacity:0; fill:none" points="
  978.921,1104.81 978.921,1098.47 
  "/>
<polyline clip-path="url(#clip190)" style="stroke:#222255; stroke-width:4; stroke-opacity:0; fill:none" points="
  1191.53,1104.81 1191.53,1098.47 
  "/>
<polyline clip-path="url(#clip190)" style="stroke:#222255; stroke-width:4; stroke-opacity:0; fill:none" points="
  1297.83,1104.81 1297.83,1098.47 
  "/>
<polyline clip-path="url(#clip190)" style="stroke:#222255; stroke-width:4; stroke-opacity:0; fill:none" points="
  1404.14,1104.81 1404.14,1098.47 
  "/>
<polyline clip-path="url(#clip190)" style="stroke:#222255; stroke-width:4; stroke-opacity:0; fill:none" points="
  1510.44,1104.81 1510.44,1098.47 
  "/>
<polyline clip-path="url(#clip190)" style="stroke:#222255; stroke-width:4; stroke-opacity:0; fill:none" points="
  1723.05,1104.81 1723.05,1098.47 
  "/>
<polyline clip-path="url(#clip190)" style="stroke:#222255; stroke-width:4; stroke-opacity:0; fill:none" points="
  1829.35,1104.81 1829.35,1098.47 
  "/>
<polyline clip-path="url(#clip190)" style="stroke:#222255; stroke-width:4; stroke-opacity:0; fill:none" points="
  1935.66,1104.81 1935.66,1098.47 
  "/>
<polyline clip-path="url(#clip190)" style="stroke:#222255; stroke-width:4; stroke-opacity:0; fill:none" points="
  2041.96,1104.81 2041.96,1098.47 
  "/>
<polyline clip-path="url(#clip190)" style="stroke:#222255; stroke-width:4; stroke-opacity:0; fill:none" points="
  2254.57,1104.81 2254.57,1098.47 
  "/>
<polyline clip-path="url(#clip190)" style="stroke:#222255; stroke-width:4; stroke-opacity:0; fill:none" points="
  2360.88,1104.81 2360.88,1098.47 
  "/>
<polyline clip-path="url(#clip190)" style="stroke:#222255; stroke-width:4; stroke-opacity:0; fill:none" points="
  2467.18,1104.81 2467.18,1098.47 
  "/>
<polyline clip-path="url(#clip190)" style="stroke:#222255; stroke-width:4; stroke-opacity:0; fill:none" points="
  2573.48,1104.81 2573.48,1098.47 
  "/>
<polyline clip-path="url(#clip190)" style="stroke:#222255; stroke-width:4; stroke-opacity:0; fill:none" points="
  2786.09,1104.81 2786.09,1098.47 
  "/>
<polyline clip-path="url(#clip190)" style="stroke:#222255; stroke-width:4; stroke-opacity:0; fill:none" points="
  2892.4,1104.81 2892.4,1098.47 
  "/>
<polyline clip-path="url(#clip190)" style="stroke:#222255; stroke-width:4; stroke-opacity:0; fill:none" points="
  2998.7,1104.81 2998.7,1098.47 
  "/>
<path clip-path="url(#clip190)" d="M 0 0 M500.232 1154.09 L529.907 1154.09 L529.907 1158.03 L500.232 1158.03 L500.232 1154.09 Z" fill="#000000" fill-rule="evenodd" fill-opacity="1" /><path clip-path="url(#clip190)" d="M 0 0 M540.046 1136.36 L558.403 1136.36 L558.403 1140.3 L544.329 1140.3 L544.329 1148.77 Q545.347 1148.42 546.366 1148.26 Q547.384 1148.08 548.403 1148.08 Q554.19 1148.08 557.569 1151.25 Q560.949 1154.42 560.949 1159.83 Q560.949 1165.41 557.477 1168.52 Q554.005 1171.59 547.685 1171.59 Q545.509 1171.59 543.241 1171.22 Q540.995 1170.85 538.588 1170.11 L538.588 1165.41 Q540.671 1166.55 542.893 1167.1 Q545.116 1167.66 547.592 1167.66 Q551.597 1167.66 553.935 1165.55 Q556.273 1163.45 556.273 1159.83 Q556.273 1156.22 553.935 1154.12 Q551.597 1152.01 547.592 1152.01 Q545.718 1152.01 543.843 1152.43 Q541.991 1152.84 540.046 1153.72 L540.046 1136.36 Z" fill="#000000" fill-rule="evenodd" fill-opacity="1" /><path clip-path="url(#clip190)" d="M 0 0 M570.162 1165.04 L575.046 1165.04 L575.046 1170.92 L570.162 1170.92 L570.162 1165.04 Z" fill="#000000" fill-rule="evenodd" fill-opacity="1" /><path clip-path="url(#clip190)" d="M 0 0 M595.231 1139.44 Q591.62 1139.44 589.791 1143.01 Q587.986 1146.55 587.986 1153.68 Q587.986 1160.78 589.791 1164.35 Q591.62 1167.89 595.231 1167.89 Q598.865 1167.89 600.671 1164.35 Q602.5 1160.78 602.5 1153.68 Q602.5 1146.55 600.671 1143.01 Q598.865 1139.44 595.231 1139.44 M595.231 1135.74 Q601.041 1135.74 604.097 1140.34 Q607.176 1144.93 607.176 1153.68 Q607.176 1162.4 604.097 1167.01 Q601.041 1171.59 595.231 1171.59 Q589.421 1171.59 586.342 1167.01 Q583.287 1162.4 583.287 1153.68 Q583.287 1144.93 586.342 1140.34 Q589.421 1135.74 595.231 1135.74 Z" fill="#000000" fill-rule="evenodd" fill-opacity="1" /><path clip-path="url(#clip190)" d="M 0 0 M1032.25 1154.09 L1061.93 1154.09 L1061.93 1158.03 L1032.25 1158.03 L1032.25 1154.09 Z" fill="#000000" fill-rule="evenodd" fill-opacity="1" /><path clip-path="url(#clip190)" d="M 0 0 M1076.05 1166.99 L1092.37 1166.99 L1092.37 1170.92 L1070.42 1170.92 L1070.42 1166.99 Q1073.08 1164.23 1077.67 1159.6 Q1082.27 1154.95 1083.45 1153.61 Q1085.7 1151.08 1086.58 1149.35 Q1087.48 1147.59 1087.48 1145.9 Q1087.48 1143.14 1085.54 1141.41 Q1083.62 1139.67 1080.51 1139.67 Q1078.32 1139.67 1075.86 1140.44 Q1073.43 1141.2 1070.65 1142.75 L1070.65 1138.03 Q1073.48 1136.89 1075.93 1136.32 Q1078.38 1135.74 1080.42 1135.74 Q1085.79 1135.74 1088.99 1138.42 Q1092.18 1141.11 1092.18 1145.6 Q1092.18 1147.73 1091.37 1149.65 Q1090.58 1151.55 1088.48 1154.14 Q1087.9 1154.81 1084.8 1158.03 Q1081.69 1161.22 1076.05 1166.99 Z" fill="#000000" fill-rule="evenodd" fill-opacity="1" /><path clip-path="url(#clip190)" d="M 0 0 M1102.18 1165.04 L1107.06 1165.04 L1107.06 1170.92 L1102.18 1170.92 L1102.18 1165.04 Z" fill="#000000" fill-rule="evenodd" fill-opacity="1" /><path clip-path="url(#clip190)" d="M 0 0 M1117.3 1136.36 L1135.65 1136.36 L1135.65 1140.3 L1121.58 1140.3 L1121.58 1148.77 Q1122.6 1148.42 1123.62 1148.26 Q1124.63 1148.08 1125.65 1148.08 Q1131.44 1148.08 1134.82 1151.25 Q1138.2 1154.42 1138.2 1159.83 Q1138.2 1165.41 1134.73 1168.52 Q1131.25 1171.59 1124.94 1171.59 Q1122.76 1171.59 1120.49 1171.22 Q1118.25 1170.85 1115.84 1170.11 L1115.84 1165.41 Q1117.92 1166.55 1120.14 1167.1 Q1122.37 1167.66 1124.84 1167.66 Q1128.85 1167.66 1131.19 1165.55 Q1133.52 1163.45 1133.52 1159.83 Q1133.52 1156.22 1131.19 1154.12 Q1128.85 1152.01 1124.84 1152.01 Q1122.97 1152.01 1121.09 1152.43 Q1119.24 1152.84 1117.3 1153.72 L1117.3 1136.36 Z" fill="#000000" fill-rule="evenodd" fill-opacity="1" /><path clip-path="url(#clip190)" d="M 0 0 M1594.13 1139.44 Q1590.52 1139.44 1588.69 1143.01 Q1586.89 1146.55 1586.89 1153.68 Q1586.89 1160.78 1588.69 1164.35 Q1590.52 1167.89 1594.13 1167.89 Q1597.76 1167.89 1599.57 1164.35 Q1601.4 1160.78 1601.4 1153.68 Q1601.4 1146.55 1599.57 1143.01 Q1597.76 1139.44 1594.13 1139.44 M1594.13 1135.74 Q1599.94 1135.74 1603 1140.34 Q1606.07 1144.93 1606.07 1153.68 Q1606.07 1162.4 1603 1167.01 Q1599.94 1171.59 1594.13 1171.59 Q1588.32 1171.59 1585.24 1167.01 Q1582.19 1162.4 1582.19 1153.68 Q1582.19 1144.93 1585.24 1140.34 Q1588.32 1135.74 1594.13 1135.74 Z" fill="#000000" fill-rule="evenodd" fill-opacity="1" /><path clip-path="url(#clip190)" d="M 0 0 M1614.29 1165.04 L1619.18 1165.04 L1619.18 1170.92 L1614.29 1170.92 L1614.29 1165.04 Z" fill="#000000" fill-rule="evenodd" fill-opacity="1" /><path clip-path="url(#clip190)" d="M 0 0 M1639.36 1139.44 Q1635.75 1139.44 1633.92 1143.01 Q1632.12 1146.55 1632.12 1153.68 Q1632.12 1160.78 1633.92 1164.35 Q1635.75 1167.89 1639.36 1167.89 Q1643 1167.89 1644.8 1164.35 Q1646.63 1160.78 1646.63 1153.68 Q1646.63 1146.55 1644.8 1143.01 Q1643 1139.44 1639.36 1139.44 M1639.36 1135.74 Q1645.17 1135.74 1648.23 1140.34 Q1651.31 1144.93 1651.31 1153.68 Q1651.31 1162.4 1648.23 1167.01 Q1645.17 1171.59 1639.36 1171.59 Q1633.55 1171.59 1630.47 1167.01 Q1627.42 1162.4 1627.42 1153.68 Q1627.42 1144.93 1630.47 1140.34 Q1633.55 1135.74 1639.36 1135.74 Z" fill="#000000" fill-rule="evenodd" fill-opacity="1" /><path clip-path="url(#clip190)" d="M 0 0 M2120 1166.99 L2136.32 1166.99 L2136.32 1170.92 L2114.38 1170.92 L2114.38 1166.99 Q2117.04 1164.23 2121.62 1159.6 Q2126.23 1154.95 2127.41 1153.61 Q2129.66 1151.08 2130.54 1149.35 Q2131.44 1147.59 2131.44 1145.9 Q2131.44 1143.14 2129.49 1141.41 Q2127.57 1139.67 2124.47 1139.67 Q2122.27 1139.67 2119.82 1140.44 Q2117.39 1141.2 2114.61 1142.75 L2114.61 1138.03 Q2117.43 1136.89 2119.89 1136.32 Q2122.34 1135.74 2124.38 1135.74 Q2129.75 1135.74 2132.94 1138.42 Q2136.14 1141.11 2136.14 1145.6 Q2136.14 1147.73 2135.33 1149.65 Q2134.54 1151.55 2132.43 1154.14 Q2131.86 1154.81 2128.75 1158.03 Q2125.65 1161.22 2120 1166.99 Z" fill="#000000" fill-rule="evenodd" fill-opacity="1" /><path clip-path="url(#clip190)" d="M 0 0 M2146.14 1165.04 L2151.02 1165.04 L2151.02 1170.92 L2146.14 1170.92 L2146.14 1165.04 Z" fill="#000000" fill-rule="evenodd" fill-opacity="1" /><path clip-path="url(#clip190)" d="M 0 0 M2161.25 1136.36 L2179.61 1136.36 L2179.61 1140.3 L2165.54 1140.3 L2165.54 1148.77 Q2166.55 1148.42 2167.57 1148.26 Q2168.59 1148.08 2169.61 1148.08 Q2175.4 1148.08 2178.78 1151.25 Q2182.16 1154.42 2182.16 1159.83 Q2182.16 1165.41 2178.68 1168.52 Q2175.21 1171.59 2168.89 1171.59 Q2166.72 1171.59 2164.45 1171.22 Q2162.2 1170.85 2159.79 1170.11 L2159.79 1165.41 Q2161.88 1166.55 2164.1 1167.1 Q2166.32 1167.66 2168.8 1167.66 Q2172.8 1167.66 2175.14 1165.55 Q2177.48 1163.45 2177.48 1159.83 Q2177.48 1156.22 2175.14 1154.12 Q2172.8 1152.01 2168.8 1152.01 Q2166.92 1152.01 2165.05 1152.43 Q2163.2 1152.84 2161.25 1153.72 L2161.25 1136.36 Z" fill="#000000" fill-rule="evenodd" fill-opacity="1" /><path clip-path="url(#clip190)" d="M 0 0 M2646.95 1136.36 L2665.31 1136.36 L2665.31 1140.3 L2651.24 1140.3 L2651.24 1148.77 Q2652.25 1148.42 2653.27 1148.26 Q2654.29 1148.08 2655.31 1148.08 Q2661.1 1148.08 2664.48 1151.25 Q2667.86 1154.42 2667.86 1159.83 Q2667.86 1165.41 2664.38 1168.52 Q2660.91 1171.59 2654.59 1171.59 Q2652.42 1171.59 2650.15 1171.22 Q2647.9 1170.85 2645.49 1170.11 L2645.49 1165.41 Q2647.58 1166.55 2649.8 1167.1 Q2652.02 1167.66 2654.5 1167.66 Q2658.5 1167.66 2660.84 1165.55 Q2663.18 1163.45 2663.18 1159.83 Q2663.18 1156.22 2660.84 1154.12 Q2658.5 1152.01 2654.5 1152.01 Q2652.62 1152.01 2650.75 1152.43 Q2648.9 1152.84 2646.95 1153.72 L2646.95 1136.36 Z" fill="#000000" fill-rule="evenodd" fill-opacity="1" /><path clip-path="url(#clip190)" d="M 0 0 M2677.07 1165.04 L2681.95 1165.04 L2681.95 1170.92 L2677.07 1170.92 L2677.07 1165.04 Z" fill="#000000" fill-rule="evenodd" fill-opacity="1" /><path clip-path="url(#clip190)" d="M 0 0 M2702.14 1139.44 Q2698.53 1139.44 2696.7 1143.01 Q2694.89 1146.55 2694.89 1153.68 Q2694.89 1160.78 2696.7 1164.35 Q2698.53 1167.89 2702.14 1167.89 Q2705.77 1167.89 2707.58 1164.35 Q2709.41 1160.78 2709.41 1153.68 Q2709.41 1146.55 2707.58 1143.01 Q2705.77 1139.44 2702.14 1139.44 M2702.14 1135.74 Q2707.95 1135.74 2711 1140.34 Q2714.08 1144.93 2714.08 1153.68 Q2714.08 1162.4 2711 1167.01 Q2707.95 1171.59 2702.14 1171.59 Q2696.33 1171.59 2693.25 1167.01 Q2690.19 1162.4 2690.19 1153.68 Q2690.19 1144.93 2693.25 1140.34 Q2696.33 1135.74 2702.14 1135.74 Z" fill="#000000" fill-rule="evenodd" fill-opacity="1" /><polyline clip-path="url(#clip192)" style="stroke:#222255; stroke-width:2; stroke-opacity:0.1; fill:none" points="
  200.736,1008.53 3032.76,1008.53 
  "/>
<polyline clip-path="url(#clip192)" style="stroke:#222255; stroke-width:2; stroke-opacity:0.1; fill:none" points="
  200.736,847.586 3032.76,847.586 
  "/>
<polyline clip-path="url(#clip192)" style="stroke:#222255; stroke-width:2; stroke-opacity:0.1; fill:none" points="
  200.736,686.64 3032.76,686.64 
  "/>
<polyline clip-path="url(#clip192)" style="stroke:#222255; stroke-width:2; stroke-opacity:0.1; fill:none" points="
  200.736,525.694 3032.76,525.694 
  "/>
<polyline clip-path="url(#clip192)" style="stroke:#222255; stroke-width:2; stroke-opacity:0.1; fill:none" points="
  200.736,364.748 3032.76,364.748 
  "/>
<polyline clip-path="url(#clip192)" style="stroke:#222255; stroke-width:2; stroke-opacity:0.1; fill:none" points="
  200.736,203.802 3032.76,203.802 
  "/>
<polyline clip-path="url(#clip192)" style="stroke:#222255; stroke-width:2; stroke-opacity:0.05; fill:none" points="
  200.736,1072.91 3032.76,1072.91 
  "/>
<polyline clip-path="url(#clip192)" style="stroke:#222255; stroke-width:2; stroke-opacity:0.05; fill:none" points="
  200.736,1040.72 3032.76,1040.72 
  "/>
<polyline clip-path="url(#clip192)" style="stroke:#222255; stroke-width:2; stroke-opacity:0.05; fill:none" points="
  200.736,976.343 3032.76,976.343 
  "/>
<polyline clip-path="url(#clip192)" style="stroke:#222255; stroke-width:2; stroke-opacity:0.05; fill:none" points="
  200.736,944.154 3032.76,944.154 
  "/>
<polyline clip-path="url(#clip192)" style="stroke:#222255; stroke-width:2; stroke-opacity:0.05; fill:none" points="
  200.736,911.965 3032.76,911.965 
  "/>
<polyline clip-path="url(#clip192)" style="stroke:#222255; stroke-width:2; stroke-opacity:0.05; fill:none" points="
  200.736,879.776 3032.76,879.776 
  "/>
<polyline clip-path="url(#clip192)" style="stroke:#222255; stroke-width:2; stroke-opacity:0.05; fill:none" points="
  200.736,815.397 3032.76,815.397 
  "/>
<polyline clip-path="url(#clip192)" style="stroke:#222255; stroke-width:2; stroke-opacity:0.05; fill:none" points="
  200.736,783.208 3032.76,783.208 
  "/>
<polyline clip-path="url(#clip192)" style="stroke:#222255; stroke-width:2; stroke-opacity:0.05; fill:none" points="
  200.736,751.019 3032.76,751.019 
  "/>
<polyline clip-path="url(#clip192)" style="stroke:#222255; stroke-width:2; stroke-opacity:0.05; fill:none" points="
  200.736,718.829 3032.76,718.829 
  "/>
<polyline clip-path="url(#clip192)" style="stroke:#222255; stroke-width:2; stroke-opacity:0.05; fill:none" points="
  200.736,654.451 3032.76,654.451 
  "/>
<polyline clip-path="url(#clip192)" style="stroke:#222255; stroke-width:2; stroke-opacity:0.05; fill:none" points="
  200.736,622.262 3032.76,622.262 
  "/>
<polyline clip-path="url(#clip192)" style="stroke:#222255; stroke-width:2; stroke-opacity:0.05; fill:none" points="
  200.736,590.073 3032.76,590.073 
  "/>
<polyline clip-path="url(#clip192)" style="stroke:#222255; stroke-width:2; stroke-opacity:0.05; fill:none" points="
  200.736,557.883 3032.76,557.883 
  "/>
<polyline clip-path="url(#clip192)" style="stroke:#222255; stroke-width:2; stroke-opacity:0.05; fill:none" points="
  200.736,493.505 3032.76,493.505 
  "/>
<polyline clip-path="url(#clip192)" style="stroke:#222255; stroke-width:2; stroke-opacity:0.05; fill:none" points="
  200.736,461.316 3032.76,461.316 
  "/>
<polyline clip-path="url(#clip192)" style="stroke:#222255; stroke-width:2; stroke-opacity:0.05; fill:none" points="
  200.736,429.126 3032.76,429.126 
  "/>
<polyline clip-path="url(#clip192)" style="stroke:#222255; stroke-width:2; stroke-opacity:0.05; fill:none" points="
  200.736,396.937 3032.76,396.937 
  "/>
<polyline clip-path="url(#clip192)" style="stroke:#222255; stroke-width:2; stroke-opacity:0.05; fill:none" points="
  200.736,332.559 3032.76,332.559 
  "/>
<polyline clip-path="url(#clip192)" style="stroke:#222255; stroke-width:2; stroke-opacity:0.05; fill:none" points="
  200.736,300.369 3032.76,300.369 
  "/>
<polyline clip-path="url(#clip192)" style="stroke:#222255; stroke-width:2; stroke-opacity:0.05; fill:none" points="
  200.736,268.18 3032.76,268.18 
  "/>
<polyline clip-path="url(#clip192)" style="stroke:#222255; stroke-width:2; stroke-opacity:0.05; fill:none" points="
  200.736,235.991 3032.76,235.991 
  "/>
<polyline clip-path="url(#clip192)" style="stroke:#222255; stroke-width:2; stroke-opacity:0.05; fill:none" points="
  200.736,171.613 3032.76,171.613 
  "/>
<polyline clip-path="url(#clip192)" style="stroke:#222255; stroke-width:2; stroke-opacity:0.05; fill:none" points="
  200.736,139.423 3032.76,139.423 
  "/>
<polyline clip-path="url(#clip192)" style="stroke:#222255; stroke-width:2; stroke-opacity:0.05; fill:none" points="
  200.736,107.234 3032.76,107.234 
  "/>
<polyline clip-path="url(#clip192)" style="stroke:#222255; stroke-width:2; stroke-opacity:0.05; fill:none" points="
  200.736,75.0448 3032.76,75.0448 
  "/>
<polyline clip-path="url(#clip190)" style="stroke:#222255; stroke-width:4; stroke-opacity:0; fill:none" points="
  200.736,1008.53 234.72,1008.53 
  "/>
<polyline clip-path="url(#clip190)" style="stroke:#222255; stroke-width:4; stroke-opacity:0; fill:none" points="
  200.736,847.586 234.72,847.586 
  "/>
<polyline clip-path="url(#clip190)" style="stroke:#222255; stroke-width:4; stroke-opacity:0; fill:none" points="
  200.736,686.64 234.72,686.64 
  "/>
<polyline clip-path="url(#clip190)" style="stroke:#222255; stroke-width:4; stroke-opacity:0; fill:none" points="
  200.736,525.694 234.72,525.694 
  "/>
<polyline clip-path="url(#clip190)" style="stroke:#222255; stroke-width:4; stroke-opacity:0; fill:none" points="
  200.736,364.748 234.72,364.748 
  "/>
<polyline clip-path="url(#clip190)" style="stroke:#222255; stroke-width:4; stroke-opacity:0; fill:none" points="
  200.736,203.802 234.72,203.802 
  "/>
<polyline clip-path="url(#clip190)" style="stroke:#222255; stroke-width:4; stroke-opacity:0; fill:none" points="
  200.736,1072.91 217.728,1072.91 
  "/>
<polyline clip-path="url(#clip190)" style="stroke:#222255; stroke-width:4; stroke-opacity:0; fill:none" points="
  200.736,1040.72 217.728,1040.72 
  "/>
<polyline clip-path="url(#clip190)" style="stroke:#222255; stroke-width:4; stroke-opacity:0; fill:none" points="
  200.736,976.343 217.728,976.343 
  "/>
<polyline clip-path="url(#clip190)" style="stroke:#222255; stroke-width:4; stroke-opacity:0; fill:none" points="
  200.736,944.154 217.728,944.154 
  "/>
<polyline clip-path="url(#clip190)" style="stroke:#222255; stroke-width:4; stroke-opacity:0; fill:none" points="
  200.736,911.965 217.728,911.965 
  "/>
<polyline clip-path="url(#clip190)" style="stroke:#222255; stroke-width:4; stroke-opacity:0; fill:none" points="
  200.736,879.776 217.728,879.776 
  "/>
<polyline clip-path="url(#clip190)" style="stroke:#222255; stroke-width:4; stroke-opacity:0; fill:none" points="
  200.736,815.397 217.728,815.397 
  "/>
<polyline clip-path="url(#clip190)" style="stroke:#222255; stroke-width:4; stroke-opacity:0; fill:none" points="
  200.736,783.208 217.728,783.208 
  "/>
<polyline clip-path="url(#clip190)" style="stroke:#222255; stroke-width:4; stroke-opacity:0; fill:none" points="
  200.736,751.019 217.728,751.019 
  "/>
<polyline clip-path="url(#clip190)" style="stroke:#222255; stroke-width:4; stroke-opacity:0; fill:none" points="
  200.736,718.829 217.728,718.829 
  "/>
<polyline clip-path="url(#clip190)" style="stroke:#222255; stroke-width:4; stroke-opacity:0; fill:none" points="
  200.736,654.451 217.728,654.451 
  "/>
<polyline clip-path="url(#clip190)" style="stroke:#222255; stroke-width:4; stroke-opacity:0; fill:none" points="
  200.736,622.262 217.728,622.262 
  "/>
<polyline clip-path="url(#clip190)" style="stroke:#222255; stroke-width:4; stroke-opacity:0; fill:none" points="
  200.736,590.073 217.728,590.073 
  "/>
<polyline clip-path="url(#clip190)" style="stroke:#222255; stroke-width:4; stroke-opacity:0; fill:none" points="
  200.736,557.883 217.728,557.883 
  "/>
<polyline clip-path="url(#clip190)" style="stroke:#222255; stroke-width:4; stroke-opacity:0; fill:none" points="
  200.736,493.505 217.728,493.505 
  "/>
<polyline clip-path="url(#clip190)" style="stroke:#222255; stroke-width:4; stroke-opacity:0; fill:none" points="
  200.736,461.316 217.728,461.316 
  "/>
<polyline clip-path="url(#clip190)" style="stroke:#222255; stroke-width:4; stroke-opacity:0; fill:none" points="
  200.736,429.126 217.728,429.126 
  "/>
<polyline clip-path="url(#clip190)" style="stroke:#222255; stroke-width:4; stroke-opacity:0; fill:none" points="
  200.736,396.937 217.728,396.937 
  "/>
<polyline clip-path="url(#clip190)" style="stroke:#222255; stroke-width:4; stroke-opacity:0; fill:none" points="
  200.736,332.559 217.728,332.559 
  "/>
<polyline clip-path="url(#clip190)" style="stroke:#222255; stroke-width:4; stroke-opacity:0; fill:none" points="
  200.736,300.369 217.728,300.369 
  "/>
<polyline clip-path="url(#clip190)" style="stroke:#222255; stroke-width:4; stroke-opacity:0; fill:none" points="
  200.736,268.18 217.728,268.18 
  "/>
<polyline clip-path="url(#clip190)" style="stroke:#222255; stroke-width:4; stroke-opacity:0; fill:none" points="
  200.736,235.991 217.728,235.991 
  "/>
<polyline clip-path="url(#clip190)" style="stroke:#222255; stroke-width:4; stroke-opacity:0; fill:none" points="
  200.736,171.613 217.728,171.613 
  "/>
<polyline clip-path="url(#clip190)" style="stroke:#222255; stroke-width:4; stroke-opacity:0; fill:none" points="
  200.736,139.423 217.728,139.423 
  "/>
<polyline clip-path="url(#clip190)" style="stroke:#222255; stroke-width:4; stroke-opacity:0; fill:none" points="
  200.736,107.234 217.728,107.234 
  "/>
<polyline clip-path="url(#clip190)" style="stroke:#222255; stroke-width:4; stroke-opacity:0; fill:none" points="
  200.736,75.0448 217.728,75.0448 
  "/>
<path clip-path="url(#clip190)" d="M 0 0 M48.5875 1008.98 L78.2633 1008.98 L78.2633 1012.92 L48.5875 1012.92 L48.5875 1008.98 Z" fill="#000000" fill-rule="evenodd" fill-opacity="1" /><path clip-path="url(#clip190)" d="M 0 0 M89.166 1021.88 L96.8048 1021.88 L96.8048 995.512 L88.4947 997.178 L88.4947 992.919 L96.7585 991.253 L101.434 991.253 L101.434 1021.88 L109.073 1021.88 L109.073 1025.81 L89.166 1025.81 L89.166 1021.88 Z" fill="#000000" fill-rule="evenodd" fill-opacity="1" /><path clip-path="url(#clip190)" d="M 0 0 M118.518 1019.93 L123.402 1019.93 L123.402 1025.81 L118.518 1025.81 L118.518 1019.93 Z" fill="#000000" fill-rule="evenodd" fill-opacity="1" /><path clip-path="url(#clip190)" d="M 0 0 M133.633 991.253 L151.99 991.253 L151.99 995.188 L137.916 995.188 L137.916 1003.66 Q138.934 1003.31 139.953 1003.15 Q140.971 1002.97 141.99 1002.97 Q147.777 1002.97 151.156 1006.14 Q154.536 1009.31 154.536 1014.72 Q154.536 1020.3 151.064 1023.41 Q147.592 1026.48 141.272 1026.48 Q139.096 1026.48 136.828 1026.11 Q134.582 1025.74 132.175 1025 L132.175 1020.3 Q134.258 1021.44 136.481 1021.99 Q138.703 1022.55 141.18 1022.55 Q145.184 1022.55 147.522 1020.44 Q149.86 1018.34 149.86 1014.72 Q149.86 1011.11 147.522 1009.01 Q145.184 1006.9 141.18 1006.9 Q139.305 1006.9 137.43 1007.32 Q135.578 1007.73 133.633 1008.61 L133.633 991.253 Z" fill="#000000" fill-rule="evenodd" fill-opacity="1" /><path clip-path="url(#clip190)" d="M 0 0 M47.5921 848.038 L77.2679 848.038 L77.2679 851.973 L47.5921 851.973 L47.5921 848.038 Z" fill="#000000" fill-rule="evenodd" fill-opacity="1" /><path clip-path="url(#clip190)" d="M 0 0 M88.1706 860.931 L95.8095 860.931 L95.8095 834.566 L87.4993 836.232 L87.4993 831.973 L95.7632 830.306 L100.439 830.306 L100.439 860.931 L108.078 860.931 L108.078 864.866 L88.1706 864.866 L88.1706 860.931 Z" fill="#000000" fill-rule="evenodd" fill-opacity="1" /><path clip-path="url(#clip190)" d="M 0 0 M117.522 858.987 L122.407 858.987 L122.407 864.866 L117.522 864.866 L117.522 858.987 Z" fill="#000000" fill-rule="evenodd" fill-opacity="1" /><path clip-path="url(#clip190)" d="M 0 0 M142.592 833.385 Q138.981 833.385 137.152 836.95 Q135.346 840.492 135.346 847.621 Q135.346 854.728 137.152 858.292 Q138.981 861.834 142.592 861.834 Q146.226 861.834 148.031 858.292 Q149.86 854.728 149.86 847.621 Q149.86 840.492 148.031 836.95 Q146.226 833.385 142.592 833.385 M142.592 829.681 Q148.402 829.681 151.457 834.288 Q154.536 838.871 154.536 847.621 Q154.536 856.348 151.457 860.954 Q148.402 865.538 142.592 865.538 Q136.781 865.538 133.703 860.954 Q130.647 856.348 130.647 847.621 Q130.647 838.871 133.703 834.288 Q136.781 829.681 142.592 829.681 Z" fill="#000000" fill-rule="evenodd" fill-opacity="1" /><path clip-path="url(#clip190)" d="M 0 0 M48.5875 687.092 L78.2633 687.092 L78.2633 691.027 L48.5875 691.027 L48.5875 687.092 Z" fill="#000000" fill-rule="evenodd" fill-opacity="1" /><path clip-path="url(#clip190)" d="M 0 0 M98.3557 672.439 Q94.7447 672.439 92.916 676.004 Q91.1104 679.545 91.1104 686.675 Q91.1104 693.781 92.916 697.346 Q94.7447 700.888 98.3557 700.888 Q101.99 700.888 103.796 697.346 Q105.624 693.781 105.624 686.675 Q105.624 679.545 103.796 676.004 Q101.99 672.439 98.3557 672.439 M98.3557 668.735 Q104.166 668.735 107.221 673.342 Q110.3 677.925 110.3 686.675 Q110.3 695.402 107.221 700.008 Q104.166 704.592 98.3557 704.592 Q92.5456 704.592 89.4669 700.008 Q86.4114 695.402 86.4114 686.675 Q86.4114 677.925 89.4669 673.342 Q92.5456 668.735 98.3557 668.735 Z" fill="#000000" fill-rule="evenodd" fill-opacity="1" /><path clip-path="url(#clip190)" d="M 0 0 M118.518 698.041 L123.402 698.041 L123.402 703.92 L118.518 703.92 L118.518 698.041 Z" fill="#000000" fill-rule="evenodd" fill-opacity="1" /><path clip-path="url(#clip190)" d="M 0 0 M133.633 669.36 L151.99 669.36 L151.99 673.295 L137.916 673.295 L137.916 681.768 Q138.934 681.42 139.953 681.258 Q140.971 681.073 141.99 681.073 Q147.777 681.073 151.156 684.244 Q154.536 687.416 154.536 692.832 Q154.536 698.411 151.064 701.513 Q147.592 704.592 141.272 704.592 Q139.096 704.592 136.828 704.221 Q134.582 703.851 132.175 703.11 L132.175 698.411 Q134.258 699.545 136.481 700.101 Q138.703 700.656 141.18 700.656 Q145.184 700.656 147.522 698.55 Q149.86 696.443 149.86 692.832 Q149.86 689.221 147.522 687.115 Q145.184 685.008 141.18 685.008 Q139.305 685.008 137.43 685.425 Q135.578 685.842 133.633 686.721 L133.633 669.36 Z" fill="#000000" fill-rule="evenodd" fill-opacity="1" /><path clip-path="url(#clip190)" d="M 0 0 M97.3604 511.493 Q93.7493 511.493 91.9206 515.058 Q90.115 518.599 90.115 525.729 Q90.115 532.835 91.9206 536.4 Q93.7493 539.942 97.3604 539.942 Q100.995 539.942 102.8 536.4 Q104.629 532.835 104.629 525.729 Q104.629 518.599 102.8 515.058 Q100.995 511.493 97.3604 511.493 M97.3604 507.789 Q103.171 507.789 106.226 512.396 Q109.305 516.979 109.305 525.729 Q109.305 534.456 106.226 539.062 Q103.171 543.645 97.3604 543.645 Q91.5502 543.645 88.4715 539.062 Q85.416 534.456 85.416 525.729 Q85.416 516.979 88.4715 512.396 Q91.5502 507.789 97.3604 507.789 Z" fill="#000000" fill-rule="evenodd" fill-opacity="1" /><path clip-path="url(#clip190)" d="M 0 0 M117.522 537.094 L122.407 537.094 L122.407 542.974 L117.522 542.974 L117.522 537.094 Z" fill="#000000" fill-rule="evenodd" fill-opacity="1" /><path clip-path="url(#clip190)" d="M 0 0 M142.592 511.493 Q138.981 511.493 137.152 515.058 Q135.346 518.599 135.346 525.729 Q135.346 532.835 137.152 536.4 Q138.981 539.942 142.592 539.942 Q146.226 539.942 148.031 536.4 Q149.86 532.835 149.86 525.729 Q149.86 518.599 148.031 515.058 Q146.226 511.493 142.592 511.493 M142.592 507.789 Q148.402 507.789 151.457 512.396 Q154.536 516.979 154.536 525.729 Q154.536 534.456 151.457 539.062 Q148.402 543.645 142.592 543.645 Q136.781 543.645 133.703 539.062 Q130.647 534.456 130.647 525.729 Q130.647 516.979 133.703 512.396 Q136.781 507.789 142.592 507.789 Z" fill="#000000" fill-rule="evenodd" fill-opacity="1" /><path clip-path="url(#clip190)" d="M 0 0 M98.3557 350.547 Q94.7447 350.547 92.916 354.111 Q91.1104 357.653 91.1104 364.783 Q91.1104 371.889 92.916 375.454 Q94.7447 378.996 98.3557 378.996 Q101.99 378.996 103.796 375.454 Q105.624 371.889 105.624 364.783 Q105.624 357.653 103.796 354.111 Q101.99 350.547 98.3557 350.547 M98.3557 346.843 Q104.166 346.843 107.221 351.449 Q110.3 356.033 110.3 364.783 Q110.3 373.509 107.221 378.116 Q104.166 382.699 98.3557 382.699 Q92.5456 382.699 89.4669 378.116 Q86.4114 373.509 86.4114 364.783 Q86.4114 356.033 89.4669 351.449 Q92.5456 346.843 98.3557 346.843 Z" fill="#000000" fill-rule="evenodd" fill-opacity="1" /><path clip-path="url(#clip190)" d="M 0 0 M118.518 376.148 L123.402 376.148 L123.402 382.028 L118.518 382.028 L118.518 376.148 Z" fill="#000000" fill-rule="evenodd" fill-opacity="1" /><path clip-path="url(#clip190)" d="M 0 0 M133.633 347.468 L151.99 347.468 L151.99 351.403 L137.916 351.403 L137.916 359.875 Q138.934 359.528 139.953 359.366 Q140.971 359.181 141.99 359.181 Q147.777 359.181 151.156 362.352 Q154.536 365.523 154.536 370.94 Q154.536 376.519 151.064 379.621 Q147.592 382.699 141.272 382.699 Q139.096 382.699 136.828 382.329 Q134.582 381.958 132.175 381.218 L132.175 376.519 Q134.258 377.653 136.481 378.209 Q138.703 378.764 141.18 378.764 Q145.184 378.764 147.522 376.658 Q149.86 374.551 149.86 370.94 Q149.86 367.329 147.522 365.222 Q145.184 363.116 141.18 363.116 Q139.305 363.116 137.43 363.533 Q135.578 363.949 133.633 364.829 L133.633 347.468 Z" fill="#000000" fill-rule="evenodd" fill-opacity="1" /><path clip-path="url(#clip190)" d="M 0 0 M88.1706 217.147 L95.8095 217.147 L95.8095 190.781 L87.4993 192.448 L87.4993 188.188 L95.7632 186.522 L100.439 186.522 L100.439 217.147 L108.078 217.147 L108.078 221.082 L88.1706 221.082 L88.1706 217.147 Z" fill="#000000" fill-rule="evenodd" fill-opacity="1" /><path clip-path="url(#clip190)" d="M 0 0 M117.522 215.202 L122.407 215.202 L122.407 221.082 L117.522 221.082 L117.522 215.202 Z" fill="#000000" fill-rule="evenodd" fill-opacity="1" /><path clip-path="url(#clip190)" d="M 0 0 M142.592 189.6 Q138.981 189.6 137.152 193.165 Q135.346 196.707 135.346 203.836 Q135.346 210.943 137.152 214.508 Q138.981 218.049 142.592 218.049 Q146.226 218.049 148.031 214.508 Q149.86 210.943 149.86 203.836 Q149.86 196.707 148.031 193.165 Q146.226 189.6 142.592 189.6 M142.592 185.897 Q148.402 185.897 151.457 190.503 Q154.536 195.087 154.536 203.836 Q154.536 212.563 151.457 217.17 Q148.402 221.753 142.592 221.753 Q136.781 221.753 133.703 217.17 Q130.647 212.563 130.647 203.836 Q130.647 195.087 133.703 190.503 Q136.781 185.897 142.592 185.897 Z" fill="#000000" fill-rule="evenodd" fill-opacity="1" /><path clip-path="url(#clip192)" d="
M280.888 598.07 L307.875 553.866 L334.862 534.684 L361.849 528.693 L388.836 521.355 L415.823 506.962 L442.81 483.336 L469.797 450.322 L496.784 409.578 L523.771 364.402 
  L550.758 319.352 L577.745 279.702 L604.732 251.091 L631.719 239.843 L658.706 251.079 L685.693 278.431 L712.68 308.983 L739.667 335.702 L766.654 357.066 L793.641 375.917 
  L820.628 398.719 L847.615 430.765 L874.602 471.676 L901.589 518.295 L928.576 567.234 L955.563 615.185 L982.551 659.196 L1009.54 697.384 L1036.52 730.316 L1063.51 764.327 
  L1090.5 814.734 L1117.49 884.393 L1144.47 955.496 L1171.46 1014.88 L1198.45 1055.62 L1225.43 1074.23 L1252.42 1069.88 L1279.41 1044.28 L1306.39 1002.23 L1333.38 954.082 
  L1360.37 920.809 L1387.36 911.335 L1414.34 906.405 L1441.33 893.985 L1468.32 870.447 L1495.3 835.586 L1522.29 790.952 L1549.28 739.033 L1576.27 682.723 L1603.25 625.419 
  L1630.24 573.422 L1657.23 541.289 L1684.21 531.242 L1711.2 525.67 L1738.19 515.23 L1765.17 496.356 L1792.16 467.94 L1819.15 430.746 L1846.14 387.283 L1873.12 341.542 
  L1900.11 298.508 L1927.1 263.647 L1954.08 242.863 L1981.07 242.671 L2008.06 263.631 L2035.05 293.905 L2062.03 323.022 L2089.02 346.977 L2116.01 366.459 L2142.99 386.375 
  L2169.98 413.489 L2196.97 450.293 L2223.95 494.485 L2250.94 542.684 L2277.93 591.532 L2304.92 637.838 L2331.9 679.064 L2358.89 714.309 L2385.88 746.399 L2412.86 786.53 
  L2439.85 848.201 L2466.84 920.785 L2493.82 987.187 L2520.81 1037.87 L2547.8 1067.81 L2574.79 1074.88 L2601.77 1059.52 L2628.76 1024.85 L2655.75 977.88 L2682.73 934.072 
  L2709.72 914.195 L2736.71 909.348 L2763.7 901.471 L2790.68 883.672 L2817.67 854.365 L2844.66 814.349 L2871.64 765.728 L2898.63 711.236 L2925.62 653.93 L2952.6 598.07 
  L2952.6 473.01 L2925.62 473.161 L2898.63 474.564 L2871.64 483.387 L2844.66 503.389 L2817.67 536.673 L2790.68 583.478 L2763.7 641.818 L2736.71 706.797 L2709.72 768.11 
  L2682.73 804.531 L2655.75 804.478 L2628.76 786.628 L2601.77 764.948 L2574.79 745.473 L2547.8 730.834 L2520.81 721.424 L2493.82 715.602 L2466.84 709.486 L2439.85 695.513 
  L2412.86 659.51 L2385.88 594.726 L2358.89 519.294 L2331.9 449.379 L2304.92 392.502 L2277.93 351.481 L2250.94 325.869 L2223.95 312.531 L2196.97 306.111 L2169.98 299.611 
  L2142.99 286.363 L2116.01 264.847 L2089.02 239.272 L2062.03 214.243 L2035.05 192.675 L2008.06 174.971 L1981.07 156.369 L1954.08 130.838 L1927.1 103.605 L1900.11 83.757 
  L1873.12 77.1752 L1846.14 86.7692 L1819.15 112.978 L1792.16 154.148 L1765.17 207.064 L1738.19 267.623 L1711.2 331.407 L1684.21 393.438 L1657.23 444.812 L1630.24 469.831 
  L1603.25 473.486 L1576.27 473.241 L1549.28 477.774 L1522.29 491.82 L1495.3 518.308 L1468.32 558.452 L1441.33 611.43 L1414.34 673.938 L1387.36 738.934 L1360.37 791.059 
  L1333.38 808.111 L1306.39 796.628 L1279.41 775.782 L1252.42 754.712 L1225.43 737.476 L1198.45 725.531 L1171.46 718.247 L1144.47 712.933 L1117.49 704.195 L1090.5 681.311 
  L1063.51 629.885 L1036.52 557.066 L1009.54 483.036 L982.551 419.049 L955.563 369.969 L928.576 336.887 L901.589 317.954 L874.602 308.865 L847.615 303.341 L820.628 294.105 
  L793.641 276.444 L766.654 252.243 L739.667 226.465 L712.68 202.919 L685.693 183.481 L658.706 166.313 L631.719 144.418 L604.732 116.806 L577.745 92.3119 L550.758 78.564 
  L523.771 79.8688 L496.784 97.8565 L469.797 131.865 L442.81 179.382 L415.823 236.66 L388.836 299.396 L361.849 363.026 L334.862 421.388 L307.875 461.183 L280.888 473.01 
   Z
  " fill="#008000" fill-rule="evenodd" fill-opacity="0.3"/>
<polyline clip-path="url(#clip192)" style="stroke:#ee7733; stroke-width:8; stroke-opacity:1; fill:none" points="
  280.888,535.54 307.875,507.525 334.862,478.036 361.849,445.86 388.836,410.375 415.823,371.811 442.81,331.359 469.797,291.094 496.784,253.717 523.771,222.136 
  550.758,198.958 577.745,186.007 604.732,183.948 631.719,192.13 658.706,208.696 685.693,230.956 712.68,255.951 739.667,281.084 766.654,304.654 793.641,326.181 
  820.628,346.412 847.615,367.053 874.602,390.271 901.589,418.125 928.576,452.061 955.563,492.577 982.551,539.123 1009.54,590.21 1036.52,643.691 1063.51,697.106 
  1090.5,748.022 1117.49,794.294 1144.47,834.215 1171.46,866.565 1198.45,890.578 1225.43,905.855 1252.42,912.294 1279.41,910.03 1306.39,899.427 1333.38,881.097 
  1360.37,855.934 1387.36,825.135 1414.34,790.171 1441.33,752.708 1468.32,714.449 1495.3,676.947 1522.29,641.386 1549.28,608.403 1576.27,577.982 1603.25,549.452 
  1630.24,521.626 1657.23,493.05 1684.21,462.34 1711.2,428.539 1738.19,391.426 1765.17,351.71 1792.16,311.044 1819.15,271.862 1846.14,237.026 1873.12,209.359 
  1900.11,191.132 1927.1,183.626 1954.08,186.85 1981.07,199.52 2008.06,219.301 2035.05,243.29 2062.03,268.633 2089.02,293.125 2116.01,315.653 2142.99,336.369 
  2169.98,356.55 2196.97,378.202 2223.95,403.508 2250.94,434.277 2277.93,471.507 2304.92,515.17 2331.9,564.221 2358.89,616.802 2385.88,670.563 2412.86,723.02 
  2439.85,771.857 2466.84,815.136 2493.82,851.394 2520.81,879.646 2547.8,899.321 2574.79,910.176 2601.77,912.232 2628.76,905.739 2655.75,891.179 2682.73,869.302 
  2709.72,841.153 2736.71,808.072 2763.7,771.644 2790.68,733.575 2817.67,695.519 2844.66,658.869 2871.64,624.558 2898.63,592.9 2925.62,563.545 2952.6,535.54 
  
  "/>
<polyline clip-path="url(#clip192)" style="stroke:#0077bb; stroke-width:4.8; stroke-opacity:1; fill:none" points="
  280.888,525.694 307.875,484.945 334.862,444.851 361.849,406.059 388.836,369.191 415.823,334.842 442.81,303.563 469.797,275.858 496.784,252.174 523.771,232.891 
  550.758,218.318 577.745,208.692 604.732,204.166 631.719,204.814 658.706,210.625 685.693,221.506 712.68,237.281 739.667,257.696 766.654,282.424 793.641,311.066 
  820.628,343.162 847.615,378.194 874.602,415.6 901.589,454.778 928.576,495.096 955.563,535.907 982.551,576.554 1009.54,616.382 1036.52,654.751 1063.51,691.043 
  1090.5,724.675 1117.49,755.105 1144.47,781.844 1171.46,804.461 1198.45,822.593 1225.43,835.947 1252.42,844.31 1279.41,847.546 1306.39,845.603 1333.38,838.513 
  1360.37,826.389 1387.36,809.427 1414.34,787.9 1441.33,762.154 1468.32,732.602 1495.3,699.722 1522.29,664.042 1549.28,626.135 1576.27,586.613 1603.25,546.11 
  1630.24,505.278 1657.23,464.776 1684.21,425.253 1711.2,387.346 1738.19,351.666 1765.17,318.786 1792.16,289.235 1819.15,263.488 1846.14,241.961 1873.12,224.999 
  1900.11,212.875 1927.1,205.785 1954.08,203.842 1981.07,207.078 2008.06,215.441 2035.05,228.795 2062.03,246.927 2089.02,269.544 2116.01,296.283 2142.99,326.713 
  2169.98,360.345 2196.97,396.638 2223.95,435.007 2250.94,474.835 2277.93,515.481 2304.92,556.292 2331.9,596.61 2358.89,635.788 2385.88,673.194 2412.86,708.226 
  2439.85,740.322 2466.84,768.964 2493.82,793.692 2520.81,814.108 2547.8,829.883 2574.79,840.763 2601.77,846.574 2628.76,847.222 2655.75,842.696 2682.73,833.07 
  2709.72,818.498 2736.71,799.214 2763.7,775.53 2790.68,747.825 2817.67,716.547 2844.66,682.197 2871.64,645.329 2898.63,606.537 2925.62,566.443 2952.6,525.694 
  
  "/>
<circle clip-path="url(#clip192)" cx="1981.64" cy="169.498" r="21" fill="#ee3377" fill-rule="evenodd" fill-opacity="1" stroke="#000000" stroke-opacity="1" stroke-width="0"/>
<circle clip-path="url(#clip192)" cx="1970.21" cy="204.852" r="21" fill="#ee3377" fill-rule="evenodd" fill-opacity="1" stroke="#000000" stroke-opacity="1" stroke-width="0"/>
<circle clip-path="url(#clip192)" cx="1623.6" cy="517.15" r="21" fill="#ee3377" fill-rule="evenodd" fill-opacity="1" stroke="#000000" stroke-opacity="1" stroke-width="0"/>
<circle clip-path="url(#clip192)" cx="1352.86" cy="867.387" r="21" fill="#ee3377" fill-rule="evenodd" fill-opacity="1" stroke="#000000" stroke-opacity="1" stroke-width="0"/>
<circle clip-path="url(#clip192)" cx="2174.95" cy="341.974" r="21" fill="#ee3377" fill-rule="evenodd" fill-opacity="1" stroke="#000000" stroke-opacity="1" stroke-width="0"/>
<circle clip-path="url(#clip192)" cx="1079.97" cy="732.812" r="21" fill="#ee3377" fill-rule="evenodd" fill-opacity="1" stroke="#000000" stroke-opacity="1" stroke-width="0"/>
<circle clip-path="url(#clip192)" cx="1670.61" cy="490.186" r="21" fill="#ee3377" fill-rule="evenodd" fill-opacity="1" stroke="#000000" stroke-opacity="1" stroke-width="0"/>
<circle clip-path="url(#clip192)" cx="2087.98" cy="321.027" r="21" fill="#ee3377" fill-rule="evenodd" fill-opacity="1" stroke="#000000" stroke-opacity="1" stroke-width="0"/>
<path clip-path="url(#clip190)" d="
M2276.12 1069.56 L2938.36 1069.56 L2938.36 827.638 L2276.12 827.638  Z
  " fill="#ffffff" fill-rule="evenodd" fill-opacity="0.9"/>
<polyline clip-path="url(#clip190)" style="stroke:#222255; stroke-width:4; stroke-opacity:0.1; fill:none" points="
  2276.12,1069.56 2938.36,1069.56 2938.36,827.638 2276.12,827.638 2276.12,1069.56 
  "/>
<polyline clip-path="url(#clip190)" style="stroke:#ee7733; stroke-width:4; stroke-opacity:1; fill:none" points="
  2307.59,888.118 2496.39,888.118 
  "/>
<path clip-path="url(#clip190)" d="M 0 0 M2548.2 884.449 Q2549.8 881.579 2552.02 880.213 Q2554.24 878.847 2557.25 878.847 Q2561.3 878.847 2563.5 881.695 Q2565.7 884.519 2565.7 889.75 L2565.7 905.398 L2561.42 905.398 L2561.42 889.889 Q2561.42 886.162 2560.1 884.357 Q2558.78 882.551 2556.07 882.551 Q2552.76 882.551 2550.84 884.75 Q2548.92 886.949 2548.92 890.746 L2548.92 905.398 L2544.64 905.398 L2544.64 889.889 Q2544.64 886.139 2543.32 884.357 Q2542 882.551 2539.24 882.551 Q2535.98 882.551 2534.06 884.773 Q2532.14 886.972 2532.14 890.746 L2532.14 905.398 L2527.85 905.398 L2527.85 879.472 L2532.14 879.472 L2532.14 883.5 Q2533.59 881.116 2535.63 879.982 Q2537.67 878.847 2540.47 878.847 Q2543.29 878.847 2545.26 880.283 Q2547.25 881.718 2548.2 884.449 Z" fill="#000000" fill-rule="evenodd" fill-opacity="1" /><path clip-path="url(#clip190)" d="M 0 0 M2584.24 882.459 Q2580.82 882.459 2578.83 885.144 Q2576.84 887.806 2576.84 892.459 Q2576.84 897.111 2578.8 899.796 Q2580.79 902.458 2584.24 902.458 Q2587.65 902.458 2589.64 899.773 Q2591.63 897.088 2591.63 892.459 Q2591.63 887.852 2589.64 885.167 Q2587.65 882.459 2584.24 882.459 M2584.24 878.847 Q2589.8 878.847 2592.97 882.459 Q2596.14 886.07 2596.14 892.459 Q2596.14 898.824 2592.97 902.458 Q2589.8 906.07 2584.24 906.07 Q2578.66 906.07 2575.49 902.458 Q2572.34 898.824 2572.34 892.459 Q2572.34 886.07 2575.49 882.459 Q2578.66 878.847 2584.24 878.847 Z" fill="#000000" fill-rule="evenodd" fill-opacity="1" /><path clip-path="url(#clip190)" d="M 0 0 M2620.26 883.408 L2620.26 869.38 L2624.52 869.38 L2624.52 905.398 L2620.26 905.398 L2620.26 901.509 Q2618.92 903.824 2616.86 904.958 Q2614.82 906.07 2611.95 906.07 Q2607.25 906.07 2604.29 902.32 Q2601.35 898.57 2601.35 892.459 Q2601.35 886.347 2604.29 882.597 Q2607.25 878.847 2611.95 878.847 Q2614.82 878.847 2616.86 879.982 Q2618.92 881.093 2620.26 883.408 M2605.75 892.459 Q2605.75 897.158 2607.67 899.843 Q2609.61 902.505 2612.99 902.505 Q2616.37 902.505 2618.32 899.843 Q2620.26 897.158 2620.26 892.459 Q2620.26 887.759 2618.32 885.097 Q2616.37 882.412 2612.99 882.412 Q2609.61 882.412 2607.67 885.097 Q2605.75 887.759 2605.75 892.459 Z" fill="#000000" fill-rule="evenodd" fill-opacity="1" /><path clip-path="url(#clip190)" d="M 0 0 M2655.47 891.371 L2655.47 893.454 L2635.89 893.454 Q2636.16 897.852 2638.52 900.167 Q2640.91 902.458 2645.14 902.458 Q2647.6 902.458 2649.89 901.857 Q2652.21 901.255 2654.47 900.051 L2654.47 904.079 Q2652.18 905.051 2649.77 905.56 Q2647.37 906.07 2644.89 906.07 Q2638.69 906.07 2635.05 902.458 Q2631.44 898.847 2631.44 892.69 Q2631.44 886.324 2634.87 882.597 Q2638.32 878.847 2644.15 878.847 Q2649.38 878.847 2652.41 882.227 Q2655.47 885.584 2655.47 891.371 M2651.21 890.121 Q2651.16 886.625 2649.24 884.542 Q2647.34 882.459 2644.2 882.459 Q2640.63 882.459 2638.48 884.472 Q2636.35 886.486 2636.02 890.144 L2651.21 890.121 Z" fill="#000000" fill-rule="evenodd" fill-opacity="1" /><path clip-path="url(#clip190)" d="M 0 0 M2662.46 869.38 L2666.72 869.38 L2666.72 905.398 L2662.46 905.398 L2662.46 869.38 Z" fill="#000000" fill-rule="evenodd" fill-opacity="1" /><polyline clip-path="url(#clip190)" style="stroke:#0077bb; stroke-width:4; stroke-opacity:1; fill:none" points="
  2307.59,948.598 2496.39,948.598 
  "/>
<path clip-path="url(#clip190)" d="M 0 0 M2535.26 932.591 L2535.26 939.952 L2544.03 939.952 L2544.03 943.263 L2535.26 943.263 L2535.26 957.337 Q2535.26 960.508 2536.12 961.411 Q2537 962.313 2539.66 962.313 L2544.03 962.313 L2544.03 965.878 L2539.66 965.878 Q2534.73 965.878 2532.85 964.05 Q2530.98 962.198 2530.98 957.337 L2530.98 943.263 L2527.85 943.263 L2527.85 939.952 L2530.98 939.952 L2530.98 932.591 L2535.26 932.591 Z" fill="#000000" fill-rule="evenodd" fill-opacity="1" /><path clip-path="url(#clip190)" d="M 0 0 M2561.42 952.846 Q2556.26 952.846 2554.27 954.026 Q2552.28 955.207 2552.28 958.054 Q2552.28 960.323 2553.76 961.665 Q2555.26 962.985 2557.83 962.985 Q2561.37 962.985 2563.5 960.485 Q2565.65 957.962 2565.65 953.795 L2565.65 952.846 L2561.42 952.846 M2569.91 951.087 L2569.91 965.878 L2565.65 965.878 L2565.65 961.943 Q2564.2 964.304 2562.02 965.438 Q2559.84 966.55 2556.7 966.55 Q2552.71 966.55 2550.35 964.327 Q2548.02 962.082 2548.02 958.332 Q2548.02 953.957 2550.93 951.735 Q2553.87 949.513 2559.68 949.513 L2565.65 949.513 L2565.65 949.096 Q2565.65 946.156 2563.71 944.559 Q2561.79 942.939 2558.29 942.939 Q2556.07 942.939 2553.96 943.471 Q2551.86 944.003 2549.91 945.068 L2549.91 941.133 Q2552.25 940.23 2554.45 939.79 Q2556.65 939.327 2558.73 939.327 Q2564.36 939.327 2567.14 942.244 Q2569.91 945.161 2569.91 951.087 Z" fill="#000000" fill-rule="evenodd" fill-opacity="1" /><path clip-path="url(#clip190)" d="M 0 0 M2593.71 943.934 Q2592.99 943.517 2592.14 943.332 Q2591.3 943.124 2590.28 943.124 Q2586.67 943.124 2584.73 945.485 Q2582.81 947.823 2582.81 952.221 L2582.81 965.878 L2578.52 965.878 L2578.52 939.952 L2582.81 939.952 L2582.81 943.98 Q2584.15 941.619 2586.3 940.485 Q2588.46 939.327 2591.53 939.327 Q2591.97 939.327 2592.51 939.397 Q2593.04 939.443 2593.69 939.559 L2593.71 943.934 Z" fill="#000000" fill-rule="evenodd" fill-opacity="1" /><path clip-path="url(#clip190)" d="M 0 0 M2614.4 952.614 Q2614.4 947.985 2612.48 945.439 Q2610.58 942.892 2607.14 942.892 Q2603.71 942.892 2601.79 945.439 Q2599.89 947.985 2599.89 952.614 Q2599.89 957.221 2601.79 959.767 Q2603.71 962.313 2607.14 962.313 Q2610.58 962.313 2612.48 959.767 Q2614.4 957.221 2614.4 952.614 M2618.66 962.661 Q2618.66 969.281 2615.72 972.499 Q2612.78 975.739 2606.72 975.739 Q2604.47 975.739 2602.48 975.392 Q2600.49 975.068 2598.62 974.374 L2598.62 970.23 Q2600.49 971.249 2602.32 971.735 Q2604.15 972.221 2606.05 972.221 Q2610.24 972.221 2612.32 970.022 Q2614.4 967.846 2614.4 963.425 L2614.4 961.318 Q2613.08 963.61 2611.02 964.744 Q2608.96 965.878 2606.09 965.878 Q2601.33 965.878 2598.41 962.244 Q2595.49 958.61 2595.49 952.614 Q2595.49 946.596 2598.41 942.962 Q2601.33 939.327 2606.09 939.327 Q2608.96 939.327 2611.02 940.462 Q2613.08 941.596 2614.4 943.888 L2614.4 939.952 L2618.66 939.952 L2618.66 962.661 Z" fill="#000000" fill-rule="evenodd" fill-opacity="1" /><path clip-path="url(#clip190)" d="M 0 0 M2649.61 951.851 L2649.61 953.934 L2630.03 953.934 Q2630.31 958.332 2632.67 960.647 Q2635.05 962.938 2639.29 962.938 Q2641.74 962.938 2644.03 962.337 Q2646.35 961.735 2648.62 960.531 L2648.62 964.559 Q2646.33 965.531 2643.92 966.04 Q2641.51 966.55 2639.03 966.55 Q2632.83 966.55 2629.2 962.938 Q2625.58 959.327 2625.58 953.17 Q2625.58 946.804 2629.01 943.077 Q2632.46 939.327 2638.29 939.327 Q2643.52 939.327 2646.56 942.707 Q2649.61 946.064 2649.61 951.851 M2645.35 950.601 Q2645.31 947.105 2643.39 945.022 Q2641.49 942.939 2638.34 942.939 Q2634.77 942.939 2632.62 944.952 Q2630.49 946.966 2630.17 950.624 L2645.35 950.601 Z" fill="#000000" fill-rule="evenodd" fill-opacity="1" /><path clip-path="url(#clip190)" d="M 0 0 M2660.82 932.591 L2660.82 939.952 L2669.59 939.952 L2669.59 943.263 L2660.82 943.263 L2660.82 957.337 Q2660.82 960.508 2661.67 961.411 Q2662.55 962.313 2665.21 962.313 L2669.59 962.313 L2669.59 965.878 L2665.21 965.878 Q2660.28 965.878 2658.41 964.05 Q2656.53 962.198 2656.53 957.337 L2656.53 943.263 L2653.41 943.263 L2653.41 939.952 L2656.53 939.952 L2656.53 932.591 L2660.82 932.591 Z" fill="#000000" fill-rule="evenodd" fill-opacity="1" /><path clip-path="url(#clip190)" d="M 0 0 M2703.39 929.86 L2703.39 933.402 L2699.31 933.402 Q2697.02 933.402 2696.12 934.328 Q2695.24 935.253 2695.24 937.661 L2695.24 939.952 L2702.25 939.952 L2702.25 943.263 L2695.24 943.263 L2695.24 965.878 L2690.95 965.878 L2690.95 943.263 L2686.88 943.263 L2686.88 939.952 L2690.95 939.952 L2690.95 938.147 Q2690.95 933.818 2692.97 931.851 Q2694.98 929.86 2699.36 929.86 L2703.39 929.86 Z" fill="#000000" fill-rule="evenodd" fill-opacity="1" /><path clip-path="url(#clip190)" d="M 0 0 M2706.51 955.647 L2706.51 939.952 L2710.77 939.952 L2710.77 955.485 Q2710.77 959.165 2712.2 961.017 Q2713.64 962.846 2716.51 962.846 Q2719.96 962.846 2721.95 960.647 Q2723.96 958.448 2723.96 954.651 L2723.96 939.952 L2728.22 939.952 L2728.22 965.878 L2723.96 965.878 L2723.96 961.897 Q2722.41 964.258 2720.35 965.415 Q2718.32 966.55 2715.61 966.55 Q2711.14 966.55 2708.83 963.772 Q2706.51 960.994 2706.51 955.647 M2717.23 939.327 L2717.23 939.327 Z" fill="#000000" fill-rule="evenodd" fill-opacity="1" /><path clip-path="url(#clip190)" d="M 0 0 M2758.55 950.23 L2758.55 965.878 L2754.29 965.878 L2754.29 950.369 Q2754.29 946.689 2752.85 944.86 Q2751.42 943.031 2748.55 943.031 Q2745.1 943.031 2743.11 945.23 Q2741.12 947.429 2741.12 951.226 L2741.12 965.878 L2736.83 965.878 L2736.83 939.952 L2741.12 939.952 L2741.12 943.98 Q2742.64 941.642 2744.7 940.485 Q2746.79 939.327 2749.5 939.327 Q2753.96 939.327 2756.26 942.105 Q2758.55 944.86 2758.55 950.23 Z" fill="#000000" fill-rule="evenodd" fill-opacity="1" /><path clip-path="url(#clip190)" d="M 0 0 M2785.7 940.948 L2785.7 944.929 Q2783.89 943.934 2782.07 943.448 Q2780.26 942.939 2778.41 942.939 Q2774.26 942.939 2771.97 945.577 Q2769.68 948.193 2769.68 952.939 Q2769.68 957.684 2771.97 960.323 Q2774.26 962.938 2778.41 962.938 Q2780.26 962.938 2782.07 962.452 Q2783.89 961.943 2785.7 960.948 L2785.7 964.883 Q2783.92 965.716 2782 966.133 Q2780.1 966.55 2777.95 966.55 Q2772.09 966.55 2768.64 962.869 Q2765.19 959.188 2765.19 952.939 Q2765.19 946.596 2768.66 942.962 Q2772.16 939.327 2778.22 939.327 Q2780.19 939.327 2782.07 939.744 Q2783.94 940.138 2785.7 940.948 Z" fill="#000000" fill-rule="evenodd" fill-opacity="1" /><path clip-path="url(#clip190)" d="M 0 0 M2797.32 932.591 L2797.32 939.952 L2806.09 939.952 L2806.09 943.263 L2797.32 943.263 L2797.32 957.337 Q2797.32 960.508 2798.18 961.411 Q2799.06 962.313 2801.72 962.313 L2806.09 962.313 L2806.09 965.878 L2801.72 965.878 Q2796.79 965.878 2794.91 964.05 Q2793.04 962.198 2793.04 957.337 L2793.04 943.263 L2789.91 943.263 L2789.91 939.952 L2793.04 939.952 L2793.04 932.591 L2797.32 932.591 Z" fill="#000000" fill-rule="evenodd" fill-opacity="1" /><path clip-path="url(#clip190)" d="M 0 0 M2811.69 939.952 L2815.95 939.952 L2815.95 965.878 L2811.69 965.878 L2811.69 939.952 M2811.69 929.86 L2815.95 929.86 L2815.95 935.253 L2811.69 935.253 L2811.69 929.86 Z" fill="#000000" fill-rule="evenodd" fill-opacity="1" /><path clip-path="url(#clip190)" d="M 0 0 M2834.91 942.939 Q2831.49 942.939 2829.5 945.624 Q2827.51 948.286 2827.51 952.939 Q2827.51 957.591 2829.47 960.276 Q2831.46 962.938 2834.91 962.938 Q2838.32 962.938 2840.31 960.253 Q2842.3 957.568 2842.3 952.939 Q2842.3 948.332 2840.31 945.647 Q2838.32 942.939 2834.91 942.939 M2834.91 939.327 Q2840.47 939.327 2843.64 942.939 Q2846.81 946.55 2846.81 952.939 Q2846.81 959.304 2843.64 962.938 Q2840.47 966.55 2834.91 966.55 Q2829.33 966.55 2826.16 962.938 Q2823.01 959.304 2823.01 952.939 Q2823.01 946.55 2826.16 942.939 Q2829.33 939.327 2834.91 939.327 Z" fill="#000000" fill-rule="evenodd" fill-opacity="1" /><path clip-path="url(#clip190)" d="M 0 0 M2875.42 950.23 L2875.42 965.878 L2871.16 965.878 L2871.16 950.369 Q2871.16 946.689 2869.73 944.86 Q2868.29 943.031 2865.42 943.031 Q2861.97 943.031 2859.98 945.23 Q2857.99 947.429 2857.99 951.226 L2857.99 965.878 L2853.71 965.878 L2853.71 939.952 L2857.99 939.952 L2857.99 943.98 Q2859.52 941.642 2861.58 940.485 Q2863.66 939.327 2866.37 939.327 Q2870.84 939.327 2873.13 942.105 Q2875.42 944.86 2875.42 950.23 Z" fill="#000000" fill-rule="evenodd" fill-opacity="1" /><circle clip-path="url(#clip190)" cx="2401.99" cy="1009.08" r="23" fill="#ee3377" fill-rule="evenodd" fill-opacity="1" stroke="#000000" stroke-opacity="1" stroke-width="0"/>
<path clip-path="url(#clip190)" d="M 0 0 M2539.75 1003.42 Q2536.33 1003.42 2534.34 1006.1 Q2532.34 1008.77 2532.34 1013.42 Q2532.34 1018.07 2534.31 1020.76 Q2536.3 1023.42 2539.75 1023.42 Q2543.15 1023.42 2545.15 1020.73 Q2547.14 1018.05 2547.14 1013.42 Q2547.14 1008.81 2545.15 1006.13 Q2543.15 1003.42 2539.75 1003.42 M2539.75 999.807 Q2545.31 999.807 2548.48 1003.42 Q2551.65 1007.03 2551.65 1013.42 Q2551.65 1019.78 2548.48 1023.42 Q2545.31 1027.03 2539.75 1027.03 Q2534.17 1027.03 2531 1023.42 Q2527.85 1019.78 2527.85 1013.42 Q2527.85 1007.03 2531 1003.42 Q2534.17 999.807 2539.75 999.807 Z" fill="#000000" fill-rule="evenodd" fill-opacity="1" /><path clip-path="url(#clip190)" d="M 0 0 M2577.32 1013.42 Q2577.32 1008.72 2575.38 1006.06 Q2573.46 1003.37 2570.08 1003.37 Q2566.7 1003.37 2564.75 1006.06 Q2562.83 1008.72 2562.83 1013.42 Q2562.83 1018.12 2564.75 1020.8 Q2566.7 1023.46 2570.08 1023.46 Q2573.46 1023.46 2575.38 1020.8 Q2577.32 1018.12 2577.32 1013.42 M2562.83 1004.37 Q2564.17 1002.05 2566.21 1000.94 Q2568.27 999.807 2571.12 999.807 Q2575.84 999.807 2578.78 1003.56 Q2581.74 1007.31 2581.74 1013.42 Q2581.74 1019.53 2578.78 1023.28 Q2575.84 1027.03 2571.12 1027.03 Q2568.27 1027.03 2566.21 1025.92 Q2564.17 1024.78 2562.83 1022.47 L2562.83 1026.36 L2558.55 1026.36 L2558.55 990.34 L2562.83 990.34 L2562.83 1004.37 Z" fill="#000000" fill-rule="evenodd" fill-opacity="1" /><path clip-path="url(#clip190)" d="M 0 0 M2605.33 1001.2 L2605.33 1005.22 Q2603.52 1004.3 2601.58 1003.84 Q2599.64 1003.37 2597.55 1003.37 Q2594.38 1003.37 2592.78 1004.34 Q2591.21 1005.32 2591.21 1007.26 Q2591.21 1008.74 2592.34 1009.6 Q2593.48 1010.43 2596.9 1011.2 L2598.36 1011.52 Q2602.9 1012.49 2604.8 1014.27 Q2606.72 1016.03 2606.72 1019.21 Q2606.72 1022.82 2603.85 1024.92 Q2601 1027.03 2596 1027.03 Q2593.92 1027.03 2591.65 1026.61 Q2589.4 1026.22 2586.9 1025.41 L2586.9 1021.01 Q2589.27 1022.24 2591.56 1022.86 Q2593.85 1023.46 2596.09 1023.46 Q2599.1 1023.46 2600.72 1022.45 Q2602.34 1021.4 2602.34 1019.53 Q2602.34 1017.79 2601.16 1016.87 Q2600.01 1015.94 2596.05 1015.09 L2594.57 1014.74 Q2590.61 1013.9 2588.85 1012.19 Q2587.09 1010.46 2587.09 1007.45 Q2587.09 1003.79 2589.68 1001.8 Q2592.27 999.807 2597.04 999.807 Q2599.4 999.807 2601.49 1000.15 Q2603.57 1000.5 2605.33 1001.2 Z" fill="#000000" fill-rule="evenodd" fill-opacity="1" /><path clip-path="url(#clip190)" d="M 0 0 M2635.68 1012.33 L2635.68 1014.41 L2616.09 1014.41 Q2616.37 1018.81 2618.73 1021.13 Q2621.12 1023.42 2625.35 1023.42 Q2627.81 1023.42 2630.1 1022.82 Q2632.41 1022.21 2634.68 1021.01 L2634.68 1025.04 Q2632.39 1026.01 2629.98 1026.52 Q2627.58 1027.03 2625.1 1027.03 Q2618.9 1027.03 2615.26 1023.42 Q2611.65 1019.81 2611.65 1013.65 Q2611.65 1007.28 2615.08 1003.56 Q2618.52 999.807 2624.36 999.807 Q2629.59 999.807 2632.62 1003.19 Q2635.68 1006.54 2635.68 1012.33 M2631.42 1011.08 Q2631.37 1007.59 2629.45 1005.5 Q2627.55 1003.42 2624.4 1003.42 Q2620.84 1003.42 2618.69 1005.43 Q2616.56 1007.45 2616.23 1011.1 L2631.42 1011.08 Z" fill="#000000" fill-rule="evenodd" fill-opacity="1" /><path clip-path="url(#clip190)" d="M 0 0 M2657.69 1004.41 Q2656.97 1004 2656.12 1003.81 Q2655.28 1003.6 2654.27 1003.6 Q2650.65 1003.6 2648.71 1005.96 Q2646.79 1008.3 2646.79 1012.7 L2646.79 1026.36 L2642.51 1026.36 L2642.51 1000.43 L2646.79 1000.43 L2646.79 1004.46 Q2648.13 1002.1 2650.28 1000.96 Q2652.44 999.807 2655.52 999.807 Q2655.96 999.807 2656.49 999.877 Q2657.02 999.923 2657.67 1000.04 L2657.69 1004.41 Z" fill="#000000" fill-rule="evenodd" fill-opacity="1" /><path clip-path="url(#clip190)" d="M 0 0 M2659.1 1000.43 L2663.62 1000.43 L2671.72 1022.19 L2679.82 1000.43 L2684.33 1000.43 L2674.61 1026.36 L2668.83 1026.36 L2659.1 1000.43 Z" fill="#000000" fill-rule="evenodd" fill-opacity="1" /><path clip-path="url(#clip190)" d="M 0 0 M2702 1013.33 Q2696.83 1013.33 2694.84 1014.51 Q2692.85 1015.69 2692.85 1018.53 Q2692.85 1020.8 2694.33 1022.15 Q2695.84 1023.46 2698.41 1023.46 Q2701.95 1023.46 2704.08 1020.96 Q2706.23 1018.44 2706.23 1014.27 L2706.23 1013.33 L2702 1013.33 M2710.49 1011.57 L2710.49 1026.36 L2706.23 1026.36 L2706.23 1022.42 Q2704.77 1024.78 2702.6 1025.92 Q2700.42 1027.03 2697.27 1027.03 Q2693.29 1027.03 2690.93 1024.81 Q2688.59 1022.56 2688.59 1018.81 Q2688.59 1014.44 2691.51 1012.21 Q2694.45 1009.99 2700.26 1009.99 L2706.23 1009.99 L2706.23 1009.58 Q2706.23 1006.64 2704.29 1005.04 Q2702.37 1003.42 2698.87 1003.42 Q2696.65 1003.42 2694.54 1003.95 Q2692.44 1004.48 2690.49 1005.55 L2690.49 1001.61 Q2692.83 1000.71 2695.03 1000.27 Q2697.23 999.807 2699.31 999.807 Q2704.94 999.807 2707.71 1002.72 Q2710.49 1005.64 2710.49 1011.57 Z" fill="#000000" fill-rule="evenodd" fill-opacity="1" /><path clip-path="url(#clip190)" d="M 0 0 M2723.48 993.071 L2723.48 1000.43 L2732.25 1000.43 L2732.25 1003.74 L2723.48 1003.74 L2723.48 1017.82 Q2723.48 1020.99 2724.33 1021.89 Q2725.21 1022.79 2727.88 1022.79 L2732.25 1022.79 L2732.25 1026.36 L2727.88 1026.36 Q2722.95 1026.36 2721.07 1024.53 Q2719.2 1022.68 2719.2 1017.82 L2719.2 1003.74 L2716.07 1003.74 L2716.07 1000.43 L2719.2 1000.43 L2719.2 993.071 L2723.48 993.071 Z" fill="#000000" fill-rule="evenodd" fill-opacity="1" /><path clip-path="url(#clip190)" d="M 0 0 M2737.85 1000.43 L2742.11 1000.43 L2742.11 1026.36 L2737.85 1026.36 L2737.85 1000.43 M2737.85 990.34 L2742.11 990.34 L2742.11 995.733 L2737.85 995.733 L2737.85 990.34 Z" fill="#000000" fill-rule="evenodd" fill-opacity="1" /><path clip-path="url(#clip190)" d="M 0 0 M2761.07 1003.42 Q2757.64 1003.42 2755.65 1006.1 Q2753.66 1008.77 2753.66 1013.42 Q2753.66 1018.07 2755.63 1020.76 Q2757.62 1023.42 2761.07 1023.42 Q2764.47 1023.42 2766.46 1020.73 Q2768.45 1018.05 2768.45 1013.42 Q2768.45 1008.81 2766.46 1006.13 Q2764.47 1003.42 2761.07 1003.42 M2761.07 999.807 Q2766.63 999.807 2769.8 1003.42 Q2772.97 1007.03 2772.97 1013.42 Q2772.97 1019.78 2769.8 1023.42 Q2766.63 1027.03 2761.07 1027.03 Q2755.49 1027.03 2752.32 1023.42 Q2749.17 1019.78 2749.17 1013.42 Q2749.17 1007.03 2752.32 1003.42 Q2755.49 999.807 2761.07 999.807 Z" fill="#000000" fill-rule="evenodd" fill-opacity="1" /><path clip-path="url(#clip190)" d="M 0 0 M2801.58 1010.71 L2801.58 1026.36 L2797.32 1026.36 L2797.32 1010.85 Q2797.32 1007.17 2795.88 1005.34 Q2794.45 1003.51 2791.58 1003.51 Q2788.13 1003.51 2786.14 1005.71 Q2784.15 1007.91 2784.15 1011.71 L2784.15 1026.36 L2779.87 1026.36 L2779.87 1000.43 L2784.15 1000.43 L2784.15 1004.46 Q2785.68 1002.12 2787.74 1000.96 Q2789.82 999.807 2792.53 999.807 Q2797 999.807 2799.29 1002.59 Q2801.58 1005.34 2801.58 1010.71 Z" fill="#000000" fill-rule="evenodd" fill-opacity="1" /><path clip-path="url(#clip190)" d="M 0 0 M2826.6 1001.2 L2826.6 1005.22 Q2824.8 1004.3 2822.85 1003.84 Q2820.91 1003.37 2818.82 1003.37 Q2815.65 1003.37 2814.06 1004.34 Q2812.48 1005.32 2812.48 1007.26 Q2812.48 1008.74 2813.62 1009.6 Q2814.75 1010.43 2818.18 1011.2 L2819.63 1011.52 Q2824.17 1012.49 2826.07 1014.27 Q2827.99 1016.03 2827.99 1019.21 Q2827.99 1022.82 2825.12 1024.92 Q2822.27 1027.03 2817.27 1027.03 Q2815.19 1027.03 2812.92 1026.61 Q2810.68 1026.22 2808.18 1025.41 L2808.18 1021.01 Q2810.54 1022.24 2812.83 1022.86 Q2815.12 1023.46 2817.37 1023.46 Q2820.38 1023.46 2822 1022.45 Q2823.62 1021.4 2823.62 1019.53 Q2823.62 1017.79 2822.44 1016.87 Q2821.28 1015.94 2817.32 1015.09 L2815.84 1014.74 Q2811.88 1013.9 2810.12 1012.19 Q2808.36 1010.46 2808.36 1007.45 Q2808.36 1003.79 2810.95 1001.8 Q2813.55 999.807 2818.32 999.807 Q2820.68 999.807 2822.76 1000.15 Q2824.84 1000.5 2826.6 1001.2 Z" fill="#000000" fill-rule="evenodd" fill-opacity="1" /></svg>
