<?xml version="1.0" encoding="utf-8"?>
<svg xmlns="http://www.w3.org/2000/svg" xmlns:xlink="http://www.w3.org/1999/xlink" width="770" height="300" viewBox="0 0 3080 1200">
<defs>
  <clipPath id="clip010">
    <rect x="0" y="0" width="3080" height="1200"/>
  </clipPath>
</defs>
<path clip-path="url(#clip010)" d="
M0 1200 L3080 1200 L3080 0 L0 0  Z
  " fill="#ffffff" fill-rule="evenodd" fill-opacity="1"/>
<defs>
  <clipPath id="clip011">
    <rect x="616" y="0" width="2157" height="1200"/>
  </clipPath>
</defs>
<path clip-path="url(#clip010)" d="
M154.278 1104.81 L3032.76 1104.81 L3032.76 47.2441 L154.278 47.2441  Z
  " fill="#ffffff" fill-rule="evenodd" fill-opacity="1"/>
<defs>
  <clipPath id="clip012">
    <rect x="154" y="47" width="2879" height="1059"/>
  </clipPath>
</defs>
<polyline clip-path="url(#clip012)" style="stroke:#222255; stroke-width:2; stroke-opacity:0.1; fill:none" points="
  513.036,1104.81 513.036,47.2441 
  "/>
<polyline clip-path="url(#clip012)" style="stroke:#222255; stroke-width:2; stroke-opacity:0.1; fill:none" points="
  1053.28,1104.81 1053.28,47.2441 
  "/>
<polyline clip-path="url(#clip012)" style="stroke:#222255; stroke-width:2; stroke-opacity:0.1; fill:none" points="
  1593.52,1104.81 1593.52,47.2441 
  "/>
<polyline clip-path="url(#clip012)" style="stroke:#222255; stroke-width:2; stroke-opacity:0.1; fill:none" points="
  2133.76,1104.81 2133.76,47.2441 
  "/>
<polyline clip-path="url(#clip012)" style="stroke:#222255; stroke-width:2; stroke-opacity:0.1; fill:none" points="
  2674,1104.81 2674,47.2441 
  "/>
<polyline clip-path="url(#clip012)" style="stroke:#222255; stroke-width:2; stroke-opacity:0.05; fill:none" points="
  188.891,1104.81 188.891,47.2441 
  "/>
<polyline clip-path="url(#clip012)" style="stroke:#222255; stroke-width:2; stroke-opacity:0.05; fill:none" points="
  296.94,1104.81 296.94,47.2441 
  "/>
<polyline clip-path="url(#clip012)" style="stroke:#222255; stroke-width:2; stroke-opacity:0.05; fill:none" points="
  404.988,1104.81 404.988,47.2441 
  "/>
<polyline clip-path="url(#clip012)" style="stroke:#222255; stroke-width:2; stroke-opacity:0.05; fill:none" points="
  621.084,1104.81 621.084,47.2441 
  "/>
<polyline clip-path="url(#clip012)" style="stroke:#222255; stroke-width:2; stroke-opacity:0.05; fill:none" points="
  729.132,1104.81 729.132,47.2441 
  "/>
<polyline clip-path="url(#clip012)" style="stroke:#222255; stroke-width:2; stroke-opacity:0.05; fill:none" points="
  837.18,1104.81 837.18,47.2441 
  "/>
<polyline clip-path="url(#clip012)" style="stroke:#222255; stroke-width:2; stroke-opacity:0.05; fill:none" points="
  945.228,1104.81 945.228,47.2441 
  "/>
<polyline clip-path="url(#clip012)" style="stroke:#222255; stroke-width:2; stroke-opacity:0.05; fill:none" points="
  1161.32,1104.81 1161.32,47.2441 
  "/>
<polyline clip-path="url(#clip012)" style="stroke:#222255; stroke-width:2; stroke-opacity:0.05; fill:none" points="
  1269.37,1104.81 1269.37,47.2441 
  "/>
<polyline clip-path="url(#clip012)" style="stroke:#222255; stroke-width:2; stroke-opacity:0.05; fill:none" points="
  1377.42,1104.81 1377.42,47.2441 
  "/>
<polyline clip-path="url(#clip012)" style="stroke:#222255; stroke-width:2; stroke-opacity:0.05; fill:none" points="
  1485.47,1104.81 1485.47,47.2441 
  "/>
<polyline clip-path="url(#clip012)" style="stroke:#222255; stroke-width:2; stroke-opacity:0.05; fill:none" points="
  1701.57,1104.81 1701.57,47.2441 
  "/>
<polyline clip-path="url(#clip012)" style="stroke:#222255; stroke-width:2; stroke-opacity:0.05; fill:none" points="
  1809.61,1104.81 1809.61,47.2441 
  "/>
<polyline clip-path="url(#clip012)" style="stroke:#222255; stroke-width:2; stroke-opacity:0.05; fill:none" points="
  1917.66,1104.81 1917.66,47.2441 
  "/>
<polyline clip-path="url(#clip012)" style="stroke:#222255; stroke-width:2; stroke-opacity:0.05; fill:none" points="
  2025.71,1104.81 2025.71,47.2441 
  "/>
<polyline clip-path="url(#clip012)" style="stroke:#222255; stroke-width:2; stroke-opacity:0.05; fill:none" points="
  2241.81,1104.81 2241.81,47.2441 
  "/>
<polyline clip-path="url(#clip012)" style="stroke:#222255; stroke-width:2; stroke-opacity:0.05; fill:none" points="
  2349.85,1104.81 2349.85,47.2441 
  "/>
<polyline clip-path="url(#clip012)" style="stroke:#222255; stroke-width:2; stroke-opacity:0.05; fill:none" points="
  2457.9,1104.81 2457.9,47.2441 
  "/>
<polyline clip-path="url(#clip012)" style="stroke:#222255; stroke-width:2; stroke-opacity:0.05; fill:none" points="
  2565.95,1104.81 2565.95,47.2441 
  "/>
<polyline clip-path="url(#clip012)" style="stroke:#222255; stroke-width:2; stroke-opacity:0.05; fill:none" points="
  2782.05,1104.81 2782.05,47.2441 
  "/>
<polyline clip-path="url(#clip012)" style="stroke:#222255; stroke-width:2; stroke-opacity:0.05; fill:none" points="
  2890.09,1104.81 2890.09,47.2441 
  "/>
<polyline clip-path="url(#clip012)" style="stroke:#222255; stroke-width:2; stroke-opacity:0.05; fill:none" points="
  2998.14,1104.81 2998.14,47.2441 
  "/>
<polyline clip-path="url(#clip010)" style="stroke:#222255; stroke-width:4; stroke-opacity:0; fill:none" points="
  513.036,1104.81 513.036,1092.12 
  "/>
<polyline clip-path="url(#clip010)" style="stroke:#222255; stroke-width:4; stroke-opacity:0; fill:none" points="
  1053.28,1104.81 1053.28,1092.12 
  "/>
<polyline clip-path="url(#clip010)" style="stroke:#222255; stroke-width:4; stroke-opacity:0; fill:none" points="
  1593.52,1104.81 1593.52,1092.12 
  "/>
<polyline clip-path="url(#clip010)" style="stroke:#222255; stroke-width:4; stroke-opacity:0; fill:none" points="
  2133.76,1104.81 2133.76,1092.12 
  "/>
<polyline clip-path="url(#clip010)" style="stroke:#222255; stroke-width:4; stroke-opacity:0; fill:none" points="
  2674,1104.81 2674,1092.12 
  "/>
<polyline clip-path="url(#clip010)" style="stroke:#222255; stroke-width:4; stroke-opacity:0; fill:none" points="
  188.891,1104.81 188.891,1098.47 
  "/>
<polyline clip-path="url(#clip010)" style="stroke:#222255; stroke-width:4; stroke-opacity:0; fill:none" points="
  296.94,1104.81 296.94,1098.47 
  "/>
<polyline clip-path="url(#clip010)" style="stroke:#222255; stroke-width:4; stroke-opacity:0; fill:none" points="
  404.988,1104.81 404.988,1098.47 
  "/>
<polyline clip-path="url(#clip010)" style="stroke:#222255; stroke-width:4; stroke-opacity:0; fill:none" points="
  621.084,1104.81 621.084,1098.47 
  "/>
<polyline clip-path="url(#clip010)" style="stroke:#222255; stroke-width:4; stroke-opacity:0; fill:none" points="
  729.132,1104.81 729.132,1098.47 
  "/>
<polyline clip-path="url(#clip010)" style="stroke:#222255; stroke-width:4; stroke-opacity:0; fill:none" points="
  837.18,1104.81 837.18,1098.47 
  "/>
<polyline clip-path="url(#clip010)" style="stroke:#222255; stroke-width:4; stroke-opacity:0; fill:none" points="
  945.228,1104.81 945.228,1098.47 
  "/>
<polyline clip-path="url(#clip010)" style="stroke:#222255; stroke-width:4; stroke-opacity:0; fill:none" points="
  1161.32,1104.81 1161.32,1098.47 
  "/>
<polyline clip-path="url(#clip010)" style="stroke:#222255; stroke-width:4; stroke-opacity:0; fill:none" points="
  1269.37,1104.81 1269.37,1098.47 
  "/>
<polyline clip-path="url(#clip010)" style="stroke:#222255; stroke-width:4; stroke-opacity:0; fill:none" points="
  1377.42,1104.81 1377.42,1098.47 
  "/>
<polyline clip-path="url(#clip010)" style="stroke:#222255; stroke-width:4; stroke-opacity:0; fill:none" points="
  1485.47,1104.81 1485.47,1098.47 
  "/>
<polyline clip-path="url(#clip010)" style="stroke:#222255; stroke-width:4; stroke-opacity:0; fill:none" points="
  1701.57,1104.81 1701.57,1098.47 
  "/>
<polyline clip-path="url(#clip010)" style="stroke:#222255; stroke-width:4; stroke-opacity:0; fill:none" points="
  1809.61,1104.81 1809.61,1098.47 
  "/>
<polyline clip-path="url(#clip010)" style="stroke:#222255; stroke-width:4; stroke-opacity:0; fill:none" points="
  1917.66,1104.81 1917.66,1098.47 
  "/>
<polyline clip-path="url(#clip010)" style="stroke:#222255; stroke-width:4; stroke-opacity:0; fill:none" points="
  2025.71,1104.81 2025.71,1098.47 
  "/>
<polyline clip-path="url(#clip010)" style="stroke:#222255; stroke-width:4; stroke-opacity:0; fill:none" points="
  2241.81,1104.81 2241.81,1098.47 
  "/>
<polyline clip-path="url(#clip010)" style="stroke:#222255; stroke-width:4; stroke-opacity:0; fill:none" points="
  2349.85,1104.81 2349.85,1098.47 
  "/>
<polyline clip-path="url(#clip010)" style="stroke:#222255; stroke-width:4; stroke-opacity:0; fill:none" points="
  2457.9,1104.81 2457.9,1098.47 
  "/>
<polyline clip-path="url(#clip010)" style="stroke:#222255; stroke-width:4; stroke-opacity:0; fill:none" points="
  2565.95,1104.81 2565.95,1098.47 
  "/>
<polyline clip-path="url(#clip010)" style="stroke:#222255; stroke-width:4; stroke-opacity:0; fill:none" points="
  2782.05,1104.81 2782.05,1098.47 
  "/>
<polyline clip-path="url(#clip010)" style="stroke:#222255; stroke-width:4; stroke-opacity:0; fill:none" points="
  2890.09,1104.81 2890.09,1098.47 
  "/>
<polyline clip-path="url(#clip010)" style="stroke:#222255; stroke-width:4; stroke-opacity:0; fill:none" points="
  2998.14,1104.81 2998.14,1098.47 
  "/>
<path clip-path="url(#clip010)" d="M 0 0 M459.564 1154.09 L489.24 1154.09 L489.24 1158.03 L459.564 1158.03 L459.564 1154.09 Z" fill="#000000" fill-rule="evenodd" fill-opacity="1" /><path clip-path="url(#clip010)" d="M 0 0 M499.378 1136.36 L517.735 1136.36 L517.735 1140.3 L503.661 1140.3 L503.661 1148.77 Q504.679 1148.42 505.698 1148.26 Q506.716 1148.08 507.735 1148.08 Q513.522 1148.08 516.901 1151.25 Q520.281 1154.42 520.281 1159.83 Q520.281 1165.41 516.809 1168.52 Q513.337 1171.59 507.017 1171.59 Q504.841 1171.59 502.573 1171.22 Q500.328 1170.85 497.92 1170.11 L497.92 1165.41 Q500.003 1166.55 502.226 1167.1 Q504.448 1167.66 506.925 1167.66 Q510.929 1167.66 513.267 1165.55 Q515.605 1163.45 515.605 1159.83 Q515.605 1156.22 513.267 1154.12 Q510.929 1152.01 506.925 1152.01 Q505.05 1152.01 503.175 1152.43 Q501.323 1152.84 499.378 1153.72 L499.378 1136.36 Z" fill="#000000" fill-rule="evenodd" fill-opacity="1" /><path clip-path="url(#clip010)" d="M 0 0 M529.494 1165.04 L534.378 1165.04 L534.378 1170.92 L529.494 1170.92 L529.494 1165.04 Z" fill="#000000" fill-rule="evenodd" fill-opacity="1" /><path clip-path="url(#clip010)" d="M 0 0 M554.563 1139.44 Q550.952 1139.44 549.124 1143.01 Q547.318 1146.55 547.318 1153.68 Q547.318 1160.78 549.124 1164.35 Q550.952 1167.89 554.563 1167.89 Q558.198 1167.89 560.003 1164.35 Q561.832 1160.78 561.832 1153.68 Q561.832 1146.55 560.003 1143.01 Q558.198 1139.44 554.563 1139.44 M554.563 1135.74 Q560.373 1135.74 563.429 1140.34 Q566.508 1144.93 566.508 1153.68 Q566.508 1162.4 563.429 1167.01 Q560.373 1171.59 554.563 1171.59 Q548.753 1171.59 545.674 1167.01 Q542.619 1162.4 542.619 1153.68 Q542.619 1144.93 545.674 1140.34 Q548.753 1135.74 554.563 1135.74 Z" fill="#000000" fill-rule="evenodd" fill-opacity="1" /><path clip-path="url(#clip010)" d="M 0 0 M1000.3 1154.09 L1029.98 1154.09 L1029.98 1158.03 L1000.3 1158.03 L1000.3 1154.09 Z" fill="#000000" fill-rule="evenodd" fill-opacity="1" /><path clip-path="url(#clip010)" d="M 0 0 M1044.1 1166.99 L1060.42 1166.99 L1060.42 1170.92 L1038.47 1170.92 L1038.47 1166.99 Q1041.14 1164.23 1045.72 1159.6 Q1050.32 1154.95 1051.51 1153.61 Q1053.75 1151.08 1054.63 1149.35 Q1055.53 1147.59 1055.53 1145.9 Q1055.53 1143.14 1053.59 1141.41 Q1051.67 1139.67 1048.57 1139.67 Q1046.37 1139.67 1043.91 1140.44 Q1041.48 1141.2 1038.7 1142.75 L1038.7 1138.03 Q1041.53 1136.89 1043.98 1136.32 Q1046.44 1135.74 1048.47 1135.74 Q1053.84 1135.74 1057.04 1138.42 Q1060.23 1141.11 1060.23 1145.6 Q1060.23 1147.73 1059.42 1149.65 Q1058.64 1151.55 1056.53 1154.14 Q1055.95 1154.81 1052.85 1158.03 Q1049.75 1161.22 1044.1 1166.99 Z" fill="#000000" fill-rule="evenodd" fill-opacity="1" /><path clip-path="url(#clip010)" d="M 0 0 M1070.23 1165.04 L1075.12 1165.04 L1075.12 1170.92 L1070.23 1170.92 L1070.23 1165.04 Z" fill="#000000" fill-rule="evenodd" fill-opacity="1" /><path clip-path="url(#clip010)" d="M 0 0 M1085.35 1136.36 L1103.7 1136.36 L1103.7 1140.3 L1089.63 1140.3 L1089.63 1148.77 Q1090.65 1148.42 1091.67 1148.26 Q1092.69 1148.08 1093.7 1148.08 Q1099.49 1148.08 1102.87 1151.25 Q1106.25 1154.42 1106.25 1159.83 Q1106.25 1165.41 1102.78 1168.52 Q1099.31 1171.59 1092.99 1171.59 Q1090.81 1171.59 1088.54 1171.22 Q1086.3 1170.85 1083.89 1170.11 L1083.89 1165.41 Q1085.97 1166.55 1088.2 1167.1 Q1090.42 1167.66 1092.89 1167.66 Q1096.9 1167.66 1099.24 1165.55 Q1101.57 1163.45 1101.57 1159.83 Q1101.57 1156.22 1099.24 1154.12 Q1096.9 1152.01 1092.89 1152.01 Q1091.02 1152.01 1089.14 1152.43 Q1087.29 1152.84 1085.35 1153.72 L1085.35 1136.36 Z" fill="#000000" fill-rule="evenodd" fill-opacity="1" /><path clip-path="url(#clip010)" d="M 0 0 M1570.9 1139.44 Q1567.29 1139.44 1565.46 1143.01 Q1563.66 1146.55 1563.66 1153.68 Q1563.66 1160.78 1565.46 1164.35 Q1567.29 1167.89 1570.9 1167.89 Q1574.54 1167.89 1576.34 1164.35 Q1578.17 1160.78 1578.17 1153.68 Q1578.17 1146.55 1576.34 1143.01 Q1574.54 1139.44 1570.9 1139.44 M1570.9 1135.74 Q1576.71 1135.74 1579.77 1140.34 Q1582.85 1144.93 1582.85 1153.68 Q1582.85 1162.4 1579.77 1167.01 Q1576.71 1171.59 1570.9 1171.59 Q1565.09 1171.59 1562.01 1167.01 Q1558.96 1162.4 1558.96 1153.68 Q1558.96 1144.93 1562.01 1140.34 Q1565.09 1135.74 1570.9 1135.74 Z" fill="#000000" fill-rule="evenodd" fill-opacity="1" /><path clip-path="url(#clip010)" d="M 0 0 M1591.06 1165.04 L1595.95 1165.04 L1595.95 1170.92 L1591.06 1170.92 L1591.06 1165.04 Z" fill="#000000" fill-rule="evenodd" fill-opacity="1" /><path clip-path="url(#clip010)" d="M 0 0 M1616.13 1139.44 Q1612.52 1139.44 1610.69 1143.01 Q1608.89 1146.55 1608.89 1153.68 Q1608.89 1160.78 1610.69 1164.35 Q1612.52 1167.89 1616.13 1167.89 Q1619.77 1167.89 1621.57 1164.35 Q1623.4 1160.78 1623.4 1153.68 Q1623.4 1146.55 1621.57 1143.01 Q1619.77 1139.44 1616.13 1139.44 M1616.13 1135.74 Q1621.94 1135.74 1625 1140.34 Q1628.08 1144.93 1628.08 1153.68 Q1628.08 1162.4 1625 1167.01 Q1621.94 1171.59 1616.13 1171.59 Q1610.32 1171.59 1607.24 1167.01 Q1604.19 1162.4 1604.19 1153.68 Q1604.19 1144.93 1607.24 1140.34 Q1610.32 1135.74 1616.13 1135.74 Z" fill="#000000" fill-rule="evenodd" fill-opacity="1" /><path clip-path="url(#clip010)" d="M 0 0 M2105.49 1166.99 L2121.81 1166.99 L2121.81 1170.92 L2099.87 1170.92 L2099.87 1166.99 Q2102.53 1164.23 2107.11 1159.6 Q2111.72 1154.95 2112.9 1153.61 Q2115.15 1151.08 2116.03 1149.35 Q2116.93 1147.59 2116.93 1145.9 Q2116.93 1143.14 2114.98 1141.41 Q2113.06 1139.67 2109.96 1139.67 Q2107.76 1139.67 2105.31 1140.44 Q2102.88 1141.2 2100.1 1142.75 L2100.1 1138.03 Q2102.92 1136.89 2105.38 1136.32 Q2107.83 1135.74 2109.87 1135.74 Q2115.24 1135.74 2118.43 1138.42 Q2121.63 1141.11 2121.63 1145.6 Q2121.63 1147.73 2120.82 1149.65 Q2120.03 1151.55 2117.92 1154.14 Q2117.35 1154.81 2114.24 1158.03 Q2111.14 1161.22 2105.49 1166.99 Z" fill="#000000" fill-rule="evenodd" fill-opacity="1" /><path clip-path="url(#clip010)" d="M 0 0 M2131.63 1165.04 L2136.51 1165.04 L2136.51 1170.92 L2131.63 1170.92 L2131.63 1165.04 Z" fill="#000000" fill-rule="evenodd" fill-opacity="1" /><path clip-path="url(#clip010)" d="M 0 0 M2146.74 1136.36 L2165.1 1136.36 L2165.1 1140.3 L2151.03 1140.3 L2151.03 1148.77 Q2152.04 1148.42 2153.06 1148.26 Q2154.08 1148.08 2155.1 1148.08 Q2160.89 1148.08 2164.27 1151.25 Q2167.65 1154.42 2167.65 1159.83 Q2167.65 1165.41 2164.17 1168.52 Q2160.7 1171.59 2154.38 1171.59 Q2152.21 1171.59 2149.94 1171.22 Q2147.69 1170.85 2145.29 1170.11 L2145.29 1165.41 Q2147.37 1166.55 2149.59 1167.1 Q2151.81 1167.66 2154.29 1167.66 Q2158.29 1167.66 2160.63 1165.55 Q2162.97 1163.45 2162.97 1159.83 Q2162.97 1156.22 2160.63 1154.12 Q2158.29 1152.01 2154.29 1152.01 Q2152.41 1152.01 2150.54 1152.43 Q2148.69 1152.84 2146.74 1153.72 L2146.74 1136.36 Z" fill="#000000" fill-rule="evenodd" fill-opacity="1" /><path clip-path="url(#clip010)" d="M 0 0 M2641.16 1136.36 L2659.52 1136.36 L2659.52 1140.3 L2645.44 1140.3 L2645.44 1148.77 Q2646.46 1148.42 2647.48 1148.26 Q2648.5 1148.08 2649.52 1148.08 Q2655.31 1148.08 2658.69 1151.25 Q2662.07 1154.42 2662.07 1159.83 Q2662.07 1165.41 2658.59 1168.52 Q2655.12 1171.59 2648.8 1171.59 Q2646.63 1171.59 2644.36 1171.22 Q2642.11 1170.85 2639.7 1170.11 L2639.7 1165.41 Q2641.79 1166.55 2644.01 1167.1 Q2646.23 1167.66 2648.71 1167.66 Q2652.71 1167.66 2655.05 1165.55 Q2657.39 1163.45 2657.39 1159.83 Q2657.39 1156.22 2655.05 1154.12 Q2652.71 1152.01 2648.71 1152.01 Q2646.83 1152.01 2644.96 1152.43 Q2643.11 1152.84 2641.16 1153.72 L2641.16 1136.36 Z" fill="#000000" fill-rule="evenodd" fill-opacity="1" /><path clip-path="url(#clip010)" d="M 0 0 M2671.28 1165.04 L2676.16 1165.04 L2676.16 1170.92 L2671.28 1170.92 L2671.28 1165.04 Z" fill="#000000" fill-rule="evenodd" fill-opacity="1" /><path clip-path="url(#clip010)" d="M 0 0 M2696.35 1139.44 Q2692.74 1139.44 2690.91 1143.01 Q2689.1 1146.55 2689.1 1153.68 Q2689.1 1160.78 2690.91 1164.35 Q2692.74 1167.89 2696.35 1167.89 Q2699.98 1167.89 2701.79 1164.35 Q2703.62 1160.78 2703.62 1153.68 Q2703.62 1146.55 2701.79 1143.01 Q2699.98 1139.44 2696.35 1139.44 M2696.35 1135.74 Q2702.16 1135.74 2705.21 1140.34 Q2708.29 1144.93 2708.29 1153.68 Q2708.29 1162.4 2705.21 1167.01 Q2702.16 1171.59 2696.35 1171.59 Q2690.54 1171.59 2687.46 1167.01 Q2684.4 1162.4 2684.4 1153.68 Q2684.4 1144.93 2687.46 1140.34 Q2690.54 1135.74 2696.35 1135.74 Z" fill="#000000" fill-rule="evenodd" fill-opacity="1" /><polyline clip-path="url(#clip012)" style="stroke:#222255; stroke-width:2; stroke-opacity:0.1; fill:none" points="
  154.278,954.937 3032.76,954.937 
  "/>
<polyline clip-path="url(#clip012)" style="stroke:#222255; stroke-width:2; stroke-opacity:0.1; fill:none" points="
  154.278,763.021 3032.76,763.021 
  "/>
<polyline clip-path="url(#clip012)" style="stroke:#222255; stroke-width:2; stroke-opacity:0.1; fill:none" points="
  154.278,571.106 3032.76,571.106 
  "/>
<polyline clip-path="url(#clip012)" style="stroke:#222255; stroke-width:2; stroke-opacity:0.1; fill:none" points="
  154.278,379.19 3032.76,379.19 
  "/>
<polyline clip-path="url(#clip012)" style="stroke:#222255; stroke-width:2; stroke-opacity:0.1; fill:none" points="
  154.278,187.274 3032.76,187.274 
  "/>
<polyline clip-path="url(#clip012)" style="stroke:#222255; stroke-width:2; stroke-opacity:0.05; fill:none" points="
  154.278,1070.09 3032.76,1070.09 
  "/>
<polyline clip-path="url(#clip012)" style="stroke:#222255; stroke-width:2; stroke-opacity:0.05; fill:none" points="
  154.278,1031.7 3032.76,1031.7 
  "/>
<polyline clip-path="url(#clip012)" style="stroke:#222255; stroke-width:2; stroke-opacity:0.05; fill:none" points="
  154.278,993.32 3032.76,993.32 
  "/>
<polyline clip-path="url(#clip012)" style="stroke:#222255; stroke-width:2; stroke-opacity:0.05; fill:none" points="
  154.278,916.554 3032.76,916.554 
  "/>
<polyline clip-path="url(#clip012)" style="stroke:#222255; stroke-width:2; stroke-opacity:0.05; fill:none" points="
  154.278,878.17 3032.76,878.17 
  "/>
<polyline clip-path="url(#clip012)" style="stroke:#222255; stroke-width:2; stroke-opacity:0.05; fill:none" points="
  154.278,839.787 3032.76,839.787 
  "/>
<polyline clip-path="url(#clip012)" style="stroke:#222255; stroke-width:2; stroke-opacity:0.05; fill:none" points="
  154.278,801.404 3032.76,801.404 
  "/>
<polyline clip-path="url(#clip012)" style="stroke:#222255; stroke-width:2; stroke-opacity:0.05; fill:none" points="
  154.278,724.638 3032.76,724.638 
  "/>
<polyline clip-path="url(#clip012)" style="stroke:#222255; stroke-width:2; stroke-opacity:0.05; fill:none" points="
  154.278,686.255 3032.76,686.255 
  "/>
<polyline clip-path="url(#clip012)" style="stroke:#222255; stroke-width:2; stroke-opacity:0.05; fill:none" points="
  154.278,647.872 3032.76,647.872 
  "/>
<polyline clip-path="url(#clip012)" style="stroke:#222255; stroke-width:2; stroke-opacity:0.05; fill:none" points="
  154.278,609.489 3032.76,609.489 
  "/>
<polyline clip-path="url(#clip012)" style="stroke:#222255; stroke-width:2; stroke-opacity:0.05; fill:none" points="
  154.278,532.722 3032.76,532.722 
  "/>
<polyline clip-path="url(#clip012)" style="stroke:#222255; stroke-width:2; stroke-opacity:0.05; fill:none" points="
  154.278,494.339 3032.76,494.339 
  "/>
<polyline clip-path="url(#clip012)" style="stroke:#222255; stroke-width:2; stroke-opacity:0.05; fill:none" points="
  154.278,455.956 3032.76,455.956 
  "/>
<polyline clip-path="url(#clip012)" style="stroke:#222255; stroke-width:2; stroke-opacity:0.05; fill:none" points="
  154.278,417.573 3032.76,417.573 
  "/>
<polyline clip-path="url(#clip012)" style="stroke:#222255; stroke-width:2; stroke-opacity:0.05; fill:none" points="
  154.278,340.807 3032.76,340.807 
  "/>
<polyline clip-path="url(#clip012)" style="stroke:#222255; stroke-width:2; stroke-opacity:0.05; fill:none" points="
  154.278,302.424 3032.76,302.424 
  "/>
<polyline clip-path="url(#clip012)" style="stroke:#222255; stroke-width:2; stroke-opacity:0.05; fill:none" points="
  154.278,264.041 3032.76,264.041 
  "/>
<polyline clip-path="url(#clip012)" style="stroke:#222255; stroke-width:2; stroke-opacity:0.05; fill:none" points="
  154.278,225.658 3032.76,225.658 
  "/>
<polyline clip-path="url(#clip012)" style="stroke:#222255; stroke-width:2; stroke-opacity:0.05; fill:none" points="
  154.278,148.891 3032.76,148.891 
  "/>
<polyline clip-path="url(#clip012)" style="stroke:#222255; stroke-width:2; stroke-opacity:0.05; fill:none" points="
  154.278,110.508 3032.76,110.508 
  "/>
<polyline clip-path="url(#clip012)" style="stroke:#222255; stroke-width:2; stroke-opacity:0.05; fill:none" points="
  154.278,72.1251 3032.76,72.1251 
  "/>
<polyline clip-path="url(#clip010)" style="stroke:#222255; stroke-width:4; stroke-opacity:0; fill:none" points="
  154.278,954.937 188.82,954.937 
  "/>
<polyline clip-path="url(#clip010)" style="stroke:#222255; stroke-width:4; stroke-opacity:0; fill:none" points="
  154.278,763.021 188.82,763.021 
  "/>
<polyline clip-path="url(#clip010)" style="stroke:#222255; stroke-width:4; stroke-opacity:0; fill:none" points="
  154.278,571.106 188.82,571.106 
  "/>
<polyline clip-path="url(#clip010)" style="stroke:#222255; stroke-width:4; stroke-opacity:0; fill:none" points="
  154.278,379.19 188.82,379.19 
  "/>
<polyline clip-path="url(#clip010)" style="stroke:#222255; stroke-width:4; stroke-opacity:0; fill:none" points="
  154.278,187.274 188.82,187.274 
  "/>
<polyline clip-path="url(#clip010)" style="stroke:#222255; stroke-width:4; stroke-opacity:0; fill:none" points="
  154.278,1070.09 171.549,1070.09 
  "/>
<polyline clip-path="url(#clip010)" style="stroke:#222255; stroke-width:4; stroke-opacity:0; fill:none" points="
  154.278,1031.7 171.549,1031.7 
  "/>
<polyline clip-path="url(#clip010)" style="stroke:#222255; stroke-width:4; stroke-opacity:0; fill:none" points="
  154.278,993.32 171.549,993.32 
  "/>
<polyline clip-path="url(#clip010)" style="stroke:#222255; stroke-width:4; stroke-opacity:0; fill:none" points="
  154.278,916.554 171.549,916.554 
  "/>
<polyline clip-path="url(#clip010)" style="stroke:#222255; stroke-width:4; stroke-opacity:0; fill:none" points="
  154.278,878.17 171.549,878.17 
  "/>
<polyline clip-path="url(#clip010)" style="stroke:#222255; stroke-width:4; stroke-opacity:0; fill:none" points="
  154.278,839.787 171.549,839.787 
  "/>
<polyline clip-path="url(#clip010)" style="stroke:#222255; stroke-width:4; stroke-opacity:0; fill:none" points="
  154.278,801.404 171.549,801.404 
  "/>
<polyline clip-path="url(#clip010)" style="stroke:#222255; stroke-width:4; stroke-opacity:0; fill:none" points="
  154.278,724.638 171.549,724.638 
  "/>
<polyline clip-path="url(#clip010)" style="stroke:#222255; stroke-width:4; stroke-opacity:0; fill:none" points="
  154.278,686.255 171.549,686.255 
  "/>
<polyline clip-path="url(#clip010)" style="stroke:#222255; stroke-width:4; stroke-opacity:0; fill:none" points="
  154.278,647.872 171.549,647.872 
  "/>
<polyline clip-path="url(#clip010)" style="stroke:#222255; stroke-width:4; stroke-opacity:0; fill:none" points="
  154.278,609.489 171.549,609.489 
  "/>
<polyline clip-path="url(#clip010)" style="stroke:#222255; stroke-width:4; stroke-opacity:0; fill:none" points="
  154.278,532.722 171.549,532.722 
  "/>
<polyline clip-path="url(#clip010)" style="stroke:#222255; stroke-width:4; stroke-opacity:0; fill:none" points="
  154.278,494.339 171.549,494.339 
  "/>
<polyline clip-path="url(#clip010)" style="stroke:#222255; stroke-width:4; stroke-opacity:0; fill:none" points="
  154.278,455.956 171.549,455.956 
  "/>
<polyline clip-path="url(#clip010)" style="stroke:#222255; stroke-width:4; stroke-opacity:0; fill:none" points="
  154.278,417.573 171.549,417.573 
  "/>
<polyline clip-path="url(#clip010)" style="stroke:#222255; stroke-width:4; stroke-opacity:0; fill:none" points="
  154.278,340.807 171.549,340.807 
  "/>
<polyline clip-path="url(#clip010)" style="stroke:#222255; stroke-width:4; stroke-opacity:0; fill:none" points="
  154.278,302.424 171.549,302.424 
  "/>
<polyline clip-path="url(#clip010)" style="stroke:#222255; stroke-width:4; stroke-opacity:0; fill:none" points="
  154.278,264.041 171.549,264.041 
  "/>
<polyline clip-path="url(#clip010)" style="stroke:#222255; stroke-width:4; stroke-opacity:0; fill:none" points="
  154.278,225.658 171.549,225.658 
  "/>
<polyline clip-path="url(#clip010)" style="stroke:#222255; stroke-width:4; stroke-opacity:0; fill:none" points="
  154.278,148.891 171.549,148.891 
  "/>
<polyline clip-path="url(#clip010)" style="stroke:#222255; stroke-width:4; stroke-opacity:0; fill:none" points="
  154.278,110.508 171.549,110.508 
  "/>
<polyline clip-path="url(#clip010)" style="stroke:#222255; stroke-width:4; stroke-opacity:0; fill:none" points="
  154.278,72.1251 171.549,72.1251 
  "/>
<path clip-path="url(#clip010)" d="M 0 0 M47.9625 955.388 L77.6383 955.388 L77.6383 959.323 L47.9625 959.323 L47.9625 955.388 Z" fill="#000000" fill-rule="evenodd" fill-opacity="1" /><path clip-path="url(#clip010)" d="M 0 0 M91.7586 968.282 L108.078 968.282 L108.078 972.217 L86.1336 972.217 L86.1336 968.282 Q88.7956 965.527 93.3789 960.897 Q97.9854 956.245 99.1659 954.902 Q101.411 952.379 102.291 950.643 Q103.194 948.883 103.194 947.194 Q103.194 944.439 101.249 942.703 Q99.328 940.967 96.2261 940.967 Q94.0271 940.967 91.5734 941.731 Q89.1428 942.495 86.3651 944.046 L86.3651 939.323 Q89.1891 938.189 91.6428 937.61 Q94.0965 937.032 96.1335 937.032 Q101.504 937.032 104.698 939.717 Q107.893 942.402 107.893 946.893 Q107.893 949.022 107.083 950.944 Q106.296 952.842 104.189 955.434 Q103.61 956.106 100.509 959.323 Q97.4067 962.518 91.7586 968.282 Z" fill="#000000" fill-rule="evenodd" fill-opacity="1" /><path clip-path="url(#clip010)" d="M 0 0 M47.5921 763.472 L77.2679 763.472 L77.2679 767.408 L47.5921 767.408 L47.5921 763.472 Z" fill="#000000" fill-rule="evenodd" fill-opacity="1" /><path clip-path="url(#clip010)" d="M 0 0 M88.1706 776.366 L95.8095 776.366 L95.8095 750 L87.4993 751.667 L87.4993 747.408 L95.7632 745.741 L100.439 745.741 L100.439 776.366 L108.078 776.366 L108.078 780.301 L88.1706 780.301 L88.1706 776.366 Z" fill="#000000" fill-rule="evenodd" fill-opacity="1" /><path clip-path="url(#clip010)" d="M 0 0 M96.1335 556.904 Q92.5224 556.904 90.6937 560.469 Q88.8882 564.011 88.8882 571.14 Q88.8882 578.247 90.6937 581.812 Q92.5224 585.353 96.1335 585.353 Q99.7678 585.353 101.573 581.812 Q103.402 578.247 103.402 571.14 Q103.402 564.011 101.573 560.469 Q99.7678 556.904 96.1335 556.904 M96.1335 553.201 Q101.944 553.201 104.999 557.807 Q108.078 562.39 108.078 571.14 Q108.078 579.867 104.999 584.474 Q101.944 589.057 96.1335 589.057 Q90.3234 589.057 87.2447 584.474 Q84.1892 579.867 84.1892 571.14 Q84.1892 562.39 87.2447 557.807 Q90.3234 553.201 96.1335 553.201 Z" fill="#000000" fill-rule="evenodd" fill-opacity="1" /><path clip-path="url(#clip010)" d="M 0 0 M88.1706 392.535 L95.8095 392.535 L95.8095 366.169 L87.4993 367.836 L87.4993 363.577 L95.7632 361.91 L100.439 361.91 L100.439 392.535 L108.078 392.535 L108.078 396.47 L88.1706 396.47 L88.1706 392.535 Z" fill="#000000" fill-rule="evenodd" fill-opacity="1" /><path clip-path="url(#clip010)" d="M 0 0 M91.7586 200.619 L108.078 200.619 L108.078 204.554 L86.1336 204.554 L86.1336 200.619 Q88.7956 197.865 93.3789 193.235 Q97.9854 188.582 99.1659 187.24 Q101.411 184.717 102.291 182.98 Q103.194 181.221 103.194 179.531 Q103.194 176.777 101.249 175.041 Q99.328 173.305 96.2261 173.305 Q94.0271 173.305 91.5734 174.068 Q89.1428 174.832 86.3651 176.383 L86.3651 171.661 Q89.1891 170.527 91.6428 169.948 Q94.0965 169.369 96.1335 169.369 Q101.504 169.369 104.698 172.055 Q107.893 174.74 107.893 179.23 Q107.893 181.36 107.083 183.281 Q106.296 185.18 104.189 187.772 Q103.61 188.443 100.509 191.661 Q97.4067 194.855 91.7586 200.619 Z" fill="#000000" fill-rule="evenodd" fill-opacity="1" /><path clip-path="url(#clip012)" d="
M235.744 1074.88 L263.174 1064.87 L290.604 1054.86 L318.034 1044.85 L345.463 1034.84 L372.893 1024.83 L400.323 1014.83 L427.753 1004.82 L455.182 994.821 L482.612 984.82 
  L510.042 974.821 L537.472 964.824 L564.901 954.828 L592.331 944.835 L619.761 934.844 L647.191 924.855 L674.62 914.869 L702.05 904.886 L729.48 894.905 L756.91 884.928 
  L784.339 874.954 L811.769 864.984 L839.199 855.018 L866.629 845.055 L894.058 835.098 L921.488 825.146 L948.918 815.199 L976.348 805.258 L1003.78 795.323 L1031.21 785.396 
  L1058.64 775.477 L1086.07 765.566 L1113.5 755.664 L1140.93 745.773 L1168.36 735.894 L1195.79 726.028 L1223.22 716.175 L1250.65 706.339 L1278.07 696.52 L1305.5 686.721 
  L1332.93 676.943 L1360.36 667.191 L1387.79 657.466 L1415.22 647.772 L1442.65 638.113 L1470.08 628.492 L1497.51 618.914 L1524.94 609.384 L1552.37 599.906 L1579.8 590.486 
  L1607.23 581.128 L1634.66 571.837 L1662.09 562.617 L1689.52 553.471 L1716.95 544.401 L1744.38 535.408 L1771.81 526.492 L1799.24 517.651 L1826.67 508.881 L1854.1 500.18 
  L1881.53 491.543 L1908.96 482.965 L1936.39 474.441 L1963.82 465.966 L1991.25 457.535 L2018.68 449.145 L2046.11 440.791 L2073.54 432.468 L2100.97 424.174 L2128.4 415.906 
  L2155.83 407.66 L2183.26 399.435 L2210.69 391.229 L2238.12 383.038 L2265.55 374.863 L2292.98 366.7 L2320.41 358.55 L2347.84 350.41 L2375.26 342.281 L2402.69 334.16 
  L2430.12 326.047 L2457.55 317.941 L2484.98 309.842 L2512.41 301.75 L2539.84 293.663 L2567.27 285.581 L2594.7 277.503 L2622.13 269.431 L2649.56 261.362 L2676.99 253.297 
  L2704.42 245.236 L2731.85 237.177 L2759.28 229.122 L2786.71 221.07 L2814.14 213.02 L2841.57 204.972 L2869 196.927 L2896.43 188.884 L2923.86 180.843 L2951.29 172.804 
  L2951.29 77.1752 L2923.86 87.1738 L2896.43 97.1705 L2869 107.165 L2841.57 117.158 L2814.14 127.148 L2786.71 137.136 L2759.28 147.121 L2731.85 157.104 L2704.42 167.083 
  L2676.99 177.059 L2649.56 187.032 L2622.13 197.001 L2594.7 206.966 L2567.27 216.927 L2539.84 226.882 L2512.41 236.833 L2484.98 246.778 L2457.55 256.717 L2430.12 266.649 
  L2402.69 276.574 L2375.26 286.491 L2347.84 296.399 L2320.41 306.297 L2292.98 316.184 L2265.55 326.059 L2238.12 335.922 L2210.69 345.769 L2183.26 355.6 L2155.83 365.413 
  L2128.4 375.205 L2100.97 384.974 L2073.54 394.718 L2046.11 404.433 L2018.68 414.117 L1991.25 423.764 L1963.82 433.371 L1936.39 442.934 L1908.96 452.448 L1881.53 461.908 
  L1854.1 471.308 L1826.67 480.645 L1799.24 489.913 L1771.81 499.109 L1744.38 508.23 L1716.95 517.275 L1689.52 526.243 L1662.09 535.135 L1634.66 543.953 L1607.23 552.699 
  L1579.8 561.379 L1552.37 569.997 L1524.94 578.557 L1497.51 587.064 L1470.08 595.524 L1442.65 603.941 L1415.22 612.319 L1387.79 620.663 L1360.36 628.976 L1332.93 637.261 
  L1305.5 645.522 L1278.07 653.76 L1250.65 661.979 L1223.22 670.18 L1195.79 678.366 L1168.36 686.537 L1140.93 694.695 L1113.5 702.842 L1086.07 710.978 L1058.64 719.105 
  L1031.21 727.224 L1003.78 735.334 L976.348 743.437 L948.918 751.534 L921.488 759.625 L894.058 767.71 L866.629 775.791 L839.199 783.866 L811.769 791.938 L784.339 800.005 
  L756.91 808.069 L729.48 816.129 L702.05 824.187 L674.62 832.241 L647.191 840.293 L619.761 848.342 L592.331 856.388 L564.901 864.433 L537.472 872.475 L510.042 880.515 
  L482.612 888.554 L455.182 896.591 L427.753 904.626 L400.323 912.66 L372.893 920.692 L345.463 928.723 L318.034 936.753 L290.604 944.781 L263.174 952.808 L235.744 960.834 
   Z
  " fill="#008000" fill-rule="evenodd" fill-opacity="0.3"/>
<polyline clip-path="url(#clip012)" style="stroke:#ee7733; stroke-width:8; stroke-opacity:1; fill:none" points="
  235.744,1017.86 263.174,1008.84 290.604,999.819 318.034,990.8 345.463,981.781 372.893,972.763 400.323,963.744 427.753,954.725 455.182,945.706 482.612,936.687 
  510.042,927.668 537.472,918.649 564.901,909.631 592.331,900.612 619.761,891.593 647.191,882.574 674.62,873.555 702.05,864.536 729.48,855.517 756.91,846.498 
  784.339,837.48 811.769,828.461 839.199,819.442 866.629,810.423 894.058,801.404 921.488,792.385 948.918,783.366 976.348,774.348 1003.78,765.329 1031.21,756.31 
  1058.64,747.291 1086.07,738.272 1113.5,729.253 1140.93,720.234 1168.36,711.216 1195.79,702.197 1223.22,693.178 1250.65,684.159 1278.07,675.14 1305.5,666.121 
  1332.93,657.102 1360.36,648.084 1387.79,639.065 1415.22,630.046 1442.65,621.027 1470.08,612.008 1497.51,602.989 1524.94,593.97 1552.37,584.951 1579.8,575.933 
  1607.23,566.914 1634.66,557.895 1662.09,548.876 1689.52,539.857 1716.95,530.838 1744.38,521.819 1771.81,512.801 1799.24,503.782 1826.67,494.763 1854.1,485.744 
  1881.53,476.725 1908.96,467.706 1936.39,458.687 1963.82,449.669 1991.25,440.65 2018.68,431.631 2046.11,422.612 2073.54,413.593 2100.97,404.574 2128.4,395.555 
  2155.83,386.537 2183.26,377.518 2210.69,368.499 2238.12,359.48 2265.55,350.461 2292.98,341.442 2320.41,332.423 2347.84,323.405 2375.26,314.386 2402.69,305.367 
  2430.12,296.348 2457.55,287.329 2484.98,278.31 2512.41,269.291 2539.84,260.272 2567.27,251.254 2594.7,242.235 2622.13,233.216 2649.56,224.197 2676.99,215.178 
  2704.42,206.159 2731.85,197.14 2759.28,188.122 2786.71,179.103 2814.14,170.084 2841.57,161.065 2869,152.046 2896.43,143.027 2923.86,134.008 2951.29,124.99 
  
  "/>
<polyline clip-path="url(#clip012)" style="stroke:#0077bb; stroke-width:4.8; stroke-opacity:1; fill:none" points="
  235.744,571.106 263.174,546.81 290.604,522.906 318.034,499.778 345.463,477.797 372.893,457.317 400.323,438.669 427.753,422.151 455.182,408.03 482.612,396.533 
  510.042,387.845 537.472,382.106 564.901,379.407 592.331,379.794 619.761,383.258 647.191,389.745 674.62,399.15 702.05,411.322 729.48,426.065 756.91,443.142 
  784.339,462.278 811.769,483.165 839.199,505.467 866.629,528.825 894.058,552.863 921.488,577.195 948.918,601.428 976.348,625.174 1003.78,648.05 1031.21,669.688 
  1058.64,689.74 1086.07,707.883 1113.5,723.825 1140.93,737.309 1168.36,748.12 1195.79,756.082 1223.22,761.068 1250.65,762.997 1278.07,761.839 1305.5,757.611 
  1332.93,750.383 1360.36,740.27 1387.79,727.435 1415.22,712.085 1442.65,694.466 1470.08,674.863 1497.51,653.59 1524.94,630.99 1552.37,607.426 1579.8,583.278 
  1607.23,558.934 1634.66,534.785 1662.09,511.221 1689.52,488.621 1716.95,467.348 1744.38,447.745 1771.81,430.126 1799.24,414.776 1826.67,401.941 1854.1,391.828 
  1881.53,384.6 1908.96,380.372 1936.39,379.214 1963.82,381.143 1991.25,386.129 2018.68,394.091 2046.11,404.902 2073.54,418.386 2100.97,434.328 2128.4,452.471 
  2155.83,472.523 2183.26,494.161 2210.69,517.037 2238.12,540.783 2265.55,565.016 2292.98,589.348 2320.41,613.387 2347.84,636.745 2375.26,659.046 2402.69,679.933 
  2430.12,699.069 2457.55,716.146 2484.98,730.889 2512.41,743.061 2539.84,752.466 2567.27,758.953 2594.7,762.417 2622.13,762.804 2649.56,760.105 2676.99,754.366 
  2704.42,745.678 2731.85,734.181 2759.28,720.06 2786.71,703.542 2814.14,684.894 2841.57,664.414 2869,642.433 2896.43,619.305 2923.86,595.401 2951.29,571.106 
  
  "/>
<circle clip-path="url(#clip012)" cx="1964.4" cy="358.738" r="21" fill="#ee3377" fill-rule="evenodd" fill-opacity="1" stroke="#000000" stroke-opacity="1" stroke-width="0"/>
<circle clip-path="url(#clip012)" cx="1952.78" cy="379.816" r="21" fill="#ee3377" fill-rule="evenodd" fill-opacity="1" stroke="#000000" stroke-opacity="1" stroke-width="0"/>
<circle clip-path="url(#clip012)" cx="1600.48" cy="566.011" r="21" fill="#ee3377" fill-rule="evenodd" fill-opacity="1" stroke="#000000" stroke-opacity="1" stroke-width="0"/>
<circle clip-path="url(#clip012)" cx="1325.3" cy="774.826" r="21" fill="#ee3377" fill-rule="evenodd" fill-opacity="1" stroke="#000000" stroke-opacity="1" stroke-width="0"/>
<circle clip-path="url(#clip012)" cx="2160.87" cy="461.57" r="21" fill="#ee3377" fill-rule="evenodd" fill-opacity="1" stroke="#000000" stroke-opacity="1" stroke-width="0"/>
<circle clip-path="url(#clip012)" cx="1047.94" cy="694.591" r="21" fill="#ee3377" fill-rule="evenodd" fill-opacity="1" stroke="#000000" stroke-opacity="1" stroke-width="0"/>
<circle clip-path="url(#clip012)" cx="1648.27" cy="549.935" r="21" fill="#ee3377" fill-rule="evenodd" fill-opacity="1" stroke="#000000" stroke-opacity="1" stroke-width="0"/>
<circle clip-path="url(#clip012)" cx="2072.48" cy="449.081" r="21" fill="#ee3377" fill-rule="evenodd" fill-opacity="1" stroke="#000000" stroke-opacity="1" stroke-width="0"/>
<path clip-path="url(#clip010)" d="
M2269.41 1069.56 L2936.81 1069.56 L2936.81 827.638 L2269.41 827.638  Z
  " fill="#ffffff" fill-rule="evenodd" fill-opacity="0.9"/>
<polyline clip-path="url(#clip010)" style="stroke:#222255; stroke-width:4; stroke-opacity:0.1; fill:none" points="
  2269.41,1069.56 2936.81,1069.56 2936.81,827.638 2269.41,827.638 2269.41,1069.56 
  "/>
<polyline clip-path="url(#clip010)" style="stroke:#ee7733; stroke-width:4; stroke-opacity:1; fill:none" points="
  2301.39,888.118 2493.29,888.118 
  "/>
<path clip-path="url(#clip010)" d="M 0 0 M2545.62 884.449 Q2547.22 881.579 2549.44 880.213 Q2551.66 878.847 2554.67 878.847 Q2558.72 878.847 2560.92 881.695 Q2563.12 884.519 2563.12 889.75 L2563.12 905.398 L2558.84 905.398 L2558.84 889.889 Q2558.84 886.162 2557.52 884.357 Q2556.2 882.551 2553.49 882.551 Q2550.18 882.551 2548.26 884.75 Q2546.34 886.949 2546.34 890.746 L2546.34 905.398 L2542.06 905.398 L2542.06 889.889 Q2542.06 886.139 2540.74 884.357 Q2539.42 882.551 2536.66 882.551 Q2533.4 882.551 2531.48 884.773 Q2529.56 886.972 2529.56 890.746 L2529.56 905.398 L2525.27 905.398 L2525.27 879.472 L2529.56 879.472 L2529.56 883.5 Q2531.01 881.116 2533.05 879.982 Q2535.09 878.847 2537.89 878.847 Q2540.71 878.847 2542.68 880.283 Q2544.67 881.718 2545.62 884.449 Z" fill="#000000" fill-rule="evenodd" fill-opacity="1" /><path clip-path="url(#clip010)" d="M 0 0 M2581.66 882.459 Q2578.24 882.459 2576.24 885.144 Q2574.25 887.806 2574.25 892.459 Q2574.25 897.111 2576.22 899.796 Q2578.21 902.458 2581.66 902.458 Q2585.06 902.458 2587.05 899.773 Q2589.05 897.088 2589.05 892.459 Q2589.05 887.852 2587.05 885.167 Q2585.06 882.459 2581.66 882.459 M2581.66 878.847 Q2587.22 878.847 2590.39 882.459 Q2593.56 886.07 2593.56 892.459 Q2593.56 898.824 2590.39 902.458 Q2587.22 906.07 2581.66 906.07 Q2576.08 906.07 2572.91 902.458 Q2569.76 898.824 2569.76 892.459 Q2569.76 886.07 2572.91 882.459 Q2576.08 878.847 2581.66 878.847 Z" fill="#000000" fill-rule="evenodd" fill-opacity="1" /><path clip-path="url(#clip010)" d="M 0 0 M2617.68 883.408 L2617.68 869.38 L2621.94 869.38 L2621.94 905.398 L2617.68 905.398 L2617.68 901.509 Q2616.34 903.824 2614.28 904.958 Q2612.24 906.07 2609.37 906.07 Q2604.67 906.07 2601.71 902.32 Q2598.77 898.57 2598.77 892.459 Q2598.77 886.347 2601.71 882.597 Q2604.67 878.847 2609.37 878.847 Q2612.24 878.847 2614.28 879.982 Q2616.34 881.093 2617.68 883.408 M2603.17 892.459 Q2603.17 897.158 2605.09 899.843 Q2607.03 902.505 2610.41 902.505 Q2613.79 902.505 2615.74 899.843 Q2617.68 897.158 2617.68 892.459 Q2617.68 887.759 2615.74 885.097 Q2613.79 882.412 2610.41 882.412 Q2607.03 882.412 2605.09 885.097 Q2603.17 887.759 2603.17 892.459 Z" fill="#000000" fill-rule="evenodd" fill-opacity="1" /><path clip-path="url(#clip010)" d="M 0 0 M2652.89 891.371 L2652.89 893.454 L2633.3 893.454 Q2633.58 897.852 2635.94 900.167 Q2638.33 902.458 2642.56 902.458 Q2645.02 902.458 2647.31 901.857 Q2649.62 901.255 2651.89 900.051 L2651.89 904.079 Q2649.6 905.051 2647.19 905.56 Q2644.79 906.07 2642.31 906.07 Q2636.11 906.07 2632.47 902.458 Q2628.86 898.847 2628.86 892.69 Q2628.86 886.324 2632.29 882.597 Q2635.74 878.847 2641.57 878.847 Q2646.8 878.847 2649.83 882.227 Q2652.89 885.584 2652.89 891.371 M2648.63 890.121 Q2648.58 886.625 2646.66 884.542 Q2644.76 882.459 2641.61 882.459 Q2638.05 882.459 2635.9 884.472 Q2633.77 886.486 2633.44 890.144 L2648.63 890.121 Z" fill="#000000" fill-rule="evenodd" fill-opacity="1" /><path clip-path="url(#clip010)" d="M 0 0 M2659.88 869.38 L2664.14 869.38 L2664.14 905.398 L2659.88 905.398 L2659.88 869.38 Z" fill="#000000" fill-rule="evenodd" fill-opacity="1" /><polyline clip-path="url(#clip010)" style="stroke:#0077bb; stroke-width:4; stroke-opacity:1; fill:none" points="
  2301.39,948.598 2493.29,948.598 
  "/>
<path clip-path="url(#clip010)" d="M 0 0 M2532.68 932.591 L2532.68 939.952 L2541.45 939.952 L2541.45 943.263 L2532.68 943.263 L2532.68 957.337 Q2532.68 960.508 2533.54 961.411 Q2534.42 962.313 2537.08 962.313 L2541.45 962.313 L2541.45 965.878 L2537.08 965.878 Q2532.15 965.878 2530.27 964.05 Q2528.4 962.198 2528.4 957.337 L2528.4 943.263 L2525.27 943.263 L2525.27 939.952 L2528.4 939.952 L2528.4 932.591 L2532.68 932.591 Z" fill="#000000" fill-rule="evenodd" fill-opacity="1" /><path clip-path="url(#clip010)" d="M 0 0 M2558.84 952.846 Q2553.68 952.846 2551.68 954.026 Q2549.69 955.207 2549.69 958.054 Q2549.69 960.323 2551.18 961.665 Q2552.68 962.985 2555.25 962.985 Q2558.79 962.985 2560.92 960.485 Q2563.07 957.962 2563.07 953.795 L2563.07 952.846 L2558.84 952.846 M2567.33 951.087 L2567.33 965.878 L2563.07 965.878 L2563.07 961.943 Q2561.62 964.304 2559.44 965.438 Q2557.26 966.55 2554.12 966.55 Q2550.13 966.55 2547.77 964.327 Q2545.43 962.082 2545.43 958.332 Q2545.43 953.957 2548.35 951.735 Q2551.29 949.513 2557.1 949.513 L2563.07 949.513 L2563.07 949.096 Q2563.07 946.156 2561.13 944.559 Q2559.21 942.939 2555.71 942.939 Q2553.49 942.939 2551.38 943.471 Q2549.28 944.003 2547.33 945.068 L2547.33 941.133 Q2549.67 940.23 2551.87 939.79 Q2554.07 939.327 2556.15 939.327 Q2561.78 939.327 2564.56 942.244 Q2567.33 945.161 2567.33 951.087 Z" fill="#000000" fill-rule="evenodd" fill-opacity="1" /><path clip-path="url(#clip010)" d="M 0 0 M2591.13 943.934 Q2590.41 943.517 2589.55 943.332 Q2588.72 943.124 2587.7 943.124 Q2584.09 943.124 2582.15 945.485 Q2580.23 947.823 2580.23 952.221 L2580.23 965.878 L2575.94 965.878 L2575.94 939.952 L2580.23 939.952 L2580.23 943.98 Q2581.57 941.619 2583.72 940.485 Q2585.87 939.327 2588.95 939.327 Q2589.39 939.327 2589.93 939.397 Q2590.46 939.443 2591.11 939.559 L2591.13 943.934 Z" fill="#000000" fill-rule="evenodd" fill-opacity="1" /><path clip-path="url(#clip010)" d="M 0 0 M2611.82 952.614 Q2611.82 947.985 2609.9 945.439 Q2608 942.892 2604.55 942.892 Q2601.13 942.892 2599.21 945.439 Q2597.31 947.985 2597.31 952.614 Q2597.31 957.221 2599.21 959.767 Q2601.13 962.313 2604.55 962.313 Q2608 962.313 2609.9 959.767 Q2611.82 957.221 2611.82 952.614 M2616.08 962.661 Q2616.08 969.281 2613.14 972.499 Q2610.2 975.739 2604.14 975.739 Q2601.89 975.739 2599.9 975.392 Q2597.91 975.068 2596.04 974.374 L2596.04 970.23 Q2597.91 971.249 2599.74 971.735 Q2601.57 972.221 2603.47 972.221 Q2607.66 972.221 2609.74 970.022 Q2611.82 967.846 2611.82 963.425 L2611.82 961.318 Q2610.5 963.61 2608.44 964.744 Q2606.38 965.878 2603.51 965.878 Q2598.74 965.878 2595.83 962.244 Q2592.91 958.61 2592.91 952.614 Q2592.91 946.596 2595.83 942.962 Q2598.74 939.327 2603.51 939.327 Q2606.38 939.327 2608.44 940.462 Q2610.5 941.596 2611.82 943.888 L2611.82 939.952 L2616.08 939.952 L2616.08 962.661 Z" fill="#000000" fill-rule="evenodd" fill-opacity="1" /><path clip-path="url(#clip010)" d="M 0 0 M2647.03 951.851 L2647.03 953.934 L2627.45 953.934 Q2627.73 958.332 2630.09 960.647 Q2632.47 962.938 2636.71 962.938 Q2639.16 962.938 2641.45 962.337 Q2643.77 961.735 2646.04 960.531 L2646.04 964.559 Q2643.74 965.531 2641.34 966.04 Q2638.93 966.55 2636.45 966.55 Q2630.25 966.55 2626.61 962.938 Q2623 959.327 2623 953.17 Q2623 946.804 2626.43 943.077 Q2629.88 939.327 2635.71 939.327 Q2640.94 939.327 2643.98 942.707 Q2647.03 946.064 2647.03 951.851 M2642.77 950.601 Q2642.73 947.105 2640.8 945.022 Q2638.91 942.939 2635.76 942.939 Q2632.19 942.939 2630.04 944.952 Q2627.91 946.966 2627.59 950.624 L2642.77 950.601 Z" fill="#000000" fill-rule="evenodd" fill-opacity="1" /><path clip-path="url(#clip010)" d="M 0 0 M2658.24 932.591 L2658.24 939.952 L2667.01 939.952 L2667.01 943.263 L2658.24 943.263 L2658.24 957.337 Q2658.24 960.508 2659.09 961.411 Q2659.97 962.313 2662.63 962.313 L2667.01 962.313 L2667.01 965.878 L2662.63 965.878 Q2657.7 965.878 2655.83 964.05 Q2653.95 962.198 2653.95 957.337 L2653.95 943.263 L2650.83 943.263 L2650.83 939.952 L2653.95 939.952 L2653.95 932.591 L2658.24 932.591 Z" fill="#000000" fill-rule="evenodd" fill-opacity="1" /><path clip-path="url(#clip010)" d="M 0 0 M2700.8 929.86 L2700.8 933.402 L2696.73 933.402 Q2694.44 933.402 2693.54 934.328 Q2692.66 935.253 2692.66 937.661 L2692.66 939.952 L2699.67 939.952 L2699.67 943.263 L2692.66 943.263 L2692.66 965.878 L2688.37 965.878 L2688.37 943.263 L2684.3 943.263 L2684.3 939.952 L2688.37 939.952 L2688.37 938.147 Q2688.37 933.818 2690.39 931.851 Q2692.4 929.86 2696.78 929.86 L2700.8 929.86 Z" fill="#000000" fill-rule="evenodd" fill-opacity="1" /><path clip-path="url(#clip010)" d="M 0 0 M2703.93 955.647 L2703.93 939.952 L2708.19 939.952 L2708.19 955.485 Q2708.19 959.165 2709.62 961.017 Q2711.06 962.846 2713.93 962.846 Q2717.38 962.846 2719.37 960.647 Q2721.38 958.448 2721.38 954.651 L2721.38 939.952 L2725.64 939.952 L2725.64 965.878 L2721.38 965.878 L2721.38 961.897 Q2719.83 964.258 2717.77 965.415 Q2715.73 966.55 2713.03 966.55 Q2708.56 966.55 2706.24 963.772 Q2703.93 960.994 2703.93 955.647 M2714.65 939.327 L2714.65 939.327 Z" fill="#000000" fill-rule="evenodd" fill-opacity="1" /><path clip-path="url(#clip010)" d="M 0 0 M2755.97 950.23 L2755.97 965.878 L2751.71 965.878 L2751.71 950.369 Q2751.71 946.689 2750.27 944.86 Q2748.84 943.031 2745.97 943.031 Q2742.52 943.031 2740.53 945.23 Q2738.54 947.429 2738.54 951.226 L2738.54 965.878 L2734.25 965.878 L2734.25 939.952 L2738.54 939.952 L2738.54 943.98 Q2740.06 941.642 2742.12 940.485 Q2744.21 939.327 2746.92 939.327 Q2751.38 939.327 2753.67 942.105 Q2755.97 944.86 2755.97 950.23 Z" fill="#000000" fill-rule="evenodd" fill-opacity="1" /><path clip-path="url(#clip010)" d="M 0 0 M2783.12 940.948 L2783.12 944.929 Q2781.31 943.934 2779.48 943.448 Q2777.68 942.939 2775.83 942.939 Q2771.68 942.939 2769.39 945.577 Q2767.1 948.193 2767.1 952.939 Q2767.1 957.684 2769.39 960.323 Q2771.68 962.938 2775.83 962.938 Q2777.68 962.938 2779.48 962.452 Q2781.31 961.943 2783.12 960.948 L2783.12 964.883 Q2781.34 965.716 2779.42 966.133 Q2777.52 966.55 2775.36 966.55 Q2769.51 966.55 2766.06 962.869 Q2762.61 959.188 2762.61 952.939 Q2762.61 946.596 2766.08 942.962 Q2769.58 939.327 2775.64 939.327 Q2777.61 939.327 2779.48 939.744 Q2781.36 940.138 2783.12 940.948 Z" fill="#000000" fill-rule="evenodd" fill-opacity="1" /><path clip-path="url(#clip010)" d="M 0 0 M2794.74 932.591 L2794.74 939.952 L2803.51 939.952 L2803.51 943.263 L2794.74 943.263 L2794.74 957.337 Q2794.74 960.508 2795.6 961.411 Q2796.48 962.313 2799.14 962.313 L2803.51 962.313 L2803.51 965.878 L2799.14 965.878 Q2794.21 965.878 2792.33 964.05 Q2790.46 962.198 2790.46 957.337 L2790.46 943.263 L2787.33 943.263 L2787.33 939.952 L2790.46 939.952 L2790.46 932.591 L2794.74 932.591 Z" fill="#000000" fill-rule="evenodd" fill-opacity="1" /><path clip-path="url(#clip010)" d="M 0 0 M2809.11 939.952 L2813.37 939.952 L2813.37 965.878 L2809.11 965.878 L2809.11 939.952 M2809.11 929.86 L2813.37 929.86 L2813.37 935.253 L2809.11 935.253 L2809.11 929.86 Z" fill="#000000" fill-rule="evenodd" fill-opacity="1" /><path clip-path="url(#clip010)" d="M 0 0 M2832.33 942.939 Q2828.91 942.939 2826.91 945.624 Q2824.92 948.286 2824.92 952.939 Q2824.92 957.591 2826.89 960.276 Q2828.88 962.938 2832.33 962.938 Q2835.73 962.938 2837.72 960.253 Q2839.72 957.568 2839.72 952.939 Q2839.72 948.332 2837.72 945.647 Q2835.73 942.939 2832.33 942.939 M2832.33 939.327 Q2837.89 939.327 2841.06 942.939 Q2844.23 946.55 2844.23 952.939 Q2844.23 959.304 2841.06 962.938 Q2837.89 966.55 2832.33 966.55 Q2826.75 966.55 2823.58 962.938 Q2820.43 959.304 2820.43 952.939 Q2820.43 946.55 2823.58 942.939 Q2826.75 939.327 2832.33 939.327 Z" fill="#000000" fill-rule="evenodd" fill-opacity="1" /><path clip-path="url(#clip010)" d="M 0 0 M2872.84 950.23 L2872.84 965.878 L2868.58 965.878 L2868.58 950.369 Q2868.58 946.689 2867.15 944.86 Q2865.71 943.031 2862.84 943.031 Q2859.39 943.031 2857.4 945.23 Q2855.41 947.429 2855.41 951.226 L2855.41 965.878 L2851.13 965.878 L2851.13 939.952 L2855.41 939.952 L2855.41 943.98 Q2856.94 941.642 2859 940.485 Q2861.08 939.327 2863.79 939.327 Q2868.26 939.327 2870.55 942.105 Q2872.84 944.86 2872.84 950.23 Z" fill="#000000" fill-rule="evenodd" fill-opacity="1" /><circle clip-path="url(#clip010)" cx="2397.34" cy="1009.08" r="23" fill="#ee3377" fill-rule="evenodd" fill-opacity="1" stroke="#000000" stroke-opacity="1" stroke-width="0"/>
<path clip-path="url(#clip010)" d="M 0 0 M2537.17 1003.42 Q2533.75 1003.42 2531.75 1006.1 Q2529.76 1008.77 2529.76 1013.42 Q2529.76 1018.07 2531.73 1020.76 Q2533.72 1023.42 2537.17 1023.42 Q2540.57 1023.42 2542.56 1020.73 Q2544.56 1018.05 2544.56 1013.42 Q2544.56 1008.81 2542.56 1006.13 Q2540.57 1003.42 2537.17 1003.42 M2537.17 999.807 Q2542.73 999.807 2545.9 1003.42 Q2549.07 1007.03 2549.07 1013.42 Q2549.07 1019.78 2545.9 1023.42 Q2542.73 1027.03 2537.17 1027.03 Q2531.59 1027.03 2528.42 1023.42 Q2525.27 1019.78 2525.27 1013.42 Q2525.27 1007.03 2528.42 1003.42 Q2531.59 999.807 2537.17 999.807 Z" fill="#000000" fill-rule="evenodd" fill-opacity="1" /><path clip-path="url(#clip010)" d="M 0 0 M2574.74 1013.42 Q2574.74 1008.72 2572.8 1006.06 Q2570.87 1003.37 2567.49 1003.37 Q2564.12 1003.37 2562.17 1006.06 Q2560.25 1008.72 2560.25 1013.42 Q2560.25 1018.12 2562.17 1020.8 Q2564.12 1023.46 2567.49 1023.46 Q2570.87 1023.46 2572.8 1020.8 Q2574.74 1018.12 2574.74 1013.42 M2560.25 1004.37 Q2561.59 1002.05 2563.63 1000.94 Q2565.69 999.807 2568.54 999.807 Q2573.26 999.807 2576.2 1003.56 Q2579.16 1007.31 2579.16 1013.42 Q2579.16 1019.53 2576.2 1023.28 Q2573.26 1027.03 2568.54 1027.03 Q2565.69 1027.03 2563.63 1025.92 Q2561.59 1024.78 2560.25 1022.47 L2560.25 1026.36 L2555.97 1026.36 L2555.97 990.34 L2560.25 990.34 L2560.25 1004.37 Z" fill="#000000" fill-rule="evenodd" fill-opacity="1" /><path clip-path="url(#clip010)" d="M 0 0 M2602.75 1001.2 L2602.75 1005.22 Q2600.94 1004.3 2599 1003.84 Q2597.05 1003.37 2594.97 1003.37 Q2591.8 1003.37 2590.2 1004.34 Q2588.63 1005.32 2588.63 1007.26 Q2588.63 1008.74 2589.76 1009.6 Q2590.9 1010.43 2594.32 1011.2 L2595.78 1011.52 Q2600.32 1012.49 2602.22 1014.27 Q2604.14 1016.03 2604.14 1019.21 Q2604.14 1022.82 2601.27 1024.92 Q2598.42 1027.03 2593.42 1027.03 Q2591.34 1027.03 2589.07 1026.61 Q2586.82 1026.22 2584.32 1025.41 L2584.32 1021.01 Q2586.68 1022.24 2588.98 1022.86 Q2591.27 1023.46 2593.51 1023.46 Q2596.52 1023.46 2598.14 1022.45 Q2599.76 1021.4 2599.76 1019.53 Q2599.76 1017.79 2598.58 1016.87 Q2597.43 1015.94 2593.47 1015.09 L2591.99 1014.74 Q2588.03 1013.9 2586.27 1012.19 Q2584.51 1010.46 2584.51 1007.45 Q2584.51 1003.79 2587.1 1001.8 Q2589.69 999.807 2594.46 999.807 Q2596.82 999.807 2598.91 1000.15 Q2600.99 1000.5 2602.75 1001.2 Z" fill="#000000" fill-rule="evenodd" fill-opacity="1" /><path clip-path="url(#clip010)" d="M 0 0 M2633.1 1012.33 L2633.1 1014.41 L2613.51 1014.41 Q2613.79 1018.81 2616.15 1021.13 Q2618.54 1023.42 2622.77 1023.42 Q2625.23 1023.42 2627.52 1022.82 Q2629.83 1022.21 2632.1 1021.01 L2632.1 1025.04 Q2629.81 1026.01 2627.4 1026.52 Q2624.99 1027.03 2622.52 1027.03 Q2616.31 1027.03 2612.68 1023.42 Q2609.07 1019.81 2609.07 1013.65 Q2609.07 1007.28 2612.49 1003.56 Q2615.94 999.807 2621.78 999.807 Q2627.01 999.807 2630.04 1003.19 Q2633.1 1006.54 2633.1 1012.33 M2628.84 1011.08 Q2628.79 1007.59 2626.87 1005.5 Q2624.97 1003.42 2621.82 1003.42 Q2618.26 1003.42 2616.11 1005.43 Q2613.98 1007.45 2613.65 1011.1 L2628.84 1011.08 Z" fill="#000000" fill-rule="evenodd" fill-opacity="1" /><path clip-path="url(#clip010)" d="M 0 0 M2655.11 1004.41 Q2654.39 1004 2653.54 1003.81 Q2652.7 1003.6 2651.68 1003.6 Q2648.07 1003.6 2646.13 1005.96 Q2644.21 1008.3 2644.21 1012.7 L2644.21 1026.36 L2639.93 1026.36 L2639.93 1000.43 L2644.21 1000.43 L2644.21 1004.46 Q2645.55 1002.1 2647.7 1000.96 Q2649.86 999.807 2652.93 999.807 Q2653.37 999.807 2653.91 999.877 Q2654.44 999.923 2655.09 1000.04 L2655.11 1004.41 Z" fill="#000000" fill-rule="evenodd" fill-opacity="1" /><path clip-path="url(#clip010)" d="M 0 0 M2656.52 1000.43 L2661.04 1000.43 L2669.14 1022.19 L2677.24 1000.43 L2681.75 1000.43 L2672.03 1026.36 L2666.24 1026.36 L2656.52 1000.43 Z" fill="#000000" fill-rule="evenodd" fill-opacity="1" /><path clip-path="url(#clip010)" d="M 0 0 M2699.42 1013.33 Q2694.25 1013.33 2692.26 1014.51 Q2690.27 1015.69 2690.27 1018.53 Q2690.27 1020.8 2691.75 1022.15 Q2693.26 1023.46 2695.83 1023.46 Q2699.37 1023.46 2701.5 1020.96 Q2703.65 1018.44 2703.65 1014.27 L2703.65 1013.33 L2699.42 1013.33 M2707.91 1011.57 L2707.91 1026.36 L2703.65 1026.36 L2703.65 1022.42 Q2702.19 1024.78 2700.02 1025.92 Q2697.84 1027.03 2694.69 1027.03 Q2690.71 1027.03 2688.35 1024.81 Q2686.01 1022.56 2686.01 1018.81 Q2686.01 1014.44 2688.93 1012.21 Q2691.87 1009.99 2697.68 1009.99 L2703.65 1009.99 L2703.65 1009.58 Q2703.65 1006.64 2701.71 1005.04 Q2699.79 1003.42 2696.29 1003.42 Q2694.07 1003.42 2691.96 1003.95 Q2689.86 1004.48 2687.91 1005.55 L2687.91 1001.61 Q2690.25 1000.71 2692.45 1000.27 Q2694.65 999.807 2696.73 999.807 Q2702.36 999.807 2705.13 1002.72 Q2707.91 1005.64 2707.91 1011.57 Z" fill="#000000" fill-rule="evenodd" fill-opacity="1" /><path clip-path="url(#clip010)" d="M 0 0 M2720.9 993.071 L2720.9 1000.43 L2729.67 1000.43 L2729.67 1003.74 L2720.9 1003.74 L2720.9 1017.82 Q2720.9 1020.99 2721.75 1021.89 Q2722.63 1022.79 2725.29 1022.79 L2729.67 1022.79 L2729.67 1026.36 L2725.29 1026.36 Q2720.36 1026.36 2718.49 1024.53 Q2716.61 1022.68 2716.61 1017.82 L2716.61 1003.74 L2713.49 1003.74 L2713.49 1000.43 L2716.61 1000.43 L2716.61 993.071 L2720.9 993.071 Z" fill="#000000" fill-rule="evenodd" fill-opacity="1" /><path clip-path="url(#clip010)" d="M 0 0 M2735.27 1000.43 L2739.53 1000.43 L2739.53 1026.36 L2735.27 1026.36 L2735.27 1000.43 M2735.27 990.34 L2739.53 990.34 L2739.53 995.733 L2735.27 995.733 L2735.27 990.34 Z" fill="#000000" fill-rule="evenodd" fill-opacity="1" /><path clip-path="url(#clip010)" d="M 0 0 M2758.49 1003.42 Q2755.06 1003.42 2753.07 1006.1 Q2751.08 1008.77 2751.08 1013.42 Q2751.08 1018.07 2753.05 1020.76 Q2755.04 1023.42 2758.49 1023.42 Q2761.89 1023.42 2763.88 1020.73 Q2765.87 1018.05 2765.87 1013.42 Q2765.87 1008.81 2763.88 1006.13 Q2761.89 1003.42 2758.49 1003.42 M2758.49 999.807 Q2764.04 999.807 2767.22 1003.42 Q2770.39 1007.03 2770.39 1013.42 Q2770.39 1019.78 2767.22 1023.42 Q2764.04 1027.03 2758.49 1027.03 Q2752.91 1027.03 2749.74 1023.42 Q2746.59 1019.78 2746.59 1013.42 Q2746.59 1007.03 2749.74 1003.42 Q2752.91 999.807 2758.49 999.807 Z" fill="#000000" fill-rule="evenodd" fill-opacity="1" /><path clip-path="url(#clip010)" d="M 0 0 M2799 1010.71 L2799 1026.36 L2794.74 1026.36 L2794.74 1010.85 Q2794.74 1007.17 2793.3 1005.34 Q2791.87 1003.51 2789 1003.51 Q2785.55 1003.51 2783.56 1005.71 Q2781.57 1007.91 2781.57 1011.71 L2781.57 1026.36 L2777.29 1026.36 L2777.29 1000.43 L2781.57 1000.43 L2781.57 1004.46 Q2783.1 1002.12 2785.16 1000.96 Q2787.24 999.807 2789.95 999.807 Q2794.41 999.807 2796.71 1002.59 Q2799 1005.34 2799 1010.71 Z" fill="#000000" fill-rule="evenodd" fill-opacity="1" /><path clip-path="url(#clip010)" d="M 0 0 M2824.02 1001.2 L2824.02 1005.22 Q2822.22 1004.3 2820.27 1003.84 Q2818.33 1003.37 2816.24 1003.37 Q2813.07 1003.37 2811.48 1004.34 Q2809.9 1005.32 2809.9 1007.26 Q2809.9 1008.74 2811.04 1009.6 Q2812.17 1010.43 2815.6 1011.2 L2817.05 1011.52 Q2821.59 1012.49 2823.49 1014.27 Q2825.41 1016.03 2825.41 1019.21 Q2825.41 1022.82 2822.54 1024.92 Q2819.69 1027.03 2814.69 1027.03 Q2812.61 1027.03 2810.34 1026.61 Q2808.1 1026.22 2805.6 1025.41 L2805.6 1021.01 Q2807.96 1022.24 2810.25 1022.86 Q2812.54 1023.46 2814.79 1023.46 Q2817.79 1023.46 2819.41 1022.45 Q2821.04 1021.4 2821.04 1019.53 Q2821.04 1017.79 2819.85 1016.87 Q2818.7 1015.94 2814.74 1015.09 L2813.26 1014.74 Q2809.3 1013.9 2807.54 1012.19 Q2805.78 1010.46 2805.78 1007.45 Q2805.78 1003.79 2808.37 1001.8 Q2810.97 999.807 2815.73 999.807 Q2818.1 999.807 2820.18 1000.15 Q2822.26 1000.5 2824.02 1001.2 Z" fill="#000000" fill-rule="evenodd" fill-opacity="1" /></svg>
