<?xml version="1.0" encoding="utf-8"?>
<svg xmlns="http://www.w3.org/2000/svg" xmlns:xlink="http://www.w3.org/1999/xlink" width="770" height="300" viewBox="0 0 3080 1200">
<defs>
  <clipPath id="clip270">
    <rect x="0" y="0" width="3080" height="1200"/>
  </clipPath>
</defs>
<path clip-path="url(#clip270)" d="
M0 1200 L3080 1200 L3080 0 L0 0  Z
  " fill="#ffffff" fill-rule="evenodd" fill-opacity="1"/>
<defs>
  <clipPath id="clip271">
    <rect x="616" y="0" width="2157" height="1200"/>
  </clipPath>
</defs>
<path clip-path="url(#clip270)" d="
M200.736 1104.81 L3032.76 1104.81 L3032.76 47.2441 L200.736 47.2441  Z
  " fill="#ffffff" fill-rule="evenodd" fill-opacity="1"/>
<defs>
  <clipPath id="clip272">
    <rect x="200" y="47" width="2833" height="1059"/>
  </clipPath>
</defs>
<polyline clip-path="url(#clip272)" style="stroke:#222255; stroke-width:2; stroke-opacity:0.1; fill:none" points="
  256.052,1104.81 256.052,47.2441 
  "/>
<polyline clip-path="url(#clip272)" style="stroke:#222255; stroke-width:2; stroke-opacity:0.1; fill:none" points="
  936.399,1104.81 936.399,47.2441 
  "/>
<polyline clip-path="url(#clip272)" style="stroke:#222255; stroke-width:2; stroke-opacity:0.1; fill:none" points="
  1616.75,1104.81 1616.75,47.2441 
  "/>
<polyline clip-path="url(#clip272)" style="stroke:#222255; stroke-width:2; stroke-opacity:0.1; fill:none" points="
  2297.09,1104.81 2297.09,47.2441 
  "/>
<polyline clip-path="url(#clip272)" style="stroke:#222255; stroke-width:2; stroke-opacity:0.1; fill:none" points="
  2977.44,1104.81 2977.44,47.2441 
  "/>
<polyline clip-path="url(#clip272)" style="stroke:#222255; stroke-width:2; stroke-opacity:0.05; fill:none" points="
  392.121,1104.81 392.121,47.2441 
  "/>
<polyline clip-path="url(#clip272)" style="stroke:#222255; stroke-width:2; stroke-opacity:0.05; fill:none" points="
  528.191,1104.81 528.191,47.2441 
  "/>
<polyline clip-path="url(#clip272)" style="stroke:#222255; stroke-width:2; stroke-opacity:0.05; fill:none" points="
  664.26,1104.81 664.26,47.2441 
  "/>
<polyline clip-path="url(#clip272)" style="stroke:#222255; stroke-width:2; stroke-opacity:0.05; fill:none" points="
  800.329,1104.81 800.329,47.2441 
  "/>
<polyline clip-path="url(#clip272)" style="stroke:#222255; stroke-width:2; stroke-opacity:0.05; fill:none" points="
  1072.47,1104.81 1072.47,47.2441 
  "/>
<polyline clip-path="url(#clip272)" style="stroke:#222255; stroke-width:2; stroke-opacity:0.05; fill:none" points="
  1208.54,1104.81 1208.54,47.2441 
  "/>
<polyline clip-path="url(#clip272)" style="stroke:#222255; stroke-width:2; stroke-opacity:0.05; fill:none" points="
  1344.61,1104.81 1344.61,47.2441 
  "/>
<polyline clip-path="url(#clip272)" style="stroke:#222255; stroke-width:2; stroke-opacity:0.05; fill:none" points="
  1480.68,1104.81 1480.68,47.2441 
  "/>
<polyline clip-path="url(#clip272)" style="stroke:#222255; stroke-width:2; stroke-opacity:0.05; fill:none" points="
  1752.82,1104.81 1752.82,47.2441 
  "/>
<polyline clip-path="url(#clip272)" style="stroke:#222255; stroke-width:2; stroke-opacity:0.05; fill:none" points="
  1888.88,1104.81 1888.88,47.2441 
  "/>
<polyline clip-path="url(#clip272)" style="stroke:#222255; stroke-width:2; stroke-opacity:0.05; fill:none" points="
  2024.95,1104.81 2024.95,47.2441 
  "/>
<polyline clip-path="url(#clip272)" style="stroke:#222255; stroke-width:2; stroke-opacity:0.05; fill:none" points="
  2161.02,1104.81 2161.02,47.2441 
  "/>
<polyline clip-path="url(#clip272)" style="stroke:#222255; stroke-width:2; stroke-opacity:0.05; fill:none" points="
  2433.16,1104.81 2433.16,47.2441 
  "/>
<polyline clip-path="url(#clip272)" style="stroke:#222255; stroke-width:2; stroke-opacity:0.05; fill:none" points="
  2569.23,1104.81 2569.23,47.2441 
  "/>
<polyline clip-path="url(#clip272)" style="stroke:#222255; stroke-width:2; stroke-opacity:0.05; fill:none" points="
  2705.3,1104.81 2705.3,47.2441 
  "/>
<polyline clip-path="url(#clip272)" style="stroke:#222255; stroke-width:2; stroke-opacity:0.05; fill:none" points="
  2841.37,1104.81 2841.37,47.2441 
  "/>
<polyline clip-path="url(#clip270)" style="stroke:#222255; stroke-width:4; stroke-opacity:0; fill:none" points="
  256.052,1104.81 256.052,1092.12 
  "/>
<polyline clip-path="url(#clip270)" style="stroke:#222255; stroke-width:4; stroke-opacity:0; fill:none" points="
  936.399,1104.81 936.399,1092.12 
  "/>
<polyline clip-path="url(#clip270)" style="stroke:#222255; stroke-width:4; stroke-opacity:0; fill:none" points="
  1616.75,1104.81 1616.75,1092.12 
  "/>
<polyline clip-path="url(#clip270)" style="stroke:#222255; stroke-width:4; stroke-opacity:0; fill:none" points="
  2297.09,1104.81 2297.09,1092.12 
  "/>
<polyline clip-path="url(#clip270)" style="stroke:#222255; stroke-width:4; stroke-opacity:0; fill:none" points="
  2977.44,1104.81 2977.44,1092.12 
  "/>
<polyline clip-path="url(#clip270)" style="stroke:#222255; stroke-width:4; stroke-opacity:0; fill:none" points="
  392.121,1104.81 392.121,1098.47 
  "/>
<polyline clip-path="url(#clip270)" style="stroke:#222255; stroke-width:4; stroke-opacity:0; fill:none" points="
  528.191,1104.81 528.191,1098.47 
  "/>
<polyline clip-path="url(#clip270)" style="stroke:#222255; stroke-width:4; stroke-opacity:0; fill:none" points="
  664.26,1104.81 664.26,1098.47 
  "/>
<polyline clip-path="url(#clip270)" style="stroke:#222255; stroke-width:4; stroke-opacity:0; fill:none" points="
  800.329,1104.81 800.329,1098.47 
  "/>
<polyline clip-path="url(#clip270)" style="stroke:#222255; stroke-width:4; stroke-opacity:0; fill:none" points="
  1072.47,1104.81 1072.47,1098.47 
  "/>
<polyline clip-path="url(#clip270)" style="stroke:#222255; stroke-width:4; stroke-opacity:0; fill:none" points="
  1208.54,1104.81 1208.54,1098.47 
  "/>
<polyline clip-path="url(#clip270)" style="stroke:#222255; stroke-width:4; stroke-opacity:0; fill:none" points="
  1344.61,1104.81 1344.61,1098.47 
  "/>
<polyline clip-path="url(#clip270)" style="stroke:#222255; stroke-width:4; stroke-opacity:0; fill:none" points="
  1480.68,1104.81 1480.68,1098.47 
  "/>
<polyline clip-path="url(#clip270)" style="stroke:#222255; stroke-width:4; stroke-opacity:0; fill:none" points="
  1752.82,1104.81 1752.82,1098.47 
  "/>
<polyline clip-path="url(#clip270)" style="stroke:#222255; stroke-width:4; stroke-opacity:0; fill:none" points="
  1888.88,1104.81 1888.88,1098.47 
  "/>
<polyline clip-path="url(#clip270)" style="stroke:#222255; stroke-width:4; stroke-opacity:0; fill:none" points="
  2024.95,1104.81 2024.95,1098.47 
  "/>
<polyline clip-path="url(#clip270)" style="stroke:#222255; stroke-width:4; stroke-opacity:0; fill:none" points="
  2161.02,1104.81 2161.02,1098.47 
  "/>
<polyline clip-path="url(#clip270)" style="stroke:#222255; stroke-width:4; stroke-opacity:0; fill:none" points="
  2433.16,1104.81 2433.16,1098.47 
  "/>
<polyline clip-path="url(#clip270)" style="stroke:#222255; stroke-width:4; stroke-opacity:0; fill:none" points="
  2569.23,1104.81 2569.23,1098.47 
  "/>
<polyline clip-path="url(#clip270)" style="stroke:#222255; stroke-width:4; stroke-opacity:0; fill:none" points="
  2705.3,1104.81 2705.3,1098.47 
  "/>
<polyline clip-path="url(#clip270)" style="stroke:#222255; stroke-width:4; stroke-opacity:0; fill:none" points="
  2841.37,1104.81 2841.37,1098.47 
  "/>
<path clip-path="url(#clip270)" d="M 0 0 M224.952 1154.09 L254.628 1154.09 L254.628 1158.03 L224.952 1158.03 L224.952 1154.09 Z" fill="#000000" fill-rule="evenodd" fill-opacity="1" /><path clip-path="url(#clip270)" d="M 0 0 M277.568 1140.44 L265.762 1158.89 L277.568 1158.89 L277.568 1140.44 M276.341 1136.36 L282.221 1136.36 L282.221 1158.89 L287.151 1158.89 L287.151 1162.77 L282.221 1162.77 L282.221 1170.92 L277.568 1170.92 L277.568 1162.77 L261.966 1162.77 L261.966 1158.26 L276.341 1136.36 Z" fill="#000000" fill-rule="evenodd" fill-opacity="1" /><path clip-path="url(#clip270)" d="M 0 0 M906.341 1154.09 L936.017 1154.09 L936.017 1158.03 L906.341 1158.03 L906.341 1154.09 Z" fill="#000000" fill-rule="evenodd" fill-opacity="1" /><path clip-path="url(#clip270)" d="M 0 0 M950.137 1166.99 L966.457 1166.99 L966.457 1170.92 L944.512 1170.92 L944.512 1166.99 Q947.174 1164.23 951.758 1159.6 Q956.364 1154.95 957.545 1153.61 Q959.79 1151.08 960.67 1149.35 Q961.572 1147.59 961.572 1145.9 Q961.572 1143.14 959.628 1141.41 Q957.707 1139.67 954.605 1139.67 Q952.406 1139.67 949.952 1140.44 Q947.521 1141.2 944.744 1142.75 L944.744 1138.03 Q947.568 1136.89 950.021 1136.32 Q952.475 1135.74 954.512 1135.74 Q959.883 1135.74 963.077 1138.42 Q966.271 1141.11 966.271 1145.6 Q966.271 1147.73 965.461 1149.65 Q964.674 1151.55 962.568 1154.14 Q961.989 1154.81 958.887 1158.03 Q955.785 1161.22 950.137 1166.99 Z" fill="#000000" fill-rule="evenodd" fill-opacity="1" /><path clip-path="url(#clip270)" d="M 0 0 M1616.75 1139.44 Q1613.13 1139.44 1611.31 1143.01 Q1609.5 1146.55 1609.5 1153.68 Q1609.5 1160.78 1611.31 1164.35 Q1613.13 1167.89 1616.75 1167.89 Q1620.38 1167.89 1622.19 1164.35 Q1624.01 1160.78 1624.01 1153.68 Q1624.01 1146.55 1622.19 1143.01 Q1620.38 1139.44 1616.75 1139.44 M1616.75 1135.74 Q1622.56 1135.74 1625.61 1140.34 Q1628.69 1144.93 1628.69 1153.68 Q1628.69 1162.4 1625.61 1167.01 Q1622.56 1171.59 1616.75 1171.59 Q1610.94 1171.59 1607.86 1167.01 Q1604.8 1162.4 1604.8 1153.68 Q1604.8 1144.93 1607.86 1140.34 Q1610.94 1135.74 1616.75 1135.74 Z" fill="#000000" fill-rule="evenodd" fill-opacity="1" /><path clip-path="url(#clip270)" d="M 0 0 M2291.75 1166.99 L2308.07 1166.99 L2308.07 1170.92 L2286.12 1170.92 L2286.12 1166.99 Q2288.78 1164.23 2293.37 1159.6 Q2297.97 1154.95 2299.15 1153.61 Q2301.4 1151.08 2302.28 1149.35 Q2303.18 1147.59 2303.18 1145.9 Q2303.18 1143.14 2301.24 1141.41 Q2299.32 1139.67 2296.21 1139.67 Q2294.01 1139.67 2291.56 1140.44 Q2289.13 1141.2 2286.35 1142.75 L2286.35 1138.03 Q2289.18 1136.89 2291.63 1136.32 Q2294.08 1135.74 2296.12 1135.74 Q2301.49 1135.74 2304.69 1138.42 Q2307.88 1141.11 2307.88 1145.6 Q2307.88 1147.73 2307.07 1149.65 Q2306.28 1151.55 2304.18 1154.14 Q2303.6 1154.81 2300.5 1158.03 Q2297.39 1161.22 2291.75 1166.99 Z" fill="#000000" fill-rule="evenodd" fill-opacity="1" /><path clip-path="url(#clip270)" d="M 0 0 M2980.45 1140.44 L2968.64 1158.89 L2980.45 1158.89 L2980.45 1140.44 M2979.22 1136.36 L2985.1 1136.36 L2985.1 1158.89 L2990.03 1158.89 L2990.03 1162.77 L2985.1 1162.77 L2985.1 1170.92 L2980.45 1170.92 L2980.45 1162.77 L2964.85 1162.77 L2964.85 1158.26 L2979.22 1136.36 Z" fill="#000000" fill-rule="evenodd" fill-opacity="1" /><polyline clip-path="url(#clip272)" style="stroke:#222255; stroke-width:2; stroke-opacity:0.1; fill:none" points="
  200.736,993.879 3032.76,993.879 
  "/>
<polyline clip-path="url(#clip272)" style="stroke:#222255; stroke-width:2; stroke-opacity:0.1; fill:none" points="
  200.736,782.6 3032.76,782.6 
  "/>
<polyline clip-path="url(#clip272)" style="stroke:#222255; stroke-width:2; stroke-opacity:0.1; fill:none" points="
  200.736,571.321 3032.76,571.321 
  "/>
<polyline clip-path="url(#clip272)" style="stroke:#222255; stroke-width:2; stroke-opacity:0.1; fill:none" points="
  200.736,360.042 3032.76,360.042 
  "/>
<polyline clip-path="url(#clip272)" style="stroke:#222255; stroke-width:2; stroke-opacity:0.1; fill:none" points="
  200.736,148.763 3032.76,148.763 
  "/>
<polyline clip-path="url(#clip272)" style="stroke:#222255; stroke-width:2; stroke-opacity:0.05; fill:none" points="
  200.736,1078.39 3032.76,1078.39 
  "/>
<polyline clip-path="url(#clip272)" style="stroke:#222255; stroke-width:2; stroke-opacity:0.05; fill:none" points="
  200.736,1036.13 3032.76,1036.13 
  "/>
<polyline clip-path="url(#clip272)" style="stroke:#222255; stroke-width:2; stroke-opacity:0.05; fill:none" points="
  200.736,951.623 3032.76,951.623 
  "/>
<polyline clip-path="url(#clip272)" style="stroke:#222255; stroke-width:2; stroke-opacity:0.05; fill:none" points="
  200.736,909.367 3032.76,909.367 
  "/>
<polyline clip-path="url(#clip272)" style="stroke:#222255; stroke-width:2; stroke-opacity:0.05; fill:none" points="
  200.736,867.111 3032.76,867.111 
  "/>
<polyline clip-path="url(#clip272)" style="stroke:#222255; stroke-width:2; stroke-opacity:0.05; fill:none" points="
  200.736,824.856 3032.76,824.856 
  "/>
<polyline clip-path="url(#clip272)" style="stroke:#222255; stroke-width:2; stroke-opacity:0.05; fill:none" points="
  200.736,740.344 3032.76,740.344 
  "/>
<polyline clip-path="url(#clip272)" style="stroke:#222255; stroke-width:2; stroke-opacity:0.05; fill:none" points="
  200.736,698.088 3032.76,698.088 
  "/>
<polyline clip-path="url(#clip272)" style="stroke:#222255; stroke-width:2; stroke-opacity:0.05; fill:none" points="
  200.736,655.832 3032.76,655.832 
  "/>
<polyline clip-path="url(#clip272)" style="stroke:#222255; stroke-width:2; stroke-opacity:0.05; fill:none" points="
  200.736,613.577 3032.76,613.577 
  "/>
<polyline clip-path="url(#clip272)" style="stroke:#222255; stroke-width:2; stroke-opacity:0.05; fill:none" points="
  200.736,529.065 3032.76,529.065 
  "/>
<polyline clip-path="url(#clip272)" style="stroke:#222255; stroke-width:2; stroke-opacity:0.05; fill:none" points="
  200.736,486.809 3032.76,486.809 
  "/>
<polyline clip-path="url(#clip272)" style="stroke:#222255; stroke-width:2; stroke-opacity:0.05; fill:none" points="
  200.736,444.554 3032.76,444.554 
  "/>
<polyline clip-path="url(#clip272)" style="stroke:#222255; stroke-width:2; stroke-opacity:0.05; fill:none" points="
  200.736,402.298 3032.76,402.298 
  "/>
<polyline clip-path="url(#clip272)" style="stroke:#222255; stroke-width:2; stroke-opacity:0.05; fill:none" points="
  200.736,317.786 3032.76,317.786 
  "/>
<polyline clip-path="url(#clip272)" style="stroke:#222255; stroke-width:2; stroke-opacity:0.05; fill:none" points="
  200.736,275.53 3032.76,275.53 
  "/>
<polyline clip-path="url(#clip272)" style="stroke:#222255; stroke-width:2; stroke-opacity:0.05; fill:none" points="
  200.736,233.275 3032.76,233.275 
  "/>
<polyline clip-path="url(#clip272)" style="stroke:#222255; stroke-width:2; stroke-opacity:0.05; fill:none" points="
  200.736,191.019 3032.76,191.019 
  "/>
<polyline clip-path="url(#clip272)" style="stroke:#222255; stroke-width:2; stroke-opacity:0.05; fill:none" points="
  200.736,106.507 3032.76,106.507 
  "/>
<polyline clip-path="url(#clip272)" style="stroke:#222255; stroke-width:2; stroke-opacity:0.05; fill:none" points="
  200.736,64.2516 3032.76,64.2516 
  "/>
<polyline clip-path="url(#clip270)" style="stroke:#222255; stroke-width:4; stroke-opacity:0; fill:none" points="
  200.736,993.879 234.72,993.879 
  "/>
<polyline clip-path="url(#clip270)" style="stroke:#222255; stroke-width:4; stroke-opacity:0; fill:none" points="
  200.736,782.6 234.72,782.6 
  "/>
<polyline clip-path="url(#clip270)" style="stroke:#222255; stroke-width:4; stroke-opacity:0; fill:none" points="
  200.736,571.321 234.72,571.321 
  "/>
<polyline clip-path="url(#clip270)" style="stroke:#222255; stroke-width:4; stroke-opacity:0; fill:none" points="
  200.736,360.042 234.72,360.042 
  "/>
<polyline clip-path="url(#clip270)" style="stroke:#222255; stroke-width:4; stroke-opacity:0; fill:none" points="
  200.736,148.763 234.72,148.763 
  "/>
<polyline clip-path="url(#clip270)" style="stroke:#222255; stroke-width:4; stroke-opacity:0; fill:none" points="
  200.736,1078.39 217.728,1078.39 
  "/>
<polyline clip-path="url(#clip270)" style="stroke:#222255; stroke-width:4; stroke-opacity:0; fill:none" points="
  200.736,1036.13 217.728,1036.13 
  "/>
<polyline clip-path="url(#clip270)" style="stroke:#222255; stroke-width:4; stroke-opacity:0; fill:none" points="
  200.736,951.623 217.728,951.623 
  "/>
<polyline clip-path="url(#clip270)" style="stroke:#222255; stroke-width:4; stroke-opacity:0; fill:none" points="
  200.736,909.367 217.728,909.367 
  "/>
<polyline clip-path="url(#clip270)" style="stroke:#222255; stroke-width:4; stroke-opacity:0; fill:none" points="
  200.736,867.111 217.728,867.111 
  "/>
<polyline clip-path="url(#clip270)" style="stroke:#222255; stroke-width:4; stroke-opacity:0; fill:none" points="
  200.736,824.856 217.728,824.856 
  "/>
<polyline clip-path="url(#clip270)" style="stroke:#222255; stroke-width:4; stroke-opacity:0; fill:none" points="
  200.736,740.344 217.728,740.344 
  "/>
<polyline clip-path="url(#clip270)" style="stroke:#222255; stroke-width:4; stroke-opacity:0; fill:none" points="
  200.736,698.088 217.728,698.088 
  "/>
<polyline clip-path="url(#clip270)" style="stroke:#222255; stroke-width:4; stroke-opacity:0; fill:none" points="
  200.736,655.832 217.728,655.832 
  "/>
<polyline clip-path="url(#clip270)" style="stroke:#222255; stroke-width:4; stroke-opacity:0; fill:none" points="
  200.736,613.577 217.728,613.577 
  "/>
<polyline clip-path="url(#clip270)" style="stroke:#222255; stroke-width:4; stroke-opacity:0; fill:none" points="
  200.736,529.065 217.728,529.065 
  "/>
<polyline clip-path="url(#clip270)" style="stroke:#222255; stroke-width:4; stroke-opacity:0; fill:none" points="
  200.736,486.809 217.728,486.809 
  "/>
<polyline clip-path="url(#clip270)" style="stroke:#222255; stroke-width:4; stroke-opacity:0; fill:none" points="
  200.736,444.554 217.728,444.554 
  "/>
<polyline clip-path="url(#clip270)" style="stroke:#222255; stroke-width:4; stroke-opacity:0; fill:none" points="
  200.736,402.298 217.728,402.298 
  "/>
<polyline clip-path="url(#clip270)" style="stroke:#222255; stroke-width:4; stroke-opacity:0; fill:none" points="
  200.736,317.786 217.728,317.786 
  "/>
<polyline clip-path="url(#clip270)" style="stroke:#222255; stroke-width:4; stroke-opacity:0; fill:none" points="
  200.736,275.53 217.728,275.53 
  "/>
<polyline clip-path="url(#clip270)" style="stroke:#222255; stroke-width:4; stroke-opacity:0; fill:none" points="
  200.736,233.275 217.728,233.275 
  "/>
<polyline clip-path="url(#clip270)" style="stroke:#222255; stroke-width:4; stroke-opacity:0; fill:none" points="
  200.736,191.019 217.728,191.019 
  "/>
<polyline clip-path="url(#clip270)" style="stroke:#222255; stroke-width:4; stroke-opacity:0; fill:none" points="
  200.736,106.507 217.728,106.507 
  "/>
<polyline clip-path="url(#clip270)" style="stroke:#222255; stroke-width:4; stroke-opacity:0; fill:none" points="
  200.736,64.2516 217.728,64.2516 
  "/>
<path clip-path="url(#clip270)" d="M 0 0 M47.5921 994.33 L77.2679 994.33 L77.2679 998.265 L47.5921 998.265 L47.5921 994.33 Z" fill="#000000" fill-rule="evenodd" fill-opacity="1" /><path clip-path="url(#clip270)" d="M 0 0 M88.1706 1007.22 L95.8095 1007.22 L95.8095 980.858 L87.4993 982.524 L87.4993 978.265 L95.7632 976.599 L100.439 976.599 L100.439 1007.22 L108.078 1007.22 L108.078 1011.16 L88.1706 1011.16 L88.1706 1007.22 Z" fill="#000000" fill-rule="evenodd" fill-opacity="1" /><path clip-path="url(#clip270)" d="M 0 0 M117.522 1005.28 L122.407 1005.28 L122.407 1011.16 L117.522 1011.16 L117.522 1005.28 Z" fill="#000000" fill-rule="evenodd" fill-opacity="1" /><path clip-path="url(#clip270)" d="M 0 0 M142.592 979.677 Q138.981 979.677 137.152 983.242 Q135.346 986.784 135.346 993.913 Q135.346 1001.02 137.152 1004.58 Q138.981 1008.13 142.592 1008.13 Q146.226 1008.13 148.031 1004.58 Q149.86 1001.02 149.86 993.913 Q149.86 986.784 148.031 983.242 Q146.226 979.677 142.592 979.677 M142.592 975.974 Q148.402 975.974 151.457 980.58 Q154.536 985.163 154.536 993.913 Q154.536 1002.64 151.457 1007.25 Q148.402 1011.83 142.592 1011.83 Q136.781 1011.83 133.703 1007.25 Q130.647 1002.64 130.647 993.913 Q130.647 985.163 133.703 980.58 Q136.781 975.974 142.592 975.974 Z" fill="#000000" fill-rule="evenodd" fill-opacity="1" /><path clip-path="url(#clip270)" d="M 0 0 M48.5875 783.051 L78.2633 783.051 L78.2633 786.986 L48.5875 786.986 L48.5875 783.051 Z" fill="#000000" fill-rule="evenodd" fill-opacity="1" /><path clip-path="url(#clip270)" d="M 0 0 M98.3557 768.398 Q94.7447 768.398 92.916 771.963 Q91.1104 775.505 91.1104 782.634 Q91.1104 789.741 92.916 793.306 Q94.7447 796.847 98.3557 796.847 Q101.99 796.847 103.796 793.306 Q105.624 789.741 105.624 782.634 Q105.624 775.505 103.796 771.963 Q101.99 768.398 98.3557 768.398 M98.3557 764.695 Q104.166 764.695 107.221 769.301 Q110.3 773.884 110.3 782.634 Q110.3 791.361 107.221 795.968 Q104.166 800.551 98.3557 800.551 Q92.5456 800.551 89.4669 795.968 Q86.4114 791.361 86.4114 782.634 Q86.4114 773.884 89.4669 769.301 Q92.5456 764.695 98.3557 764.695 Z" fill="#000000" fill-rule="evenodd" fill-opacity="1" /><path clip-path="url(#clip270)" d="M 0 0 M118.518 794 L123.402 794 L123.402 799.88 L118.518 799.88 L118.518 794 Z" fill="#000000" fill-rule="evenodd" fill-opacity="1" /><path clip-path="url(#clip270)" d="M 0 0 M133.633 765.32 L151.99 765.32 L151.99 769.255 L137.916 769.255 L137.916 777.727 Q138.934 777.38 139.953 777.218 Q140.971 777.033 141.99 777.033 Q147.777 777.033 151.156 780.204 Q154.536 783.375 154.536 788.792 Q154.536 794.37 151.064 797.472 Q147.592 800.551 141.272 800.551 Q139.096 800.551 136.828 800.181 Q134.582 799.81 132.175 799.07 L132.175 794.37 Q134.258 795.505 136.481 796.06 Q138.703 796.616 141.18 796.616 Q145.184 796.616 147.522 794.509 Q149.86 792.403 149.86 788.792 Q149.86 785.181 147.522 783.074 Q145.184 780.968 141.18 780.968 Q139.305 780.968 137.43 781.384 Q135.578 781.801 133.633 782.681 L133.633 765.32 Z" fill="#000000" fill-rule="evenodd" fill-opacity="1" /><path clip-path="url(#clip270)" d="M 0 0 M97.3604 557.12 Q93.7493 557.12 91.9206 560.684 Q90.115 564.226 90.115 571.356 Q90.115 578.462 91.9206 582.027 Q93.7493 585.568 97.3604 585.568 Q100.995 585.568 102.8 582.027 Q104.629 578.462 104.629 571.356 Q104.629 564.226 102.8 560.684 Q100.995 557.12 97.3604 557.12 M97.3604 553.416 Q103.171 553.416 106.226 558.022 Q109.305 562.606 109.305 571.356 Q109.305 580.082 106.226 584.689 Q103.171 589.272 97.3604 589.272 Q91.5502 589.272 88.4715 584.689 Q85.416 580.082 85.416 571.356 Q85.416 562.606 88.4715 558.022 Q91.5502 553.416 97.3604 553.416 Z" fill="#000000" fill-rule="evenodd" fill-opacity="1" /><path clip-path="url(#clip270)" d="M 0 0 M117.522 582.721 L122.407 582.721 L122.407 588.601 L117.522 588.601 L117.522 582.721 Z" fill="#000000" fill-rule="evenodd" fill-opacity="1" /><path clip-path="url(#clip270)" d="M 0 0 M142.592 557.12 Q138.981 557.12 137.152 560.684 Q135.346 564.226 135.346 571.356 Q135.346 578.462 137.152 582.027 Q138.981 585.568 142.592 585.568 Q146.226 585.568 148.031 582.027 Q149.86 578.462 149.86 571.356 Q149.86 564.226 148.031 560.684 Q146.226 557.12 142.592 557.12 M142.592 553.416 Q148.402 553.416 151.457 558.022 Q154.536 562.606 154.536 571.356 Q154.536 580.082 151.457 584.689 Q148.402 589.272 142.592 589.272 Q136.781 589.272 133.703 584.689 Q130.647 580.082 130.647 571.356 Q130.647 562.606 133.703 558.022 Q136.781 553.416 142.592 553.416 Z" fill="#000000" fill-rule="evenodd" fill-opacity="1" /><path clip-path="url(#clip270)" d="M 0 0 M98.3557 345.841 Q94.7447 345.841 92.916 349.405 Q91.1104 352.947 91.1104 360.077 Q91.1104 367.183 92.916 370.748 Q94.7447 374.29 98.3557 374.29 Q101.99 374.29 103.796 370.748 Q105.624 367.183 105.624 360.077 Q105.624 352.947 103.796 349.405 Q101.99 345.841 98.3557 345.841 M98.3557 342.137 Q104.166 342.137 107.221 346.743 Q110.3 351.327 110.3 360.077 Q110.3 368.804 107.221 373.41 Q104.166 377.993 98.3557 377.993 Q92.5456 377.993 89.4669 373.41 Q86.4114 368.804 86.4114 360.077 Q86.4114 351.327 89.4669 346.743 Q92.5456 342.137 98.3557 342.137 Z" fill="#000000" fill-rule="evenodd" fill-opacity="1" /><path clip-path="url(#clip270)" d="M 0 0 M118.518 371.442 L123.402 371.442 L123.402 377.322 L118.518 377.322 L118.518 371.442 Z" fill="#000000" fill-rule="evenodd" fill-opacity="1" /><path clip-path="url(#clip270)" d="M 0 0 M133.633 342.762 L151.99 342.762 L151.99 346.697 L137.916 346.697 L137.916 355.169 Q138.934 354.822 139.953 354.66 Q140.971 354.475 141.99 354.475 Q147.777 354.475 151.156 357.646 Q154.536 360.817 154.536 366.234 Q154.536 371.813 151.064 374.915 Q147.592 377.993 141.272 377.993 Q139.096 377.993 136.828 377.623 Q134.582 377.253 132.175 376.512 L132.175 371.813 Q134.258 372.947 136.481 373.503 Q138.703 374.058 141.18 374.058 Q145.184 374.058 147.522 371.952 Q149.86 369.845 149.86 366.234 Q149.86 362.623 147.522 360.517 Q145.184 358.41 141.18 358.41 Q139.305 358.41 137.43 358.827 Q135.578 359.243 133.633 360.123 L133.633 342.762 Z" fill="#000000" fill-rule="evenodd" fill-opacity="1" /><path clip-path="url(#clip270)" d="M 0 0 M88.1706 162.108 L95.8095 162.108 L95.8095 135.742 L87.4993 137.409 L87.4993 133.15 L95.7632 131.483 L100.439 131.483 L100.439 162.108 L108.078 162.108 L108.078 166.043 L88.1706 166.043 L88.1706 162.108 Z" fill="#000000" fill-rule="evenodd" fill-opacity="1" /><path clip-path="url(#clip270)" d="M 0 0 M117.522 160.164 L122.407 160.164 L122.407 166.043 L117.522 166.043 L117.522 160.164 Z" fill="#000000" fill-rule="evenodd" fill-opacity="1" /><path clip-path="url(#clip270)" d="M 0 0 M142.592 134.562 Q138.981 134.562 137.152 138.127 Q135.346 141.668 135.346 148.798 Q135.346 155.904 137.152 159.469 Q138.981 163.011 142.592 163.011 Q146.226 163.011 148.031 159.469 Q149.86 155.904 149.86 148.798 Q149.86 141.668 148.031 138.127 Q146.226 134.562 142.592 134.562 M142.592 130.858 Q148.402 130.858 151.457 135.465 Q154.536 140.048 154.536 148.798 Q154.536 157.525 151.457 162.131 Q148.402 166.714 142.592 166.714 Q136.781 166.714 133.703 162.131 Q130.647 157.525 130.647 148.798 Q130.647 140.048 133.703 135.465 Q136.781 130.858 142.592 130.858 Z" fill="#000000" fill-rule="evenodd" fill-opacity="1" /><polyline clip-path="url(#clip272)" style="stroke:#ee7733; stroke-width:8; stroke-opacity:1; fill:none" points="
  280.888,433.594 307.875,453.392 334.862,473.189 361.849,492.987 388.836,512.784 415.823,532.582 442.81,552.38 469.797,572.177 496.784,591.975 523.771,611.773 
  550.758,631.57 577.745,651.368 604.732,671.165 631.719,690.963 658.706,710.761 685.693,730.558 712.68,750.356 739.667,770.154 766.654,789.951 793.641,809.749 
  820.628,829.546 847.615,849.344 874.602,869.142 901.589,888.939 928.576,908.737 955.563,928.535 982.551,943.651 1009.54,950.873 1036.52,957.448 1063.51,963.69 
  1090.5,969.864 1117.49,976.038 1144.47,982.212 1171.46,988.347 1198.45,994.401 1225.43,982.535 1252.42,959.997 1279.41,936.684 1306.39,911.897 1333.38,885.944 
  1360.37,859.259 1387.36,831.963 1414.34,803.888 1441.33,775.15 1468.32,745.954 1495.3,716.476 1522.29,686.003 1549.28,654.793 1576.27,623.124 1603.25,591.262 
  1630.24,559.347 1657.23,527.631 1684.21,496.355 1711.2,465.298 1738.19,434.586 1765.17,404.257 1792.16,375.618 1819.15,347.874 1846.14,320.554 1873.12,294.104 
  1900.11,268.507 1927.1,243.331 1954.08,218.96 1981.07,195.491 2008.06,172.655 2035.05,152.482 2062.03,150.487 2089.02,152.497 2116.01,154.756 2142.99,157.125 
  2169.98,160.168 2196.97,165.595 2223.95,180.485 2250.94,197.442 2277.93,214.4 2304.92,231.357 2331.9,248.314 2358.89,265.272 2385.88,282.229 2412.86,299.186 
  2439.85,316.144 2466.84,333.101 2493.82,350.059 2520.81,367.016 2547.8,383.973 2574.79,400.931 2601.77,417.888 2628.76,434.845 2655.75,451.803 2682.73,468.76 
  2709.72,485.718 2736.71,502.675 2763.7,519.632 2790.68,536.59 2817.67,553.545 2844.66,570.5 2871.64,587.456 2898.63,604.414 2925.62,621.373 2952.6,638.331 
  
  "/>
<polyline clip-path="url(#clip272)" style="stroke:#0077bb; stroke-width:4.8; stroke-opacity:1; fill:none" points="
  280.888,272.527 307.875,297.147 334.862,323.49 361.849,351.393 388.836,380.679 415.823,411.165 442.81,442.658 469.797,474.96 496.784,507.868 523.771,541.176 
  550.758,574.673 577.745,608.149 604.732,641.394 631.719,674.197 658.706,706.354 685.693,737.661 712.68,767.922 739.667,796.946 766.654,824.55 793.641,850.562 
  820.628,874.817 847.615,897.163 874.602,917.46 901.589,935.579 928.576,951.407 955.563,964.843 982.551,975.805 1009.54,984.222 1036.52,990.041 1063.51,993.227 
  1090.5,993.759 1117.49,991.633 1144.47,986.864 1171.46,979.48 1198.45,969.529 1225.43,957.073 1252.42,942.191 1279.41,924.975 1306.39,905.535 1333.38,883.993 
  1360.37,860.484 1387.36,835.156 1414.34,808.168 1441.33,779.69 1468.32,749.901 1495.3,718.99 1522.29,687.149 1549.28,654.58 1576.27,621.487 1603.25,588.078 
  1630.24,554.564 1657.23,521.155 1684.21,488.062 1711.2,455.493 1738.19,423.652 1765.17,392.74 1792.16,362.952 1819.15,334.474 1846.14,307.486 1873.12,282.158 
  1900.11,258.649 1927.1,237.106 1954.08,217.666 1981.07,200.451 2008.06,185.568 2035.05,173.112 2062.03,163.161 2089.02,155.778 2116.01,151.008 2142.99,148.883 
  2169.98,149.415 2196.97,152.6 2223.95,158.42 2250.94,166.837 2277.93,177.798 2304.92,191.235 2331.9,207.063 2358.89,225.182 2385.88,245.478 2412.86,267.824 
  2439.85,292.08 2466.84,318.091 2493.82,345.696 2520.81,374.72 2547.8,404.981 2574.79,436.288 2601.77,468.444 2628.76,501.248 2655.75,534.493 2682.73,567.969 
  2709.72,601.466 2736.71,634.773 2763.7,667.682 2790.68,699.984 2817.67,731.477 2844.66,761.962 2871.64,791.249 2898.63,819.151 2925.62,845.495 2952.6,870.114 
  
  "/>
<circle clip-path="url(#clip272)" cx="1482.13" cy="710.034" r="21" fill="#ee3377" fill-rule="evenodd" fill-opacity="1" stroke="#000000" stroke-opacity="1" stroke-width="0"/>
<circle clip-path="url(#clip272)" cx="1194.24" cy="966.241" r="21" fill="#ee3377" fill-rule="evenodd" fill-opacity="1" stroke="#000000" stroke-opacity="1" stroke-width="0"/>
<circle clip-path="url(#clip272)" cx="1444.85" cy="780.74" r="21" fill="#ee3377" fill-rule="evenodd" fill-opacity="1" stroke="#000000" stroke-opacity="1" stroke-width="0"/>
<circle clip-path="url(#clip272)" cx="1101.41" cy="975.148" r="21" fill="#ee3377" fill-rule="evenodd" fill-opacity="1" stroke="#000000" stroke-opacity="1" stroke-width="0"/>
<circle clip-path="url(#clip272)" cx="1141.33" cy="968.588" r="21" fill="#ee3377" fill-rule="evenodd" fill-opacity="1" stroke="#000000" stroke-opacity="1" stroke-width="0"/>
<circle clip-path="url(#clip272)" cx="2171.77" cy="155.216" r="21" fill="#ee3377" fill-rule="evenodd" fill-opacity="1" stroke="#000000" stroke-opacity="1" stroke-width="0"/>
<circle clip-path="url(#clip272)" cx="913.595" cy="906.714" r="21" fill="#ee3377" fill-rule="evenodd" fill-opacity="1" stroke="#000000" stroke-opacity="1" stroke-width="0"/>
<circle clip-path="url(#clip272)" cx="1687.62" cy="471.679" r="21" fill="#ee3377" fill-rule="evenodd" fill-opacity="1" stroke="#000000" stroke-opacity="1" stroke-width="0"/>
<circle clip-path="url(#clip272)" cx="1449.89" cy="724.266" r="21" fill="#ee3377" fill-rule="evenodd" fill-opacity="1" stroke="#000000" stroke-opacity="1" stroke-width="0"/>
<circle clip-path="url(#clip272)" cx="2508.69" cy="404.242" r="21" fill="#ee3377" fill-rule="evenodd" fill-opacity="1" stroke="#000000" stroke-opacity="1" stroke-width="0"/>
<circle clip-path="url(#clip272)" cx="1385.86" cy="798.011" r="21" fill="#ee3377" fill-rule="evenodd" fill-opacity="1" stroke="#000000" stroke-opacity="1" stroke-width="0"/>
<circle clip-path="url(#clip272)" cx="740.378" cy="804.305" r="21" fill="#ee3377" fill-rule="evenodd" fill-opacity="1" stroke="#000000" stroke-opacity="1" stroke-width="0"/>
<circle clip-path="url(#clip272)" cx="2136.71" cy="142.325" r="21" fill="#ee3377" fill-rule="evenodd" fill-opacity="1" stroke="#000000" stroke-opacity="1" stroke-width="0"/>
<circle clip-path="url(#clip272)" cx="953.952" cy="994.563" r="21" fill="#ee3377" fill-rule="evenodd" fill-opacity="1" stroke="#000000" stroke-opacity="1" stroke-width="0"/>
<circle clip-path="url(#clip272)" cx="1319.61" cy="921.554" r="21" fill="#ee3377" fill-rule="evenodd" fill-opacity="1" stroke="#000000" stroke-opacity="1" stroke-width="0"/>
<circle clip-path="url(#clip272)" cx="675.007" cy="729.881" r="21" fill="#ee3377" fill-rule="evenodd" fill-opacity="1" stroke="#000000" stroke-opacity="1" stroke-width="0"/>
<circle clip-path="url(#clip272)" cx="2607.97" cy="517.469" r="21" fill="#ee3377" fill-rule="evenodd" fill-opacity="1" stroke="#000000" stroke-opacity="1" stroke-width="0"/>
<circle clip-path="url(#clip272)" cx="1392.76" cy="821.861" r="21" fill="#ee3377" fill-rule="evenodd" fill-opacity="1" stroke="#000000" stroke-opacity="1" stroke-width="0"/>
<circle clip-path="url(#clip272)" cx="581.601" cy="558.211" r="21" fill="#ee3377" fill-rule="evenodd" fill-opacity="1" stroke="#000000" stroke-opacity="1" stroke-width="0"/>
<circle clip-path="url(#clip272)" cx="2004.31" cy="171.982" r="21" fill="#ee3377" fill-rule="evenodd" fill-opacity="1" stroke="#000000" stroke-opacity="1" stroke-width="0"/>
<circle clip-path="url(#clip272)" cx="2348.36" cy="227.803" r="21" fill="#ee3377" fill-rule="evenodd" fill-opacity="1" stroke="#000000" stroke-opacity="1" stroke-width="0"/>
<circle clip-path="url(#clip272)" cx="972.586" cy="1005.75" r="21" fill="#ee3377" fill-rule="evenodd" fill-opacity="1" stroke="#000000" stroke-opacity="1" stroke-width="0"/>
<circle clip-path="url(#clip272)" cx="1878.76" cy="301.411" r="21" fill="#ee3377" fill-rule="evenodd" fill-opacity="1" stroke="#000000" stroke-opacity="1" stroke-width="0"/>
<circle clip-path="url(#clip272)" cx="1735.42" cy="464.981" r="21" fill="#ee3377" fill-rule="evenodd" fill-opacity="1" stroke="#000000" stroke-opacity="1" stroke-width="0"/>
<circle clip-path="url(#clip272)" cx="1141.22" cy="1006.99" r="21" fill="#ee3377" fill-rule="evenodd" fill-opacity="1" stroke="#000000" stroke-opacity="1" stroke-width="0"/>
<circle clip-path="url(#clip272)" cx="2579.6" cy="420.854" r="21" fill="#ee3377" fill-rule="evenodd" fill-opacity="1" stroke="#000000" stroke-opacity="1" stroke-width="0"/>
<circle clip-path="url(#clip272)" cx="1760.45" cy="373.08" r="21" fill="#ee3377" fill-rule="evenodd" fill-opacity="1" stroke="#000000" stroke-opacity="1" stroke-width="0"/>
<circle clip-path="url(#clip272)" cx="2556.03" cy="423.927" r="21" fill="#ee3377" fill-rule="evenodd" fill-opacity="1" stroke="#000000" stroke-opacity="1" stroke-width="0"/>
<circle clip-path="url(#clip272)" cx="2490.18" cy="398.273" r="21" fill="#ee3377" fill-rule="evenodd" fill-opacity="1" stroke="#000000" stroke-opacity="1" stroke-width="0"/>
<circle clip-path="url(#clip272)" cx="817.077" cy="906.126" r="21" fill="#ee3377" fill-rule="evenodd" fill-opacity="1" stroke="#000000" stroke-opacity="1" stroke-width="0"/>
<circle clip-path="url(#clip272)" cx="2167.65" cy="209.475" r="21" fill="#ee3377" fill-rule="evenodd" fill-opacity="1" stroke="#000000" stroke-opacity="1" stroke-width="0"/>
<circle clip-path="url(#clip272)" cx="2480.85" cy="407.521" r="21" fill="#ee3377" fill-rule="evenodd" fill-opacity="1" stroke="#000000" stroke-opacity="1" stroke-width="0"/>
<circle clip-path="url(#clip272)" cx="1975.2" cy="272.228" r="21" fill="#ee3377" fill-rule="evenodd" fill-opacity="1" stroke="#000000" stroke-opacity="1" stroke-width="0"/>
<circle clip-path="url(#clip272)" cx="1730.2" cy="414.681" r="21" fill="#ee3377" fill-rule="evenodd" fill-opacity="1" stroke="#000000" stroke-opacity="1" stroke-width="0"/>
<circle clip-path="url(#clip272)" cx="2237.4" cy="77.1752" r="21" fill="#ee3377" fill-rule="evenodd" fill-opacity="1" stroke="#000000" stroke-opacity="1" stroke-width="0"/>
<circle clip-path="url(#clip272)" cx="963.226" cy="1018.28" r="21" fill="#ee3377" fill-rule="evenodd" fill-opacity="1" stroke="#000000" stroke-opacity="1" stroke-width="0"/>
<circle clip-path="url(#clip272)" cx="1759.53" cy="390.607" r="21" fill="#ee3377" fill-rule="evenodd" fill-opacity="1" stroke="#000000" stroke-opacity="1" stroke-width="0"/>
<circle clip-path="url(#clip272)" cx="1078.64" cy="956.712" r="21" fill="#ee3377" fill-rule="evenodd" fill-opacity="1" stroke="#000000" stroke-opacity="1" stroke-width="0"/>
<circle clip-path="url(#clip272)" cx="1436.14" cy="736.79" r="21" fill="#ee3377" fill-rule="evenodd" fill-opacity="1" stroke="#000000" stroke-opacity="1" stroke-width="0"/>
<circle clip-path="url(#clip272)" cx="2618.71" cy="433.214" r="21" fill="#ee3377" fill-rule="evenodd" fill-opacity="1" stroke="#000000" stroke-opacity="1" stroke-width="0"/>
<circle clip-path="url(#clip272)" cx="1242.83" cy="916.503" r="21" fill="#ee3377" fill-rule="evenodd" fill-opacity="1" stroke="#000000" stroke-opacity="1" stroke-width="0"/>
<circle clip-path="url(#clip272)" cx="1053.74" cy="1056.23" r="21" fill="#ee3377" fill-rule="evenodd" fill-opacity="1" stroke="#000000" stroke-opacity="1" stroke-width="0"/>
<circle clip-path="url(#clip272)" cx="1980.46" cy="217.35" r="21" fill="#ee3377" fill-rule="evenodd" fill-opacity="1" stroke="#000000" stroke-opacity="1" stroke-width="0"/>
<circle clip-path="url(#clip272)" cx="2435.57" cy="296.9" r="21" fill="#ee3377" fill-rule="evenodd" fill-opacity="1" stroke="#000000" stroke-opacity="1" stroke-width="0"/>
<circle clip-path="url(#clip272)" cx="2598.47" cy="494.752" r="21" fill="#ee3377" fill-rule="evenodd" fill-opacity="1" stroke="#000000" stroke-opacity="1" stroke-width="0"/>
<circle clip-path="url(#clip272)" cx="562.591" cy="528.15" r="21" fill="#ee3377" fill-rule="evenodd" fill-opacity="1" stroke="#000000" stroke-opacity="1" stroke-width="0"/>
<circle clip-path="url(#clip272)" cx="2442.57" cy="277.24" r="21" fill="#ee3377" fill-rule="evenodd" fill-opacity="1" stroke="#000000" stroke-opacity="1" stroke-width="0"/>
<circle clip-path="url(#clip272)" cx="1636.92" cy="530.4" r="21" fill="#ee3377" fill-rule="evenodd" fill-opacity="1" stroke="#000000" stroke-opacity="1" stroke-width="0"/>
<circle clip-path="url(#clip272)" cx="2328.57" cy="262.628" r="21" fill="#ee3377" fill-rule="evenodd" fill-opacity="1" stroke="#000000" stroke-opacity="1" stroke-width="0"/>
<circle clip-path="url(#clip272)" cx="1783.3" cy="381.05" r="21" fill="#ee3377" fill-rule="evenodd" fill-opacity="1" stroke="#000000" stroke-opacity="1" stroke-width="0"/>
<circle clip-path="url(#clip272)" cx="781.812" cy="831.386" r="21" fill="#ee3377" fill-rule="evenodd" fill-opacity="1" stroke="#000000" stroke-opacity="1" stroke-width="0"/>
<circle clip-path="url(#clip272)" cx="2019.55" cy="113.952" r="21" fill="#ee3377" fill-rule="evenodd" fill-opacity="1" stroke="#000000" stroke-opacity="1" stroke-width="0"/>
<circle clip-path="url(#clip272)" cx="1238.73" cy="1041.52" r="21" fill="#ee3377" fill-rule="evenodd" fill-opacity="1" stroke="#000000" stroke-opacity="1" stroke-width="0"/>
<circle clip-path="url(#clip272)" cx="1251.07" cy="934.493" r="21" fill="#ee3377" fill-rule="evenodd" fill-opacity="1" stroke="#000000" stroke-opacity="1" stroke-width="0"/>
<circle clip-path="url(#clip272)" cx="1986.42" cy="205.518" r="21" fill="#ee3377" fill-rule="evenodd" fill-opacity="1" stroke="#000000" stroke-opacity="1" stroke-width="0"/>
<circle clip-path="url(#clip272)" cx="2014.02" cy="189.742" r="21" fill="#ee3377" fill-rule="evenodd" fill-opacity="1" stroke="#000000" stroke-opacity="1" stroke-width="0"/>
<circle clip-path="url(#clip272)" cx="2565.29" cy="360.652" r="21" fill="#ee3377" fill-rule="evenodd" fill-opacity="1" stroke="#000000" stroke-opacity="1" stroke-width="0"/>
<circle clip-path="url(#clip272)" cx="1970.28" cy="165.145" r="21" fill="#ee3377" fill-rule="evenodd" fill-opacity="1" stroke="#000000" stroke-opacity="1" stroke-width="0"/>
<circle clip-path="url(#clip272)" cx="1826.36" cy="385.153" r="21" fill="#ee3377" fill-rule="evenodd" fill-opacity="1" stroke="#000000" stroke-opacity="1" stroke-width="0"/>
<circle clip-path="url(#clip272)" cx="2456.65" cy="378.442" r="21" fill="#ee3377" fill-rule="evenodd" fill-opacity="1" stroke="#000000" stroke-opacity="1" stroke-width="0"/>
<circle clip-path="url(#clip272)" cx="839.149" cy="863.965" r="21" fill="#ee3377" fill-rule="evenodd" fill-opacity="1" stroke="#000000" stroke-opacity="1" stroke-width="0"/>
<circle clip-path="url(#clip272)" cx="554.313" cy="565.63" r="21" fill="#ee3377" fill-rule="evenodd" fill-opacity="1" stroke="#000000" stroke-opacity="1" stroke-width="0"/>
<circle clip-path="url(#clip272)" cx="1396.81" cy="749.679" r="21" fill="#ee3377" fill-rule="evenodd" fill-opacity="1" stroke="#000000" stroke-opacity="1" stroke-width="0"/>
<circle clip-path="url(#clip272)" cx="1399.86" cy="840.308" r="21" fill="#ee3377" fill-rule="evenodd" fill-opacity="1" stroke="#000000" stroke-opacity="1" stroke-width="0"/>
<circle clip-path="url(#clip272)" cx="2342.15" cy="261.57" r="21" fill="#ee3377" fill-rule="evenodd" fill-opacity="1" stroke="#000000" stroke-opacity="1" stroke-width="0"/>
<circle clip-path="url(#clip272)" cx="2298.53" cy="264.825" r="21" fill="#ee3377" fill-rule="evenodd" fill-opacity="1" stroke="#000000" stroke-opacity="1" stroke-width="0"/>
<circle clip-path="url(#clip272)" cx="2057.4" cy="130.554" r="21" fill="#ee3377" fill-rule="evenodd" fill-opacity="1" stroke="#000000" stroke-opacity="1" stroke-width="0"/>
<circle clip-path="url(#clip272)" cx="1055.54" cy="1047.89" r="21" fill="#ee3377" fill-rule="evenodd" fill-opacity="1" stroke="#000000" stroke-opacity="1" stroke-width="0"/>
<circle clip-path="url(#clip272)" cx="1938.53" cy="221.807" r="21" fill="#ee3377" fill-rule="evenodd" fill-opacity="1" stroke="#000000" stroke-opacity="1" stroke-width="0"/>
<circle clip-path="url(#clip272)" cx="909.928" cy="875.224" r="21" fill="#ee3377" fill-rule="evenodd" fill-opacity="1" stroke="#000000" stroke-opacity="1" stroke-width="0"/>
<circle clip-path="url(#clip272)" cx="1668.37" cy="635.032" r="21" fill="#ee3377" fill-rule="evenodd" fill-opacity="1" stroke="#000000" stroke-opacity="1" stroke-width="0"/>
<circle clip-path="url(#clip272)" cx="2205.74" cy="145.672" r="21" fill="#ee3377" fill-rule="evenodd" fill-opacity="1" stroke="#000000" stroke-opacity="1" stroke-width="0"/>
<circle clip-path="url(#clip272)" cx="1208.6" cy="1074.88" r="21" fill="#ee3377" fill-rule="evenodd" fill-opacity="1" stroke="#000000" stroke-opacity="1" stroke-width="0"/>
<circle clip-path="url(#clip272)" cx="2284.55" cy="192.557" r="21" fill="#ee3377" fill-rule="evenodd" fill-opacity="1" stroke="#000000" stroke-opacity="1" stroke-width="0"/>
<circle clip-path="url(#clip272)" cx="1377.16" cy="939.855" r="21" fill="#ee3377" fill-rule="evenodd" fill-opacity="1" stroke="#000000" stroke-opacity="1" stroke-width="0"/>
<circle clip-path="url(#clip272)" cx="1814.01" cy="396.133" r="21" fill="#ee3377" fill-rule="evenodd" fill-opacity="1" stroke="#000000" stroke-opacity="1" stroke-width="0"/>
<circle clip-path="url(#clip272)" cx="1806.66" cy="351.053" r="21" fill="#ee3377" fill-rule="evenodd" fill-opacity="1" stroke="#000000" stroke-opacity="1" stroke-width="0"/>
<circle clip-path="url(#clip272)" cx="2264.49" cy="171.379" r="21" fill="#ee3377" fill-rule="evenodd" fill-opacity="1" stroke="#000000" stroke-opacity="1" stroke-width="0"/>
<circle clip-path="url(#clip272)" cx="1447.25" cy="797.234" r="21" fill="#ee3377" fill-rule="evenodd" fill-opacity="1" stroke="#000000" stroke-opacity="1" stroke-width="0"/>
<circle clip-path="url(#clip272)" cx="1171.39" cy="959.29" r="21" fill="#ee3377" fill-rule="evenodd" fill-opacity="1" stroke="#000000" stroke-opacity="1" stroke-width="0"/>
<circle clip-path="url(#clip272)" cx="1329.82" cy="884.309" r="21" fill="#ee3377" fill-rule="evenodd" fill-opacity="1" stroke="#000000" stroke-opacity="1" stroke-width="0"/>
<circle clip-path="url(#clip272)" cx="1189.07" cy="895.381" r="21" fill="#ee3377" fill-rule="evenodd" fill-opacity="1" stroke="#000000" stroke-opacity="1" stroke-width="0"/>
<circle clip-path="url(#clip272)" cx="2179.36" cy="128.779" r="21" fill="#ee3377" fill-rule="evenodd" fill-opacity="1" stroke="#000000" stroke-opacity="1" stroke-width="0"/>
<circle clip-path="url(#clip272)" cx="1999.71" cy="140.709" r="21" fill="#ee3377" fill-rule="evenodd" fill-opacity="1" stroke="#000000" stroke-opacity="1" stroke-width="0"/>
<circle clip-path="url(#clip272)" cx="1481.12" cy="700.608" r="21" fill="#ee3377" fill-rule="evenodd" fill-opacity="1" stroke="#000000" stroke-opacity="1" stroke-width="0"/>
<circle clip-path="url(#clip272)" cx="1237.99" cy="966.326" r="21" fill="#ee3377" fill-rule="evenodd" fill-opacity="1" stroke="#000000" stroke-opacity="1" stroke-width="0"/>
<circle clip-path="url(#clip272)" cx="2299.03" cy="183.966" r="21" fill="#ee3377" fill-rule="evenodd" fill-opacity="1" stroke="#000000" stroke-opacity="1" stroke-width="0"/>
<circle clip-path="url(#clip272)" cx="1087.29" cy="924.464" r="21" fill="#ee3377" fill-rule="evenodd" fill-opacity="1" stroke="#000000" stroke-opacity="1" stroke-width="0"/>
<circle clip-path="url(#clip272)" cx="1421.76" cy="823.821" r="21" fill="#ee3377" fill-rule="evenodd" fill-opacity="1" stroke="#000000" stroke-opacity="1" stroke-width="0"/>
<circle clip-path="url(#clip272)" cx="2012.39" cy="142.333" r="21" fill="#ee3377" fill-rule="evenodd" fill-opacity="1" stroke="#000000" stroke-opacity="1" stroke-width="0"/>
<circle clip-path="url(#clip272)" cx="944.257" cy="905.802" r="21" fill="#ee3377" fill-rule="evenodd" fill-opacity="1" stroke="#000000" stroke-opacity="1" stroke-width="0"/>
<circle clip-path="url(#clip272)" cx="909.798" cy="932.762" r="21" fill="#ee3377" fill-rule="evenodd" fill-opacity="1" stroke="#000000" stroke-opacity="1" stroke-width="0"/>
<circle clip-path="url(#clip272)" cx="2504.17" cy="281.625" r="21" fill="#ee3377" fill-rule="evenodd" fill-opacity="1" stroke="#000000" stroke-opacity="1" stroke-width="0"/>
<circle clip-path="url(#clip272)" cx="819.34" cy="868.311" r="21" fill="#ee3377" fill-rule="evenodd" fill-opacity="1" stroke="#000000" stroke-opacity="1" stroke-width="0"/>
<circle clip-path="url(#clip272)" cx="2042.49" cy="211.726" r="21" fill="#ee3377" fill-rule="evenodd" fill-opacity="1" stroke="#000000" stroke-opacity="1" stroke-width="0"/>
<circle clip-path="url(#clip272)" cx="1385.6" cy="787.241" r="21" fill="#ee3377" fill-rule="evenodd" fill-opacity="1" stroke="#000000" stroke-opacity="1" stroke-width="0"/>
<circle clip-path="url(#clip272)" cx="605.495" cy="631.872" r="21" fill="#ee3377" fill-rule="evenodd" fill-opacity="1" stroke="#000000" stroke-opacity="1" stroke-width="0"/>
<circle clip-path="url(#clip272)" cx="2423.2" cy="174.314" r="21" fill="#ee3377" fill-rule="evenodd" fill-opacity="1" stroke="#000000" stroke-opacity="1" stroke-width="0"/>
<circle clip-path="url(#clip272)" cx="2144.66" cy="113.768" r="21" fill="#ee3377" fill-rule="evenodd" fill-opacity="1" stroke="#000000" stroke-opacity="1" stroke-width="0"/>
<circle clip-path="url(#clip272)" cx="1181.05" cy="919.197" r="21" fill="#ee3377" fill-rule="evenodd" fill-opacity="1" stroke="#000000" stroke-opacity="1" stroke-width="0"/>
<path clip-path="url(#clip270)" d="
M2276.12 1069.56 L2938.36 1069.56 L2938.36 827.638 L2276.12 827.638  Z
  " fill="#ffffff" fill-rule="evenodd" fill-opacity="0.9"/>
<polyline clip-path="url(#clip270)" style="stroke:#222255; stroke-width:4; stroke-opacity:0.1; fill:none" points="
  2276.12,1069.56 2938.36,1069.56 2938.36,827.638 2276.12,827.638 2276.12,1069.56 
  "/>
<polyline clip-path="url(#clip270)" style="stroke:#ee7733; stroke-width:4; stroke-opacity:1; fill:none" points="
  2307.59,888.118 2496.39,888.118 
  "/>
<path clip-path="url(#clip270)" d="M 0 0 M2548.2 884.449 Q2549.8 881.579 2552.02 880.213 Q2554.24 878.847 2557.25 878.847 Q2561.3 878.847 2563.5 881.695 Q2565.7 884.519 2565.7 889.75 L2565.7 905.398 L2561.42 905.398 L2561.42 889.889 Q2561.42 886.162 2560.1 884.357 Q2558.78 882.551 2556.07 882.551 Q2552.76 882.551 2550.84 884.75 Q2548.92 886.949 2548.92 890.746 L2548.92 905.398 L2544.64 905.398 L2544.64 889.889 Q2544.64 886.139 2543.32 884.357 Q2542 882.551 2539.24 882.551 Q2535.98 882.551 2534.06 884.773 Q2532.14 886.972 2532.14 890.746 L2532.14 905.398 L2527.85 905.398 L2527.85 879.472 L2532.14 879.472 L2532.14 883.5 Q2533.59 881.116 2535.63 879.982 Q2537.67 878.847 2540.47 878.847 Q2543.29 878.847 2545.26 880.283 Q2547.25 881.718 2548.2 884.449 Z" fill="#000000" fill-rule="evenodd" fill-opacity="1" /><path clip-path="url(#clip270)" d="M 0 0 M2584.24 882.459 Q2580.82 882.459 2578.83 885.144 Q2576.84 887.806 2576.84 892.459 Q2576.84 897.111 2578.8 899.796 Q2580.79 902.458 2584.24 902.458 Q2587.65 902.458 2589.64 899.773 Q2591.63 897.088 2591.63 892.459 Q2591.63 887.852 2589.64 885.167 Q2587.65 882.459 2584.24 882.459 M2584.24 878.847 Q2589.8 878.847 2592.97 882.459 Q2596.14 886.07 2596.14 892.459 Q2596.14 898.824 2592.97 902.458 Q2589.8 906.07 2584.24 906.07 Q2578.66 906.07 2575.49 902.458 Q2572.34 898.824 2572.34 892.459 Q2572.34 886.07 2575.49 882.459 Q2578.66 878.847 2584.24 878.847 Z" fill="#000000" fill-rule="evenodd" fill-opacity="1" /><path clip-path="url(#clip270)" d="M 0 0 M2620.26 883.408 L2620.26 869.38 L2624.52 869.38 L2624.52 905.398 L2620.26 905.398 L2620.26 901.509 Q2618.92 903.824 2616.86 904.958 Q2614.82 906.07 2611.95 906.07 Q2607.25 906.07 2604.29 902.32 Q2601.35 898.57 2601.35 892.459 Q2601.35 886.347 2604.29 882.597 Q2607.25 878.847 2611.95 878.847 Q2614.82 878.847 2616.86 879.982 Q2618.92 881.093 2620.26 883.408 M2605.75 892.459 Q2605.75 897.158 2607.67 899.843 Q2609.61 902.505 2612.99 902.505 Q2616.37 902.505 2618.32 899.843 Q2620.26 897.158 2620.26 892.459 Q2620.26 887.759 2618.32 885.097 Q2616.37 882.412 2612.99 882.412 Q2609.61 882.412 2607.67 885.097 Q2605.75 887.759 2605.75 892.459 Z" fill="#000000" fill-rule="evenodd" fill-opacity="1" /><path clip-path="url(#clip270)" d="M 0 0 M2655.47 891.371 L2655.47 893.454 L2635.89 893.454 Q2636.16 897.852 2638.52 900.167 Q2640.91 902.458 2645.14 902.458 Q2647.6 902.458 2649.89 901.857 Q2652.21 901.255 2654.47 900.051 L2654.47 904.079 Q2652.18 905.051 2649.77 905.56 Q2647.37 906.07 2644.89 906.07 Q2638.69 906.07 2635.05 902.458 Q2631.44 898.847 2631.44 892.69 Q2631.44 886.324 2634.87 882.597 Q2638.32 878.847 2644.15 878.847 Q2649.38 878.847 2652.41 882.227 Q2655.47 885.584 2655.47 891.371 M2651.21 890.121 Q2651.16 886.625 2649.24 884.542 Q2647.34 882.459 2644.2 882.459 Q2640.63 882.459 2638.48 884.472 Q2636.35 886.486 2636.02 890.144 L2651.21 890.121 Z" fill="#000000" fill-rule="evenodd" fill-opacity="1" /><path clip-path="url(#clip270)" d="M 0 0 M2662.46 869.38 L2666.72 869.38 L2666.72 905.398 L2662.46 905.398 L2662.46 869.38 Z" fill="#000000" fill-rule="evenodd" fill-opacity="1" /><polyline clip-path="url(#clip270)" style="stroke:#0077bb; stroke-width:4; stroke-opacity:1; fill:none" points="
  2307.59,948.598 2496.39,948.598 
  "/>
<path clip-path="url(#clip270)" d="M 0 0 M2535.26 932.591 L2535.26 939.952 L2544.03 939.952 L2544.03 943.263 L2535.26 943.263 L2535.26 957.337 Q2535.26 960.508 2536.12 961.411 Q2537 962.313 2539.66 962.313 L2544.03 962.313 L2544.03 965.878 L2539.66 965.878 Q2534.73 965.878 2532.85 964.05 Q2530.98 962.198 2530.98 957.337 L2530.98 943.263 L2527.85 943.263 L2527.85 939.952 L2530.98 939.952 L2530.98 932.591 L2535.26 932.591 Z" fill="#000000" fill-rule="evenodd" fill-opacity="1" /><path clip-path="url(#clip270)" d="M 0 0 M2561.42 952.846 Q2556.26 952.846 2554.27 954.026 Q2552.28 955.207 2552.28 958.054 Q2552.28 960.323 2553.76 961.665 Q2555.26 962.985 2557.83 962.985 Q2561.37 962.985 2563.5 960.485 Q2565.65 957.962 2565.65 953.795 L2565.65 952.846 L2561.42 952.846 M2569.91 951.087 L2569.91 965.878 L2565.65 965.878 L2565.65 961.943 Q2564.2 964.304 2562.02 965.438 Q2559.84 966.55 2556.7 966.55 Q2552.71 966.55 2550.35 964.327 Q2548.02 962.082 2548.02 958.332 Q2548.02 953.957 2550.93 951.735 Q2553.87 949.513 2559.68 949.513 L2565.65 949.513 L2565.65 949.096 Q2565.65 946.156 2563.71 944.559 Q2561.79 942.939 2558.29 942.939 Q2556.07 942.939 2553.96 943.471 Q2551.86 944.003 2549.91 945.068 L2549.91 941.133 Q2552.25 940.23 2554.45 939.79 Q2556.65 939.327 2558.73 939.327 Q2564.36 939.327 2567.14 942.244 Q2569.91 945.161 2569.91 951.087 Z" fill="#000000" fill-rule="evenodd" fill-opacity="1" /><path clip-path="url(#clip270)" d="M 0 0 M2593.71 943.934 Q2592.99 943.517 2592.14 943.332 Q2591.3 943.124 2590.28 943.124 Q2586.67 943.124 2584.73 945.485 Q2582.81 947.823 2582.81 952.221 L2582.81 965.878 L2578.52 965.878 L2578.52 939.952 L2582.81 939.952 L2582.81 943.98 Q2584.15 941.619 2586.3 940.485 Q2588.46 939.327 2591.53 939.327 Q2591.97 939.327 2592.51 939.397 Q2593.04 939.443 2593.69 939.559 L2593.71 943.934 Z" fill="#000000" fill-rule="evenodd" fill-opacity="1" /><path clip-path="url(#clip270)" d="M 0 0 M2614.4 952.614 Q2614.4 947.985 2612.48 945.439 Q2610.58 942.892 2607.14 942.892 Q2603.71 942.892 2601.79 945.439 Q2599.89 947.985 2599.89 952.614 Q2599.89 957.221 2601.79 959.767 Q2603.71 962.313 2607.14 962.313 Q2610.58 962.313 2612.48 959.767 Q2614.4 957.221 2614.4 952.614 M2618.66 962.661 Q2618.66 969.281 2615.72 972.499 Q2612.78 975.739 2606.72 975.739 Q2604.47 975.739 2602.48 975.392 Q2600.49 975.068 2598.62 974.374 L2598.62 970.23 Q2600.49 971.249 2602.32 971.735 Q2604.15 972.221 2606.05 972.221 Q2610.24 972.221 2612.32 970.022 Q2614.4 967.846 2614.4 963.425 L2614.4 961.318 Q2613.08 963.61 2611.02 964.744 Q2608.96 965.878 2606.09 965.878 Q2601.33 965.878 2598.41 962.244 Q2595.49 958.61 2595.49 952.614 Q2595.49 946.596 2598.41 942.962 Q2601.33 939.327 2606.09 939.327 Q2608.96 939.327 2611.02 940.462 Q2613.08 941.596 2614.4 943.888 L2614.4 939.952 L2618.66 939.952 L2618.66 962.661 Z" fill="#000000" fill-rule="evenodd" fill-opacity="1" /><path clip-path="url(#clip270)" d="M 0 0 M2649.61 951.851 L2649.61 953.934 L2630.03 953.934 Q2630.31 958.332 2632.67 960.647 Q2635.05 962.938 2639.29 962.938 Q2641.74 962.938 2644.03 962.337 Q2646.35 961.735 2648.62 960.531 L2648.62 964.559 Q2646.33 965.531 2643.92 966.04 Q2641.51 966.55 2639.03 966.55 Q2632.83 966.55 2629.2 962.938 Q2625.58 959.327 2625.58 953.17 Q2625.58 946.804 2629.01 943.077 Q2632.46 939.327 2638.29 939.327 Q2643.52 939.327 2646.56 942.707 Q2649.61 946.064 2649.61 951.851 M2645.35 950.601 Q2645.31 947.105 2643.39 945.022 Q2641.49 942.939 2638.34 942.939 Q2634.77 942.939 2632.62 944.952 Q2630.49 946.966 2630.17 950.624 L2645.35 950.601 Z" fill="#000000" fill-rule="evenodd" fill-opacity="1" /><path clip-path="url(#clip270)" d="M 0 0 M2660.82 932.591 L2660.82 939.952 L2669.59 939.952 L2669.59 943.263 L2660.82 943.263 L2660.82 957.337 Q2660.82 960.508 2661.67 961.411 Q2662.55 962.313 2665.21 962.313 L2669.59 962.313 L2669.59 965.878 L2665.21 965.878 Q2660.28 965.878 2658.41 964.05 Q2656.53 962.198 2656.53 957.337 L2656.53 943.263 L2653.41 943.263 L2653.41 939.952 L2656.53 939.952 L2656.53 932.591 L2660.82 932.591 Z" fill="#000000" fill-rule="evenodd" fill-opacity="1" /><path clip-path="url(#clip270)" d="M 0 0 M2703.39 929.86 L2703.39 933.402 L2699.31 933.402 Q2697.02 933.402 2696.12 934.328 Q2695.24 935.253 2695.24 937.661 L2695.24 939.952 L2702.25 939.952 L2702.25 943.263 L2695.24 943.263 L2695.24 965.878 L2690.95 965.878 L2690.95 943.263 L2686.88 943.263 L2686.88 939.952 L2690.95 939.952 L2690.95 938.147 Q2690.95 933.818 2692.97 931.851 Q2694.98 929.86 2699.36 929.86 L2703.39 929.86 Z" fill="#000000" fill-rule="evenodd" fill-opacity="1" /><path clip-path="url(#clip270)" d="M 0 0 M2706.51 955.647 L2706.51 939.952 L2710.77 939.952 L2710.77 955.485 Q2710.77 959.165 2712.2 961.017 Q2713.64 962.846 2716.51 962.846 Q2719.96 962.846 2721.95 960.647 Q2723.96 958.448 2723.96 954.651 L2723.96 939.952 L2728.22 939.952 L2728.22 965.878 L2723.96 965.878 L2723.96 961.897 Q2722.41 964.258 2720.35 965.415 Q2718.32 966.55 2715.61 966.55 Q2711.14 966.55 2708.83 963.772 Q2706.51 960.994 2706.51 955.647 M2717.23 939.327 L2717.23 939.327 Z" fill="#000000" fill-rule="evenodd" fill-opacity="1" /><path clip-path="url(#clip270)" d="M 0 0 M2758.55 950.23 L2758.55 965.878 L2754.29 965.878 L2754.29 950.369 Q2754.29 946.689 2752.85 944.86 Q2751.42 943.031 2748.55 943.031 Q2745.1 943.031 2743.11 945.23 Q2741.12 947.429 2741.12 951.226 L2741.12 965.878 L2736.83 965.878 L2736.83 939.952 L2741.12 939.952 L2741.12 943.98 Q2742.64 941.642 2744.7 940.485 Q2746.79 939.327 2749.5 939.327 Q2753.96 939.327 2756.26 942.105 Q2758.55 944.86 2758.55 950.23 Z" fill="#000000" fill-rule="evenodd" fill-opacity="1" /><path clip-path="url(#clip270)" d="M 0 0 M2785.7 940.948 L2785.7 944.929 Q2783.89 943.934 2782.07 943.448 Q2780.26 942.939 2778.41 942.939 Q2774.26 942.939 2771.97 945.577 Q2769.68 948.193 2769.68 952.939 Q2769.68 957.684 2771.97 960.323 Q2774.26 962.938 2778.41 962.938 Q2780.26 962.938 2782.07 962.452 Q2783.89 961.943 2785.7 960.948 L2785.7 964.883 Q2783.92 965.716 2782 966.133 Q2780.1 966.55 2777.95 966.55 Q2772.09 966.55 2768.64 962.869 Q2765.19 959.188 2765.19 952.939 Q2765.19 946.596 2768.66 942.962 Q2772.16 939.327 2778.22 939.327 Q2780.19 939.327 2782.07 939.744 Q2783.94 940.138 2785.7 940.948 Z" fill="#000000" fill-rule="evenodd" fill-opacity="1" /><path clip-path="url(#clip270)" d="M 0 0 M2797.32 932.591 L2797.32 939.952 L2806.09 939.952 L2806.09 943.263 L2797.32 943.263 L2797.32 957.337 Q2797.32 960.508 2798.18 961.411 Q2799.06 962.313 2801.72 962.313 L2806.09 962.313 L2806.09 965.878 L2801.72 965.878 Q2796.79 965.878 2794.91 964.05 Q2793.04 962.198 2793.04 957.337 L2793.04 943.263 L2789.91 943.263 L2789.91 939.952 L2793.04 939.952 L2793.04 932.591 L2797.32 932.591 Z" fill="#000000" fill-rule="evenodd" fill-opacity="1" /><path clip-path="url(#clip270)" d="M 0 0 M2811.69 939.952 L2815.95 939.952 L2815.95 965.878 L2811.69 965.878 L2811.69 939.952 M2811.69 929.86 L2815.95 929.86 L2815.95 935.253 L2811.69 935.253 L2811.69 929.86 Z" fill="#000000" fill-rule="evenodd" fill-opacity="1" /><path clip-path="url(#clip270)" d="M 0 0 M2834.91 942.939 Q2831.49 942.939 2829.5 945.624 Q2827.51 948.286 2827.51 952.939 Q2827.51 957.591 2829.47 960.276 Q2831.46 962.938 2834.91 962.938 Q2838.32 962.938 2840.31 960.253 Q2842.3 957.568 2842.3 952.939 Q2842.3 948.332 2840.31 945.647 Q2838.32 942.939 2834.91 942.939 M2834.91 939.327 Q2840.47 939.327 2843.64 942.939 Q2846.81 946.55 2846.81 952.939 Q2846.81 959.304 2843.64 962.938 Q2840.47 966.55 2834.91 966.55 Q2829.33 966.55 2826.16 962.938 Q2823.01 959.304 2823.01 952.939 Q2823.01 946.55 2826.16 942.939 Q2829.33 939.327 2834.91 939.327 Z" fill="#000000" fill-rule="evenodd" fill-opacity="1" /><path clip-path="url(#clip270)" d="M 0 0 M2875.42 950.23 L2875.42 965.878 L2871.16 965.878 L2871.16 950.369 Q2871.16 946.689 2869.73 944.86 Q2868.29 943.031 2865.42 943.031 Q2861.97 943.031 2859.98 945.23 Q2857.99 947.429 2857.99 951.226 L2857.99 965.878 L2853.71 965.878 L2853.71 939.952 L2857.99 939.952 L2857.99 943.98 Q2859.52 941.642 2861.58 940.485 Q2863.66 939.327 2866.37 939.327 Q2870.84 939.327 2873.13 942.105 Q2875.42 944.86 2875.42 950.23 Z" fill="#000000" fill-rule="evenodd" fill-opacity="1" /><circle clip-path="url(#clip270)" cx="2401.99" cy="1009.08" r="23" fill="#ee3377" fill-rule="evenodd" fill-opacity="1" stroke="#000000" stroke-opacity="1" stroke-width="0"/>
<path clip-path="url(#clip270)" d="M 0 0 M2539.75 1003.42 Q2536.33 1003.42 2534.34 1006.1 Q2532.34 1008.77 2532.34 1013.42 Q2532.34 1018.07 2534.31 1020.76 Q2536.3 1023.42 2539.75 1023.42 Q2543.15 1023.42 2545.15 1020.73 Q2547.14 1018.05 2547.14 1013.42 Q2547.14 1008.81 2545.15 1006.13 Q2543.15 1003.42 2539.75 1003.42 M2539.75 999.807 Q2545.31 999.807 2548.48 1003.42 Q2551.65 1007.03 2551.65 1013.42 Q2551.65 1019.78 2548.48 1023.42 Q2545.31 1027.03 2539.75 1027.03 Q2534.17 1027.03 2531 1023.42 Q2527.85 1019.78 2527.85 1013.42 Q2527.85 1007.03 2531 1003.42 Q2534.17 999.807 2539.75 999.807 Z" fill="#000000" fill-rule="evenodd" fill-opacity="1" /><path clip-path="url(#clip270)" d="M 0 0 M2577.32 1013.42 Q2577.32 1008.72 2575.38 1006.06 Q2573.46 1003.37 2570.08 1003.37 Q2566.7 1003.37 2564.75 1006.06 Q2562.83 1008.72 2562.83 1013.42 Q2562.83 1018.12 2564.75 1020.8 Q2566.7 1023.46 2570.08 1023.46 Q2573.46 1023.46 2575.38 1020.8 Q2577.32 1018.12 2577.32 1013.42 M2562.83 1004.37 Q2564.17 1002.05 2566.21 1000.94 Q2568.27 999.807 2571.12 999.807 Q2575.84 999.807 2578.78 1003.56 Q2581.74 1007.31 2581.74 1013.42 Q2581.74 1019.53 2578.78 1023.28 Q2575.84 1027.03 2571.12 1027.03 Q2568.27 1027.03 2566.21 1025.92 Q2564.17 1024.78 2562.83 1022.47 L2562.83 1026.36 L2558.55 1026.36 L2558.55 990.34 L2562.83 990.34 L2562.83 1004.37 Z" fill="#000000" fill-rule="evenodd" fill-opacity="1" /><path clip-path="url(#clip270)" d="M 0 0 M2605.33 1001.2 L2605.33 1005.22 Q2603.52 1004.3 2601.58 1003.84 Q2599.64 1003.37 2597.55 1003.37 Q2594.38 1003.37 2592.78 1004.34 Q2591.21 1005.32 2591.21 1007.26 Q2591.21 1008.74 2592.34 1009.6 Q2593.48 1010.43 2596.9 1011.2 L2598.36 1011.52 Q2602.9 1012.49 2604.8 1014.27 Q2606.72 1016.03 2606.72 1019.21 Q2606.72 1022.82 2603.85 1024.92 Q2601 1027.03 2596 1027.03 Q2593.92 1027.03 2591.65 1026.61 Q2589.4 1026.22 2586.9 1025.41 L2586.9 1021.01 Q2589.27 1022.24 2591.56 1022.86 Q2593.85 1023.46 2596.09 1023.46 Q2599.1 1023.46 2600.72 1022.45 Q2602.34 1021.4 2602.34 1019.53 Q2602.34 1017.79 2601.16 1016.87 Q2600.01 1015.94 2596.05 1015.09 L2594.57 1014.74 Q2590.61 1013.9 2588.85 1012.19 Q2587.09 1010.46 2587.09 1007.45 Q2587.09 1003.79 2589.68 1001.8 Q2592.27 999.807 2597.04 999.807 Q2599.4 999.807 2601.49 1000.15 Q2603.57 1000.5 2605.33 1001.2 Z" fill="#000000" fill-rule="evenodd" fill-opacity="1" /><path clip-path="url(#clip270)" d="M 0 0 M2635.68 1012.33 L2635.68 1014.41 L2616.09 1014.41 Q2616.37 1018.81 2618.73 1021.13 Q2621.12 1023.42 2625.35 1023.42 Q2627.81 1023.42 2630.1 1022.82 Q2632.41 1022.21 2634.68 1021.01 L2634.68 1025.04 Q2632.39 1026.01 2629.98 1026.52 Q2627.58 1027.03 2625.1 1027.03 Q2618.9 1027.03 2615.26 1023.42 Q2611.65 1019.81 2611.65 1013.65 Q2611.65 1007.28 2615.08 1003.56 Q2618.52 999.807 2624.36 999.807 Q2629.59 999.807 2632.62 1003.19 Q2635.68 1006.54 2635.68 1012.33 M2631.42 1011.08 Q2631.37 1007.59 2629.45 1005.5 Q2627.55 1003.42 2624.4 1003.42 Q2620.84 1003.42 2618.69 1005.43 Q2616.56 1007.45 2616.23 1011.1 L2631.42 1011.08 Z" fill="#000000" fill-rule="evenodd" fill-opacity="1" /><path clip-path="url(#clip270)" d="M 0 0 M2657.69 1004.41 Q2656.97 1004 2656.12 1003.81 Q2655.28 1003.6 2654.27 1003.6 Q2650.65 1003.6 2648.71 1005.96 Q2646.79 1008.3 2646.79 1012.7 L2646.79 1026.36 L2642.51 1026.36 L2642.51 1000.43 L2646.79 1000.43 L2646.79 1004.46 Q2648.13 1002.1 2650.28 1000.96 Q2652.44 999.807 2655.52 999.807 Q2655.96 999.807 2656.49 999.877 Q2657.02 999.923 2657.67 1000.04 L2657.69 1004.41 Z" fill="#000000" fill-rule="evenodd" fill-opacity="1" /><path clip-path="url(#clip270)" d="M 0 0 M2659.1 1000.43 L2663.62 1000.43 L2671.72 1022.19 L2679.82 1000.43 L2684.33 1000.43 L2674.61 1026.36 L2668.83 1026.36 L2659.1 1000.43 Z" fill="#000000" fill-rule="evenodd" fill-opacity="1" /><path clip-path="url(#clip270)" d="M 0 0 M2702 1013.33 Q2696.83 1013.33 2694.84 1014.51 Q2692.85 1015.69 2692.85 1018.53 Q2692.85 1020.8 2694.33 1022.15 Q2695.84 1023.46 2698.41 1023.46 Q2701.95 1023.46 2704.08 1020.96 Q2706.23 1018.44 2706.23 1014.27 L2706.23 1013.33 L2702 1013.33 M2710.49 1011.57 L2710.49 1026.36 L2706.23 1026.36 L2706.23 1022.42 Q2704.77 1024.78 2702.6 1025.92 Q2700.42 1027.03 2697.27 1027.03 Q2693.29 1027.03 2690.93 1024.81 Q2688.59 1022.56 2688.59 1018.81 Q2688.59 1014.44 2691.51 1012.21 Q2694.45 1009.99 2700.26 1009.99 L2706.23 1009.99 L2706.23 1009.58 Q2706.23 1006.64 2704.29 1005.04 Q2702.37 1003.42 2698.87 1003.42 Q2696.65 1003.42 2694.54 1003.95 Q2692.44 1004.48 2690.49 1005.55 L2690.49 1001.61 Q2692.83 1000.71 2695.03 1000.27 Q2697.23 999.807 2699.31 999.807 Q2704.94 999.807 2707.71 1002.72 Q2710.49 1005.64 2710.49 1011.57 Z" fill="#000000" fill-rule="evenodd" fill-opacity="1" /><path clip-path="url(#clip270)" d="M 0 0 M2723.48 993.071 L2723.48 1000.43 L2732.25 1000.43 L2732.25 1003.74 L2723.48 1003.74 L2723.48 1017.82 Q2723.48 1020.99 2724.33 1021.89 Q2725.21 1022.79 2727.88 1022.79 L2732.25 1022.79 L2732.25 1026.36 L2727.88 1026.36 Q2722.95 1026.36 2721.07 1024.53 Q2719.2 1022.68 2719.2 1017.82 L2719.2 1003.74 L2716.07 1003.74 L2716.07 1000.43 L2719.2 1000.43 L2719.2 993.071 L2723.48 993.071 Z" fill="#000000" fill-rule="evenodd" fill-opacity="1" /><path clip-path="url(#clip270)" d="M 0 0 M2737.85 1000.43 L2742.11 1000.43 L2742.11 1026.36 L2737.85 1026.36 L2737.85 1000.43 M2737.85 990.34 L2742.11 990.34 L2742.11 995.733 L2737.85 995.733 L2737.85 990.34 Z" fill="#000000" fill-rule="evenodd" fill-opacity="1" /><path clip-path="url(#clip270)" d="M 0 0 M2761.07 1003.42 Q2757.64 1003.42 2755.65 1006.1 Q2753.66 1008.77 2753.66 1013.42 Q2753.66 1018.07 2755.63 1020.76 Q2757.62 1023.42 2761.07 1023.42 Q2764.47 1023.42 2766.46 1020.73 Q2768.45 1018.05 2768.45 1013.42 Q2768.45 1008.81 2766.46 1006.13 Q2764.47 1003.42 2761.07 1003.42 M2761.07 999.807 Q2766.63 999.807 2769.8 1003.42 Q2772.97 1007.03 2772.97 1013.42 Q2772.97 1019.78 2769.8 1023.42 Q2766.63 1027.03 2761.07 1027.03 Q2755.49 1027.03 2752.32 1023.42 Q2749.17 1019.78 2749.17 1013.42 Q2749.17 1007.03 2752.32 1003.42 Q2755.49 999.807 2761.07 999.807 Z" fill="#000000" fill-rule="evenodd" fill-opacity="1" /><path clip-path="url(#clip270)" d="M 0 0 M2801.58 1010.71 L2801.58 1026.36 L2797.32 1026.36 L2797.32 1010.85 Q2797.32 1007.17 2795.88 1005.34 Q2794.45 1003.51 2791.58 1003.51 Q2788.13 1003.51 2786.14 1005.71 Q2784.15 1007.91 2784.15 1011.71 L2784.15 1026.36 L2779.87 1026.36 L2779.87 1000.43 L2784.15 1000.43 L2784.15 1004.46 Q2785.68 1002.12 2787.74 1000.96 Q2789.82 999.807 2792.53 999.807 Q2797 999.807 2799.29 1002.59 Q2801.58 1005.34 2801.58 1010.71 Z" fill="#000000" fill-rule="evenodd" fill-opacity="1" /><path clip-path="url(#clip270)" d="M 0 0 M2826.6 1001.2 L2826.6 1005.22 Q2824.8 1004.3 2822.85 1003.84 Q2820.91 1003.37 2818.82 1003.37 Q2815.65 1003.37 2814.06 1004.34 Q2812.48 1005.32 2812.48 1007.26 Q2812.48 1008.74 2813.62 1009.6 Q2814.75 1010.43 2818.18 1011.2 L2819.63 1011.52 Q2824.17 1012.49 2826.07 1014.27 Q2827.99 1016.03 2827.99 1019.21 Q2827.99 1022.82 2825.12 1024.92 Q2822.27 1027.03 2817.27 1027.03 Q2815.19 1027.03 2812.92 1026.61 Q2810.68 1026.22 2808.18 1025.41 L2808.18 1021.01 Q2810.54 1022.24 2812.83 1022.86 Q2815.12 1023.46 2817.37 1023.46 Q2820.38 1023.46 2822 1022.45 Q2823.62 1021.4 2823.62 1019.53 Q2823.62 1017.79 2822.44 1016.87 Q2821.28 1015.94 2817.32 1015.09 L2815.84 1014.74 Q2811.88 1013.9 2810.12 1012.19 Q2808.36 1010.46 2808.36 1007.45 Q2808.36 1003.79 2810.95 1001.8 Q2813.55 999.807 2818.32 999.807 Q2820.68 999.807 2822.76 1000.15 Q2824.84 1000.5 2826.6 1001.2 Z" fill="#000000" fill-rule="evenodd" fill-opacity="1" /></svg>
