<?xml version="1.0" encoding="utf-8"?>
<svg xmlns="http://www.w3.org/2000/svg" xmlns:xlink="http://www.w3.org/1999/xlink" width="600" height="400" viewBox="0 0 2400 1600">
<defs>
  <clipPath id="clip650">
    <rect x="0" y="0" width="2400" height="1600"/>
  </clipPath>
</defs>
<path clip-path="url(#clip650)" d="
M0 1600 L2400 1600 L2400 0 L0 0  Z
  " fill="#ffffff" fill-rule="evenodd" fill-opacity="1"/>
<defs>
  <clipPath id="clip651">
    <rect x="480" y="0" width="1681" height="1600"/>
  </clipPath>
</defs>
<path clip-path="url(#clip650)" d="
M193.936 1486.45 L2352.76 1486.45 L2352.76 47.2441 L193.936 47.2441  Z
  " fill="#ffffff" fill-rule="evenodd" fill-opacity="1"/>
<defs>
  <clipPath id="clip652">
    <rect x="193" y="47" width="2160" height="1440"/>
  </clipPath>
</defs>
<polyline clip-path="url(#clip652)" style="stroke:#222255; stroke-width:2; stroke-opacity:0.1; fill:none" points="
  462.526,1486.45 462.526,47.2441 
  "/>
<polyline clip-path="url(#clip652)" style="stroke:#222255; stroke-width:2; stroke-opacity:0.1; fill:none" points="
  857.973,1486.45 857.973,47.2441 
  "/>
<polyline clip-path="url(#clip652)" style="stroke:#222255; stroke-width:2; stroke-opacity:0.1; fill:none" points="
  1253.42,1486.45 1253.42,47.2441 
  "/>
<polyline clip-path="url(#clip652)" style="stroke:#222255; stroke-width:2; stroke-opacity:0.1; fill:none" points="
  1648.87,1486.45 1648.87,47.2441 
  "/>
<polyline clip-path="url(#clip652)" style="stroke:#222255; stroke-width:2; stroke-opacity:0.1; fill:none" points="
  2044.31,1486.45 2044.31,47.2441 
  "/>
<polyline clip-path="url(#clip652)" style="stroke:#222255; stroke-width:2; stroke-opacity:0.05; fill:none" points="
  225.259,1486.45 225.259,47.2441 
  "/>
<polyline clip-path="url(#clip652)" style="stroke:#222255; stroke-width:2; stroke-opacity:0.05; fill:none" points="
  304.348,1486.45 304.348,47.2441 
  "/>
<polyline clip-path="url(#clip652)" style="stroke:#222255; stroke-width:2; stroke-opacity:0.05; fill:none" points="
  383.437,1486.45 383.437,47.2441 
  "/>
<polyline clip-path="url(#clip652)" style="stroke:#222255; stroke-width:2; stroke-opacity:0.05; fill:none" points="
  541.616,1486.45 541.616,47.2441 
  "/>
<polyline clip-path="url(#clip652)" style="stroke:#222255; stroke-width:2; stroke-opacity:0.05; fill:none" points="
  620.705,1486.45 620.705,47.2441 
  "/>
<polyline clip-path="url(#clip652)" style="stroke:#222255; stroke-width:2; stroke-opacity:0.05; fill:none" points="
  699.794,1486.45 699.794,47.2441 
  "/>
<polyline clip-path="url(#clip652)" style="stroke:#222255; stroke-width:2; stroke-opacity:0.05; fill:none" points="
  778.884,1486.45 778.884,47.2441 
  "/>
<polyline clip-path="url(#clip652)" style="stroke:#222255; stroke-width:2; stroke-opacity:0.05; fill:none" points="
  937.062,1486.45 937.062,47.2441 
  "/>
<polyline clip-path="url(#clip652)" style="stroke:#222255; stroke-width:2; stroke-opacity:0.05; fill:none" points="
  1016.15,1486.45 1016.15,47.2441 
  "/>
<polyline clip-path="url(#clip652)" style="stroke:#222255; stroke-width:2; stroke-opacity:0.05; fill:none" points="
  1095.24,1486.45 1095.24,47.2441 
  "/>
<polyline clip-path="url(#clip652)" style="stroke:#222255; stroke-width:2; stroke-opacity:0.05; fill:none" points="
  1174.33,1486.45 1174.33,47.2441 
  "/>
<polyline clip-path="url(#clip652)" style="stroke:#222255; stroke-width:2; stroke-opacity:0.05; fill:none" points="
  1332.51,1486.45 1332.51,47.2441 
  "/>
<polyline clip-path="url(#clip652)" style="stroke:#222255; stroke-width:2; stroke-opacity:0.05; fill:none" points="
  1411.6,1486.45 1411.6,47.2441 
  "/>
<polyline clip-path="url(#clip652)" style="stroke:#222255; stroke-width:2; stroke-opacity:0.05; fill:none" points="
  1490.69,1486.45 1490.69,47.2441 
  "/>
<polyline clip-path="url(#clip652)" style="stroke:#222255; stroke-width:2; stroke-opacity:0.05; fill:none" points="
  1569.78,1486.45 1569.78,47.2441 
  "/>
<polyline clip-path="url(#clip652)" style="stroke:#222255; stroke-width:2; stroke-opacity:0.05; fill:none" points="
  1727.96,1486.45 1727.96,47.2441 
  "/>
<polyline clip-path="url(#clip652)" style="stroke:#222255; stroke-width:2; stroke-opacity:0.05; fill:none" points="
  1807.04,1486.45 1807.04,47.2441 
  "/>
<polyline clip-path="url(#clip652)" style="stroke:#222255; stroke-width:2; stroke-opacity:0.05; fill:none" points="
  1886.13,1486.45 1886.13,47.2441 
  "/>
<polyline clip-path="url(#clip652)" style="stroke:#222255; stroke-width:2; stroke-opacity:0.05; fill:none" points="
  1965.22,1486.45 1965.22,47.2441 
  "/>
<polyline clip-path="url(#clip652)" style="stroke:#222255; stroke-width:2; stroke-opacity:0.05; fill:none" points="
  2123.4,1486.45 2123.4,47.2441 
  "/>
<polyline clip-path="url(#clip652)" style="stroke:#222255; stroke-width:2; stroke-opacity:0.05; fill:none" points="
  2202.49,1486.45 2202.49,47.2441 
  "/>
<polyline clip-path="url(#clip652)" style="stroke:#222255; stroke-width:2; stroke-opacity:0.05; fill:none" points="
  2281.58,1486.45 2281.58,47.2441 
  "/>
<polyline clip-path="url(#clip650)" style="stroke:#222255; stroke-width:4; stroke-opacity:0; fill:none" points="
  462.526,1486.45 462.526,1469.18 
  "/>
<polyline clip-path="url(#clip650)" style="stroke:#222255; stroke-width:4; stroke-opacity:0; fill:none" points="
  857.973,1486.45 857.973,1469.18 
  "/>
<polyline clip-path="url(#clip650)" style="stroke:#222255; stroke-width:4; stroke-opacity:0; fill:none" points="
  1253.42,1486.45 1253.42,1469.18 
  "/>
<polyline clip-path="url(#clip650)" style="stroke:#222255; stroke-width:4; stroke-opacity:0; fill:none" points="
  1648.87,1486.45 1648.87,1469.18 
  "/>
<polyline clip-path="url(#clip650)" style="stroke:#222255; stroke-width:4; stroke-opacity:0; fill:none" points="
  2044.31,1486.45 2044.31,1469.18 
  "/>
<polyline clip-path="url(#clip650)" style="stroke:#222255; stroke-width:4; stroke-opacity:0; fill:none" points="
  225.259,1486.45 225.259,1477.81 
  "/>
<polyline clip-path="url(#clip650)" style="stroke:#222255; stroke-width:4; stroke-opacity:0; fill:none" points="
  304.348,1486.45 304.348,1477.81 
  "/>
<polyline clip-path="url(#clip650)" style="stroke:#222255; stroke-width:4; stroke-opacity:0; fill:none" points="
  383.437,1486.45 383.437,1477.81 
  "/>
<polyline clip-path="url(#clip650)" style="stroke:#222255; stroke-width:4; stroke-opacity:0; fill:none" points="
  541.616,1486.45 541.616,1477.81 
  "/>
<polyline clip-path="url(#clip650)" style="stroke:#222255; stroke-width:4; stroke-opacity:0; fill:none" points="
  620.705,1486.45 620.705,1477.81 
  "/>
<polyline clip-path="url(#clip650)" style="stroke:#222255; stroke-width:4; stroke-opacity:0; fill:none" points="
  699.794,1486.45 699.794,1477.81 
  "/>
<polyline clip-path="url(#clip650)" style="stroke:#222255; stroke-width:4; stroke-opacity:0; fill:none" points="
  778.884,1486.45 778.884,1477.81 
  "/>
<polyline clip-path="url(#clip650)" style="stroke:#222255; stroke-width:4; stroke-opacity:0; fill:none" points="
  937.062,1486.45 937.062,1477.81 
  "/>
<polyline clip-path="url(#clip650)" style="stroke:#222255; stroke-width:4; stroke-opacity:0; fill:none" points="
  1016.15,1486.45 1016.15,1477.81 
  "/>
<polyline clip-path="url(#clip650)" style="stroke:#222255; stroke-width:4; stroke-opacity:0; fill:none" points="
  1095.24,1486.45 1095.24,1477.81 
  "/>
<polyline clip-path="url(#clip650)" style="stroke:#222255; stroke-width:4; stroke-opacity:0; fill:none" points="
  1174.33,1486.45 1174.33,1477.81 
  "/>
<polyline clip-path="url(#clip650)" style="stroke:#222255; stroke-width:4; stroke-opacity:0; fill:none" points="
  1332.51,1486.45 1332.51,1477.81 
  "/>
<polyline clip-path="url(#clip650)" style="stroke:#222255; stroke-width:4; stroke-opacity:0; fill:none" points="
  1411.6,1486.45 1411.6,1477.81 
  "/>
<polyline clip-path="url(#clip650)" style="stroke:#222255; stroke-width:4; stroke-opacity:0; fill:none" points="
  1490.69,1486.45 1490.69,1477.81 
  "/>
<polyline clip-path="url(#clip650)" style="stroke:#222255; stroke-width:4; stroke-opacity:0; fill:none" points="
  1569.78,1486.45 1569.78,1477.81 
  "/>
<polyline clip-path="url(#clip650)" style="stroke:#222255; stroke-width:4; stroke-opacity:0; fill:none" points="
  1727.96,1486.45 1727.96,1477.81 
  "/>
<polyline clip-path="url(#clip650)" style="stroke:#222255; stroke-width:4; stroke-opacity:0; fill:none" points="
  1807.04,1486.45 1807.04,1477.81 
  "/>
<polyline clip-path="url(#clip650)" style="stroke:#222255; stroke-width:4; stroke-opacity:0; fill:none" points="
  1886.13,1486.45 1886.13,1477.81 
  "/>
<polyline clip-path="url(#clip650)" style="stroke:#222255; stroke-width:4; stroke-opacity:0; fill:none" points="
  1965.22,1486.45 1965.22,1477.81 
  "/>
<polyline clip-path="url(#clip650)" style="stroke:#222255; stroke-width:4; stroke-opacity:0; fill:none" points="
  2123.4,1486.45 2123.4,1477.81 
  "/>
<polyline clip-path="url(#clip650)" style="stroke:#222255; stroke-width:4; stroke-opacity:0; fill:none" points="
  2202.49,1486.45 2202.49,1477.81 
  "/>
<polyline clip-path="url(#clip650)" style="stroke:#222255; stroke-width:4; stroke-opacity:0; fill:none" points="
  2281.58,1486.45 2281.58,1477.81 
  "/>
<path clip-path="url(#clip650)" d="M 0 0 M432.469 1530.29 L462.144 1530.29 L462.144 1534.23 L432.469 1534.23 L432.469 1530.29 Z" fill="#000000" fill-rule="evenodd" fill-opacity="1" /><path clip-path="url(#clip650)" d="M 0 0 M476.265 1543.18 L492.584 1543.18 L492.584 1547.12 L470.64 1547.12 L470.64 1543.18 Q473.302 1540.43 477.885 1535.8 Q482.492 1531.15 483.672 1529.81 Q485.917 1527.28 486.797 1525.55 Q487.7 1523.79 487.7 1522.1 Q487.7 1519.34 485.755 1517.61 Q483.834 1515.87 480.732 1515.87 Q478.533 1515.87 476.08 1516.63 Q473.649 1517.4 470.871 1518.95 L470.871 1514.23 Q473.695 1513.09 476.149 1512.51 Q478.603 1511.93 480.64 1511.93 Q486.01 1511.93 489.205 1514.62 Q492.399 1517.31 492.399 1521.8 Q492.399 1523.93 491.589 1525.85 Q490.802 1527.74 488.695 1530.34 Q488.117 1531.01 485.015 1534.23 Q481.913 1537.42 476.265 1543.18 Z" fill="#000000" fill-rule="evenodd" fill-opacity="1" /><path clip-path="url(#clip650)" d="M 0 0 M827.73 1530.29 L857.406 1530.29 L857.406 1534.23 L827.73 1534.23 L827.73 1530.29 Z" fill="#000000" fill-rule="evenodd" fill-opacity="1" /><path clip-path="url(#clip650)" d="M 0 0 M868.308 1543.18 L875.947 1543.18 L875.947 1516.82 L867.637 1518.49 L867.637 1514.23 L875.901 1512.56 L880.577 1512.56 L880.577 1543.18 L888.216 1543.18 L888.216 1547.12 L868.308 1547.12 L868.308 1543.18 Z" fill="#000000" fill-rule="evenodd" fill-opacity="1" /><path clip-path="url(#clip650)" d="M 0 0 M1253.42 1515.64 Q1249.81 1515.64 1247.98 1519.2 Q1246.17 1522.75 1246.17 1529.87 Q1246.17 1536.98 1247.98 1540.55 Q1249.81 1544.09 1253.42 1544.09 Q1257.05 1544.09 1258.86 1540.55 Q1260.69 1536.98 1260.69 1529.87 Q1260.69 1522.75 1258.86 1519.2 Q1257.05 1515.64 1253.42 1515.64 M1253.42 1511.93 Q1259.23 1511.93 1262.28 1516.54 Q1265.36 1521.12 1265.36 1529.87 Q1265.36 1538.6 1262.28 1543.21 Q1259.23 1547.79 1253.42 1547.79 Q1247.61 1547.79 1244.53 1543.21 Q1241.47 1538.6 1241.47 1529.87 Q1241.47 1521.12 1244.53 1516.54 Q1247.61 1511.93 1253.42 1511.93 Z" fill="#000000" fill-rule="evenodd" fill-opacity="1" /><path clip-path="url(#clip650)" d="M 0 0 M1639.25 1543.18 L1646.89 1543.18 L1646.89 1516.82 L1638.58 1518.49 L1638.58 1514.23 L1646.84 1512.56 L1651.52 1512.56 L1651.52 1543.18 L1659.16 1543.18 L1659.16 1547.12 L1639.25 1547.12 L1639.25 1543.18 Z" fill="#000000" fill-rule="evenodd" fill-opacity="1" /><path clip-path="url(#clip650)" d="M 0 0 M2038.96 1543.18 L2055.28 1543.18 L2055.28 1547.12 L2033.34 1547.12 L2033.34 1543.18 Q2036 1540.43 2040.59 1535.8 Q2045.19 1531.15 2046.37 1529.81 Q2048.62 1527.28 2049.5 1525.55 Q2050.4 1523.79 2050.4 1522.1 Q2050.4 1519.34 2048.46 1517.61 Q2046.53 1515.87 2043.43 1515.87 Q2041.23 1515.87 2038.78 1516.63 Q2036.35 1517.4 2033.57 1518.95 L2033.57 1514.23 Q2036.4 1513.09 2038.85 1512.51 Q2041.3 1511.93 2043.34 1511.93 Q2048.71 1511.93 2051.9 1514.62 Q2055.1 1517.31 2055.1 1521.8 Q2055.1 1523.93 2054.29 1525.85 Q2053.5 1527.74 2051.4 1530.34 Q2050.82 1531.01 2047.71 1534.23 Q2044.61 1537.42 2038.96 1543.18 Z" fill="#000000" fill-rule="evenodd" fill-opacity="1" /><polyline clip-path="url(#clip652)" style="stroke:#222255; stroke-width:2; stroke-opacity:0.1; fill:none" points="
  193.936,1483.36 2352.76,1483.36 
  "/>
<polyline clip-path="url(#clip652)" style="stroke:#222255; stroke-width:2; stroke-opacity:0.1; fill:none" points="
  193.936,1133.78 2352.76,1133.78 
  "/>
<polyline clip-path="url(#clip652)" style="stroke:#222255; stroke-width:2; stroke-opacity:0.1; fill:none" points="
  193.936,784.196 2352.76,784.196 
  "/>
<polyline clip-path="url(#clip652)" style="stroke:#222255; stroke-width:2; stroke-opacity:0.1; fill:none" points="
  193.936,434.616 2352.76,434.616 
  "/>
<polyline clip-path="url(#clip652)" style="stroke:#222255; stroke-width:2; stroke-opacity:0.1; fill:none" points="
  193.936,85.0369 2352.76,85.0369 
  "/>
<polyline clip-path="url(#clip652)" style="stroke:#222255; stroke-width:2; stroke-opacity:0.05; fill:none" points="
  193.936,1413.44 2352.76,1413.44 
  "/>
<polyline clip-path="url(#clip652)" style="stroke:#222255; stroke-width:2; stroke-opacity:0.05; fill:none" points="
  193.936,1343.52 2352.76,1343.52 
  "/>
<polyline clip-path="url(#clip652)" style="stroke:#222255; stroke-width:2; stroke-opacity:0.05; fill:none" points="
  193.936,1273.61 2352.76,1273.61 
  "/>
<polyline clip-path="url(#clip652)" style="stroke:#222255; stroke-width:2; stroke-opacity:0.05; fill:none" points="
  193.936,1203.69 2352.76,1203.69 
  "/>
<polyline clip-path="url(#clip652)" style="stroke:#222255; stroke-width:2; stroke-opacity:0.05; fill:none" points="
  193.936,1063.86 2352.76,1063.86 
  "/>
<polyline clip-path="url(#clip652)" style="stroke:#222255; stroke-width:2; stroke-opacity:0.05; fill:none" points="
  193.936,993.944 2352.76,993.944 
  "/>
<polyline clip-path="url(#clip652)" style="stroke:#222255; stroke-width:2; stroke-opacity:0.05; fill:none" points="
  193.936,924.028 2352.76,924.028 
  "/>
<polyline clip-path="url(#clip652)" style="stroke:#222255; stroke-width:2; stroke-opacity:0.05; fill:none" points="
  193.936,854.112 2352.76,854.112 
  "/>
<polyline clip-path="url(#clip652)" style="stroke:#222255; stroke-width:2; stroke-opacity:0.05; fill:none" points="
  193.936,714.28 2352.76,714.28 
  "/>
<polyline clip-path="url(#clip652)" style="stroke:#222255; stroke-width:2; stroke-opacity:0.05; fill:none" points="
  193.936,644.364 2352.76,644.364 
  "/>
<polyline clip-path="url(#clip652)" style="stroke:#222255; stroke-width:2; stroke-opacity:0.05; fill:none" points="
  193.936,574.448 2352.76,574.448 
  "/>
<polyline clip-path="url(#clip652)" style="stroke:#222255; stroke-width:2; stroke-opacity:0.05; fill:none" points="
  193.936,504.532 2352.76,504.532 
  "/>
<polyline clip-path="url(#clip652)" style="stroke:#222255; stroke-width:2; stroke-opacity:0.05; fill:none" points="
  193.936,364.701 2352.76,364.701 
  "/>
<polyline clip-path="url(#clip652)" style="stroke:#222255; stroke-width:2; stroke-opacity:0.05; fill:none" points="
  193.936,294.785 2352.76,294.785 
  "/>
<polyline clip-path="url(#clip652)" style="stroke:#222255; stroke-width:2; stroke-opacity:0.05; fill:none" points="
  193.936,224.869 2352.76,224.869 
  "/>
<polyline clip-path="url(#clip652)" style="stroke:#222255; stroke-width:2; stroke-opacity:0.05; fill:none" points="
  193.936,154.953 2352.76,154.953 
  "/>
<polyline clip-path="url(#clip650)" style="stroke:#222255; stroke-width:4; stroke-opacity:0; fill:none" points="
  193.936,1483.36 219.842,1483.36 
  "/>
<polyline clip-path="url(#clip650)" style="stroke:#222255; stroke-width:4; stroke-opacity:0; fill:none" points="
  193.936,1133.78 219.842,1133.78 
  "/>
<polyline clip-path="url(#clip650)" style="stroke:#222255; stroke-width:4; stroke-opacity:0; fill:none" points="
  193.936,784.196 219.842,784.196 
  "/>
<polyline clip-path="url(#clip650)" style="stroke:#222255; stroke-width:4; stroke-opacity:0; fill:none" points="
  193.936,434.616 219.842,434.616 
  "/>
<polyline clip-path="url(#clip650)" style="stroke:#222255; stroke-width:4; stroke-opacity:0; fill:none" points="
  193.936,85.0369 219.842,85.0369 
  "/>
<polyline clip-path="url(#clip650)" style="stroke:#222255; stroke-width:4; stroke-opacity:0; fill:none" points="
  193.936,1413.44 206.889,1413.44 
  "/>
<polyline clip-path="url(#clip650)" style="stroke:#222255; stroke-width:4; stroke-opacity:0; fill:none" points="
  193.936,1343.52 206.889,1343.52 
  "/>
<polyline clip-path="url(#clip650)" style="stroke:#222255; stroke-width:4; stroke-opacity:0; fill:none" points="
  193.936,1273.61 206.889,1273.61 
  "/>
<polyline clip-path="url(#clip650)" style="stroke:#222255; stroke-width:4; stroke-opacity:0; fill:none" points="
  193.936,1203.69 206.889,1203.69 
  "/>
<polyline clip-path="url(#clip650)" style="stroke:#222255; stroke-width:4; stroke-opacity:0; fill:none" points="
  193.936,1063.86 206.889,1063.86 
  "/>
<polyline clip-path="url(#clip650)" style="stroke:#222255; stroke-width:4; stroke-opacity:0; fill:none" points="
  193.936,993.944 206.889,993.944 
  "/>
<polyline clip-path="url(#clip650)" style="stroke:#222255; stroke-width:4; stroke-opacity:0; fill:none" points="
  193.936,924.028 206.889,924.028 
  "/>
<polyline clip-path="url(#clip650)" style="stroke:#222255; stroke-width:4; stroke-opacity:0; fill:none" points="
  193.936,854.112 206.889,854.112 
  "/>
<polyline clip-path="url(#clip650)" style="stroke:#222255; stroke-width:4; stroke-opacity:0; fill:none" points="
  193.936,714.28 206.889,714.28 
  "/>
<polyline clip-path="url(#clip650)" style="stroke:#222255; stroke-width:4; stroke-opacity:0; fill:none" points="
  193.936,644.364 206.889,644.364 
  "/>
<polyline clip-path="url(#clip650)" style="stroke:#222255; stroke-width:4; stroke-opacity:0; fill:none" points="
  193.936,574.448 206.889,574.448 
  "/>
<polyline clip-path="url(#clip650)" style="stroke:#222255; stroke-width:4; stroke-opacity:0; fill:none" points="
  193.936,504.532 206.889,504.532 
  "/>
<polyline clip-path="url(#clip650)" style="stroke:#222255; stroke-width:4; stroke-opacity:0; fill:none" points="
  193.936,364.701 206.889,364.701 
  "/>
<polyline clip-path="url(#clip650)" style="stroke:#222255; stroke-width:4; stroke-opacity:0; fill:none" points="
  193.936,294.785 206.889,294.785 
  "/>
<polyline clip-path="url(#clip650)" style="stroke:#222255; stroke-width:4; stroke-opacity:0; fill:none" points="
  193.936,224.869 206.889,224.869 
  "/>
<polyline clip-path="url(#clip650)" style="stroke:#222255; stroke-width:4; stroke-opacity:0; fill:none" points="
  193.936,154.953 206.889,154.953 
  "/>
<path clip-path="url(#clip650)" d="M 0 0 M50.9921 1483.81 L80.6679 1483.81 L80.6679 1487.74 L50.9921 1487.74 L50.9921 1483.81 Z" fill="#000000" fill-rule="evenodd" fill-opacity="1" /><path clip-path="url(#clip650)" d="M 0 0 M91.5706 1496.7 L99.2095 1496.7 L99.2095 1470.33 L90.8993 1472 L90.8993 1467.74 L99.1632 1466.08 L103.839 1466.08 L103.839 1496.7 L111.478 1496.7 L111.478 1500.64 L91.5706 1500.64 L91.5706 1496.7 Z" fill="#000000" fill-rule="evenodd" fill-opacity="1" /><path clip-path="url(#clip650)" d="M 0 0 M120.922 1494.76 L125.807 1494.76 L125.807 1500.64 L120.922 1500.64 L120.922 1494.76 Z" fill="#000000" fill-rule="evenodd" fill-opacity="1" /><path clip-path="url(#clip650)" d="M 0 0 M145.992 1469.15 Q142.381 1469.15 140.552 1472.72 Q138.746 1476.26 138.746 1483.39 Q138.746 1490.5 140.552 1494.06 Q142.381 1497.6 145.992 1497.6 Q149.626 1497.6 151.431 1494.06 Q153.26 1490.5 153.26 1483.39 Q153.26 1476.26 151.431 1472.72 Q149.626 1469.15 145.992 1469.15 M145.992 1465.45 Q151.802 1465.45 154.857 1470.06 Q157.936 1474.64 157.936 1483.39 Q157.936 1492.12 154.857 1496.72 Q151.802 1501.31 145.992 1501.31 Q140.181 1501.31 137.103 1496.72 Q134.047 1492.12 134.047 1483.39 Q134.047 1474.64 137.103 1470.06 Q140.181 1465.45 145.992 1465.45 Z" fill="#000000" fill-rule="evenodd" fill-opacity="1" /><path clip-path="url(#clip650)" d="M 0 0 M51.9875 1134.23 L81.6633 1134.23 L81.6633 1138.16 L51.9875 1138.16 L51.9875 1134.23 Z" fill="#000000" fill-rule="evenodd" fill-opacity="1" /><path clip-path="url(#clip650)" d="M 0 0 M101.756 1119.57 Q98.1447 1119.57 96.316 1123.14 Q94.5104 1126.68 94.5104 1133.81 Q94.5104 1140.92 96.316 1144.48 Q98.1447 1148.02 101.756 1148.02 Q105.39 1148.02 107.196 1144.48 Q109.024 1140.92 109.024 1133.81 Q109.024 1126.68 107.196 1123.14 Q105.39 1119.57 101.756 1119.57 M101.756 1115.87 Q107.566 1115.87 110.621 1120.48 Q113.7 1125.06 113.7 1133.81 Q113.7 1142.54 110.621 1147.14 Q107.566 1151.73 101.756 1151.73 Q95.9456 1151.73 92.8669 1147.14 Q89.8114 1142.54 89.8114 1133.81 Q89.8114 1125.06 92.8669 1120.48 Q95.9456 1115.87 101.756 1115.87 Z" fill="#000000" fill-rule="evenodd" fill-opacity="1" /><path clip-path="url(#clip650)" d="M 0 0 M121.918 1145.18 L126.802 1145.18 L126.802 1151.06 L121.918 1151.06 L121.918 1145.18 Z" fill="#000000" fill-rule="evenodd" fill-opacity="1" /><path clip-path="url(#clip650)" d="M 0 0 M137.033 1116.5 L155.39 1116.5 L155.39 1120.43 L141.316 1120.43 L141.316 1128.9 Q142.334 1128.56 143.353 1128.39 Q144.371 1128.21 145.39 1128.21 Q151.177 1128.21 154.556 1131.38 Q157.936 1134.55 157.936 1139.97 Q157.936 1145.55 154.464 1148.65 Q150.992 1151.73 144.672 1151.73 Q142.496 1151.73 140.228 1151.36 Q137.982 1150.99 135.575 1150.25 L135.575 1145.55 Q137.658 1146.68 139.881 1147.24 Q142.103 1147.79 144.58 1147.79 Q148.584 1147.79 150.922 1145.69 Q153.26 1143.58 153.26 1139.97 Q153.26 1136.36 150.922 1134.25 Q148.584 1132.14 144.58 1132.14 Q142.705 1132.14 140.83 1132.56 Q138.978 1132.98 137.033 1133.86 L137.033 1116.5 Z" fill="#000000" fill-rule="evenodd" fill-opacity="1" /><path clip-path="url(#clip650)" d="M 0 0 M100.76 769.995 Q97.1493 769.995 95.3206 773.559 Q93.515 777.101 93.515 784.231 Q93.515 791.337 95.3206 794.902 Q97.1493 798.444 100.76 798.444 Q104.395 798.444 106.2 794.902 Q108.029 791.337 108.029 784.231 Q108.029 777.101 106.2 773.559 Q104.395 769.995 100.76 769.995 M100.76 766.291 Q106.571 766.291 109.626 770.897 Q112.705 775.481 112.705 784.231 Q112.705 792.957 109.626 797.564 Q106.571 802.147 100.76 802.147 Q94.9502 802.147 91.8715 797.564 Q88.816 792.957 88.816 784.231 Q88.816 775.481 91.8715 770.897 Q94.9502 766.291 100.76 766.291 Z" fill="#000000" fill-rule="evenodd" fill-opacity="1" /><path clip-path="url(#clip650)" d="M 0 0 M120.922 795.596 L125.807 795.596 L125.807 801.476 L120.922 801.476 L120.922 795.596 Z" fill="#000000" fill-rule="evenodd" fill-opacity="1" /><path clip-path="url(#clip650)" d="M 0 0 M145.992 769.995 Q142.381 769.995 140.552 773.559 Q138.746 777.101 138.746 784.231 Q138.746 791.337 140.552 794.902 Q142.381 798.444 145.992 798.444 Q149.626 798.444 151.431 794.902 Q153.26 791.337 153.26 784.231 Q153.26 777.101 151.431 773.559 Q149.626 769.995 145.992 769.995 M145.992 766.291 Q151.802 766.291 154.857 770.897 Q157.936 775.481 157.936 784.231 Q157.936 792.957 154.857 797.564 Q151.802 802.147 145.992 802.147 Q140.181 802.147 137.103 797.564 Q134.047 792.957 134.047 784.231 Q134.047 775.481 137.103 770.897 Q140.181 766.291 145.992 766.291 Z" fill="#000000" fill-rule="evenodd" fill-opacity="1" /><path clip-path="url(#clip650)" d="M 0 0 M101.756 420.415 Q98.1447 420.415 96.316 423.98 Q94.5104 427.522 94.5104 434.651 Q94.5104 441.758 96.316 445.322 Q98.1447 448.864 101.756 448.864 Q105.39 448.864 107.196 445.322 Q109.024 441.758 109.024 434.651 Q109.024 427.522 107.196 423.98 Q105.39 420.415 101.756 420.415 M101.756 416.711 Q107.566 416.711 110.621 421.318 Q113.7 425.901 113.7 434.651 Q113.7 443.378 110.621 447.984 Q107.566 452.568 101.756 452.568 Q95.9456 452.568 92.8669 447.984 Q89.8114 443.378 89.8114 434.651 Q89.8114 425.901 92.8669 421.318 Q95.9456 416.711 101.756 416.711 Z" fill="#000000" fill-rule="evenodd" fill-opacity="1" /><path clip-path="url(#clip650)" d="M 0 0 M121.918 446.017 L126.802 446.017 L126.802 451.896 L121.918 451.896 L121.918 446.017 Z" fill="#000000" fill-rule="evenodd" fill-opacity="1" /><path clip-path="url(#clip650)" d="M 0 0 M137.033 417.336 L155.39 417.336 L155.39 421.272 L141.316 421.272 L141.316 429.744 Q142.334 429.397 143.353 429.235 Q144.371 429.049 145.39 429.049 Q151.177 429.049 154.556 432.221 Q157.936 435.392 157.936 440.809 Q157.936 446.387 154.464 449.489 Q150.992 452.568 144.672 452.568 Q142.496 452.568 140.228 452.197 Q137.982 451.827 135.575 451.086 L135.575 446.387 Q137.658 447.521 139.881 448.077 Q142.103 448.633 144.58 448.633 Q148.584 448.633 150.922 446.526 Q153.26 444.42 153.26 440.809 Q153.26 437.197 150.922 435.091 Q148.584 432.984 144.58 432.984 Q142.705 432.984 140.83 433.401 Q138.978 433.818 137.033 434.697 L137.033 417.336 Z" fill="#000000" fill-rule="evenodd" fill-opacity="1" /><path clip-path="url(#clip650)" d="M 0 0 M91.5706 98.3817 L99.2095 98.3817 L99.2095 72.0161 L90.8993 73.6828 L90.8993 69.4235 L99.1632 67.7569 L103.839 67.7569 L103.839 98.3817 L111.478 98.3817 L111.478 102.317 L91.5706 102.317 L91.5706 98.3817 Z" fill="#000000" fill-rule="evenodd" fill-opacity="1" /><path clip-path="url(#clip650)" d="M 0 0 M120.922 96.4373 L125.807 96.4373 L125.807 102.317 L120.922 102.317 L120.922 96.4373 Z" fill="#000000" fill-rule="evenodd" fill-opacity="1" /><path clip-path="url(#clip650)" d="M 0 0 M145.992 70.8356 Q142.381 70.8356 140.552 74.4004 Q138.746 77.942 138.746 85.0716 Q138.746 92.1781 140.552 95.7429 Q142.381 99.2845 145.992 99.2845 Q149.626 99.2845 151.431 95.7429 Q153.26 92.1781 153.26 85.0716 Q153.26 77.942 151.431 74.4004 Q149.626 70.8356 145.992 70.8356 M145.992 67.1319 Q151.802 67.1319 154.857 71.7384 Q157.936 76.3217 157.936 85.0716 Q157.936 93.7984 154.857 98.4049 Q151.802 102.988 145.992 102.988 Q140.181 102.988 137.103 98.4049 Q134.047 93.7984 134.047 85.0716 Q134.047 76.3217 137.103 71.7384 Q140.181 67.1319 145.992 67.1319 Z" fill="#000000" fill-rule="evenodd" fill-opacity="1" /><circle clip-path="url(#clip652)" cx="1932.12" cy="92.4253" r="21" fill="#ee3377" fill-rule="evenodd" fill-opacity="1" stroke="#000000" stroke-opacity="1" stroke-width="0"/>
<circle clip-path="url(#clip652)" cx="1910.86" cy="87.9763" r="21" fill="#ee3377" fill-rule="evenodd" fill-opacity="1" stroke="#000000" stroke-opacity="1" stroke-width="0"/>
<circle clip-path="url(#clip652)" cx="1266.17" cy="761.658" r="21" fill="#ee3377" fill-rule="evenodd" fill-opacity="1" stroke="#000000" stroke-opacity="1" stroke-width="0"/>
<circle clip-path="url(#clip652)" cx="762.601" cy="1445.72" r="21" fill="#ee3377" fill-rule="evenodd" fill-opacity="1" stroke="#000000" stroke-opacity="1" stroke-width="0"/>
<circle clip-path="url(#clip652)" cx="2291.66" cy="439.161" r="21" fill="#ee3377" fill-rule="evenodd" fill-opacity="1" stroke="#000000" stroke-opacity="1" stroke-width="0"/>
<circle clip-path="url(#clip652)" cx="255.035" cy="1188.66" r="21" fill="#ee3377" fill-rule="evenodd" fill-opacity="1" stroke="#000000" stroke-opacity="1" stroke-width="0"/>
<circle clip-path="url(#clip652)" cx="1353.61" cy="608.947" r="21" fill="#ee3377" fill-rule="evenodd" fill-opacity="1" stroke="#000000" stroke-opacity="1" stroke-width="0"/>
<circle clip-path="url(#clip652)" cx="2129.9" cy="225.771" r="21" fill="#ee3377" fill-rule="evenodd" fill-opacity="1" stroke="#000000" stroke-opacity="1" stroke-width="0"/>
<path clip-path="url(#clip650)" d="
M1740.79 216.178 L2280.8 216.178 L2280.8 95.2176 L1740.79 95.2176  Z
  " fill="#ffffff" fill-rule="evenodd" fill-opacity="0.9"/>
<polyline clip-path="url(#clip650)" style="stroke:#222255; stroke-width:4; stroke-opacity:0.1; fill:none" points="
  1740.79,216.178 2280.8,216.178 2280.8,95.2176 1740.79,95.2176 1740.79,216.178 
  "/>
<circle clip-path="url(#clip650)" cx="1836.74" cy="155.698" r="23" fill="#ee3377" fill-rule="evenodd" fill-opacity="1" stroke="#000000" stroke-opacity="1" stroke-width="0"/>
<path clip-path="url(#clip650)" d="M 0 0 M1944.58 150.038 Q1941.16 150.038 1939.17 152.723 Q1937.17 155.385 1937.17 160.038 Q1937.17 164.691 1939.14 167.376 Q1941.13 170.038 1944.58 170.038 Q1947.99 170.038 1949.98 167.353 Q1951.97 164.667 1951.97 160.038 Q1951.97 155.431 1949.98 152.746 Q1947.99 150.038 1944.58 150.038 M1944.58 146.427 Q1950.14 146.427 1953.31 150.038 Q1956.48 153.649 1956.48 160.038 Q1956.48 166.404 1953.31 170.038 Q1950.14 173.649 1944.58 173.649 Q1939 173.649 1935.83 170.038 Q1932.68 166.404 1932.68 160.038 Q1932.68 153.649 1935.83 150.038 Q1939 146.427 1944.58 146.427 Z" fill="#000000" fill-rule="evenodd" fill-opacity="1" /><path clip-path="url(#clip650)" d="M 0 0 M1982.15 160.038 Q1982.15 155.339 1980.21 152.677 Q1978.29 149.992 1974.91 149.992 Q1971.53 149.992 1969.58 152.677 Q1967.66 155.339 1967.66 160.038 Q1967.66 164.737 1969.58 167.422 Q1971.53 170.084 1974.91 170.084 Q1978.29 170.084 1980.21 167.422 Q1982.15 164.737 1982.15 160.038 M1967.66 150.987 Q1969 148.672 1971.04 147.561 Q1973.1 146.427 1975.95 146.427 Q1980.67 146.427 1983.61 150.177 Q1986.57 153.927 1986.57 160.038 Q1986.57 166.149 1983.61 169.899 Q1980.67 173.649 1975.95 173.649 Q1973.1 173.649 1971.04 172.538 Q1969 171.403 1967.66 169.089 L1967.66 172.978 L1963.38 172.978 L1963.38 136.959 L1967.66 136.959 L1967.66 150.987 Z" fill="#000000" fill-rule="evenodd" fill-opacity="1" /><path clip-path="url(#clip650)" d="M 0 0 M2010.16 147.816 L2010.16 151.843 Q2008.36 150.917 2006.41 150.455 Q2004.47 149.992 2002.38 149.992 Q1999.21 149.992 1997.61 150.964 Q1996.04 151.936 1996.04 153.88 Q1996.04 155.362 1997.17 156.218 Q1998.31 157.052 2001.73 157.816 L2003.19 158.14 Q2007.73 159.112 2009.63 160.894 Q2011.55 162.654 2011.55 165.825 Q2011.55 169.436 2008.68 171.542 Q2005.83 173.649 2000.83 173.649 Q1998.75 173.649 1996.48 173.232 Q1994.23 172.839 1991.73 172.028 L1991.73 167.63 Q1994.1 168.857 1996.39 169.482 Q1998.68 170.084 2000.92 170.084 Q2003.93 170.084 2005.55 169.066 Q2007.17 168.024 2007.17 166.149 Q2007.17 164.413 2005.99 163.487 Q2004.84 162.561 2000.88 161.704 L1999.4 161.357 Q1995.44 160.524 1993.68 158.811 Q1991.92 157.075 1991.92 154.066 Q1991.92 150.408 1994.51 148.418 Q1997.11 146.427 2001.87 146.427 Q2004.23 146.427 2006.32 146.774 Q2008.4 147.121 2010.16 147.816 Z" fill="#000000" fill-rule="evenodd" fill-opacity="1" /><path clip-path="url(#clip650)" d="M 0 0 M2040.51 158.95 L2040.51 161.033 L2020.92 161.033 Q2021.2 165.431 2023.56 167.746 Q2025.95 170.038 2030.18 170.038 Q2032.64 170.038 2034.93 169.436 Q2037.24 168.834 2039.51 167.63 L2039.51 171.658 Q2037.22 172.63 2034.81 173.14 Q2032.41 173.649 2029.93 173.649 Q2023.73 173.649 2020.09 170.038 Q2016.48 166.427 2016.48 160.269 Q2016.48 153.904 2019.91 150.177 Q2023.35 146.427 2029.19 146.427 Q2034.42 146.427 2037.45 149.806 Q2040.51 153.163 2040.51 158.95 M2036.25 157.7 Q2036.2 154.205 2034.28 152.121 Q2032.38 150.038 2029.23 150.038 Q2025.67 150.038 2023.52 152.052 Q2021.39 154.066 2021.06 157.723 L2036.25 157.7 Z" fill="#000000" fill-rule="evenodd" fill-opacity="1" /><path clip-path="url(#clip650)" d="M 0 0 M2062.52 151.033 Q2061.8 150.617 2060.95 150.431 Q2060.11 150.223 2059.1 150.223 Q2055.48 150.223 2053.54 152.584 Q2051.62 154.922 2051.62 159.32 L2051.62 172.978 L2047.34 172.978 L2047.34 147.052 L2051.62 147.052 L2051.62 151.08 Q2052.96 148.718 2055.11 147.584 Q2057.27 146.427 2060.35 146.427 Q2060.79 146.427 2061.32 146.496 Q2061.85 146.543 2062.5 146.658 L2062.52 151.033 Z" fill="#000000" fill-rule="evenodd" fill-opacity="1" /><path clip-path="url(#clip650)" d="M 0 0 M2063.93 147.052 L2068.45 147.052 L2076.55 168.811 L2084.65 147.052 L2089.16 147.052 L2079.44 172.978 L2073.66 172.978 L2063.93 147.052 Z" fill="#000000" fill-rule="evenodd" fill-opacity="1" /><path clip-path="url(#clip650)" d="M 0 0 M2106.83 159.945 Q2101.66 159.945 2099.67 161.126 Q2097.68 162.306 2097.68 165.154 Q2097.68 167.422 2099.16 168.765 Q2100.67 170.084 2103.24 170.084 Q2106.78 170.084 2108.91 167.584 Q2111.06 165.061 2111.06 160.894 L2111.06 159.945 L2106.83 159.945 M2115.32 158.186 L2115.32 172.978 L2111.06 172.978 L2111.06 169.042 Q2109.6 171.403 2107.43 172.538 Q2105.25 173.649 2102.1 173.649 Q2098.12 173.649 2095.76 171.427 Q2093.42 169.181 2093.42 165.431 Q2093.42 161.056 2096.34 158.834 Q2099.28 156.612 2105.09 156.612 L2111.06 156.612 L2111.06 156.195 Q2111.06 153.255 2109.12 151.658 Q2107.2 150.038 2103.7 150.038 Q2101.48 150.038 2099.37 150.57 Q2097.27 151.103 2095.32 152.167 L2095.32 148.232 Q2097.66 147.33 2099.86 146.89 Q2102.06 146.427 2104.14 146.427 Q2109.77 146.427 2112.54 149.343 Q2115.32 152.26 2115.32 158.186 Z" fill="#000000" fill-rule="evenodd" fill-opacity="1" /><path clip-path="url(#clip650)" d="M 0 0 M2128.31 139.691 L2128.31 147.052 L2137.08 147.052 L2137.08 150.362 L2128.31 150.362 L2128.31 164.436 Q2128.31 167.607 2129.16 168.51 Q2130.04 169.413 2132.71 169.413 L2137.08 169.413 L2137.08 172.978 L2132.71 172.978 Q2127.78 172.978 2125.9 171.149 Q2124.03 169.297 2124.03 164.436 L2124.03 150.362 L2120.9 150.362 L2120.9 147.052 L2124.03 147.052 L2124.03 139.691 L2128.31 139.691 Z" fill="#000000" fill-rule="evenodd" fill-opacity="1" /><path clip-path="url(#clip650)" d="M 0 0 M2142.68 147.052 L2146.94 147.052 L2146.94 172.978 L2142.68 172.978 L2142.68 147.052 M2142.68 136.959 L2146.94 136.959 L2146.94 142.353 L2142.68 142.353 L2142.68 136.959 Z" fill="#000000" fill-rule="evenodd" fill-opacity="1" /><path clip-path="url(#clip650)" d="M 0 0 M2165.9 150.038 Q2162.47 150.038 2160.48 152.723 Q2158.49 155.385 2158.49 160.038 Q2158.49 164.691 2160.46 167.376 Q2162.45 170.038 2165.9 170.038 Q2169.3 170.038 2171.29 167.353 Q2173.28 164.667 2173.28 160.038 Q2173.28 155.431 2171.29 152.746 Q2169.3 150.038 2165.9 150.038 M2165.9 146.427 Q2171.46 146.427 2174.63 150.038 Q2177.8 153.649 2177.8 160.038 Q2177.8 166.404 2174.63 170.038 Q2171.46 173.649 2165.9 173.649 Q2160.32 173.649 2157.15 170.038 Q2154 166.404 2154 160.038 Q2154 153.649 2157.15 150.038 Q2160.32 146.427 2165.9 146.427 Z" fill="#000000" fill-rule="evenodd" fill-opacity="1" /><path clip-path="url(#clip650)" d="M 0 0 M2206.41 157.329 L2206.41 172.978 L2202.15 172.978 L2202.15 157.468 Q2202.15 153.788 2200.72 151.959 Q2199.28 150.13 2196.41 150.13 Q2192.96 150.13 2190.97 152.33 Q2188.98 154.529 2188.98 158.325 L2188.98 172.978 L2184.7 172.978 L2184.7 147.052 L2188.98 147.052 L2188.98 151.08 Q2190.51 148.742 2192.57 147.584 Q2194.65 146.427 2197.36 146.427 Q2201.83 146.427 2204.12 149.205 Q2206.41 151.959 2206.41 157.329 Z" fill="#000000" fill-rule="evenodd" fill-opacity="1" /><path clip-path="url(#clip650)" d="M 0 0 M2231.43 147.816 L2231.43 151.843 Q2229.63 150.917 2227.68 150.455 Q2225.74 149.992 2223.65 149.992 Q2220.48 149.992 2218.89 150.964 Q2217.31 151.936 2217.31 153.88 Q2217.31 155.362 2218.45 156.218 Q2219.58 157.052 2223.01 157.816 L2224.47 158.14 Q2229 159.112 2230.9 160.894 Q2232.82 162.654 2232.82 165.825 Q2232.82 169.436 2229.95 171.542 Q2227.1 173.649 2222.1 173.649 Q2220.02 173.649 2217.75 173.232 Q2215.51 172.839 2213.01 172.028 L2213.01 167.63 Q2215.37 168.857 2217.66 169.482 Q2219.95 170.084 2222.2 170.084 Q2225.21 170.084 2226.83 169.066 Q2228.45 168.024 2228.45 166.149 Q2228.45 164.413 2227.27 163.487 Q2226.11 162.561 2222.15 161.704 L2220.67 161.357 Q2216.71 160.524 2214.95 158.811 Q2213.19 157.075 2213.19 154.066 Q2213.19 150.408 2215.78 148.418 Q2218.38 146.427 2223.15 146.427 Q2225.51 146.427 2227.59 146.774 Q2229.67 147.121 2231.43 147.816 Z" fill="#000000" fill-rule="evenodd" fill-opacity="1" /></svg>
